<?xml version="1.0" standalone="no"?>
<!DOCTYPE svg PUBLIC "-//W3C//DTD SVG 1.1//EN" "http://www.w3.org/Graphics/SVG/1.1/DTD/svg11.dtd" >
<svg xmlns="http://www.w3.org/2000/svg" xmlns:xlink="http://www.w3.org/1999/xlink" version="1.1">
<metadata>
Created by FontForge 20161003 at Mon Jul 17 02:19:44 2017
 By www-data
Typeface (c) The Monotype Corporation plc. Data (c) The Monotype Corporation plc/Type Solutions Inc. 1990-1994. All Rights Reserved
</metadata>
<defs>
<font id="CourierNewPSMT" horiz-adv-x="1229" >
  <font-face 
    font-family="Courier New"
    font-weight="400"
    font-stretch="normal"
    units-per-em="2048"
    panose-1="2 7 3 9 2 2 5 2 4 4"
    ascent="1638"
    descent="-410"
    x-height="866"
    cap-height="1170"
    bbox="-44 -615 1275 1948"
    underline-thickness="84"
    underline-position="-519"
    unicode-range="U+0020-FFFC"
  />
<missing-glyph 
d="M103 0v1280h1024v-1280h-1024zM135 32h960v1216h-960v-1216z" />
    <glyph glyph-name=".notdef" 
d="M103 0v1280h1024v-1280h-1024zM135 32h960v1216h-960v-1216z" />
    <glyph glyph-name=".null" horiz-adv-x="0" 
 />
    <glyph glyph-name="nonmarkingreturn" 
 />
    <glyph glyph-name="space" unicode=" " 
 />
    <glyph glyph-name="space" unicode="&#xa0;" 
 />
    <glyph glyph-name="exclam" unicode="!" 
d="M695 1170l-38 -678q-2 -32 -13.5 -45t-28.5 -13q-18 0 -29.5 13t-13.5 45l-37 678q-2 24 -2 35q0 34 23.5 57t58.5 23t58 -23t23 -58q0 -10 -1 -34zM595 178h39q43 0 73.5 -30.5t30.5 -73.5q0 -44 -31 -74t-73 -30h-39q-43 0 -73.5 30.5t-30.5 72.5q0 45 31 75t73 30z
" />
    <glyph glyph-name="quotedbl" unicode="&#x22;" 
d="M266 1234h266l-70 -486q-6 -38 -22 -53.5t-41 -15.5t-41 15.5t-22 53.5zM695 1234h266l-70 -486q-6 -38 -22 -53.5t-40 -15.5q-26 0 -42 15.5t-21 53.5z" />
    <glyph glyph-name="numbersign" unicode="#" 
d="M800 740l-18 -264h161q30 0 43 -11.5t13 -30.5t-13 -30.5t-43 -11.5h-167l-33 -468q-2 -30 -13.5 -42t-28.5 -12l-17 4q-25 15 -25 41v15l33 462h-190l-32 -468q-2 -30 -14 -42t-28 -12l-18 4q-25 15 -25 41l1 15l32 462h-175q-30 0 -43 11.5t-13 30.5t13 30.5t43 11.5
h181l18 264h-156q-31 0 -44 11.5t-13 30.5t13 30.5t44 11.5h162l33 468q2 29 14 41.5t28 12.5l18 -4q25 -16 25 -40l-1 -16l-32 -462h189l33 468q2 29 13.5 41.5t28.5 12.5l17 -4q26 -16 26 -40l-1 -16l-33 -462h179q30 0 43 -11.5t13 -30.5t-13 -30.5t-43 -11.5h-185z
M716 740h-189l-19 -264h190z" />
    <glyph glyph-name="dollar" unicode="$" 
d="M571 1198v106q0 31 11.5 44t30.5 13t30.5 -13t11.5 -44v-106q68 -6 112 -21.5t104 -55.5q1 25 13 37t29 12q19 0 31 -13t12 -43v-125q0 -30 -12 -43t-31 -13q-16 0 -27 10.5t-15 35.5q-6 47 -62 85q-82 54 -193 54q-113 0 -186.5 -66t-73.5 -149t65 -127
q49 -34 206.5 -63.5t213.5 -55.5q80 -35 119.5 -95t39.5 -145q0 -114 -89 -200.5t-256 -103.5v-247q0 -31 -11.5 -44t-30.5 -13t-30.5 13t-11.5 44v247q-154 10 -259 100q0 -44 -3.5 -53.5t-14.5 -17t-24 -7.5q-18 0 -30 13t-12 43v164q0 30 11.5 43.5t30.5 13.5
q18 0 31 -13q9 -9 11 -40q6 -53 85.5 -108.5t215.5 -55.5q141 0 222 67t81 156q0 59 -30 101t-94 69q-42 17 -176 42q-194 38 -269 98q-76 60 -76 176q0 108 82 193t218 101z" />
    <glyph glyph-name="percent" unicode="%" 
d="M742 1016q0 -108 -75.5 -184t-180.5 -76q-106 0 -181 76t-75 184t75 183.5t181 75.5t181 -75.5t75 -183.5zM682 1016q0 83 -57.5 141t-138.5 58t-138.5 -58t-57.5 -141t57.5 -141t138.5 -58t138.5 58t57.5 141zM1014 725l-778 -253q-14 -4 -21 -4q-11 0 -19.5 9t-8.5 21
q0 10 7 20q5 6 23 12l778 253q14 4 22 4q10 0 18.5 -9t8.5 -21q0 -10 -7 -20q-5 -6 -23 -12zM1001 235q0 -108 -75.5 -183.5t-181.5 -75.5q-105 0 -180.5 76t-75.5 183q0 108 75 184t181 76t181.5 -76t75.5 -184zM940 235q0 84 -57.5 141.5t-138.5 57.5t-138.5 -58
t-57.5 -141q0 -82 57.5 -140.5t138.5 -58.5t138.5 58t57.5 141z" />
    <glyph glyph-name="ampersand" unicode="&#x26;" 
d="M852 0l-64 99q-90 -132 -232 -132q-120 0 -211 95t-91 232q0 106 61.5 188t169.5 114q-74 119 -88.5 156.5t-14.5 77.5q0 99 75 173.5t180 74.5q34 0 68 -10t68 -31q43 22 53 22q17 0 29.5 -12.5t12.5 -30.5q0 -12 -7 -22t-28 -21l-65 -35q-31 28 -63.5 41.5t-66.5 13.5
q-69 0 -120.5 -51t-51.5 -114q0 -65 90 -208l232 -369q61 115 96 266h82q30 0 43 -12t13 -30q0 -13 -7.5 -24t-17.5 -15t-49 -4q-48 -169 -110 -262l57 -86h71q30 0 43 -11.5t13 -30.5q0 -18 -13 -30t-43 -12h-114zM521 522q-84 -20 -133.5 -81.5t-49.5 -146.5
q0 -101 66.5 -172t149.5 -71q112 0 185 126z" />
    <glyph glyph-name="quotesingle" unicode="'" 
d="M481 1255h266l-70 -525q-6 -42 -22.5 -58.5t-40.5 -16.5q-25 0 -41 16.5t-22 58.5z" />
    <glyph glyph-name="parenleft" unicode="(" 
d="M605 498q0 115 30 244t115 298t124 204q12 11 26 11q18 0 30.5 -12t12.5 -29q0 -10 -7 -22q-110 -202 -157 -366t-47 -328q0 -165 47 -329t157 -365q7 -12 7 -22q0 -17 -12.5 -29.5t-30.5 -12.5q-14 0 -26 11q-37 34 -121 199t-116 292t-32 256z" />
    <glyph glyph-name="parenright" unicode=")" 
d="M639 497q0 -115 -30 -243.5t-115 -298t-124 -203.5q-12 -12 -26 -12q-18 0 -30.5 12.5t-12.5 29.5q0 10 7 22q110 201 157 365t47 328q0 165 -47 329t-157 366q-7 12 -7 22q0 17 12.5 29t30.5 12q14 0 26 -11q37 -34 121 -199t116 -292t32 -256z" />
    <glyph glyph-name="asterisk" unicode="*" 
d="M568 911v287q0 31 12 44t31 13q18 0 30 -13t12 -44v-287l273 89q19 6 29 6q16 0 28 -12.5t12 -29.5q0 -15 -8.5 -26t-34.5 -19l-273 -89l169 -232q16 -23 16 -36q0 -18 -12.5 -30.5t-29.5 -12.5q-22 0 -43 29l-169 233l-169 -233q-21 -29 -42 -29q-18 0 -30.5 12.5
t-12.5 30.5q0 13 17 36l169 232l-274 90q-25 8 -33.5 18.5t-8.5 25.5q0 17 12 29.5t27 12.5q11 0 30 -6z" />
    <glyph glyph-name="plus" unicode="+" 
d="M657 543v-420q0 -30 -12 -43t-31 -13q-18 0 -30 13t-12 43v420h-372q-30 0 -43 11.5t-13 30.5t13 30.5t43 11.5h372v418q0 30 12 43t31 13q18 0 30 -13t12 -43v-418h372q30 0 43 -11.5t13 -30.5t-13 -30.5t-43 -11.5h-372z" />
    <glyph glyph-name="comma" unicode="," 
d="M448 302h273l-297 -552q-27 -50 -65 -50q-25 0 -42.5 17.5t-17.5 42.5q0 10 3 22z" />
    <glyph glyph-name="hyphen" unicode="-" 
d="M1043 639v-120h-857v120h857z" />
    <glyph glyph-name="hyphen" unicode="&#xad;" 
d="M1043 639v-120h-857v120h857z" />
    <glyph glyph-name="period" unicode="." 
d="M597 241h36q56 0 96 -39.5t40 -95.5q0 -58 -40.5 -97t-95.5 -39h-36q-56 0 -96 39.5t-40 95.5q0 58 40.5 97t95.5 39z" />
    <glyph glyph-name="slash" unicode="/" 
d="M992 1316l-676 -1448q-17 -37 -44 -37q-17 0 -29.5 12.5t-12.5 27.5q0 12 10 33l675 1448q11 23 21 30t24 7q17 0 29.5 -12.5t12.5 -27.5q0 -11 -10 -33z" />
    <glyph glyph-name="zero" unicode="0" 
d="M1000 731v-208q0 -271 -129 -429q-101 -124 -255 -124q-74 0 -139.5 29.5t-111.5 82.5q-29 33 -63.5 106t-49.5 134q-23 86 -23 201v208q0 272 129 430q101 124 255 124q75 0 140 -29.5t111 -82.5q30 -34 64 -107t50 -133q22 -86 22 -202zM916 720q0 119 -33.5 221.5
t-75.5 163.5q-25 35 -65 60q-57 35 -128 35q-141 0 -221 -144t-80 -336v-185q0 -119 33.5 -222t76.5 -164q24 -34 64 -59q57 -36 129 -36q140 0 220 144.5t80 336.5v185z" />
    <glyph glyph-name="one" unicode="1" 
d="M656 1272v-1188h288q30 0 43 -11.5t13 -30.5q0 -18 -13 -30t-43 -12h-660q-30 0 -43 12t-13 30q0 19 13 30.5t43 11.5h288v1072l-274 -86q-20 -6 -29 -6q-15 0 -27.5 12.5t-12.5 29.5q0 15 10 28q8 8 33 17z" />
    <glyph glyph-name="two" unicode="2" 
d="M253 84h645v33q0 30 12 43t31 13q18 0 30 -13t12 -43v-117h-812v124q256 230 498 468q113 111 155 163t57.5 91.5t15.5 79.5q0 108 -87 191t-210 83q-110 0 -195 -63t-110 -156q-6 -24 -15 -31q-12 -10 -28 -10q-17 0 -28.5 11.5t-11.5 27.5q0 48 52.5 130t145 129
t189.5 47q157 0 270 -109t113 -247q0 -58 -19 -106.5t-64.5 -106t-163.5 -173.5q-296 -292 -482 -453v-6z" />
    <glyph glyph-name="three" unicode="3" 
d="M787 683q116 -52 177 -142.5t61 -188.5q0 -151 -122.5 -266.5t-306.5 -115.5q-108 0 -224 46t-162 94q-15 16 -15 34q0 16 11.5 28t27.5 12t36 -15q155 -115 328 -115q146 0 244.5 91.5t98.5 203.5q0 75 -48.5 147t-139.5 113.5t-184 41.5q-30 0 -43 11.5t-13 30.5
q0 18 12.5 30t37.5 12l72 -1q113 0 186.5 69t73.5 160q0 94 -77 166t-201 72q-87 0 -160 -30t-117 -82q-16 -20 -24.5 -24.5t-19.5 -4.5q-17 0 -29 11.5t-12 27.5q0 40 87 101q121 85 275 85q159 0 261 -95.5t102 -227.5q0 -84 -49 -159t-144 -120z" />
    <glyph glyph-name="four" unicode="4" 
d="M771 351h-557v97l467 807h175v-820h70q31 0 44 -11.5t13 -30.5q0 -18 -13 -30t-44 -12h-70v-267h70q31 0 44 -11.5t13 -30.5q0 -18 -13 -30t-44 -12h-312q-31 0 -44 12t-13 30q0 19 13 30.5t44 11.5h157v267zM771 435v735h-44l-425 -735h469z" />
    <glyph glyph-name="five" unicode="5" 
d="M383 1170v-411q74 31 142 46.5t129 15.5q158 0 264.5 -111t106.5 -292q0 -200 -120 -324t-300 -124q-119 0 -229 53q-78 37 -142 92q-38 33 -38 55q0 18 12 30.5t28 12.5q17 0 36 -18q151 -141 329 -141q147 0 243 100.5t96 267.5q0 142 -83 228.5t-211 86.5
q-131 0 -262 -69q-32 -16 -45 -16q-18 0 -29 12t-11 34v557h586q30 0 43 -12t13 -31q0 -18 -13 -30t-43 -12h-502z" />
    <glyph glyph-name="six" unicode="6" 
d="M364 531q78 115 160.5 170t183.5 55q134 0 238 -111.5t104 -275.5q0 -150 -95 -274.5t-262 -124.5q-109 0 -203.5 67t-148.5 206q-67 173 -67 383q0 158 63 294q48 105 128 184.5t186.5 130t230.5 50.5q84 0 140 -34q24 -15 24 -40q0 -18 -11 -29.5t-28 -11.5
q-13 0 -31 10q-41 20 -102 20q-195 0 -355.5 -167.5t-160.5 -398.5q0 -33 6 -103zM383 392q38 -182 119.5 -260t192.5 -78q112 0 191.5 87.5t79.5 227.5q0 131 -80 217t-181 86q-97 0 -187 -83q-60 -55 -135 -197z" />
    <glyph glyph-name="seven" unicode="7" 
d="M897 1132v38h-602v-74q0 -30 -11.5 -43t-30.5 -13q-18 0 -30 13t-12 43v159h771v-134l-338 -1080q-8 -26 -19 -34.5t-25 -8.5q-18 0 -30 12t-12 28q0 10 6 28z" />
    <glyph glyph-name="eight" unicode="8" 
d="M787 651q105 -51 158.5 -134.5t53.5 -179.5q0 -149 -112 -258t-272 -109t-272 109t-112 258q0 95 53.5 178.5t159.5 135.5q-92 53 -134 110q-58 81 -58 179q0 138 106.5 241.5t256.5 103.5q151 0 257 -103.5t106 -241.5q0 -98 -58 -178q-41 -58 -133 -111zM892 937
q0 108 -80.5 185.5t-197.5 77.5q-116 0 -196.5 -78t-80.5 -184q0 -98 79.5 -171.5t197.5 -73.5q119 0 198.5 73.5t79.5 170.5zM915 335q0 111 -86 193t-214 82t-214 -82t-86 -192q0 -114 86.5 -198t213.5 -84t213.5 84t86.5 197z" />
    <glyph glyph-name="nine" unicode="9" 
d="M959 710q-65 -115 -154.5 -173t-183.5 -58q-87 0 -168.5 50t-129.5 146.5t-48 202.5q0 154 95.5 280.5t255.5 126.5q114 0 208 -71t146 -206q67 -173 67 -402q0 -178 -57 -296q-38 -80 -111.5 -155t-165.5 -122q-126 -63 -262 -63q-90 0 -147 34q-26 16 -26 40
q0 17 12 28.5t29 11.5q12 0 35 -11q39 -19 90 -19q213 0 366 153.5t153 384.5q0 42 -4 118zM943 850q-53 203 -131.5 276.5t-183.5 73.5q-107 0 -188 -90t-81 -231q0 -137 81 -226.5t183 -89.5q59 0 116.5 32t108.5 96q33 43 95 159z" />
    <glyph glyph-name="colon" unicode=":" 
d="M597 866h36q56 0 96 -40t40 -95q0 -59 -40.5 -98t-95.5 -39h-36q-56 0 -96 40t-40 95q0 59 40.5 98t95.5 39zM597 241h36q56 0 96 -39.5t40 -95.5q0 -58 -40.5 -97t-95.5 -39h-36q-56 0 -96 39.5t-40 95.5q0 58 40.5 97t95.5 39z" />
    <glyph glyph-name="semicolon" unicode=";" 
d="M596 866h37q56 0 95.5 -40t39.5 -95q0 -59 -40 -98t-95 -39h-37q-56 0 -95.5 40t-39.5 95q0 59 40.5 98t94.5 39zM450 302h264l-283 -464q-21 -34 -33.5 -43t-29.5 -9q-24 0 -40 15t-16 36q0 12 6 31z" />
    <glyph glyph-name="semicolon" unicode="&#x37e;" 
d="M596 866h37q56 0 95.5 -40t39.5 -95q0 -59 -40 -98t-95 -39h-37q-56 0 -95.5 40t-39.5 95q0 59 40.5 98t94.5 39zM450 302h264l-283 -464q-21 -34 -33.5 -43t-29.5 -9q-24 0 -40 15t-16 36q0 12 6 31z" />
    <glyph glyph-name="less" unicode="&#x3c;" 
d="M98 583l908 506q22 12 33 12q17 0 29.5 -12.5t12.5 -29.5q0 -25 -34 -44l-778 -432l777 -432q34 -19 34 -44q0 -17 -12.5 -29.5t-29.5 -12.5q-11 0 -33 12z" />
    <glyph glyph-name="equal" unicode="=" 
d="M1073 695h-916q-30 0 -43 12t-13 31q0 18 13 30t43 12h916q30 0 43 -12t13 -31q0 -18 -13 -30t-43 -12zM1073 394h-916q-30 0 -43 11.5t-13 30.5t13 30.5t43 11.5h916q30 0 43 -11.5t13 -30.5t-13 -30.5t-43 -11.5z" />
    <glyph glyph-name="greater" unicode="&#x3e;" 
d="M1131 583l-908 -506q-22 -12 -33 -12q-17 0 -29.5 12.5t-12.5 29.5q0 25 34 44l778 432l-777 432q-34 19 -34 44q0 17 12.5 29.5t29.5 12.5q11 0 33 -12z" />
    <glyph glyph-name="question" unicode="?" 
d="M660 514v-85q0 -30 -12 -43t-30 -13q-19 0 -31 13t-12 43v141q219 81 299 162q45 45 45 113q0 112 -81.5 191.5t-211.5 79.5q-66 0 -124.5 -15t-142.5 -56v-86q0 -30 -11.5 -43t-30.5 -13q-18 0 -30 13t-12 43v141q156 69 202 81q78 19 156 19q167 0 268.5 -100
t101.5 -253q0 -94 -60.5 -166.5t-282.5 -166.5zM574 178h84q44 0 74.5 -30.5t30.5 -73.5q0 -44 -31.5 -74t-73.5 -30h-84q-43 0 -73.5 30.5t-30.5 72.5q0 45 31 75t73 30z" />
    <glyph glyph-name="at" unicode="@" 
d="M859 302v11q-25 -4 -46 -6t-39 -2q-123 0 -201.5 76t-78.5 184q0 123 97.5 211.5t267.5 88.5v97q0 110 -68 180t-170 70q-71 0 -134 -36q-43 -25 -71 -61q-48 -63 -82.5 -151.5t-34.5 -219.5v-331q0 -194 89.5 -326.5t241.5 -132.5q150 0 225 71q17 16 33 16q17 0 29 -12
t12 -28q0 -32 -60 -70q-96 -61 -251 -61q-80 0 -146.5 29.5t-111.5 81.5q-28 31 -67 106t-55 133q-23 81 -23 193v336q0 256 136 418q108 130 266 130q82 0 151 -34.5t122 -115t53 -185.5v-576q20 -2 30 -13t10 -28q0 -13 -6.5 -23.5t-16 -15t-33.5 -4.5h-68zM859 782
q-132 -1 -206.5 -66t-74.5 -149q0 -76 54.5 -127t152.5 -51q17 0 35.5 2.5t38.5 6.5v384z" />
    <glyph glyph-name="A" unicode="A" 
d="M891 391h-552l-113 -307h161q30 0 43 -11.5t13 -30.5q0 -18 -13 -30t-43 -12h-314q-30 0 -43 12t-13 30q0 19 13 30.5t43 11.5h65l371 1002h-248q-30 0 -43 11.5t-13 30.5t13 30.5t43 11.5h423l410 -1086h65q30 0 43 -11.5t13 -30.5q0 -18 -13 -30t-43 -12h-313
q-31 0 -44 12t-13 30q0 19 13 30.5t44 11.5h160zM859 475l-232 611h-31l-225 -611h488z" />
    <glyph glyph-name="B" unicode="B" 
d="M256 84v1002h-113q-30 0 -43 11.5t-13 30.5t13 30.5t43 11.5h528q157 0 255.5 -90.5t98.5 -212.5q0 -154 -165 -249q131 -47 192 -125t61 -172q0 -84 -40 -153.5t-122.5 -118.5t-179.5 -49h-628q-30 0 -43 12t-13 30q0 19 13 30.5t43 11.5h113zM340 650h297q95 0 174 35
q61 28 95 81t34 108q0 79 -74 145.5t-193 66.5h-333v-436zM340 84h425q81 0 141 36t91 89t31 110q0 64 -44.5 124t-123.5 91t-218 31h-302v-481z" />
    <glyph glyph-name="C" unicode="C" 
d="M984 1055v59q0 30 11.5 43t30.5 13t30.5 -13t11.5 -43v-233q0 -31 -11.5 -44t-30.5 -13q-17 0 -28.5 12t-13.5 39q-5 84 -91 149q-116 89 -264 89q-97 0 -183 -43q-64 -31 -102 -76q-66 -78 -105 -173q-28 -70 -28 -158v-147q0 -188 136 -326.5t316 -138.5
q108 0 193.5 47t165.5 142q17 21 38 21q18 0 29 -11t11 -28q0 -23 -43 -70q-82 -92 -184.5 -138.5t-207.5 -46.5q-91 0 -185 35q-72 27 -119 63t-115.5 121.5t-93.5 158t-25 159.5v171q0 124 66.5 253.5t182 199t250.5 69.5q208 0 358 -142z" />
    <glyph glyph-name="D" unicode="D" 
d="M285 84v1002h-71q-30 0 -43 11.5t-13 30.5t13 30.5t43 11.5h452q106 0 193.5 -44t133.5 -100q79 -95 120 -201q29 -77 29 -182v-116q0 -129 -57 -250t-190 -211q-99 -66 -229 -66h-452q-30 0 -43 12t-13 30q0 19 13 30.5t43 11.5h71zM369 84h305q106 0 198.5 69
t139 165.5t46.5 190.5v152q0 78 -25 139q-36 89 -102 169q-36 44 -106 80.5t-151 36.5h-305v-1002z" />
    <glyph glyph-name="E" unicode="E" 
d="M341 565v-481h646v248q0 30 11.5 43t30.5 13t30.5 -13t11.5 -43v-332h-927q-30 0 -43 12t-13 30q0 19 13 30.5t43 11.5h113v1002h-113q-30 0 -43 11.5t-13 30.5t13 30.5t43 11.5h883v-289q0 -30 -11.5 -43t-30.5 -13t-30.5 13t-11.5 43v205h-602v-437h301v95q0 30 12 43
t31 13q18 0 30 -13t12 -43v-274q0 -30 -12 -43t-30 -13q-19 0 -31 13t-12 43v95h-301z" />
    <glyph glyph-name="F" unicode="F" 
d="M412 565v-481h288q30 0 43 -11.5t13 -30.5q0 -18 -13 -30t-43 -12h-485q-30 0 -43 12t-13 30q0 19 13 30.5t43 11.5h113v1002h-113q-30 0 -43 11.5t-13 30.5t15 32q11 10 41 10h925v-289q0 -30 -12 -43t-30 -13q-19 0 -31 13t-12 43v205h-643v-437h301v95q0 30 12 43
t31 13q18 0 30 -13t12 -43v-274q0 -30 -12 -43t-30 -13q-19 0 -31 13t-12 43v95h-301z" />
    <glyph glyph-name="G" unicode="G" 
d="M1071 434v-360q-96 -53 -191.5 -80t-190.5 -27q-135 0 -237.5 40t-173.5 112t-110.5 161t-39.5 226v154q0 138 68.5 268.5t187.5 199.5t259 69q203 0 343 -111q0 49 3.5 59t14.5 17.5t25 7.5q18 0 30 -13t12 -43v-190q0 -31 -12 -43.5t-30 -12.5q-17 0 -28.5 11.5
t-12.5 40.5q-6 85 -110.5 139t-227.5 54q-116 0 -209.5 -50.5t-174.5 -192.5q-54 -93 -54 -211v-153q0 -209 128 -332t353 -123q76 0 141 16t152 56v311h-289q-30 0 -43 11.5t-13 30.5t13 31t43 12l404 -1q30 0 43 -11.5t13 -30.5q0 -13 -8 -24t-18 -14.5t-60 -3.5z" />
    <glyph glyph-name="H" unicode="H" 
d="M899 566h-557v-482h113q30 0 43 -11.5t13 -30.5q0 -18 -13 -30t-43 -12h-292q-30 0 -43 12t-13 30q0 19 13 30.5t43 11.5h95v1002h-52q-31 0 -44 11.5t-13 30.5t13 30.5t44 11.5h249q30 0 43 -11.5t13 -30.5t-13 -30.5t-43 -11.5h-113v-436h557v436h-112q-30 0 -43 11.5
t-13 30.5t12.5 30.5t43.5 11.5h249q31 0 44 -11.5t13 -30.5t-13 -30.5t-44 -11.5h-52v-1002h95q30 0 43 -11.5t13 -30.5q0 -18 -13 -30t-43 -12h-292q-30 0 -43 12t-13 30q0 19 12.5 30.5t43.5 11.5h112v482z" />
    <glyph glyph-name="I" unicode="I" 
d="M657 1086v-1002h288q30 0 43 -11.5t13 -30.5q0 -18 -13 -30t-43 -12h-660q-30 0 -43 12t-13 30q0 19 13 30.5t43 11.5h288v1002h-288q-30 0 -43 11.5t-13 30.5t13 30.5t43 11.5h660q30 0 43 -11.5t13 -30.5t-13 -30.5t-43 -11.5h-288z" />
    <glyph glyph-name="J" unicode="J" 
d="M943 1086v-742q0 -153 -114 -265t-272 -112q-95 0 -186.5 43.5t-199.5 142.5v310q0 30 12 43t30 13q19 0 31 -13t12 -43l-1 -270q77 -71 152.5 -106.5t149.5 -35.5q82 0 155 40q55 30 100.5 101t45.5 152v742h-329q-31 0 -44 11.5t-13 30.5t13 30.5t44 11.5h614
q30 0 43 -11.5t13 -30.5t-13 -30.5t-43 -11.5h-200z" />
    <glyph glyph-name="K" unicode="K" 
d="M342 458v-374h155q31 0 44 -11.5t13 -30.5q0 -18 -13 -30t-44 -12h-352q-30 0 -43 12t-13 30q0 19 13 30.5t43 11.5h113v1002h-113q-30 0 -43 11.5t-13 30.5t13 30.5t43 11.5h352q31 0 44 -11.5t13 -30.5t-13 -30.5t-44 -11.5h-155v-517l580 517h-92q-31 0 -44 11.5
t-13 30.5t13 30.5t44 11.5h247q30 0 43 -11.5t13 -30.5t-13 -30.5t-43 -11.5h-34l-462 -413q103 -42 171 -105t131 -179q36 -65 132 -305h105q31 0 44 -11.5t13 -30.5q0 -18 -13 -30t-44 -12h-162q-132 361 -222 464.5t-225 145.5z" />
    <glyph glyph-name="L" unicode="L" 
d="M469 1086v-1002h558v334q0 30 12 43t31 13q18 0 30 -12.5t12 -43.5v-418h-928q-30 0 -43 12t-13 30q0 19 13 30.5t43 11.5h200v1002h-200q-30 0 -43 11.5t-13 30.5t13 30.5t43 11.5h485q30 0 43 -11.5t13 -30.5t-13 -30.5t-43 -11.5h-200z" />
    <glyph glyph-name="M" unicode="M" 
d="M670 351h-96l-323 735h-16v-1002h155q30 0 43 -11.5t13 -30.5q0 -18 -13 -30t-43 -12h-310q-30 0 -43 12t-13 30q0 19 13 30.5t43 11.5h71v1002h-53q-30 0 -43 11.5t-13 30.5t13 30.5t43 11.5h206l318 -724l313 724h206q31 0 44 -11.5t13 -30.5t-13 -30.5t-44 -11.5h-52
v-1002h70q31 0 44 -11.5t13 -30.5q0 -18 -13 -30t-44 -12h-309q-30 0 -43.5 12t-13.5 30q0 19 13 30.5t44 11.5h155v1002h-18z" />
    <glyph glyph-name="N" unicode="N" 
d="M1026 0h-108l-619 1047v-963h155q31 0 44 -11.5t13 -30.5q0 -18 -13 -30t-44 -12h-309q-31 0 -44 12t-13 30q0 19 13 30.5t44 11.5h70v1002h-113q-30 0 -43 11.5t-13 30.5t13 30.5t43 11.5h220l620 -1049v965h-155q-30 0 -43 11.5t-13 30.5t12.5 30.5t43.5 11.5h310
q30 0 43 -11.5t13 -30.5t-13 -30.5t-43 -11.5h-71v-1086z" />
    <glyph glyph-name="O" unicode="O" 
d="M1128 582q0 -168 -68 -311.5t-187.5 -223.5t-256.5 -80q-203 0 -357.5 172.5t-154.5 442.5q0 271 154.5 443t357.5 172q137 0 256 -80t187.5 -223t68.5 -312zM1043 582q0 205 -119 368t-308 163q-177 0 -302.5 -155.5t-125.5 -375.5q0 -234 131.5 -382.5t296.5 -148.5
q189 0 308 162.5t119 368.5z" />
    <glyph glyph-name="P" unicode="P" 
d="M432 480v-396h288q30 0 43 -11.5t13 -30.5q0 -18 -13 -30t-43 -12h-485q-30 0 -43 12t-13 30q0 19 13 30.5t43 11.5h113v1002h-113q-30 0 -43 11.5t-13 30.5t13 30.5t43 11.5h488q173 0 282.5 -102t109.5 -239q0 -81 -35.5 -146t-85.5 -102q-75 -56 -155 -82
q-58 -19 -144 -19h-263zM432 564h268q93 0 174.5 41.5t119 101.5t37.5 122q0 99 -85 178t-215 79h-299v-522z" />
    <glyph glyph-name="Q" unicode="Q" 
d="M626 -33l-112 -84q83 17 137 17q88 0 173 -32q60 -23 93 -23q58 0 129 47q28 18 40 18q18 0 29.5 -11.5t11.5 -30.5q0 -15 -10 -26q-21 -24 -95 -56q-56 -25 -110 -25q-42 0 -116 27t-143 27q-49 0 -121 -12q-101 -17 -162 -34q-20 -5 -29 -5q-17 0 -29 12t-12 32t23 36
l187 135q-167 41 -286.5 206t-119.5 397q0 271 154.5 443t357.5 172t357.5 -172t154.5 -443q0 -267 -152 -439.5t-350 -175.5zM1043 582q0 205 -119 368t-308 163q-177 0 -302.5 -155.5t-125.5 -375.5q0 -234 131.5 -382.5t296.5 -148.5q189 0 308 162.5t119 368.5z" />
    <glyph glyph-name="R" unicode="R" 
d="M341 522v-438h155q31 0 44 -11.5t13 -30.5q0 -18 -13 -30t-44 -12h-352q-30 0 -43 12t-13 30q0 19 13 30.5t43 11.5h113v1002h-113q-30 0 -43 11.5t-13 30.5t13 30.5t43 11.5h508q157 0 264.5 -99.5t107.5 -224.5q0 -90 -66.5 -169.5t-222.5 -132.5q90 -62 154 -140
t205 -320h64q30 0 43 -11.5t13 -30.5q0 -18 -13 -30t-43 -12h-112q-156 279 -241.5 374t-196.5 148h-267zM341 606h229q110 0 199.5 40t130 94t40.5 110q0 84 -84.5 160t-205.5 76h-309v-480z" />
    <glyph glyph-name="S" unicode="S" 
d="M915 1086v28q0 30 11.5 43t30.5 13t30.5 -13t11.5 -43v-214q0 -30 -11.5 -43t-30.5 -13q-18 0 -29.5 12t-12.5 39q-5 84 -86.5 151t-213.5 67q-139 0 -221 -71.5t-82 -168.5q0 -50 23 -91t61 -66.5t86 -41t150 -32.5q171 -28 236 -57q87 -39 131.5 -108t44.5 -163
q0 -144 -115 -245.5t-310 -101.5q-219 0 -350 137v-48q0 -30 -11.5 -43t-30.5 -13q-18 0 -30 13t-12 43v232q0 31 11.5 44t30.5 13q18 0 29.5 -12t12.5 -39q5 -92 98.5 -167.5t251.5 -75.5t249.5 79t91.5 187q0 66 -35 117.5t-104 81.5q-48 21 -200 47q-209 35 -301 107
t-92 205q0 132 105.5 227t278.5 95q176 0 303 -111z" />
    <glyph glyph-name="T" unicode="T" 
d="M656 1086v-1002h218q30 0 43 -11.5t13 -30.5q0 -18 -13 -30t-43 -12h-521q-30 0 -43 12t-13 30q0 19 13 30.5t43 11.5h218v1002h-344v-291q0 -31 -11.5 -44t-30.5 -13q-18 0 -30 13t-12 44v375h941v-375q0 -31 -11.5 -44t-30.5 -13t-30.5 13t-11.5 44v291h-344z" />
    <glyph glyph-name="U" unicode="U" 
d="M1021 1086v-702q0 -177 -118 -297t-285 -120q-112 0 -199 49t-148 148.5t-61 219.5v702h-71q-30 0 -43 11.5t-13 30.5t14 32q12 10 42 10h310q30 0 43 -11.5t13 -30.5t-13 -30.5t-43 -11.5h-155v-702q0 -139 95 -236t225 -97q83 0 151.5 38t120 117t51.5 178v702h-155
q-30 0 -43 11.5t-13 30.5t13 30.5t43 11.5h310q30 0 43 -11.5t13 -30.5t-13 -30.5t-43 -11.5h-71z" />
    <glyph glyph-name="V" unicode="V" 
d="M677 0h-117l-423 1086h-65q-23 0 -33 4.5t-16.5 15t-6.5 22.5t6.5 22.5t16.5 15t33 4.5h313q24 0 33.5 -4.5t16 -15t6.5 -22.5t-7 -22.5t-16.5 -15t-32.5 -4.5h-161l390 -1002h6l385 1002h-160q-24 0 -34 4.5t-16.5 15t-6.5 22.5t7 22.5t16.5 15t33.5 4.5h312
q24 0 34 -4.5t16.5 -15t6.5 -22.5t-7 -22.5t-16.5 -15t-33.5 -4.5h-64z" />
    <glyph glyph-name="W" unicode="W" 
d="M983 0h-132l-238 831l-233 -831h-132l-124 1086h-31q-30 0 -43 11.5t-13 30.5t13 30.5t43 11.5h312q31 0 44 -11.5t13 -30.5t-13 -30.5t-44 -11.5h-196l111 -990l227 815h129l233 -815l109 990h-197q-30 0 -43 11.5t-13 30.5t13 30.5t43 11.5h310q31 0 44 -11.5t13 -30.5
t-13 -30.5t-44 -11.5h-31z" />
    <glyph glyph-name="X" unicode="X" 
d="M665 599l399 -515h32q30 0 43 -11.5t13 -30.5q0 -18 -13 -30t-43 -12h-270q-30 0 -43 12t-13 30q0 19 13 30.5t43 11.5h134l-347 446l-343 -446h134q30 0 43 -11.5t13 -30.5q0 -18 -13 -30t-43 -12h-268q-30 0 -43 12t-13 30q0 14 8 25t18 14t61 3l394 515l-376 487h-31
q-30 0 -43 11.5t-13 30.5t13 30.5t43 11.5h229q31 0 44 -11.5t13 -30.5t-13 -30.5t-44 -11.5h-94l324 -419l322 419h-94q-31 0 -44 11.5t-13 30.5t13 30.5t44 11.5h230q30 0 43 -11.5t13 -30.5t-13 -30.5t-43 -11.5h-32z" />
    <glyph glyph-name="Y" unicode="Y" 
d="M659 528v-444h218q30 0 43 -11.5t13 -30.5q0 -18 -13 -30t-43 -12h-521q-30 0 -43 12t-13 30q0 19 12.5 30.5t43.5 11.5h218v444l-369 558h-50q-30 0 -43 11.5t-13 30.5t13 30.5t43 11.5h231q30 0 43 -11.5t13 -30.5t-13 -30.5t-43 -11.5h-83l314 -473l307 473h-82
q-31 0 -44 11.5t-13 30.5t13 30.5t44 11.5h230q30 0 43 -11.5t13 -30.5t-13 -30.5t-43 -11.5h-50z" />
    <glyph glyph-name="Z" unicode="Z" 
d="M1022 0h-809v122l682 957v7h-559v-247q0 -31 -12 -44t-31 -13q-18 0 -30 13t-12 44v331h725v-119l-682 -958v-9h644v293q0 31 11.5 44t30.5 13t30.5 -13t11.5 -44v-377z" />
    <glyph glyph-name="bracketleft" unicode="[" 
d="M657 1170v-1345h204q30 0 43 -11.5t13 -30.5t-13 -30.5t-43 -11.5h-288v1514h288q30 0 43 -12t13 -31q0 -18 -13 -30t-43 -12h-204z" />
    <glyph glyph-name="backslash" unicode="\" 
d="M314 1346l675 -1448q10 -22 10 -32q0 -16 -12.5 -28.5t-29.5 -12.5q-28 0 -45 37l-675 1449q-10 21 -10 32q0 16 12.5 28t29.5 12q27 0 45 -37z" />
    <glyph glyph-name="bracketright" unicode="]" 
d="M575 -175v1345h-203q-30 0 -43 12t-13 30q0 19 13 31t43 12h288v-1514h-288q-30 0 -43 11.5t-13 30.5q0 18 13 30t43 12h203z" />
    <glyph glyph-name="asciicircum" unicode="^" 
d="M614 1279l369 -463q18 -23 18 -37q0 -18 -12.5 -30t-30.5 -12q-20 0 -42 26l-302 384l-302 -384q-21 -27 -41 -27q-18 0 -30.5 12.5t-12.5 30.5q0 14 18 37z" />
    <glyph glyph-name="underscore" unicode="_" 
d="M1173 -561h-1117q-30 0 -43 11.5t-13 30.5t13 30.5t43 11.5h1117q31 0 43.5 -11.5t12.5 -30.5t-12.5 -30.5t-43.5 -11.5z" />
    <glyph glyph-name="grave" unicode="`" 
d="M525 1309l236 -204l22 -25q3 -5 3 -16q0 -18 -12.5 -30.5t-30.5 -12.5q-15 0 -38 20l-236 204q-25 22 -25 41q0 18 12.5 30.5t30.5 12.5q15 0 38 -20z" />
    <glyph glyph-name="a" unicode="a" 
d="M856 0v121q-183 -154 -391 -154q-151 0 -236 76.5t-85 187.5q0 122 112 213t327 91q58 0 126 -7.5t147 -23.5v136q0 69 -64 120t-192 51q-98 0 -275 -57q-32 -10 -41 -10q-16 0 -27.5 12t-11.5 30q0 17 10 27q14 15 113 41q156 42 236 42q159 0 248 -78.5t89 -177.5v-556
h112q31 0 44 -11.5t13 -30.5q0 -18 -13 -30t-44 -12h-197zM856 418q-59 17 -125 25t-139 8q-183 0 -286 -79q-78 -59 -78 -141q0 -76 59.5 -128t173.5 -52q109 0 202.5 43.5t192.5 138.5v185z" />
    <glyph glyph-name="b" unicode="b" 
d="M298 1255v-557q152 198 367 198q184 0 315 -133.5t131 -327.5q0 -196 -132.5 -332t-313.5 -136q-220 0 -367 198v-165h-197q-30 0 -43 12t-13 30q0 19 13 30.5t43 11.5h113v1086h-113q-30 0 -43 12t-13 31q0 18 13 30t43 12h197zM1027 431q0 159 -109 269.5t-255 110.5
t-255 -110.5t-109 -269.5t109 -269.5t255 -110.5t255 110.5t109 269.5z" />
    <glyph glyph-name="c" unicode="c" 
d="M965 781v28q0 31 12 44t30 13q19 0 31 -13t12 -44v-190q-1 -31 -12.5 -44t-30.5 -13q-17 0 -28.5 11.5t-13.5 38.5q-6 71 -93.5 135t-235.5 64q-187 0 -284 -117t-97 -268q0 -163 107 -269t277 -106q98 0 199.5 36t183.5 116q21 20 37 20q17 0 28.5 -11.5t11.5 -28.5
q0 -43 -101 -109q-163 -107 -363 -107q-203 0 -333.5 129.5t-130.5 328.5q0 203 133.5 337t336.5 134q193 0 324 -115z" />
    <glyph glyph-name="d" unicode="d" 
d="M1026 1255v-1171h112q31 0 44 -11.5t13 -30.5q0 -18 -13 -30t-44 -12h-197v167q-146 -200 -371 -200q-114 0 -218.5 60.5t-165 172.5t-60.5 231q0 120 60.5 231.5t165 172.5t219.5 61q220 0 370 -200v474h-112q-31 0 -44 12t-13 31q0 18 13 30t44 12h197zM941 431
q0 160 -108 270t-257 110q-150 0 -258 -110t-108 -270q0 -159 108 -269.5t258 -110.5q149 0 257 110.5t108 269.5z" />
    <glyph glyph-name="e" unicode="e" 
d="M1069 413h-856q22 -163 136.5 -262.5t283.5 -99.5q94 0 197 31t168 82q19 15 33 15q16 0 28 -12.5t12 -29.5t-16 -33q-48 -50 -170.5 -93.5t-251.5 -43.5q-216 0 -360.5 141.5t-144.5 342.5q0 183 135.5 314t335.5 131q206 0 339 -134.5t131 -348.5zM984 498
q-25 139 -131.5 226t-253.5 87t-253 -86t-132 -227h770z" />
    <glyph glyph-name="f" unicode="f" 
d="M559 781v-697h369q30 0 43 -11.5t13 -30.5q0 -18 -13 -30t-43 -12h-657q-30 0 -43 12t-13 30q0 19 13 30.5t43 11.5h203v697h-182q-30 0 -43 12t-13 31q0 18 13 30t43 12h182v127q0 106 86 184t228 78q119 0 254 -22q51 -8 61.5 -19t10.5 -29t-12 -29.5t-32 -11.5
q-8 0 -27 3q-151 23 -255 23q-110 0 -169.5 -54t-59.5 -123v-127h393q30 0 43 -12t13 -31q0 -18 -13 -30t-43 -12h-393z" />
    <glyph glyph-name="g" unicode="g" 
d="M897 712v154h197q30 0 43 -12t13 -31q0 -18 -13 -30t-43 -12h-113v-839q0 -84 -36 -150q-24 -44 -80 -91t-102 -67t-123 -20h-238q-30 0 -43 11.5t-13 30.5t13 31t43 12l241 -1q74 0 133.5 38t98.5 111q22 42 22 107v252q-135 -185 -348 -185q-173 0 -298.5 128.5
t-125.5 309.5t125.5 309t298.5 128q213 0 348 -184zM897 459q0 148 -101.5 250t-242.5 102t-242 -102.5t-101 -249.5q0 -148 101 -250.5t242 -102.5t242.5 102.5t101.5 250.5z" />
    <glyph glyph-name="h" unicode="h" 
d="M338 1255v-517q80 87 153.5 122.5t164.5 35.5q98 0 166.5 -34.5t114.5 -106t46 -150.5v-521h94q31 0 43.5 -11.5t12.5 -30.5q0 -18 -12.5 -30t-43.5 -12h-273q-31 0 -44 12t-13 30q0 19 13 30.5t44 11.5h94v515q0 91 -65.5 152t-182.5 61q-92 0 -157 -45
q-47 -32 -155 -151v-532h95q30 0 43 -11.5t13 -30.5q0 -18 -13 -30t-43 -12h-274q-30 0 -43 12t-13 30q0 19 13 30.5t43 11.5h95v1086h-113q-30 0 -43 12t-13 31q0 18 13 30t43 12h197z" />
    <glyph glyph-name="i" unicode="i" 
d="M656 1297v-217h-124v217h124zM659 866v-782h330q31 0 44 -11.5t13 -30.5q0 -18 -13 -30t-44 -12h-744q-30 0 -43 12t-13 30q0 19 13 30.5t43 11.5h330v697h-245q-30 0 -43.5 12t-13.5 30q0 19 13 31t44 12h329z" />
    <glyph glyph-name="j" unicode="j" 
d="M735 1297v-217h-124v217h124zM740 781h-499q-30 0 -43 12t-13 31q0 18 12.5 30t43.5 12h583v-925q0 -107 -44 -179t-132 -117q-61 -31 -145 -31h-267q-30 0 -43 11.5t-13 30.5t13 31t43 12l265 -1q107 0 173 70t66 173v840z" />
    <glyph glyph-name="k" unicode="k" 
d="M444 374v-374h-197q-30 0 -43 12t-13 30q0 19 13 30.5t43 11.5h113v1086h-113q-30 0 -43 12t-13 31q0 18 13 30t43 12h197v-774l357 300h-43q-30 0 -43 12t-13 30q0 19 13 31t43 12h269q31 0 44 -12t13 -31q0 -18 -13 -30t-44 -12h-97l-328 -274l415 -423h97
q31 0 44 -11.5t13 -30.5q0 -18 -13 -30t-44 -12h-272q-30 0 -43 12t-13 30q0 19 13 30.5t43 11.5h59l-361 371z" />
    <glyph glyph-name="l" unicode="l" 
d="M657 1255v-1171h330q31 0 44 -11.5t13 -30.5q0 -18 -13 -30t-44 -12h-744q-30 0 -43 12t-13 30q0 19 13 30.5t43 11.5h330v1086h-242q-30 0 -43.5 12t-13.5 31q0 18 13 30t44 12h326z" />
    <glyph glyph-name="m" unicode="m" 
d="M232 866v-85q107 115 215 115q65 0 114 -34.5t82 -104.5q56 70 113.5 104.5t115.5 34.5q91 0 145 -59q71 -76 71 -166v-587h71q30 0 43 -11.5t13 -30.5q0 -18 -13 -30t-43 -12h-155v663q0 64 -39 106t-90 42q-46 0 -97 -34.5t-116 -135.5v-557h70q30 0 43 -11.5t13 -30.5
q0 -18 -13 -30t-43 -12h-155v657q0 67 -39.5 110.5t-88.5 43.5q-45 0 -89 -29q-61 -41 -128 -141v-557h71q30 0 43 -11.5t13 -30.5q0 -18 -13 -30t-43 -12h-226q-30 0 -43 12t-13 30q0 19 13 30.5t43 11.5h71v697h-71q-30 0 -43 12t-13 31q0 18 13 30t43 12h155z" />
    <glyph glyph-name="n" unicode="n" 
d="M343 866v-127q88 89 159 123t160 34q96 0 175 -41q56 -30 101.5 -99.5t45.5 -142.5v-529h71q30 0 43 -11.5t13 -30.5q0 -18 -13 -30t-43 -12h-225q-31 0 -44 12t-13 30q0 19 13 30.5t44 11.5h70v515q0 89 -65 150.5t-174 61.5q-83 0 -144 -33.5t-174 -166.5v-527h95
q30 0 43 -11.5t13 -30.5q0 -18 -13 -30t-43 -12h-274q-30 0 -43 12t-13 30q0 19 13 30.5t43 11.5h95v697h-71q-30 0 -43 12t-13 31q0 18 13 30t43 12h155z" />
    <glyph glyph-name="o" unicode="o" 
d="M1084 431q0 -192 -137.5 -328t-331.5 -136q-196 0 -333 136.5t-137 327.5q0 192 137 328.5t333 136.5q194 0 331.5 -136t137.5 -329zM999 431q0 158 -112.5 269t-272.5 111t-272.5 -111.5t-112.5 -268.5q0 -156 112.5 -268t272.5 -112t272.5 111.5t112.5 268.5z" />
    <glyph glyph-name="p" unicode="p" 
d="M298 866v-153q75 91 161 137t203 46q124 0 229 -58t162.5 -161.5t57.5 -217.5q0 -181 -129.5 -309.5t-318.5 -128.5q-225 0 -365 183v-506h204q30 0 43 -11.5t13 -30.5q0 -18 -13 -30t-43 -12h-401q-30 0 -43 11.5t-13 30.5t13 30.5t43 11.5h113v1083h-113q-30 0 -43 12
t-13 31q0 18 13 30t43 12h197zM1026 459q0 145 -105.5 248.5t-257.5 103.5q-153 0 -259 -104t-106 -248q0 -145 106 -249t259 -104q151 0 257 103.5t106 249.5z" />
    <glyph glyph-name="q" unicode="q" 
d="M940 713v153h197q31 0 44 -12t13 -31q0 -18 -13 -30t-44 -12h-112v-1083h112q31 0 44 -11.5t13 -30.5q0 -18 -13 -30t-44 -12h-400q-30 0 -43 11.5t-13 30.5t13 30.5t43 11.5h203v506q-139 -183 -365 -183q-188 0 -317.5 128.5t-129.5 309.5q0 182 129.5 309.5
t319.5 127.5q224 0 363 -183zM940 459q0 145 -106 248.5t-258 103.5t-258 -103.5t-106 -248.5t106 -249t258 -104t258 104t106 249z" />
    <glyph glyph-name="r" unicode="r" 
d="M514 866v-212q164 148 245.5 190.5t150.5 42.5q75 0 139.5 -50.5t64.5 -76.5q0 -19 -12.5 -31.5t-31.5 -12.5q-10 0 -17 3.5t-26 22.5q-35 35 -61 48t-51 13q-55 0 -132.5 -44t-268.5 -215v-460h372q31 0 44 -11.5t13 -30.5q0 -18 -13 -30t-44 -12h-659q-30 0 -43 11.5
t-13 29.5q0 17 12.5 28.5t43.5 11.5h203v700h-155q-30 0 -43 12t-13 31q0 18 12.5 30t43.5 12h239z" />
    <glyph glyph-name="s" unicode="s" 
d="M892 811q0 29 12 42t30 13q19 0 31 -13t12 -44v-144q0 -30 -12 -43t-31 -13q-17 0 -28.5 11t-13.5 36q-6 60 -62 99q-82 56 -217 56q-141 0 -219 -57q-59 -43 -59 -96q0 -60 70 -100q48 -28 182 -43q175 -19 243 -43q97 -35 144.5 -97t47.5 -134q0 -107 -103 -190.5
t-302 -83.5t-326 101q0 -34 -4 -44t-14.5 -17t-23.5 -7q-18 0 -30 13t-12 43v173q0 30 11.5 43t30.5 13q18 0 30.5 -12.5t12.5 -33.5q0 -46 23 -77q35 -48 111.5 -79.5t187.5 -31.5q164 0 244 61t80 129q0 78 -81 125q-82 47 -238.5 63t-224.5 42t-106 78t-38 112
q0 108 106 171.5t253 63.5q174 0 283 -85z" />
    <glyph glyph-name="t" unicode="t" 
d="M442 866h456q30 0 43 -12t13 -31q0 -18 -13 -30t-43 -12h-456v-559q0 -73 58.5 -122t171.5 -49q85 0 184 25.5t154 57.5q20 13 33 13q16 0 28 -12.5t12 -29.5q0 -15 -13 -28q-32 -33 -155.5 -71.5t-236.5 -38.5q-147 0 -234 69t-87 186v559h-155q-30 0 -43 12t-13 31
q0 18 13 30t43 12h155v248q0 30 12 43t30 13q19 0 31 -13t12 -43v-248z" />
    <glyph glyph-name="u" unicode="u" 
d="M902 0v123q-172 -156 -372 -156q-123 0 -187 67q-83 88 -83 205v542h-113q-30 0 -43 12t-13 31q0 18 13 30t43 12h197v-627q0 -82 52 -135t130 -53q205 0 376 188v542h-155q-30 0 -43 12t-13 31q0 18 13 30t43 12h239v-782h71q30 0 43 -11.5t13 -30.5q0 -18 -13 -30
t-43 -12h-155z" />
    <glyph glyph-name="v" unicode="v" 
d="M688 0h-142l-345 781h-86q-30 0 -43 12t-13 31q0 18 13 30t43 12h315q30 0 43 -12t13 -31q0 -18 -13 -30t-43 -12h-139l308 -697h37l302 697h-140q-30 0 -43 12t-13 31q0 18 13 30t43 12h316q31 0 43.5 -12t12.5 -31q0 -18 -12.5 -30t-43.5 -12h-85z" />
    <glyph glyph-name="w" unicode="w" 
d="M904 0l-104 -1l-185 540l-184 -540l-104 1l-174 781h-41q-30 0 -43 12t-13 31q0 18 13 30t43 12h231q30 0 43 -12t13 -31q0 -18 -13 -30t-43 -12h-107l149 -666l179 532h100l184 -532l143 666h-106q-30 0 -43.5 12t-13.5 31q0 18 13 30t44 12h230q31 0 44 -12t13 -31
q0 -18 -13 -30t-44 -12h-40z" />
    <glyph glyph-name="x" unicode="x" 
d="M672 453l385 -369q38 0 48 -3.5t17.5 -14.5t7.5 -24q0 -18 -13 -30t-44 -12h-270q-31 0 -44 12t-13 30q0 19 13 30.5t44 11.5h139l-327 313l-325 -313h140q30 0 43 -11.5t13 -30.5q0 -18 -13 -30t-43 -12h-273q-30 0 -43 12t-13 30q0 13 7.5 24t17 14.5t47.5 3.5l385 369
l-342 328q-36 0 -45.5 4t-17 15t-7.5 24q0 18 13 30t44 12h229q31 0 43.5 -12t12.5 -31q0 -18 -12.5 -30t-43.5 -12h-100l283 -273l285 273h-100q-30 0 -43.5 12t-13.5 31q0 18 13 30t44 12h229q30 0 43 -12t13 -31q0 -12 -7.5 -23t-17 -15t-45.5 -4z" />
    <glyph glyph-name="y" unicode="y" 
d="M620 0l-390 781h-25q-30 0 -43 12t-13 30q0 13 6.5 23.5t17 15t32.5 4.5h230q30 0 43 -12t13 -31q0 -18 -13 -30t-43 -12h-113l343 -689l338 689h-113q-30 0 -43 12t-13 31q0 18 13 30t43 12h229q31 0 44 -12t13 -31q0 -13 -8 -24t-18 -14.5t-56 -3.5l-532 -1083h131
q30 0 43 -11.5t13 -30.5q0 -18 -13 -30t-43 -12h-484q-30 0 -43 11.5t-13 30.5t13 30.5t43 11.5h263z" />
    <glyph glyph-name="z" unicode="z" 
d="M982 866v-75l-629 -707h568v116q0 30 11.5 43t30.5 13t31 -13t12 -43l-1 -200h-768v75l626 706h-522v-114q0 -30 -12 -43t-30 -13q-19 0 -31 13t-12 43v199h726z" />
    <glyph glyph-name="braceleft" unicode="{" 
d="M566 498q50 -38 68 -72q23 -45 23 -107v-359q0 -57 33 -93.5t82 -41.5q31 -3 41 -12q13 -12 13 -30q0 -19 -13 -30.5t-38 -11.5q-79 0 -132 50q-71 69 -71 168v360q0 55 -33 92.5t-84 41.5q-28 3 -39 14t-11 31q0 19 11 30t39 14q52 4 84.5 41.5t32.5 92.5v360
q0 94 60 156.5t144 62.5q24 0 37 -12t13 -30t-13 -30q-9 -10 -41 -13q-50 -5 -82.5 -42t-32.5 -92v-360q0 -63 -20 -101.5t-71 -76.5z" />
    <glyph glyph-name="bar" unicode="|" 
d="M657 1198l-1 -1401q0 -30 -11.5 -43t-30.5 -13q-18 0 -30 13t-12 43v1401q0 31 12 44t30 13q19 0 31 -13t12 -44z" />
    <glyph glyph-name="braceright" unicode="}" 
d="M664 498q-51 38 -68 72q-23 44 -23 106v360q0 56 -33 93t-82 41q-32 3 -41 12q-13 13 -13 31t12.5 30t37.5 12q80 0 132 -51q71 -68 71 -168v-360q0 -55 33.5 -92.5t84.5 -41.5q27 -3 38.5 -14t11.5 -30q0 -20 -11.5 -31t-38.5 -14q-52 -4 -85 -41.5t-33 -92.5v-360
q0 -94 -60 -156.5t-143 -62.5q-25 0 -37.5 12t-12.5 31q0 18 12 30q10 9 42 12q50 5 82.5 42.5t32.5 92.5v359q0 63 20 102t71 77z" />
    <glyph glyph-name="asciitilde" unicode="~" 
d="M1003 668q16 0 28 -12t12 -28q0 -35 -87 -115.5t-160 -80.5q-45 0 -91 25.5t-131 105.5q-57 54 -86.5 71t-53.5 17q-29 0 -55 -16q-35 -20 -96 -91q-29 -33 -37.5 -38t-18.5 -5q-17 0 -28.5 11.5t-11.5 28.5q0 16 26 49q66 82 118 113.5t101 31.5q41 0 81 -19.5
t103 -76.5q101 -93 125.5 -107.5t48.5 -14.5q71 0 151 102q29 37 39 43t23 6z" />
    <glyph glyph-name="Adieresis" unicode="&#xc4;" 
d="M891 391h-552l-113 -307h161q30 0 43 -11.5t13 -30.5q0 -18 -13 -30t-43 -12h-314q-30 0 -43 12t-13 30q0 19 13 30.5t43 11.5h65l371 1002h-248q-30 0 -43 11.5t-13 30.5t13 30.5t43 11.5h423l410 -1086h65q30 0 43 -11.5t13 -30.5q0 -18 -13 -30t-43 -12h-313
q-31 0 -44 12t-13 30q0 19 13 30.5t44 11.5h160zM859 475l-232 611h-31l-225 -611h488zM392 1414q0 -34 -24 -57.5t-58 -23.5q-33 0 -57 24t-24 57q0 34 24 58t57 24q34 0 58 -24t24 -58zM821 1414q0 -34 -24 -57.5t-58 -23.5t-57.5 24t-23.5 57q0 34 23.5 58t57.5 24
t58 -24t24 -58z" />
    <glyph glyph-name="Aring" unicode="&#xc5;" 
d="M891 391h-552l-113 -307h161q30 0 43 -11.5t13 -30.5q0 -18 -13 -30t-43 -12h-314q-30 0 -43 12t-13 30q0 19 13 30.5t43 11.5h65l371 1002h-248q-30 0 -43 11.5t-13 30.5t13 30.5t43 11.5h423l410 -1086h65q30 0 43 -11.5t13 -30.5q0 -18 -13 -30t-43 -12h-313
q-31 0 -44 12t-13 30q0 19 13 30.5t44 11.5h160zM859 475l-232 611h-31l-225 -611h488zM744 1425q0 -73 -53 -125.5t-128 -52.5t-128 52.5t-53 125.5t53 125.5t128 52.5t128 -52.5t53 -125.5zM684 1425q0 49 -35.5 83.5t-85.5 34.5q-51 0 -86 -35t-35 -83t35.5 -83t85.5 -35
t85.5 34.5t35.5 83.5z" />
    <glyph glyph-name="Ccedilla" unicode="&#xc7;" 
d="M984 1055v59q0 30 11.5 43t30.5 13t30.5 -13t11.5 -43v-233q0 -31 -11.5 -44t-30.5 -13q-17 0 -28.5 12t-13.5 39q-5 84 -91 149q-116 89 -264 89q-97 0 -183 -43q-64 -31 -102 -76q-66 -78 -105 -173q-28 -70 -28 -158v-147q0 -188 136 -326.5t316 -138.5
q108 0 193.5 47t165.5 142q17 21 38 21q18 0 29 -11t11 -28q0 -23 -43 -70q-82 -92 -184.5 -138.5t-207.5 -46.5q-91 0 -185 35q-72 27 -119 63t-115.5 121.5t-93.5 158t-25 159.5v171q0 124 66.5 253.5t182 199t250.5 69.5q208 0 358 -142zM592 -163v153q0 22 8.5 31
t21.5 9q14 0 22 -9.5t8 -30.5v-96q56 -8 87 -38.5t31 -71.5q0 -49 -37.5 -83t-106.5 -34q-47 0 -101 18.5t-67 33.5q-10 11 -10 23q0 13 8.5 21.5t21.5 8.5q10 0 23 -7q68 -38 125 -38q39 0 61 18.5t22 40.5q0 19 -17 33q-23 18 -59 18h-41z" />
    <glyph glyph-name="Eacute" unicode="&#xc9;" 
d="M341 565v-481h646v248q0 30 11.5 43t30.5 13t30.5 -13t11.5 -43v-332h-927q-30 0 -43 12t-13 30q0 19 13 30.5t43 11.5h113v1002h-113q-30 0 -43 11.5t-13 30.5t13 30.5t43 11.5h883v-289q0 -30 -11.5 -43t-30.5 -13t-30.5 13t-11.5 43v205h-602v-437h301v95q0 30 12 43
t31 13q18 0 30 -13t12 -43v-274q0 -30 -12 -43t-30 -13q-19 0 -31 13t-12 43v95h-301zM763 1512l-237 -204q-22 -20 -38 -20q-17 0 -29.5 12.5t-12.5 30.5q0 10 4.5 18t20.5 23l236 204q23 20 39 20q17 0 29.5 -12.5t12.5 -30.5q0 -10 -4.5 -18.5t-20.5 -22.5z" />
    <glyph glyph-name="Ntilde" unicode="&#xd1;" 
d="M1026 0h-108l-619 1047v-963h155q31 0 44 -11.5t13 -30.5q0 -18 -13 -30t-44 -12h-309q-31 0 -44 12t-13 30q0 19 13 30.5t44 11.5h70v1002h-113q-30 0 -43 11.5t-13 30.5t13 30.5t43 11.5h220l620 -1049v965h-155q-30 0 -43 11.5t-13 30.5t12.5 30.5t43.5 11.5h310
q30 0 43 -11.5t13 -30.5t-13 -30.5t-43 -11.5h-71v-1086zM890 1435q17 0 29.5 -12t12.5 -27q0 -17 -13 -32q-40 -45 -95 -74q-38 -21 -79 -21q-64 0 -173 79q-58 43 -90 43q-40 0 -101 -56q-27 -25 -46 -25q-18 0 -29.5 12t-11.5 28q0 26 51 66q78 59 136 59q30 0 61 -12.5
t101 -60.5t102 -48q38 0 115 68q16 13 30 13z" />
    <glyph glyph-name="Odieresis" unicode="&#xd6;" 
d="M1128 582q0 -168 -68 -311.5t-187.5 -223.5t-256.5 -80q-203 0 -357.5 172.5t-154.5 442.5q0 271 154.5 443t357.5 172q137 0 256 -80t187.5 -223t68.5 -312zM1043 582q0 205 -119 368t-308 163q-177 0 -302.5 -155.5t-125.5 -375.5q0 -234 131.5 -382.5t296.5 -148.5
q189 0 308 162.5t119 368.5zM412 1414q0 -34 -24 -57.5t-58 -23.5q-33 0 -57 24t-24 57q0 34 24 58t57 24q34 0 58 -24t24 -58zM841 1414q0 -34 -24 -57.5t-58 -23.5t-57.5 24t-23.5 57q0 34 23.5 58t57.5 24t58 -24t24 -58z" />
    <glyph glyph-name="Udieresis" unicode="&#xdc;" 
d="M1021 1086v-702q0 -177 -118 -297t-285 -120q-112 0 -199 49t-148 148.5t-61 219.5v702h-71q-30 0 -43 11.5t-13 30.5t14 32q12 10 42 10h310q30 0 43 -11.5t13 -30.5t-13 -30.5t-43 -11.5h-155v-702q0 -139 95 -236t225 -97q83 0 151.5 38t120 117t51.5 178v702h-155
q-30 0 -43 11.5t-13 30.5t13 30.5t43 11.5h310q30 0 43 -11.5t13 -30.5t-13 -30.5t-43 -11.5h-71zM483 1414q0 -34 -24 -57.5t-58 -23.5q-33 0 -57 24t-24 57q0 34 24 58t57 24q34 0 58 -24t24 -58zM912 1414q0 -34 -24 -57.5t-58 -23.5t-57.5 24t-23.5 57q0 34 23.5 58
t57.5 24t58 -24t24 -58z" />
    <glyph glyph-name="aacute" unicode="&#xe1;" 
d="M856 0v121q-183 -154 -391 -154q-151 0 -236 76.5t-85 187.5q0 122 112 213t327 91q58 0 126 -7.5t147 -23.5v136q0 69 -64 120t-192 51q-98 0 -275 -57q-32 -10 -41 -10q-16 0 -27.5 12t-11.5 30q0 17 10 27q14 15 113 41q156 42 236 42q159 0 248 -78.5t89 -177.5v-556
h112q31 0 44 -11.5t13 -30.5q0 -18 -13 -30t-44 -12h-197zM856 418q-59 17 -125 25t-139 8q-183 0 -286 -79q-78 -59 -78 -141q0 -76 59.5 -128t173.5 -52q109 0 202.5 43.5t192.5 138.5v185zM760 1244l-237 -204q-22 -20 -38 -20q-17 0 -29.5 12.5t-12.5 30.5q0 10 4.5 18
t20.5 23l236 204q23 20 39 20q17 0 29.5 -12.5t12.5 -30.5q0 -10 -4.5 -18.5t-20.5 -22.5z" />
    <glyph glyph-name="agrave" unicode="&#xe0;" 
d="M856 0v121q-183 -154 -391 -154q-151 0 -236 76.5t-85 187.5q0 122 112 213t327 91q58 0 126 -7.5t147 -23.5v136q0 69 -64 120t-192 51q-98 0 -275 -57q-32 -10 -41 -10q-16 0 -27.5 12t-11.5 30q0 17 10 27q14 15 113 41q156 42 236 42q159 0 248 -78.5t89 -177.5v-556
h112q31 0 44 -11.5t13 -30.5q0 -18 -13 -30t-44 -12h-197zM856 418q-59 17 -125 25t-139 8q-183 0 -286 -79q-78 -59 -78 -141q0 -76 59.5 -128t173.5 -52q109 0 202.5 43.5t192.5 138.5v185zM525 1308l236 -204l22 -25q3 -5 3 -16q0 -18 -12.5 -30.5t-30.5 -12.5
q-15 0 -38 20l-236 204q-25 22 -25 41q0 18 12.5 30.5t30.5 12.5q15 0 38 -20z" />
    <glyph glyph-name="acircumflex" unicode="&#xe2;" 
d="M856 0v121q-183 -154 -391 -154q-151 0 -236 76.5t-85 187.5q0 122 112 213t327 91q58 0 126 -7.5t147 -23.5v136q0 69 -64 120t-192 51q-98 0 -275 -57q-32 -10 -41 -10q-16 0 -27.5 12t-11.5 30q0 17 10 27q14 15 113 41q156 42 236 42q159 0 248 -78.5t89 -177.5v-556
h112q31 0 44 -11.5t13 -30.5q0 -18 -13 -30t-44 -12h-197zM856 418q-59 17 -125 25t-139 8q-183 0 -286 -79q-78 -59 -78 -141q0 -76 59.5 -128t173.5 -52q109 0 202.5 43.5t192.5 138.5v185zM614 1310l271 -206q18 -14 23 -22.5t5 -19.5q0 -18 -12.5 -30t-30.5 -12
q-13 0 -35 17l-221 169l-220 -169q-22 -17 -36 -17q-17 0 -29.5 12.5t-12.5 29.5q0 21 28 42z" />
    <glyph glyph-name="adieresis" unicode="&#xe4;" 
d="M856 0v121q-183 -154 -391 -154q-151 0 -236 76.5t-85 187.5q0 122 112 213t327 91q58 0 126 -7.5t147 -23.5v136q0 69 -64 120t-192 51q-98 0 -275 -57q-32 -10 -41 -10q-16 0 -27.5 12t-11.5 30q0 17 10 27q14 15 113 41q156 42 236 42q159 0 248 -78.5t89 -177.5v-556
h112q31 0 44 -11.5t13 -30.5q0 -18 -13 -30t-44 -12h-197zM856 418q-59 17 -125 25t-139 8q-183 0 -286 -79q-78 -59 -78 -141q0 -76 59.5 -128t173.5 -52q109 0 202.5 43.5t192.5 138.5v185zM435 1146q0 -34 -24 -57.5t-58 -23.5q-33 0 -57 24t-24 57q0 34 24 58t57 24
q34 0 58 -24t24 -58zM864 1146q0 -34 -24 -57.5t-58 -23.5t-57.5 24t-23.5 57q0 34 23.5 58t57.5 24t58 -24t24 -58z" />
    <glyph glyph-name="atilde" unicode="&#xe3;" 
d="M856 0v121q-183 -154 -391 -154q-151 0 -236 76.5t-85 187.5q0 122 112 213t327 91q58 0 126 -7.5t147 -23.5v136q0 69 -64 120t-192 51q-98 0 -275 -57q-32 -10 -41 -10q-16 0 -27.5 12t-11.5 30q0 17 10 27q14 15 113 41q156 42 236 42q159 0 248 -78.5t89 -177.5v-556
h112q31 0 44 -11.5t13 -30.5q0 -18 -13 -30t-44 -12h-197zM856 418q-59 17 -125 25t-139 8q-183 0 -286 -79q-78 -59 -78 -141q0 -76 59.5 -128t173.5 -52q109 0 202.5 43.5t192.5 138.5v185zM892 1167q17 0 29.5 -12t12.5 -27q0 -17 -13 -32q-40 -45 -95 -74
q-38 -21 -79 -21q-64 0 -173 79q-58 43 -90 43q-40 0 -101 -56q-27 -25 -46 -25q-18 0 -29.5 12t-11.5 28q0 26 51 66q78 59 136 59q30 0 61 -12.5t101 -60.5t102 -48q38 0 115 68q16 13 30 13z" />
    <glyph glyph-name="aring" unicode="&#xe5;" 
d="M856 0v121q-183 -154 -391 -154q-151 0 -236 76.5t-85 187.5q0 122 112 213t327 91q58 0 126 -7.5t147 -23.5v136q0 69 -64 120t-192 51q-98 0 -275 -57q-32 -10 -41 -10q-16 0 -27.5 12t-11.5 30q0 17 10 27q14 15 113 41q156 42 236 42q159 0 248 -78.5t89 -177.5v-556
h112q31 0 44 -11.5t13 -30.5q0 -18 -13 -30t-44 -12h-197zM856 418q-59 17 -125 25t-139 8q-183 0 -286 -79q-78 -59 -78 -141q0 -76 59.5 -128t173.5 -52q109 0 202.5 43.5t192.5 138.5v185zM795 1186q0 -73 -53 -125.5t-128 -52.5t-128 52.5t-53 125.5t53 125.5t128 52.5
t128 -52.5t53 -125.5zM735 1186q0 49 -35.5 83.5t-85.5 34.5q-51 0 -86 -35t-35 -83t35.5 -83t85.5 -35t85.5 34.5t35.5 83.5z" />
    <glyph glyph-name="ccedilla" unicode="&#xe7;" 
d="M965 781v28q0 31 12 44t30 13q19 0 31 -13t12 -44v-190q-1 -31 -12.5 -44t-30.5 -13q-17 0 -28.5 11.5t-13.5 38.5q-6 71 -93.5 135t-235.5 64q-187 0 -284 -117t-97 -268q0 -163 107 -269t277 -106q98 0 199.5 36t183.5 116q21 20 37 20q17 0 28.5 -11.5t11.5 -28.5
q0 -43 -101 -109q-163 -107 -363 -107q-203 0 -333.5 129.5t-130.5 328.5q0 203 133.5 337t336.5 134q193 0 324 -115zM586 -163v153q0 22 8.5 31t21.5 9q14 0 22 -9.5t8 -30.5v-96q56 -8 87 -38.5t31 -71.5q0 -49 -37.5 -83t-106.5 -34q-47 0 -101 18.5t-67 33.5
q-10 11 -10 23q0 13 8.5 21.5t21.5 8.5q10 0 23 -7q68 -38 125 -38q39 0 61 18.5t22 40.5q0 19 -17 33q-23 18 -59 18h-41z" />
    <glyph glyph-name="eacute" unicode="&#xe9;" 
d="M1069 413h-856q22 -163 136.5 -262.5t283.5 -99.5q94 0 197 31t168 82q19 15 33 15q16 0 28 -12.5t12 -29.5t-16 -33q-48 -50 -170.5 -93.5t-251.5 -43.5q-216 0 -360.5 141.5t-144.5 342.5q0 183 135.5 314t335.5 131q206 0 339 -134.5t131 -348.5zM984 498
q-25 139 -131.5 226t-253.5 87t-253 -86t-132 -227h770zM761 1245l-237 -204q-22 -20 -38 -20q-17 0 -29.5 12.5t-12.5 30.5q0 10 4.5 18t20.5 23l236 204q23 20 39 20q17 0 29.5 -12.5t12.5 -30.5q0 -10 -4.5 -18.5t-20.5 -22.5z" />
    <glyph glyph-name="egrave" unicode="&#xe8;" 
d="M1069 413h-856q22 -163 136.5 -262.5t283.5 -99.5q94 0 197 31t168 82q19 15 33 15q16 0 28 -12.5t12 -29.5t-16 -33q-48 -50 -170.5 -93.5t-251.5 -43.5q-216 0 -360.5 141.5t-144.5 342.5q0 183 135.5 314t335.5 131q206 0 339 -134.5t131 -348.5zM984 498
q-25 139 -131.5 226t-253.5 87t-253 -86t-132 -227h770zM525 1309l236 -204l22 -25q3 -5 3 -16q0 -18 -12.5 -30.5t-30.5 -12.5q-15 0 -38 20l-236 204q-25 22 -25 41q0 18 12.5 30.5t30.5 12.5q15 0 38 -20z" />
    <glyph glyph-name="ecircumflex" unicode="&#xea;" 
d="M1069 413h-856q22 -163 136.5 -262.5t283.5 -99.5q94 0 197 31t168 82q19 15 33 15q16 0 28 -12.5t12 -29.5t-16 -33q-48 -50 -170.5 -93.5t-251.5 -43.5q-216 0 -360.5 141.5t-144.5 342.5q0 183 135.5 314t335.5 131q206 0 339 -134.5t131 -348.5zM984 498
q-25 139 -131.5 226t-253.5 87t-253 -86t-132 -227h770zM614 1310l271 -206q18 -14 23 -22.5t5 -19.5q0 -18 -12.5 -30t-30.5 -12q-13 0 -35 17l-221 169l-220 -169q-22 -17 -36 -17q-17 0 -29.5 12.5t-12.5 29.5q0 21 28 42z" />
    <glyph glyph-name="edieresis" unicode="&#xeb;" 
d="M1069 413h-856q22 -163 136.5 -262.5t283.5 -99.5q94 0 197 31t168 82q19 15 33 15q16 0 28 -12.5t12 -29.5t-16 -33q-48 -50 -170.5 -93.5t-251.5 -43.5q-216 0 -360.5 141.5t-144.5 342.5q0 183 135.5 314t335.5 131q206 0 339 -134.5t131 -348.5zM984 498
q-25 139 -131.5 226t-253.5 87t-253 -86t-132 -227h770zM486 1146q0 -34 -24 -57.5t-58 -23.5q-33 0 -57 24t-24 57q0 34 24 58t57 24q34 0 58 -24t24 -58zM915 1146q0 -34 -24 -57.5t-58 -23.5t-57.5 24t-23.5 57q0 34 23.5 58t57.5 24t58 -24t24 -58z" />
    <glyph glyph-name="iacute" unicode="&#xed;" 
d="M660 866v-782h330q31 0 44 -11.5t13 -30.5q0 -18 -13 -30t-44 -12h-744q-30 0 -43 12t-17 32q4 17 17 28.5t43 11.5h330v697h-245q-30 0 -43.5 12t-13.5 30q0 19 13 31t44 12h329zM675 1244l-237 -204q-22 -20 -38 -20q-17 0 -29.5 12.5t-12.5 30.5q0 10 4.5 18t20.5 23
l236 204q23 20 39 20q17 0 29.5 -12.5t12.5 -30.5q0 -10 -4.5 -18.5t-20.5 -22.5z" />
    <glyph glyph-name="igrave" unicode="&#xec;" 
d="M660 866v-782h330q31 0 44 -11.5t13 -30.5q0 -18 -13 -30t-44 -12h-744q-30 0 -43 12t-17 32q4 17 17 28.5t43 11.5h330v697h-245q-30 0 -43.5 12t-13.5 30q0 19 13 31t44 12h329zM449 1300l236 -204l22 -25q3 -5 3 -16q0 -18 -12.5 -30.5t-30.5 -12.5q-15 0 -38 20
l-236 204q-25 22 -25 41q0 18 12.5 30.5t30.5 12.5q15 0 38 -20z" />
    <glyph glyph-name="icircumflex" unicode="&#xee;" 
d="M660 866v-782h330q31 0 44 -11.5t13 -30.5q0 -18 -13 -30t-44 -12h-744q-30 0 -43 12t-17 32q4 17 17 28.5t43 11.5h330v697h-245q-30 0 -43.5 12t-13.5 30q0 19 13 31t44 12h329zM530 1310l271 -206q18 -14 23 -22.5t5 -19.5q0 -18 -12.5 -30t-30.5 -12q-13 0 -35 17
l-221 169l-220 -169q-22 -17 -36 -17q-17 0 -29.5 12.5t-12.5 29.5q0 21 28 42z" />
    <glyph glyph-name="idieresis" unicode="&#xef;" 
d="M660 866v-782h330q31 0 44 -11.5t13 -30.5q0 -18 -13 -30t-44 -12h-744q-30 0 -43 12t-17 32q4 17 17 28.5t43 11.5h330v697h-245q-30 0 -43.5 12t-13.5 30q0 19 13 31t44 12h329zM398 1146q0 -34 -24 -57.5t-58 -23.5q-33 0 -57 24t-24 57q0 34 24 58t57 24q34 0 58 -24
t24 -58zM827 1146q0 -34 -24 -57.5t-58 -23.5t-57.5 24t-23.5 57q0 34 23.5 58t57.5 24t58 -24t24 -58z" />
    <glyph glyph-name="ntilde" unicode="&#xf1;" 
d="M343 866v-127q88 89 159 123t160 34q96 0 175 -41q56 -30 101.5 -99.5t45.5 -142.5v-529h71q30 0 43 -11.5t13 -30.5q0 -18 -13 -30t-43 -12h-225q-31 0 -44 12t-13 30q0 19 13 30.5t44 11.5h70v515q0 89 -65 150.5t-174 61.5q-83 0 -144 -33.5t-174 -166.5v-527h95
q30 0 43 -11.5t13 -30.5q0 -18 -13 -30t-43 -12h-274q-30 0 -43 12t-13 30q0 19 13 30.5t43 11.5h95v697h-71q-30 0 -43 12t-13 31q0 18 13 30t43 12h155zM892 1167q17 0 29.5 -12t12.5 -27q0 -17 -13 -32q-40 -45 -95 -74q-38 -21 -79 -21q-64 0 -173 79q-58 43 -90 43
q-40 0 -101 -56q-27 -25 -46 -25q-18 0 -29.5 12t-11.5 28q0 26 51 66q78 59 136 59q30 0 61 -12.5t101 -60.5t102 -48q38 0 115 68q16 13 30 13z" />
    <glyph glyph-name="oacute" unicode="&#xf3;" 
d="M1084 431q0 -192 -137.5 -328t-331.5 -136q-196 0 -333 136.5t-137 327.5q0 192 137 328.5t333 136.5q194 0 331.5 -136t137.5 -329zM999 431q0 158 -112.5 269t-272.5 111t-272.5 -111.5t-112.5 -268.5q0 -156 112.5 -268t272.5 -112t272.5 111.5t112.5 268.5zM760 1245
l-237 -204q-22 -20 -38 -20q-17 0 -29.5 12.5t-12.5 30.5q0 10 4.5 18t20.5 23l236 204q23 20 39 20q17 0 29.5 -12.5t12.5 -30.5q0 -10 -4.5 -18.5t-20.5 -22.5z" />
    <glyph glyph-name="ograve" unicode="&#xf2;" 
d="M1084 431q0 -192 -137.5 -328t-331.5 -136q-196 0 -333 136.5t-137 327.5q0 192 137 328.5t333 136.5q194 0 331.5 -136t137.5 -329zM999 431q0 158 -112.5 269t-272.5 111t-272.5 -111.5t-112.5 -268.5q0 -156 112.5 -268t272.5 -112t272.5 111.5t112.5 268.5zM524 1309
l236 -204l22 -25q3 -5 3 -16q0 -18 -12.5 -30.5t-30.5 -12.5q-15 0 -38 20l-236 204q-25 22 -25 41q0 18 12.5 30.5t30.5 12.5q15 0 38 -20z" />
    <glyph glyph-name="ocircumflex" unicode="&#xf4;" 
d="M1084 431q0 -192 -137.5 -328t-331.5 -136q-196 0 -333 136.5t-137 327.5q0 192 137 328.5t333 136.5q194 0 331.5 -136t137.5 -329zM999 431q0 158 -112.5 269t-272.5 111t-272.5 -111.5t-112.5 -268.5q0 -156 112.5 -268t272.5 -112t272.5 111.5t112.5 268.5zM614 1310
l271 -206q18 -14 23 -22.5t5 -19.5q0 -18 -12.5 -30t-30.5 -12q-13 0 -35 17l-221 169l-220 -169q-22 -17 -36 -17q-17 0 -29.5 12.5t-12.5 29.5q0 21 28 42z" />
    <glyph glyph-name="odieresis" unicode="&#xf6;" 
d="M1084 431q0 -192 -137.5 -328t-331.5 -136q-196 0 -333 136.5t-137 327.5q0 192 137 328.5t333 136.5q194 0 331.5 -136t137.5 -329zM999 431q0 158 -112.5 269t-272.5 111t-272.5 -111.5t-112.5 -268.5q0 -156 112.5 -268t272.5 -112t272.5 111.5t112.5 268.5zM482 1146
q0 -34 -24 -57.5t-58 -23.5q-33 0 -57 24t-24 57q0 34 24 58t57 24q34 0 58 -24t24 -58zM911 1146q0 -34 -24 -57.5t-58 -23.5t-57.5 24t-23.5 57q0 34 23.5 58t57.5 24t58 -24t24 -58z" />
    <glyph glyph-name="otilde" unicode="&#xf5;" 
d="M1084 431q0 -192 -137.5 -328t-331.5 -136q-196 0 -333 136.5t-137 327.5q0 192 137 328.5t333 136.5q194 0 331.5 -136t137.5 -329zM999 431q0 158 -112.5 269t-272.5 111t-272.5 -111.5t-112.5 -268.5q0 -156 112.5 -268t272.5 -112t272.5 111.5t112.5 268.5zM891 1167
q17 0 29.5 -12t12.5 -27q0 -17 -13 -32q-40 -45 -95 -74q-38 -21 -79 -21q-64 0 -173 79q-58 43 -90 43q-40 0 -101 -56q-27 -25 -46 -25q-18 0 -29.5 12t-11.5 28q0 26 51 66q78 59 136 59q30 0 61 -12.5t101 -60.5t102 -48q38 0 115 68q16 13 30 13z" />
    <glyph glyph-name="uacute" unicode="&#xfa;" 
d="M902 0v123q-172 -156 -372 -156q-123 0 -187 67q-83 88 -83 205v542h-113q-30 0 -43 12t-13 31q0 18 13 30t43 12h197v-627q0 -82 52 -135t130 -53q205 0 376 188v542h-155q-30 0 -43 12t-13 31q0 18 13 30t43 12h239v-782h71q30 0 43 -11.5t13 -30.5q0 -18 -13 -30
t-43 -12h-155zM761 1245l-237 -204q-22 -20 -38 -20q-17 0 -29.5 12.5t-12.5 30.5q0 10 4.5 18t20.5 23l236 204q23 20 39 20q17 0 29.5 -12.5t12.5 -30.5q0 -10 -4.5 -18.5t-20.5 -22.5z" />
    <glyph glyph-name="ugrave" unicode="&#xf9;" 
d="M902 0v123q-172 -156 -372 -156q-123 0 -187 67q-83 88 -83 205v542h-113q-30 0 -43 12t-13 31q0 18 13 30t43 12h197v-627q0 -82 52 -135t130 -53q205 0 376 188v542h-155q-30 0 -43 12t-13 31q0 18 13 30t43 12h239v-782h71q30 0 43 -11.5t13 -30.5q0 -18 -13 -30
t-43 -12h-155zM525 1309l236 -204l22 -25q3 -5 3 -16q0 -18 -12.5 -30.5t-30.5 -12.5q-15 0 -38 20l-236 204q-25 22 -25 41q0 18 12.5 30.5t30.5 12.5q15 0 38 -20z" />
    <glyph glyph-name="ucircumflex" unicode="&#xfb;" 
d="M902 0v123q-172 -156 -372 -156q-123 0 -187 67q-83 88 -83 205v542h-113q-30 0 -43 12t-13 31q0 18 13 30t43 12h197v-627q0 -82 52 -135t130 -53q205 0 376 188v542h-155q-30 0 -43 12t-13 31q0 18 13 30t43 12h239v-782h71q30 0 43 -11.5t13 -30.5q0 -18 -13 -30
t-43 -12h-155zM615 1310l271 -206q18 -14 23 -22.5t5 -19.5q0 -18 -12.5 -30t-30.5 -12q-13 0 -35 17l-221 169l-220 -169q-22 -17 -36 -17q-17 0 -29.5 12.5t-12.5 29.5q0 21 28 42z" />
    <glyph glyph-name="udieresis" unicode="&#xfc;" 
d="M902 0v123q-172 -156 -372 -156q-123 0 -187 67q-83 88 -83 205v542h-113q-30 0 -43 12t-13 31q0 18 13 30t43 12h197v-627q0 -82 52 -135t130 -53q205 0 376 188v542h-155q-30 0 -43 12t-13 31q0 18 13 30t43 12h239v-782h71q30 0 43 -11.5t13 -30.5q0 -18 -13 -30
t-43 -12h-155zM446 1146q0 -34 -24 -57.5t-58 -23.5q-33 0 -57 24t-24 57q0 34 24 58t57 24q34 0 58 -24t24 -58zM875 1146q0 -34 -24 -57.5t-58 -23.5t-57.5 24t-23.5 57q0 34 23.5 58t57.5 24t58 -24t24 -58z" />
    <glyph glyph-name="dagger" unicode="&#x2020;" 
d="M657 783v-856q0 -31 -11.5 -44t-30.5 -13t-30.5 13t-11.5 44v856h-265q-30 0 -43 12t-13 30q0 19 13 31t43 12l265 -1v331q0 31 11.5 44t30.5 13t30.5 -13t11.5 -44v-331h264q31 0 44 -11.5t13 -30.5q0 -18 -13 -30t-44 -12h-264z" />
    <glyph glyph-name="degree" unicode="&#xb0;" 
d="M337 1214q0 115 81.5 196t195.5 81q116 0 197 -81t81 -196t-81.5 -196.5t-196.5 -81.5q-114 0 -195.5 81t-81.5 197zM446 1214q0 -70 49.5 -119.5t119.5 -49.5q69 0 118.5 49.5t49.5 119.5t-49.5 119.5t-118.5 49.5q-70 0 -119.5 -49.5t-49.5 -119.5z" />
    <glyph glyph-name="cent" unicode="&#xa2;" 
d="M571 1030v250q0 30 11.5 43t30.5 13t30.5 -13t11.5 -43v-247q128 -4 218 -75q5 17 16 25.5t25 8.5q19 0 31 -13t12 -38v-127q0 -31 -11.5 -44t-30.5 -13q-17 0 -28 11t-14 37q-8 60 -68.5 103.5t-169.5 43.5q-144 0 -233.5 -87t-89.5 -218q0 -129 89 -216.5t225 -87.5
q67 0 139 23t122 64q21 17 37 17q18 0 29 -11.5t11 -29.5q0 -29 -51 -61q-117 -74 -258 -82v-207q0 -30 -11.5 -43t-30.5 -13t-30.5 13t-11.5 43v207q-149 18 -246 127t-97 256q0 160 110 270q81 81 233 114z" />
    <glyph glyph-name="sterling" unicode="&#xa3;" 
d="M372 84h519q38 0 64.5 27.5t30.5 80.5q2 24 13.5 35.5t28.5 11.5q18 0 30.5 -12.5t12.5 -32.5q0 -83 -53 -138.5t-122 -55.5h-669q-30 0 -43 12t-13 30q0 17 12 29t35 12q43 2 79 40q53 54 82 150t29 178q0 67 -12 116h-216q-30 0 -43 11.5t-13 30.5t13 30.5t43 11.5h195
q-57 177 -57 253q0 122 87 210t207 88q105 0 187 -67t82 -107q0 -14 -13 -26.5t-29 -12.5q-18 0 -38 25q-79 103 -186 103q-87 0 -149.5 -63t-62.5 -150q0 -35 9 -78q2 -7 49 -175h205q30 0 43 -11.5t13 -30.5t-13 -30.5t-43 -11.5h-186q10 -62 10 -121q0 -96 -29.5 -191.5
t-88.5 -170.5z" />
    <glyph glyph-name="section" unicode="&#xa7;" 
d="M997 1255v-217q0 -21 -8 -30.5t-21 -9.5q-14 0 -22.5 9.5t-8.5 30.5v156h-350q-78 0 -135 -56t-57 -124q0 -49 37 -93q54 -65 268 -187l113 -64q164 -94 218 -156q54 -63 54 -130q0 -65 -57.5 -114t-166.5 -50q34 -53 34 -107q0 -59 -29.5 -115.5t-88.5 -92t-139 -35.5
h-406v219q0 21 8.5 30.5t21.5 9.5q14 0 22.5 -9.5t8.5 -30.5v-158h344q100 0 149 60t49 116q0 48 -38 96q-51 64 -233 169l-130 75q-174 101 -232 168q-59 67 -59 128q0 62 56 110t170 54q-34 51 -34 99q0 65 30 119t88.5 92t128.5 38h415zM417 849q-14 -3 -34 -3
q-93 0 -136.5 -33t-43.5 -74q0 -45 58 -99q57 -55 215 -146l125 -73q155 -90 213 -146q10 6 31 7q100 2 140 32.5t40 67.5q0 38 -36 83q-49 62 -200 148l-130 73q-109 62 -152.5 92t-89.5 71z" />
    <glyph glyph-name="bullet" unicode="&#x2022;" 
d="M862 637q0 -103 -73 -175.5t-175 -72.5t-174.5 72.5t-72.5 175.5q0 102 72.5 174.5t174.5 72.5q103 0 175.5 -72.5t72.5 -174.5z" />
    <glyph glyph-name="paragraph" unicode="&#xb6;" 
d="M895 1194v-1263h131q22 0 31 -8.5t9 -21.5q0 -14 -9.5 -22.5t-30.5 -8.5h-195q-22 0 -31.5 8.5t-9.5 22.5q0 8 5.5 16t13 11t25.5 3v1263h-176v-1263q19 0 26.5 -3t12.5 -11t5 -16q0 -14 -9.5 -22.5t-30.5 -8.5h-280q-21 0 -30.5 8.5t-9.5 21.5q0 14 9.5 22.5t30.5 8.5
h215v633q-118 8 -213 45q-56 21 -110.5 66.5t-78.5 84.5t-24 97v97q0 65 35 124q25 42 60 68q51 38 141 73.5t207 35.5h409q22 0 31.5 -8.5t9.5 -21.5q0 -14 -9.5 -22.5t-31.5 -8.5h-128zM597 1194q-145 -13 -225 -87.5t-80 -157.5v-77q0 -55 27 -95q49 -70 105 -101
q74 -40 173 -49v567z" />
    <glyph glyph-name="germandbls" unicode="&#xdf;" 
d="M258 84v906q0 106 84.5 185.5t210.5 79.5q127 0 215 -88.5t88 -214.5q0 -125 -120 -207q93 -39 146 -84q72 -61 110.5 -143t38.5 -185q0 -170 -83 -268t-191 -98q-92 0 -155 68.5t-63 174.5q0 22 12 34.5t30 12.5t29.5 -12t12.5 -37q5 -78 42 -117q36 -40 93 -40
q87 0 137.5 88.5t50.5 192.5q0 83 -32.5 152t-76.5 106.5t-133 78.5q-56 25 -132 25q-31 0 -43 9q-16 13 -16 34q0 17 12.5 29.5t33.5 12.5q61 0 111.5 26t76 64.5t25.5 85.5q0 87 -64 151t-155 64q-94 0 -152.5 -55.5t-58.5 -124.5v-906h32q30 0 43 -11.5t13 -30.5
q0 -18 -13 -30t-43 -12h-229q-30 0 -43 12t-13 30q0 19 13 30.5t43 11.5h113z" />
    <glyph glyph-name="registered" unicode="&#xae;" 
d="M1223 584q0 -253 -179 -432t-433 -179q-253 0 -432 179t-179 432q0 254 179 433t432 179q254 0 433 -179t179 -433zM1155 584q0 226 -159 385t-385 159q-225 0 -384.5 -159t-159.5 -385q0 -225 159.5 -384t384.5 -159q226 0 385 159t159 384zM461 549v-248h88
q13 0 18.5 -3t9.5 -8.5t4 -12.5t-4 -13t-9.5 -8.5t-18.5 -2.5h-200q-13 0 -18.5 2.5t-9.5 8.5t-4 13q0 6 4 12.5t9.5 9t18.5 2.5h64v567h-64q-13 0 -18.5 3t-9.5 9t-4 12q0 7 4 13t9.5 8.5t18.5 2.5h288q89 0 150 -56.5t61 -127.5q0 -51 -38 -96t-126 -75q51 -34 87.5 -78.5
t115.5 -181.5h37q13 0 18.5 -3t9.5 -9t4 -12q0 -7 -4 -13t-9.5 -8.5t-18.5 -2.5h-64q-87 157 -135.5 211t-112.5 85h-151zM461 596h129q99 0 154.5 44.5t55.5 94.5q0 48 -47.5 90.5t-116.5 42.5h-175v-272z" />
    <glyph glyph-name="copyright" unicode="&#xa9;" 
d="M1223 584q0 -253 -179 -432t-433 -179q-253 0 -432 179t-179 432q0 254 179 433t432 179q254 0 433 -179t179 -433zM1155 584q0 226 -159 385t-385 159q-225 0 -384.5 -159t-159.5 -385q0 -225 159.5 -384t384.5 -159q226 0 385 159t159 384zM810 862v34q0 17 7 24.5
t18 7.5q10 0 16.5 -7.5t6.5 -24.5v-132q0 -14 -2.5 -19.5t-8.5 -9t-13 -3.5q-9 0 -15.5 6.5t-8.5 21.5q-3 49 -51 85q-66 50 -150 50q-100 0 -158 -63q-78 -86 -78 -192v-83q0 -107 77 -185.5t178 -78.5q116 0 204 107q10 12 21 12t17 -6t6 -16q0 -28 -75 -86t-171 -58
q-85 0 -153 42.5t-122 135.5q-30 53 -30 126v97q0 106 76 201t206 95q119 0 203 -81z" />
    <glyph glyph-name="trademark" unicode="&#x2122;" 
d="M297 1105v-432h93q41 0 41 -33q0 -32 -41 -32h-252q-41 0 -41 32q0 33 41 33h94v432h-163v-143q0 -41 -32 -41q-33 0 -33 41v208h520v-208q0 -41 -32 -41q-33 0 -33 41v143h-162zM914 776h-68l-166 325v-428h58q42 0 42 -33q0 -32 -42 -32h-161q-42 0 -42 32q0 33 42 33
h36v497h107l160 -312l160 312h107v-497h36q42 0 42 -33q0 -32 -42 -32h-161q-42 0 -42 32q0 33 42 33h58v430z" />
    <glyph glyph-name="acute" unicode="&#xb4;" 
d="M760 1245l-237 -204q-22 -20 -38 -20q-17 0 -29.5 12.5t-12.5 30.5q0 10 4.5 18t20.5 23l236 204q23 20 39 20q17 0 29.5 -12.5t12.5 -30.5q0 -10 -4.5 -18.5t-20.5 -22.5z" />
    <glyph glyph-name="dieresis" unicode="&#xa8;" 
d="M482 1147q0 -34 -24 -57.5t-58 -23.5q-33 0 -57 24t-24 57q0 34 24 58t57 24q34 0 58 -24t24 -58zM911 1147q0 -34 -24 -57.5t-58 -23.5t-57.5 24t-23.5 57q0 34 23.5 58t57.5 24t58 -24t24 -58z" />
    <glyph glyph-name="notequal" unicode="&#x2260;" 
d="M712 695l-100 -217h461q30 0 43 -11.5t13 -30.5t-13 -30.5t-43 -11.5h-500l-197 -429q-17 -37 -45 -37q-17 0 -29.5 12t-12.5 28q0 11 10 32l181 394h-323q-30 0 -43 11.5t-13 30.5t13 30.5t43 11.5h362l100 217h-462q-30 0 -43 12t-13 31q0 18 13 30t43 12h500l197 427
q17 37 44 37q18 0 30 -12.5t12 -27.5q0 -11 -9 -33l-181 -391h323q30 0 43 -12t13 -31q0 -18 -13 -30t-43 -12h-361z" />
    <glyph glyph-name="AE" unicode="&#xc6;" 
d="M614 394h-293l-85 -310h54q30 0 43 -11.5t13 -30.5q0 -18 -13 -30t-43 -12h-216q-30 0 -43 12t-13 30q0 19 13 30.5t43 11.5h77l276 1002h-131q-30 0 -43 11.5t-13 30.5t12.5 30.5t43.5 11.5h874v-316q0 -30 -12 -43t-30 -13q-19 0 -31 13t-12 43v232h-387v-436h163v58
q0 31 11.5 44t30.5 13t31 -13t11 -44v-198q0 -31 -11.5 -44t-30.5 -13t-30.5 13t-11.5 44v57h-163v-483h430v194q0 23 5 34q3 6 14.5 14t18.5 8l20 -3q16 -9 21 -18.5t5 -34.5v-278h-706q-30 0 -43 12t-13 30q0 19 13 30.5t43 11.5h108v310zM614 475v611h-104l-166 -611h270
z" />
    <glyph glyph-name="Oslash" unicode="&#xd8;" 
d="M291 104l-127 -161q-14 -18 -22.5 -22.5t-18.5 -4.5q-18 0 -30.5 12.5t-12.5 30.5q0 14 18 36l137 174q-131 181 -131 412q0 272 154.5 444t357.5 172q183 0 322 -134l127 162q14 17 22.5 22t19.5 5q18 0 30 -12.5t12 -30.5q0 -14 -17 -36l-137 -174q133 -177 133 -417
q0 -270 -155 -442.5t-357 -172.5q-184 0 -325 137zM884 995q-121 118 -268 118q-177 0 -302.5 -156t-125.5 -375q0 -191 102 -343zM344 172q121 -121 272 -121q175 0 301 155t126 376q0 196 -103 347z" />
    <glyph glyph-name="infinity" unicode="&#x221e;" 
d="M615 678q126 168 281 168q100 0 162 -61t62 -161q0 -101 -60.5 -163.5t-156.5 -62.5q-148 0 -288 170q-84 -100 -150 -134.5t-138 -34.5q-94 0 -156 61.5t-62 159.5t64 161.5t160 63.5q149 0 282 -167zM665 622q88 -94 137.5 -119.5t100.5 -25.5q66 0 104.5 39.5
t38.5 106.5q0 64 -41.5 105.5t-105.5 41.5q-55 0 -118 -36.5t-116 -111.5zM567 624q-87 92 -138 118.5t-103 26.5q-63 0 -103.5 -40t-40.5 -106q0 -68 39.5 -107.5t101.5 -39.5q63 0 128.5 42t115.5 106z" />
    <glyph glyph-name="plusminus" unicode="&#xb1;" 
d="M657 676v-420q0 -30 -12 -43t-31 -13q-18 0 -30 13t-12 43v420h-372q-30 0 -43 11.5t-13 30.5t13 30.5t43 11.5h372v418q0 30 12 43t31 13q18 0 30 -13t12 -43v-418h372q30 0 43 -11.5t13 -30.5t-13 -30.5t-43 -11.5h-372zM968 0h-707q-79 0 -87 2q-13 3 -21.5 14.5
t-8.5 25.5t8.5 25.5t21.5 14.5q8 3 87 3l707 -1q79 0 87 -2q13 -3 21.5 -14.5t8.5 -25.5t-8.5 -25.5t-21.5 -14.5q-8 -2 -87 -2z" />
    <glyph glyph-name="lessequal" unicode="&#x2264;" 
d="M98 884l908 506q22 13 33 13q17 0 29.5 -12.5t12.5 -29.5q0 -26 -34 -44l-778 -432l777 -432q34 -19 34 -44q0 -17 -12.5 -29.5t-29.5 -12.5q-11 0 -33 12zM961 181h-744q-78 0 -86 2q-13 3 -21.5 14.5t-8.5 25.5t8.5 25.5t20.5 14.5q9 2 87 2h744q79 0 87 -2
q13 -3 21.5 -14.5t8.5 -25.5t-8.5 -25.5t-21.5 -14.5q-8 -2 -87 -2z" />
    <glyph glyph-name="greaterequal" unicode="&#x2265;" 
d="M1131 885l-908 -506q-22 -12 -33 -12q-17 0 -29.5 12t-12.5 30q0 25 34 44l778 432l-777 431q-34 19 -34 45q0 17 12.5 29.5t29.5 12.5q11 0 33 -13zM1012 181h-744q-79 0 -87 2q-13 3 -21.5 14.5t-8.5 25.5t8.5 25.5t21.5 14.5q8 2 87 2h744q79 0 87 -2
q12 -3 20.5 -14.5t8.5 -25.5t-8.5 -25.5t-20.5 -14.5q-9 -2 -87 -2z" />
    <glyph glyph-name="yen" unicode="&#xa5;" 
d="M657 511v-158h271q22 0 31.5 -8t9.5 -22q0 -13 -9.5 -21.5t-31.5 -8.5h-271v-209h179q30 0 43 -11.5t13 -30.5q0 -18 -13 -30t-43 -12h-443q-30 0 -43 12t-13 30q0 19 13 30.5t43 11.5h179v209h-271q-21 0 -30.5 8.5t-9.5 21.5q0 14 9.5 22t30.5 8h271v158h-271
q-21 0 -30.5 8.5t-9.5 21.5t9.5 21.5t30.5 8.5h242l-339 515h-50q-30 0 -43 11.5t-13 30.5t13 30.5t43 11.5h230q30 0 43 -11.5t13 -30.5t-13 -30.5t-43 -11.5h-81l311 -472l311 472h-82q-30 0 -43 11.5t-13 30.5t13 30.5t43 11.5h228q31 0 44 -11.5t13 -30.5t-13 -30.5
t-44 -11.5h-48l-340 -515h245q22 0 31.5 -8.5t9.5 -21.5q0 -14 -9.5 -22t-31.5 -8h-271z" />
    <glyph glyph-name="mu1" unicode="&#xb5;" 
d="M343 34v-364q0 -30 -11.5 -43t-30.5 -13t-30.5 13t-11.5 43v1111h-113q-30 0 -43 12t-13 31q0 18 13 30t43 12h197v-627q0 -82 52 -135t130 -53q205 0 376 188v542h-155q-30 0 -43 12t-13 31q0 18 13 30t43 12h239v-782h71q30 0 43 -11.5t13 -30.5q0 -18 -13 -30t-43 -12
h-155v123q-172 -156 -374 -156q-109 0 -184 67z" />
    <glyph glyph-name="partialdiff" unicode="&#x2202;" 
d="M916 766q-3 188 -30.5 262.5t-71.5 107.5t-100 33q-64 0 -122.5 -39.5t-113.5 -139.5q-14 -27 -23 -33.5t-21 -6.5q-20 0 -32.5 12t-12.5 28q0 28 50.5 103.5t126 118.5t147.5 43q106 0 179 -78q107 -112 107 -391q0 -251 -77.5 -441t-210.5 -282.5t-263 -92.5
q-123 0 -197.5 76.5t-74.5 209.5q0 114 51.5 210.5t138 159.5t218.5 99.5t332 40.5zM914 680q-155 -4 -237 -19q-133 -24 -224.5 -77t-142.5 -143t-51 -187q0 -89 55.5 -144t138.5 -55q80 0 163.5 45.5t145.5 123.5t105 212q30 94 47 244z" />
    <glyph glyph-name="summation" unicode="&#x2211;" 
d="M1016 -302v265q0 30 12 43t31 13q18 0 30 -13t12 -43v-349h-1058v90l523 744l-506 728v79h1035v-319q0 -30 -11.5 -43t-30.5 -13t-30.5 13t-11.5 43v234h-855l507 -714l-523 -758h876z" />
    <glyph glyph-name="product" unicode="&#x220f;" 
d="M970 -302v1472h-711v-1472h65q30 0 43 -11.5t13 -30.5q0 -18 -13 -30t-43 -12h-214q-30 0 -43 11.5t-13 30.5t13 30.5t43 11.5h65v1472h-65q-30 0 -43 12t-13 31q0 12 6.5 22.5t16 15t33.5 4.5h1009q30 0 43 -12t13 -31q0 -18 -13 -30t-43 -12h-64v-1472h64
q30 0 43 -11.5t13 -30.5q0 -18 -13 -30t-43 -12h-213q-31 0 -44 11.5t-13 30.5t13 30.5t44 11.5h64z" />
    <glyph glyph-name="pi1" 
d="M826 782h-423v-698h50q44 0 50 -2q12 -4 19 -14.5t7 -23.5q0 -14 -7.5 -25t-20.5 -16q-6 -3 -48 -3h-214q-40 0 -47 3q-11 4 -18 14.5t-7 22.5q0 13 8 24t20 15.5t52 4.5h72v698h-55q-51 0 -62 4q-17 6 -25.5 17t-8.5 22t8 21.5t22 15.5q11 4 58 4h714q55 0 65.5 -3.5
t16.5 -11.5q8 -13 8 -27t-7 -23.5t-20 -14t-63 -4.5h-60v-698h74q40 0 51.5 -4t18.5 -14t7 -22q0 -15 -11.5 -28.5t-24.5 -15.5h-248q-41 0 -53 4.5t-18 14.5q-9 14 -9 27t13 24q19 15 40 15l27 -1h49v698z" />
    <glyph glyph-name="integral" unicode="&#x222b;" 
d="M640 509l4 -123q2 -45 2 -90q0 -252 -33.5 -356.5t-100 -153t-138.5 -48.5q-60 0 -104.5 42.5t-44.5 93.5q0 29 13 43.5t34 14.5t36.5 -16t24.5 -63q7 -32 20 -43q18 -15 44 -15q58 0 110 53q38 39 61 134.5t23 314.5q0 52 -2 105l-4 122q-2 46 -2 91q0 252 33 356
t99.5 153t138.5 49q61 0 105.5 -42.5t44.5 -94.5q0 -27 -13.5 -42t-33.5 -15q-21 0 -37 16t-24 62q-6 33 -20 44q-18 15 -44 15q-58 0 -110 -53q-39 -40 -61.5 -136t-22.5 -312q0 -53 2 -106z" />
    <glyph glyph-name="ordfeminine" unicode="&#xaa;" 
d="M759 747v60q-115 -80 -240 -80q-107 0 -165 51t-58 122q0 76 74.5 135.5t222.5 59.5q35 0 76.5 -4t89.5 -12v66q0 34 -32 58q-42 31 -122 31q-61 0 -175 -34q-22 -6 -30 -6q-16 0 -27.5 11t-11.5 28q0 14 10 24.5t69 25.5q111 28 168 28q111 0 171.5 -51.5t60.5 -114.5
v-321h60q26 0 38 -11t12 -27t-12 -27.5t-38 -11.5h-141zM759 906l-1 95q-34 9 -73 13t-84 4q-116 0 -179 -45q-45 -32 -45 -73q0 -39 34 -67.5t105 -28.5q127 0 243 102z" />
    <glyph glyph-name="ordmasculine" unicode="&#xba;" 
d="M930 1019q0 -118 -91.5 -205t-226.5 -87t-226.5 87.5t-91.5 204.5q0 118 91.5 205t226.5 87t226.5 -87t91.5 -205zM849 1019q0 87 -68 151t-169 64t-169 -64.5t-68 -150.5t68 -150.5t169 -64.5t169 64.5t68 150.5z" />
    <glyph glyph-name="Ohm" unicode="&#x2126;" 
d="M146 84h281v95q-177 41 -271.5 162t-94.5 301q0 248 169 398t386 150q148 0 278 -71t202 -201.5t72 -277.5q0 -172 -92.5 -291t-277.5 -170v-95h281v50q0 47 11 60t32 13q13 0 23 -7t13.5 -16.5t2.5 -49.5v-134h-445v245q181 29 275.5 137t94.5 271q0 217 -146.5 338.5
t-318.5 121.5q-165 0 -301 -104q-175 -134 -175 -362q0 -173 95.5 -277t268.5 -125v-245h-443v134q0 40 3 49q4 11 14.5 18t22.5 7t20 -6q12 -8 16 -18.5t4 -49.5v-50z" />
    <glyph glyph-name="ae" unicode="&#xe6;" 
d="M1192 412h-534q15 -181 100 -286q61 -75 129 -75q89 0 231 116q18 15 33 15q18 0 29.5 -12t11.5 -30q0 -16 -13 -31q-48 -51 -152 -103q-79 -39 -139 -39q-61 0 -122 39.5t-108 119.5v-70q0 -30 -11.5 -43t-30.5 -13t-30.5 13t-11.5 43v45q-71 -76 -127 -105t-119 -29
q-80 0 -154 43t-116 125t-42 165q0 55 29.5 95.5t115.5 80.5q125 58 234 58q45 0 90 -6.5t89 -19.5v125q0 70 -53 124t-114 54q-33 0 -86 -14.5t-103 -40.5q-26 -13 -37 -13q-16 0 -28.5 12.5t-12.5 28.5t14 31t105 48t153 33q69 0 134 -47.5t96 -130.5q55 91 105 128
q65 50 136 50q109 0 208.5 -126.5t100.5 -357.5zM1107 496q-20 156 -102 249q-58 66 -125 66q-63 0 -121 -67q-80 -92 -101 -248h449zM574 420q-45 15 -88 22.5t-84 7.5q-141 0 -249 -72q-53 -34 -53 -85q0 -59 30.5 -119.5t84 -91.5t111.5 -31q53 0 100 30q64 40 148 148
v191z" />
    <glyph glyph-name="oslash" unicode="&#xf8;" 
d="M320 66l-126 -129q-22 -23 -40 -23t-30 12.5t-12 31.5q0 16 22 38l123 126q-123 133 -123 310q0 189 140.5 326.5t342.5 137.5q167 0 298 -99l125 128q22 22 40 22q17 0 29.5 -12t12.5 -31q0 -16 -22 -39l-122 -125q122 -132 122 -309q0 -190 -140.5 -327t-342.5 -137
q-162 0 -297 99zM855 736q-106 75 -238 75q-167 0 -282.5 -112.5t-115.5 -267.5q0 -137 97 -248zM379 127q106 -76 239 -76q167 0 282 112.5t115 267.5q0 141 -96 249z" />
    <glyph glyph-name="questiondown" unicode="&#xbf;" 
d="M659 679h-84q-43 0 -73.5 30.5t-30.5 72.5q0 45 31 75t73 30h84q43 0 73.5 -30.5t30.5 -73.5q0 -45 -31 -74.5t-73 -29.5zM573 294v85q0 31 12 44t31 13q18 0 30 -13t12 -44v-141q-219 -80 -299 -161q-45 -46 -45 -114q0 -111 81.5 -191t211.5 -80q66 0 124.5 15.5
t142.5 55.5v68q0 31 11.5 44t30.5 13t30.5 -13t11.5 -44v-122q-156 -70 -202 -81q-78 -20 -156 -20q-166 0 -268 100.5t-102 253.5q0 94 60.5 166t282.5 166z" />
    <glyph glyph-name="exclamdown" unicode="&#xa1;" 
d="M634 670h-39q-43 0 -73.5 30.5t-30.5 73.5q0 45 31 74.5t73 29.5h39q43 0 73.5 -30.5t30.5 -72.5q0 -45 -31 -75t-73 -30zM535 -274l37 645q2 32 13.5 45t28.5 13q18 0 29.5 -13t13.5 -45l38 -645q1 -23 1 -35q0 -34 -23 -57t-58 -23t-58.5 22.5t-23.5 59.5q0 10 2 33z
" />
    <glyph glyph-name="logicalnot" unicode="&#xac;" 
d="M80 543q-23 0 -33 4.5t-16.5 15t-6.5 22.5q0 19 13 30.5t43 11.5h1005v-504q0 -30 -12 -43t-30 -13q-19 0 -31 13t-12 43v420h-920z" />
    <glyph glyph-name="radical" unicode="&#x221a;" 
d="M1135 1603l-270 -1681l-496 1021l-198 -91l-34 64l301 151l405 -823l217 1359h75z" />
    <glyph glyph-name="florin" unicode="&#x192;" 
d="M658 780h200q30 0 43 -12t13 -31q0 -18 -13 -30t-43 -12h-200v-574q0 -131 -89 -222.5t-214 -91.5q-68 0 -134 25q-44 17 -44 47q0 18 11 29.5t27 11.5q10 0 31 -7q63 -22 114 -22q90 0 143 60q70 77 70 183v561h-200q-30 0 -43 12t-13 31q0 18 13 30t43 12h200v180
q0 139 91.5 233t219.5 94q74 0 138 -24q40 -15 40 -44q0 -18 -12 -29.5t-29 -11.5q-6 0 -39 10q-45 15 -90 15q-105 0 -160 -59q-74 -80 -74 -184v-180z" />
    <glyph glyph-name="approxequal" unicode="&#x2248;" 
d="M1003 837q16 0 28 -12t12 -28q0 -35 -87 -115.5t-160 -80.5q-45 0 -91 25.5t-131 105.5q-57 54 -86.5 71t-53.5 17q-29 0 -55 -16q-35 -20 -96 -91q-29 -33 -37.5 -38.5t-18.5 -5.5q-17 0 -28.5 12t-11.5 29q0 16 26 49q66 82 118 113.5t101 31.5q41 0 81 -19.5
t103 -76.5q101 -93 125.5 -107.5t48.5 -14.5q71 0 151 102q29 37 39 43t23 6zM1003 499q16 0 28 -12t12 -28q0 -35 -87 -115.5t-160 -80.5q-45 0 -91 25.5t-131 105.5q-57 54 -86.5 71t-53.5 17q-29 0 -55 -16q-35 -20 -96 -91q-29 -33 -37.5 -38t-18.5 -5q-17 0 -28.5 11.5
t-11.5 28.5q0 16 26 49q66 82 118 113.5t101 31.5q41 0 81 -19.5t103 -76.5q101 -93 125.5 -107.5t48.5 -14.5q71 0 151 102q29 37 39 43t23 6z" />
    <glyph glyph-name="Delta" unicode="&#x2206;" 
d="M83 0l444 1153h154l456 -1153h-1054zM187 71h844l-398 1026h-58z" />
    <glyph glyph-name="guillemotleft" unicode="&#xab;" 
d="M99 434l448 410q26 24 44 24t30 -12t12 -31q0 -16 -23 -41l-313 -350l313 -349q23 -25 23 -42q0 -18 -12 -30t-30 -12t-44 23zM568 434l448 410q26 24 44 24t30 -12t12 -31q0 -16 -22 -41l-313 -350l313 -349q22 -25 22 -42q0 -18 -12 -30t-30 -12t-44 23z" />
    <glyph glyph-name="guillemotright" unicode="&#xbb;" 
d="M661 434l-449 -410q-25 -23 -43 -23t-30 12t-12 30q0 17 22 42l313 349l-313 350q-22 25 -22 42q0 18 12 30t30 12t43 -24zM1130 434l-448 -410q-26 -23 -44 -23t-30 12t-12 30q0 17 22 42l313 349l-313 350q-22 25 -22 42q0 18 12 30t30 12t44 -24z" />
    <glyph glyph-name="ellipsis" unicode="&#x2026;" 
d="M306 73q0 -43 -30 -73t-72 -30q-43 0 -73 30t-30 73q0 42 30 72t73 30q42 0 72 -30t30 -72zM716 73q0 -43 -30 -73t-73 -30q-42 0 -72 30t-30 73q0 42 30 72t72 30q43 0 73 -30t30 -72zM1128 73q0 -43 -30 -73t-73 -30q-42 0 -72 30t-30 73q0 42 29.5 72t72.5 30t73 -30
t30 -72z" />
    <glyph glyph-name="Agrave" unicode="&#xc0;" 
d="M891 391h-552l-113 -307h161q30 0 43 -11.5t13 -30.5q0 -18 -13 -30t-43 -12h-314q-30 0 -43 12t-13 30q0 19 13 30.5t43 11.5h65l371 1002h-248q-30 0 -43 11.5t-13 30.5t13 30.5t43 11.5h423l410 -1086h65q30 0 43 -11.5t13 -30.5q0 -18 -13 -30t-43 -12h-313
q-31 0 -44 12t-13 30q0 19 13 30.5t44 11.5h160zM859 475l-232 611h-31l-225 -611h488zM452 1576l236 -204l22 -25q3 -5 3 -16q0 -18 -12.5 -30.5t-30.5 -12.5q-15 0 -38 20l-236 204q-25 22 -25 41q0 18 12.5 30.5t30.5 12.5q15 0 38 -20z" />
    <glyph glyph-name="Atilde" unicode="&#xc3;" 
d="M891 391h-552l-113 -307h161q30 0 43 -11.5t13 -30.5q0 -18 -13 -30t-43 -12h-314q-30 0 -43 12t-13 30q0 19 13 30.5t43 11.5h65l371 1002h-248q-30 0 -43 11.5t-13 30.5t13 30.5t43 11.5h423l410 -1086h65q30 0 43 -11.5t13 -30.5q0 -18 -13 -30t-43 -12h-313
q-31 0 -44 12t-13 30q0 19 13 30.5t44 11.5h160zM859 475l-232 611h-31l-225 -611h488zM800 1435q17 0 29.5 -12t12.5 -27q0 -17 -13 -32q-40 -45 -95 -74q-38 -21 -79 -21q-64 0 -173 79q-58 43 -90 43q-40 0 -101 -56q-27 -25 -46 -25q-18 0 -29.5 12t-11.5 28q0 26 51 66
q78 59 136 59q30 0 61 -12.5t101 -60.5t102 -48q38 0 115 68q16 13 30 13z" />
    <glyph glyph-name="Otilde" unicode="&#xd5;" 
d="M1128 582q0 -168 -68 -311.5t-187.5 -223.5t-256.5 -80q-203 0 -357.5 172.5t-154.5 442.5q0 271 154.5 443t357.5 172q137 0 256 -80t187.5 -223t68.5 -312zM1043 582q0 205 -119 368t-308 163q-177 0 -302.5 -155.5t-125.5 -375.5q0 -234 131.5 -382.5t296.5 -148.5
q189 0 308 162.5t119 368.5zM822 1435q17 0 29.5 -12t12.5 -27q0 -17 -13 -32q-40 -45 -95 -74q-38 -21 -79 -21q-64 0 -173 79q-58 43 -90 43q-40 0 -101 -56q-27 -25 -46 -25q-18 0 -29.5 12t-11.5 28q0 26 51 66q78 59 136 59q30 0 61 -12.5t101 -60.5t102 -48
q38 0 115 68q16 13 30 13z" />
    <glyph glyph-name="OE" unicode="&#x152;" 
d="M698 566v-482h430v193q0 30 11.5 43t30.5 13t30.5 -13t11.5 -43v-277h-669q-230 0 -378 157.5t-148 424.5q0 108 28 211.5t72 165.5t126 122q62 45 125.5 67t158.5 22h644v-320q0 -30 -12 -43t-31 -13q-18 0 -30 13t-12 43v236h-388v-436h163v57q0 31 12 44t30 13
q19 0 31 -13t12 -44l-1 -199q0 -30 -11.5 -43t-30.5 -13q-18 0 -30 13t-12 43v58h-163zM613 1086h-67q-122 0 -192 -35t-129.5 -98t-91.5 -158.5t-32 -213.5q0 -233 122.5 -365t322.5 -132h67v1002z" />
    <glyph glyph-name="oe" unicode="&#x153;" 
d="M1193 413h-536q8 -115 50 -204t89.5 -123.5t94.5 -34.5q76 0 187 84q46 35 55.5 40t19.5 5q16 0 28.5 -12.5t12.5 -29.5q0 -19 -30 -44q-47 -40 -113 -76q-92 -51 -162 -51q-76 0 -152 61t-122 186q-50 -129 -125 -188t-151 -59q-115 0 -204 112q-117 145 -117 360
q0 208 113 347q91 111 204 111q77 0 155.5 -60t124.5 -178q103 238 268 238q110 0 208.5 -124t101.5 -360zM574 432q0 178 -79 279.5t-157 101.5q-79 0 -157.5 -101.5t-78.5 -279.5t79 -279.5t157 -101.5q79 0 157.5 101.5t78.5 279.5zM1107 498q-25 162 -102 249
q-59 66 -123 66t-122 -65q-77 -87 -102 -250h449z" />
    <glyph glyph-name="endash" unicode="&#x2013;" 
d="M1028 543h-827q-30 0 -43 11.5t-13 30.5t13 30.5t43 11.5h827q30 0 43 -11.5t13 -30.5t-13 -30.5t-43 -11.5z" />
    <glyph glyph-name="emdash" unicode="&#x2014;" 
d="M1187 544h-1146q-30 0 -43 12t-13 30q0 19 13 31t43 12h1146q30 0 43 -12t13 -31q0 -18 -13 -30t-43 -12z" />
    <glyph glyph-name="quotedblleft" unicode="&#x201c;" 
d="M179 1255h218l171 -431q9 -23 9 -35q0 -21 -15 -36t-37 -15q-28 0 -53 40zM611 1255h218l171 -431q9 -23 9 -35q0 -21 -14.5 -36t-36.5 -15q-29 0 -54 40z" />
    <glyph glyph-name="quotedblright" unicode="&#x201d;" 
d="M400 1255h217l-293 -477q-24 -40 -54 -40q-21 0 -36 15t-15 35q0 13 9 36zM832 1255h217l-292 -477q-25 -40 -54 -40q-22 0 -37 15t-15 35q0 13 10 36z" />
    <glyph glyph-name="quoteleft" unicode="&#x2018;" 
d="M509 1255h274l145 -520q3 -12 3 -23q0 -24 -17.5 -41.5t-43.5 -17.5q-36 0 -63 50z" />
    <glyph glyph-name="quoteright" unicode="&#x2019;" 
d="M442 1255h273l-297 -552q-27 -50 -65 -50q-25 0 -42.5 17.5t-17.5 42.5q0 10 3 22z" />
    <glyph glyph-name="divide" unicode="&#xf7;" 
d="M696 978q0 -34 -24 -58t-57 -24q-34 0 -58 24t-24 58q0 33 24 57t58 24q33 0 57 -23.5t24 -57.5zM968 543h-707q-79 0 -87 2q-13 3 -21.5 14.5t-8.5 25.5t8.5 25.5t21.5 14.5q8 2 87 2h707q79 0 87 -2q13 -3 21.5 -14.5t8.5 -25.5t-8.5 -25.5t-21.5 -14.5q-8 -2 -87 -2z
M696 192q0 -34 -24 -57.5t-58 -23.5q-33 0 -57 23.5t-24 57.5t24 57.5t57 23.5q34 0 58 -23.5t24 -57.5z" />
    <glyph glyph-name="lozenge" unicode="&#x25ca;" 
d="M657 1422l418 -713l-418 -709h-111l-391 709l391 713h111zM603 1325l-340 -616l340 -615l359 615z" />
    <glyph glyph-name="ydieresis" unicode="&#xff;" 
d="M620 0l-390 781h-25q-30 0 -43 12t-13 30q0 13 6.5 23.5t17 15t32.5 4.5h230q30 0 43 -12t13 -31q0 -18 -13 -30t-43 -12h-113l343 -689l338 689h-113q-30 0 -43 12t-13 31q0 18 13 30t43 12h229q31 0 44 -12t13 -31q0 -13 -8 -24t-18 -14.5t-56 -3.5l-532 -1083h131
q30 0 43 -11.5t13 -30.5q0 -18 -13 -30t-43 -12h-484q-30 0 -43 11.5t-13 30.5t13 30.5t43 11.5h263zM542 1147q0 -34 -24 -57.5t-58 -23.5q-33 0 -57 24t-24 57q0 34 24 58t57 24q34 0 58 -24t24 -58zM971 1147q0 -34 -24 -57.5t-58 -23.5t-57.5 24t-23.5 57q0 34 23.5 58
t57.5 24t58 -24t24 -58z" />
    <glyph glyph-name="Ydieresis" unicode="&#x178;" 
d="M659 528v-444h218q30 0 43 -11.5t13 -30.5q0 -18 -13 -30t-43 -12h-521q-30 0 -43 12t-13 30q0 19 12.5 30.5t43.5 11.5h218v444l-369 558h-50q-30 0 -43 11.5t-13 30.5t13 30.5t43 11.5h231q30 0 43 -11.5t13 -30.5t-13 -30.5t-43 -11.5h-83l314 -473l307 473h-82
q-31 0 -44 11.5t-13 30.5t13 30.5t44 11.5h230q30 0 43 -11.5t13 -30.5t-13 -30.5t-43 -11.5h-50zM483 1414q0 -34 -24 -57.5t-58 -23.5q-33 0 -57 24t-24 57q0 34 24 58t57 24q34 0 58 -24t24 -58zM912 1414q0 -34 -24 -57.5t-58 -23.5t-57.5 24t-23.5 57q0 34 23.5 58
t57.5 24t58 -24t24 -58z" />
    <glyph glyph-name="fraction" unicode="&#x2044;" 
d="M1095 893l-915 -590q-22 -14 -34 -14q-18 0 -30.5 12t-12.5 30q0 23 31 43l916 590q22 14 34 14q17 0 30 -12.5t13 -29.5q0 -23 -32 -43z" />
    <glyph glyph-name="fraction" unicode="&#x2215;" 
d="M1095 893l-915 -590q-22 -14 -34 -14q-18 0 -30.5 12t-12.5 30q0 23 31 43l916 590q22 14 34 14q17 0 30 -12.5t13 -29.5q0 -23 -32 -43z" />
    <glyph glyph-name="currency" unicode="&#xa4;" 
d="M404 336l-116 -115q-15 -15 -22.5 -18.5t-16.5 -3.5q-18 0 -30.5 12t-12.5 31q0 9 3 15q5 9 19 24l116 115q-74 97 -74 212t72 211l-114 114q-22 22 -22 40q0 17 12.5 29.5t30.5 12.5q17 0 39 -22l114 -114q91 73 213 73q120 0 211 -73l114 114q23 22 40 22
q18 0 30 -12.5t12 -30.5q0 -9 -3 -16q-5 -9 -19 -23l-114 -114q72 -95 72 -210q0 -119 -73 -213l115 -115q22 -23 22 -40q0 -18 -12.5 -30t-30.5 -12q-16 0 -39 22l-115 115q-96 -72 -211 -72t-210 72zM874 608q0 108 -76 184t-184 76q-107 0 -183 -76t-76 -184
q0 -107 76 -183t183 -76t183.5 76t76.5 183z" />
    <glyph glyph-name="guilsinglleft" unicode="&#x2039;" 
d="M107 434l448 410q26 24 44 24t30 -12t12 -31q0 -16 -23 -41l-313 -350l313 -349q23 -25 23 -42q0 -18 -12 -30t-30 -12t-44 23z" />
    <glyph glyph-name="guilsinglright" unicode="&#x203a;" 
d="M1130 434l-449 -410q-25 -23 -43 -23t-30 12t-12 30q0 17 22 42l313 349l-313 350q-22 25 -22 42q0 18 12 30t30 12t43 -24z" />
    <glyph glyph-name="fi" unicode="&#xf001;" 
d="M995 1297v-217h-124v217h124zM328 781v-697h149q30 0 43 -11.5t13 -30.5q0 -18 -13 -30t-43 -12h-407q-30 0 -43 12t-13 30q0 19 13 30.5t43 11.5h173v697h-161q-30 0 -43 12t-13 31q0 18 13 30t43 12h161v124q0 117 67.5 191t154.5 74q68 0 147 -28q42 -15 42 -46
q0 -18 -11 -29.5t-27 -11.5q-7 0 -22 5q-81 25 -127 25q-57 0 -92 -41q-47 -56 -47 -139v-124h149q30 0 43 -12t13 -31q0 -18 -13 -30t-43 -12h-149zM996 866v-782h155q31 0 44 -11.5t13 -30.5q0 -18 -13 -30t-44 -12h-400q-30 0 -43 12t-13 30q0 19 12.5 30.5t43.5 11.5
h161v697h-119q-30 0 -43 12t-13 31q0 18 13 30t43 12h203z" />
    <glyph glyph-name="fi" unicode="&#xfb01;" 
d="M995 1297v-217h-124v217h124zM328 781v-697h149q30 0 43 -11.5t13 -30.5q0 -18 -13 -30t-43 -12h-407q-30 0 -43 12t-13 30q0 19 13 30.5t43 11.5h173v697h-161q-30 0 -43 12t-13 31q0 18 13 30t43 12h161v124q0 117 67.5 191t154.5 74q68 0 147 -28q42 -15 42 -46
q0 -18 -11 -29.5t-27 -11.5q-7 0 -22 5q-81 25 -127 25q-57 0 -92 -41q-47 -56 -47 -139v-124h149q30 0 43 -12t13 -31q0 -18 -13 -30t-43 -12h-149zM996 866v-782h155q31 0 44 -11.5t13 -30.5q0 -18 -13 -30t-44 -12h-400q-30 0 -43 12t-13 30q0 19 12.5 30.5t43.5 11.5
h161v697h-119q-30 0 -43 12t-13 31q0 18 13 30t43 12h203z" />
    <glyph glyph-name="fl" unicode="&#xf002;" 
d="M333 781v-697h149q30 0 43 -11.5t13 -30.5q0 -18 -13 -30t-43 -12h-407q-30 0 -43 12t-13 30q0 19 13 30.5t43 11.5h173v697h-161q-30 0 -43 12t-13 31q0 18 13 30t43 12h161v124q0 117 67.5 191t154.5 74q68 0 147 -28q42 -15 42 -46q0 -18 -11 -29.5t-27 -11.5
q-7 0 -22 5q-81 25 -127 25q-57 0 -92 -41q-47 -56 -47 -139v-124h149q30 0 43 -12t13 -31q0 -18 -13 -30t-43 -12h-149zM1000 1255v-1171h161q31 0 44 -11.5t13 -30.5q0 -18 -13 -30t-44 -12h-406q-30 0 -43 12t-13 30q0 19 12.5 30.5t43.5 11.5h161v1086h-119
q-30 0 -43 12t-13 31q0 18 13 30t43 12h203z" />
    <glyph glyph-name="fl" unicode="&#xfb02;" 
d="M333 781v-697h149q30 0 43 -11.5t13 -30.5q0 -18 -13 -30t-43 -12h-407q-30 0 -43 12t-13 30q0 19 13 30.5t43 11.5h173v697h-161q-30 0 -43 12t-13 31q0 18 13 30t43 12h161v124q0 117 67.5 191t154.5 74q68 0 147 -28q42 -15 42 -46q0 -18 -11 -29.5t-27 -11.5
q-7 0 -22 5q-81 25 -127 25q-57 0 -92 -41q-47 -56 -47 -139v-124h149q30 0 43 -12t13 -31q0 -18 -13 -30t-43 -12h-149zM1000 1255v-1171h161q31 0 44 -11.5t13 -30.5q0 -18 -13 -30t-44 -12h-406q-30 0 -43 12t-13 30q0 19 12.5 30.5t43.5 11.5h161v1086h-119
q-30 0 -43 12t-13 31q0 18 13 30t43 12h203z" />
    <glyph glyph-name="daggerdbl" unicode="&#x2021;" 
d="M656 784v-435h265q31 0 44 -12t13 -31q0 -18 -13 -30t-44 -12h-265v-337q0 -31 -11.5 -44t-30.5 -13q-18 0 -30 13t-12 44v337h-265q-30 0 -43 12t-13 31q0 18 13 30t43 12h265v435h-265q-30 0 -43 12t-13 31q0 18 13 30t43 12h265v329q0 31 12 44t30 13q19 0 31 -13
t12 -44l-1 -329h265q31 0 44 -12t13 -31q0 -18 -13 -30t-44 -12h-265z" />
    <glyph glyph-name="periodcentered" unicode="&#xb7;" 
d="M597 772h36q56 0 96 -39.5t40 -95.5q0 -58 -40.5 -97t-95.5 -39h-36q-56 0 -96 39.5t-40 95.5q0 58 40.5 97t95.5 39z" />
    <glyph glyph-name="periodcentered" unicode="&#x2219;" 
d="M597 772h36q56 0 96 -39.5t40 -95.5q0 -58 -40.5 -97t-95.5 -39h-36q-56 0 -96 39.5t-40 95.5q0 58 40.5 97t95.5 39z" />
    <glyph glyph-name="quotesinglbase" unicode="&#x201a;" 
d="M448 277h273l-297 -551q-27 -51 -65 -51q-25 0 -42.5 18t-17.5 43q0 10 3 22z" />
    <glyph glyph-name="quotedblbase" unicode="&#x201e;" 
d="M405 256h217l-293 -476q-24 -40 -54 -40q-21 0 -36 15t-15 35q0 13 9 36zM837 256h217l-292 -476q-25 -40 -54 -40q-22 0 -37 15t-15 35q0 13 10 36z" />
    <glyph glyph-name="perthousand" unicode="&#x2030;" 
d="M431 1060q0 -66 -47 -130q-63 -89 -138 -89t-138 88q-47 65 -47 131q0 67 55.5 143t129.5 76q75 0 138 -88q47 -65 47 -131zM369 1060q0 55 -44.5 106.5t-78.5 51.5t-78.5 -51.5t-44.5 -106.5q0 -54 45 -106t78 -52t78 51.5t45 106.5zM1015 810l-778 -253q-13 -5 -21 -5
q-10 0 -19 9t-9 21q0 11 8 20q4 6 23 12l778 253q13 5 21 5q10 0 19 -9t9 -21q0 -11 -8 -20q-4 -6 -23 -12zM624 198q0 -66 -46 -131q-64 -88 -139 -88t-137 87q-48 66 -48 132t55.5 142t129.5 76q75 0 139 -88q46 -64 46 -130zM563 198q0 54 -45 106t-78 52q-34 0 -79 -52
t-45 -106q0 -55 45 -107t79 -52q33 0 78 52t45 107zM1162 198q0 -66 -47 -131q-63 -88 -138 -88t-138 87q-47 66 -47 132t55.5 142t129.5 76q75 0 138 -88q47 -64 47 -130zM1100 198q0 54 -44.5 106t-78.5 52t-78.5 -52t-44.5 -106q0 -55 44.5 -107t78.5 -52q33 0 78 52
t45 107z" />
    <glyph glyph-name="Acircumflex" unicode="&#xc2;" 
d="M891 391h-552l-113 -307h161q30 0 43 -11.5t13 -30.5q0 -18 -13 -30t-43 -12h-314q-30 0 -43 12t-13 30q0 19 13 30.5t43 11.5h65l371 1002h-248q-30 0 -43 11.5t-13 30.5t13 30.5t43 11.5h423l410 -1086h65q30 0 43 -11.5t13 -30.5q0 -18 -13 -30t-43 -12h-313
q-31 0 -44 12t-13 30q0 19 13 30.5t44 11.5h160zM859 475l-232 611h-31l-225 -611h488zM553 1580l271 -206q18 -14 23 -22.5t5 -19.5q0 -18 -12.5 -30t-30.5 -12q-13 0 -35 17l-221 169l-220 -169q-22 -17 -36 -17q-17 0 -29.5 12.5t-12.5 29.5q0 21 28 42z" />
    <glyph glyph-name="Ecircumflex" unicode="&#xca;" 
d="M341 565v-481h646v248q0 30 11.5 43t30.5 13t30.5 -13t11.5 -43v-332h-927q-30 0 -43 12t-13 30q0 19 13 30.5t43 11.5h113v1002h-113q-30 0 -43 11.5t-13 30.5t13 30.5t43 11.5h883v-289q0 -30 -11.5 -43t-30.5 -13t-30.5 13t-11.5 43v205h-602v-437h301v95q0 30 12 43
t31 13q18 0 30 -13t12 -43v-274q0 -30 -12 -43t-30 -13q-19 0 -31 13t-12 43v95h-301zM615 1577l271 -206q18 -14 23 -22.5t5 -19.5q0 -18 -12.5 -30t-30.5 -12q-13 0 -35 17l-221 169l-220 -169q-22 -17 -36 -17q-17 0 -29.5 12.5t-12.5 29.5q0 21 28 42z" />
    <glyph glyph-name="Aacute" unicode="&#xc1;" 
d="M891 391h-552l-113 -307h161q30 0 43 -11.5t13 -30.5q0 -18 -13 -30t-43 -12h-314q-30 0 -43 12t-13 30q0 19 13 30.5t43 11.5h65l371 1002h-248q-30 0 -43 11.5t-13 30.5t13 30.5t43 11.5h423l410 -1086h65q30 0 43 -11.5t13 -30.5q0 -18 -13 -30t-43 -12h-313
q-31 0 -44 12t-13 30q0 19 13 30.5t44 11.5h160zM859 475l-232 611h-31l-225 -611h488zM799 1512l-237 -204q-22 -20 -38 -20q-17 0 -29.5 12.5t-12.5 30.5q0 10 4.5 18t20.5 23l236 204q23 20 39 20q17 0 29.5 -12.5t12.5 -30.5q0 -10 -4.5 -18.5t-20.5 -22.5z" />
    <glyph glyph-name="Edieresis" unicode="&#xcb;" 
d="M341 565v-481h646v248q0 30 11.5 43t30.5 13t30.5 -13t11.5 -43v-332h-927q-30 0 -43 12t-13 30q0 19 13 30.5t43 11.5h113v1002h-113q-30 0 -43 11.5t-13 30.5t13 30.5t43 11.5h883v-289q0 -30 -11.5 -43t-30.5 -13t-30.5 13t-11.5 43v205h-602v-437h301v95q0 30 12 43
t31 13q18 0 30 -13t12 -43v-274q0 -30 -12 -43t-30 -13q-19 0 -31 13t-12 43v95h-301zM483 1414q0 -34 -24 -57.5t-58 -23.5q-33 0 -57 24t-24 57q0 34 24 58t57 24q34 0 58 -24t24 -58zM912 1414q0 -34 -24 -57.5t-58 -23.5t-57.5 24t-23.5 57q0 34 23.5 58t57.5 24t58 -24
t24 -58z" />
    <glyph glyph-name="Egrave" unicode="&#xc8;" 
d="M341 565v-481h646v248q0 30 11.5 43t30.5 13t30.5 -13t11.5 -43v-332h-927q-30 0 -43 12t-13 30q0 19 13 30.5t43 11.5h113v1002h-113q-30 0 -43 11.5t-13 30.5t13 30.5t43 11.5h883v-289q0 -30 -11.5 -43t-30.5 -13t-30.5 13t-11.5 43v205h-602v-437h301v95q0 30 12 43
t31 13q18 0 30 -13t12 -43v-274q0 -30 -12 -43t-30 -13q-19 0 -31 13t-12 43v95h-301zM528 1576l236 -204l22 -25q3 -5 3 -16q0 -18 -12.5 -30.5t-30.5 -12.5q-15 0 -38 20l-236 204q-25 22 -25 41q0 18 12.5 30.5t30.5 12.5q15 0 38 -20z" />
    <glyph glyph-name="Iacute" unicode="&#xcd;" 
d="M657 1086v-1002h288q30 0 43 -11.5t13 -30.5q0 -18 -13 -30t-43 -12h-660q-30 0 -43 12t-13 30q0 19 13 30.5t43 11.5h288v1002h-288q-30 0 -43 11.5t-13 30.5t13 30.5t43 11.5h660q30 0 43 -11.5t13 -30.5t-13 -30.5t-43 -11.5h-288zM756 1512l-237 -204
q-22 -20 -38 -20q-17 0 -29.5 12.5t-12.5 30.5q0 10 4.5 18t20.5 23l236 204q23 20 39 20q17 0 29.5 -12.5t12.5 -30.5q0 -10 -4.5 -18.5t-20.5 -22.5z" />
    <glyph glyph-name="Icircumflex" unicode="&#xce;" 
d="M657 1086v-1002h288q30 0 43 -11.5t13 -30.5q0 -18 -13 -30t-43 -12h-660q-30 0 -43 12t-13 30q0 19 13 30.5t43 11.5h288v1002h-288q-30 0 -43 11.5t-13 30.5t13 30.5t43 11.5h660q30 0 43 -11.5t13 -30.5t-13 -30.5t-43 -11.5h-288zM614 1577l271 -206q18 -14 23 -22.5
t5 -19.5q0 -18 -12.5 -30t-30.5 -12q-13 0 -35 17l-221 169l-220 -169q-22 -17 -36 -17q-17 0 -29.5 12.5t-12.5 29.5q0 21 28 42z" />
    <glyph glyph-name="Idieresis" unicode="&#xcf;" 
d="M657 1086v-1002h288q30 0 43 -11.5t13 -30.5q0 -18 -13 -30t-43 -12h-660q-30 0 -43 12t-13 30q0 19 13 30.5t43 11.5h288v1002h-288q-30 0 -43 11.5t-13 30.5t13 30.5t43 11.5h660q30 0 43 -11.5t13 -30.5t-13 -30.5t-43 -11.5h-288zM482 1414q0 -34 -24 -57.5
t-58 -23.5q-33 0 -57 24t-24 57q0 34 24 58t57 24q34 0 58 -24t24 -58zM911 1414q0 -34 -24 -57.5t-58 -23.5t-57.5 24t-23.5 57q0 34 23.5 58t57.5 24t58 -24t24 -58z" />
    <glyph glyph-name="Igrave" unicode="&#xcc;" 
d="M657 1086v-1002h288q30 0 43 -11.5t13 -30.5q0 -18 -13 -30t-43 -12h-660q-30 0 -43 12t-13 30q0 19 13 30.5t43 11.5h288v1002h-288q-30 0 -43 11.5t-13 30.5t13 30.5t43 11.5h660q30 0 43 -11.5t13 -30.5t-13 -30.5t-43 -11.5h-288zM528 1576l236 -204l22 -25
q3 -5 3 -16q0 -18 -12.5 -30.5t-30.5 -12.5q-15 0 -38 20l-236 204q-25 22 -25 41q0 18 12.5 30.5t30.5 12.5q15 0 38 -20z" />
    <glyph glyph-name="Oacute" unicode="&#xd3;" 
d="M1128 582q0 -168 -68 -311.5t-187.5 -223.5t-256.5 -80q-203 0 -357.5 172.5t-154.5 442.5q0 271 154.5 443t357.5 172q137 0 256 -80t187.5 -223t68.5 -312zM1043 582q0 205 -119 368t-308 163q-177 0 -302.5 -155.5t-125.5 -375.5q0 -234 131.5 -382.5t296.5 -148.5
q189 0 308 162.5t119 368.5zM700 1512l-237 -204q-22 -20 -38 -20q-17 0 -29.5 12.5t-12.5 30.5q0 10 4.5 18t20.5 23l236 204q23 20 39 20q17 0 29.5 -12.5t12.5 -30.5q0 -10 -4.5 -18.5t-20.5 -22.5z" />
    <glyph glyph-name="Ocircumflex" unicode="&#xd4;" 
d="M1128 582q0 -168 -68 -311.5t-187.5 -223.5t-256.5 -80q-203 0 -357.5 172.5t-154.5 442.5q0 271 154.5 443t357.5 172q137 0 256 -80t187.5 -223t68.5 -312zM1043 582q0 205 -119 368t-308 163q-177 0 -302.5 -155.5t-125.5 -375.5q0 -234 131.5 -382.5t296.5 -148.5
q189 0 308 162.5t119 368.5zM534 1577l271 -206q18 -14 23 -22.5t5 -19.5q0 -18 -12.5 -30t-30.5 -12q-13 0 -35 17l-221 169l-220 -169q-22 -17 -36 -17q-17 0 -29.5 12.5t-12.5 29.5q0 21 28 42z" />
    <glyph glyph-name="Ograve" unicode="&#xd2;" 
d="M1128 582q0 -168 -68 -311.5t-187.5 -223.5t-256.5 -80q-203 0 -357.5 172.5t-154.5 442.5q0 271 154.5 443t357.5 172q137 0 256 -80t187.5 -223t68.5 -312zM1043 582q0 205 -119 368t-308 163q-177 0 -302.5 -155.5t-125.5 -375.5q0 -234 131.5 -382.5t296.5 -148.5
q189 0 308 162.5t119 368.5zM461 1576l236 -204l22 -25q3 -5 3 -16q0 -18 -12.5 -30.5t-30.5 -12.5q-15 0 -38 20l-236 204q-25 22 -25 41q0 18 12.5 30.5t30.5 12.5q15 0 38 -20z" />
    <glyph glyph-name="Uacute" unicode="&#xda;" 
d="M1021 1086v-702q0 -177 -118 -297t-285 -120q-112 0 -199 49t-148 148.5t-61 219.5v702h-71q-30 0 -43 11.5t-13 30.5t14 32q12 10 42 10h310q30 0 43 -11.5t13 -30.5t-13 -30.5t-43 -11.5h-155v-702q0 -139 95 -236t225 -97q83 0 151.5 38t120 117t51.5 178v702h-155
q-30 0 -43 11.5t-13 30.5t13 30.5t43 11.5h310q30 0 43 -11.5t13 -30.5t-13 -30.5t-43 -11.5h-71zM782 1512l-237 -204q-22 -20 -38 -20q-17 0 -29.5 12.5t-12.5 30.5q0 10 4.5 18t20.5 23l236 204q23 20 39 20q17 0 29.5 -12.5t12.5 -30.5q0 -10 -4.5 -18.5t-20.5 -22.5z
" />
    <glyph glyph-name="Ucircumflex" unicode="&#xdb;" 
d="M1021 1086v-702q0 -177 -118 -297t-285 -120q-112 0 -199 49t-148 148.5t-61 219.5v702h-71q-30 0 -43 11.5t-13 30.5t14 32q12 10 42 10h310q30 0 43 -11.5t13 -30.5t-13 -30.5t-43 -11.5h-155v-702q0 -139 95 -236t225 -97q83 0 151.5 38t120 117t51.5 178v702h-155
q-30 0 -43 11.5t-13 30.5t13 30.5t43 11.5h310q30 0 43 -11.5t13 -30.5t-13 -30.5t-43 -11.5h-71zM615 1577l271 -206q18 -14 23 -22.5t5 -19.5q0 -18 -12.5 -30t-30.5 -12q-13 0 -35 17l-221 169l-220 -169q-22 -17 -36 -17q-17 0 -29.5 12.5t-12.5 29.5q0 21 28 42z" />
    <glyph glyph-name="Ugrave" unicode="&#xd9;" 
d="M1021 1086v-702q0 -177 -118 -297t-285 -120q-112 0 -199 49t-148 148.5t-61 219.5v702h-71q-30 0 -43 11.5t-13 30.5t14 32q12 10 42 10h310q30 0 43 -11.5t13 -30.5t-13 -30.5t-43 -11.5h-155v-702q0 -139 95 -236t225 -97q83 0 151.5 38t120 117t51.5 178v702h-155
q-30 0 -43 11.5t-13 30.5t13 30.5t43 11.5h310q30 0 43 -11.5t13 -30.5t-13 -30.5t-43 -11.5h-71zM496 1576l236 -204l22 -25q3 -5 3 -16q0 -18 -12.5 -30.5t-30.5 -12.5q-15 0 -38 20l-236 204q-25 22 -25 41q0 18 12.5 30.5t30.5 12.5q15 0 38 -20z" />
    <glyph glyph-name="dotlessi" unicode="&#x131;" 
d="M660 866v-782h330q31 0 44 -11.5t13 -30.5q0 -18 -13 -30t-44 -12h-744q-30 0 -43 12t-17 32q4 17 17 28.5t43 11.5h330v697h-245q-30 0 -43.5 12t-13.5 30q0 19 13 31t44 12h329z" />
    <glyph glyph-name="circumflex" unicode="&#x2c6;" 
d="M614 1310l271 -206q18 -14 23 -22.5t5 -19.5q0 -18 -12.5 -30t-30.5 -12q-13 0 -35 17l-221 169l-220 -169q-22 -17 -36 -17q-17 0 -29.5 12.5t-12.5 29.5q0 21 28 42z" />
    <glyph glyph-name="tilde" unicode="&#x2dc;" 
d="M892 1167q17 0 29.5 -12t12.5 -27q0 -17 -13 -32q-40 -45 -95 -74q-38 -21 -79 -21q-64 0 -173 79q-58 43 -90 43q-40 0 -101 -56q-27 -25 -46 -25q-18 0 -29.5 12t-11.5 28q0 26 51 66q78 59 136 59q30 0 61 -12.5t101 -60.5t102 -48q38 0 115 68q16 13 30 13z" />
    <glyph glyph-name="macron" unicode="&#x2c9;" 
d="M857 1076h-485q-30 0 -43 12t-13 30q0 19 13 31t43 12h483q33 -1 46 -12.5t13 -30.5t-13 -30.5t-44 -11.5z" />
    <glyph glyph-name="breve" unicode="&#x2d8;" 
d="M356 1298q18 0 29 -10.5t13 -37.5q6 -57 65 -102q58 -45 152 -45q93 0 151.5 45t64.5 102q3 27 12 36q13 12 30 12q18 0 30.5 -12.5t12.5 -33.5q0 -90 -81.5 -162t-219.5 -72t-219.5 72t-81.5 162q0 21 12 33.5t30 12.5z" />
    <glyph glyph-name="dotaccent" unicode="&#x2d9;" 
d="M717 1147q0 -42 -30 -72t-72 -30q-43 0 -73 30t-30 72q0 43 30 73t73 30q42 0 72 -30t30 -73z" />
    <glyph glyph-name="ring" unicode="&#x2da;" 
d="M795 1186q0 -73 -53 -125.5t-128 -52.5t-128 52.5t-53 125.5t53 125.5t128 52.5t128 -52.5t53 -125.5zM735 1186q0 49 -35.5 83.5t-85.5 34.5q-51 0 -86 -35t-35 -83t35.5 -83t85.5 -35t85.5 34.5t35.5 83.5z" />
    <glyph glyph-name="cedilla" unicode="&#xb8;" 
d="M586 -163v153q0 22 8.5 31t21.5 9q14 0 22 -9.5t8 -30.5v-96q56 -8 87 -38.5t31 -71.5q0 -49 -37.5 -83t-106.5 -34q-47 0 -101 18.5t-67 33.5q-10 11 -10 23q0 13 8.5 21.5t21.5 8.5q10 0 23 -7q68 -38 125 -38q39 0 61 18.5t22 40.5q0 19 -17 33q-23 18 -59 18h-41z
" />
    <glyph glyph-name="hungarumlaut" unicode="&#x2dd;" 
d="M591 1247l-193 -204q-23 -23 -41 -23q-17 0 -29.5 12t-12.5 31q0 16 21 38l193 204q23 23 41 23t30 -12.5t12 -30.5q0 -16 -21 -38zM894 1247l-193 -204q-22 -23 -41 -23q-17 0 -29.5 12t-12.5 31q0 16 21 38l194 204q22 23 40 23t30 -12.5t12 -30.5q0 -16 -21 -38z" />
    <glyph glyph-name="ogonek" unicode="&#x2db;" 
d="M661 -4q0 -13 -9 -22q-7 -7 -30 -9q-36 -4 -65 -38t-29 -79q0 -35 26.5 -58.5t74.5 -23.5q46 0 78 28q15 14 26 14q12 0 21 -8.5t9 -22.5q0 -20 -29 -39q-45 -32 -107 -32q-73 0 -116 41t-43 107q0 70 50 121.5t111 51.5q14 0 23 -8.5t9 -22.5z" />
    <glyph glyph-name="caron" unicode="&#x2c7;" 
d="M615 1008l-271 206q-18 14 -23 22.5t-5 19.5q0 18 12.5 30.5t30.5 12.5q13 0 35 -17l221 -170l220 169q22 17 36 17q17 0 29.5 -12.5t12.5 -29.5q0 -21 -28 -42z" />
    <glyph glyph-name="Lslash" unicode="&#x141;" 
d="M466 1086v-428l224 131q22 13 34 13q17 0 29 -12.5t12 -30.5q0 -12 -6 -21.5t-27 -21.5l-266 -156v-476h561v336q0 30 11.5 43t30.5 13t30.5 -13t11.5 -43v-420h-929q-30 0 -43 12t-13 30q0 19 12.5 30.5t43.5 11.5h200v427l-220 -129q-23 -13 -34 -13q-17 0 -29.5 13
t-12.5 30q0 13 6 22t27 21l263 154v477h-200q-30 0 -43 11.5t-13 30.5t12.5 30.5t43.5 11.5h485q30 0 43 -11.5t13 -30.5t-13 -30.5t-43 -11.5h-201z" />
    <glyph glyph-name="lslash" unicode="&#x142;" 
d="M657 1255l1 -555l182 104q23 13 34 13q18 0 30 -12t12 -30q0 -13 -6.5 -22.5t-27.5 -21.5l-225 -129v-518h330q31 0 44 -11.5t13 -30.5q0 -18 -13 -30t-44 -12h-744q-30 0 -43 12t-13 30q0 19 13 30.5t43 11.5h330v470l-181 -104q-21 -12 -34 -12q-17 0 -29 12.5
t-12 29.5q0 13 6 22.5t27 21.5l223 127v519h-242q-30 0 -43.5 12t-13.5 31q0 18 13 30t44 12h326z" />
    <glyph glyph-name="Scaron" unicode="&#x160;" 
d="M915 1086v28q0 30 11.5 43t30.5 13t30.5 -13t11.5 -43v-214q0 -30 -11.5 -43t-30.5 -13q-18 0 -29.5 12t-12.5 39q-5 84 -86.5 151t-213.5 67q-139 0 -221 -71.5t-82 -168.5q0 -50 23 -91t61 -66.5t86 -41t150 -32.5q171 -28 236 -57q87 -39 131.5 -108t44.5 -163
q0 -144 -115 -245.5t-310 -101.5q-219 0 -350 137v-48q0 -30 -11.5 -43t-30.5 -13q-18 0 -30 13t-12 43v232q0 31 11.5 44t30.5 13q18 0 29.5 -12t12.5 -39q5 -92 98.5 -167.5t251.5 -75.5t249.5 79t91.5 187q0 66 -35 117.5t-104 81.5q-48 21 -200 47q-209 35 -301 107
t-92 205q0 132 105.5 227t278.5 95q176 0 303 -111zM615 1266l-271 206q-18 14 -23 22.5t-5 19.5q0 18 12.5 30.5t30.5 12.5q13 0 35 -17l221 -170l220 169q22 17 36 17q17 0 29.5 -12.5t12.5 -29.5q0 -21 -28 -42z" />
    <glyph glyph-name="scaron" unicode="&#x161;" 
d="M892 811q0 29 12 42t30 13q19 0 31 -13t12 -44v-144q0 -30 -12 -43t-31 -13q-17 0 -28.5 11t-13.5 36q-6 60 -62 99q-82 56 -217 56q-141 0 -219 -57q-59 -43 -59 -96q0 -60 70 -100q48 -28 182 -43q175 -19 243 -43q97 -35 144.5 -97t47.5 -134q0 -107 -103 -190.5
t-302 -83.5t-326 101q0 -34 -4 -44t-14.5 -17t-23.5 -7q-18 0 -30 13t-12 43v173q0 30 11.5 43t30.5 13q18 0 30.5 -12.5t12.5 -33.5q0 -46 23 -77q35 -48 111.5 -79.5t187.5 -31.5q164 0 244 61t80 129q0 78 -81 125q-82 47 -238.5 63t-224.5 42t-106 78t-38 112
q0 108 106 171.5t253 63.5q174 0 283 -85zM614 1008l-271 206q-18 14 -23 22.5t-5 19.5q0 18 12.5 30.5t30.5 12.5q13 0 35 -17l221 -170l220 169q22 17 36 17q17 0 29.5 -12.5t12.5 -29.5q0 -21 -28 -42z" />
    <glyph glyph-name="Zcaron" unicode="&#x17d;" 
d="M1022 0h-809v122l682 957v7h-559v-247q0 -31 -12 -44t-31 -13q-18 0 -30 13t-12 44v331h725v-119l-682 -958v-9h644v293q0 31 11.5 44t30.5 13t30.5 -13t11.5 -44v-377zM618 1266l-271 206q-18 14 -23 22.5t-5 19.5q0 18 12.5 30.5t30.5 12.5q13 0 35 -17l221 -170
l220 169q22 17 36 17q17 0 29.5 -12.5t12.5 -29.5q0 -21 -28 -42z" />
    <glyph glyph-name="zcaron" unicode="&#x17e;" 
d="M982 866v-75l-629 -707h568v116q0 30 11.5 43t30.5 13t31 -13t12 -43l-1 -200h-768v75l626 706h-522v-114q0 -30 -12 -43t-30 -13q-19 0 -31 13t-12 43v199h726zM615 1008l-271 206q-18 14 -23 22.5t-5 19.5q0 18 12.5 30.5t30.5 12.5q13 0 35 -17l221 -170l220 169
q22 17 36 17q17 0 29.5 -12.5t12.5 -29.5q0 -21 -28 -42z" />
    <glyph glyph-name="brokenbar" unicode="&#xa6;" 
d="M657 1138l-1 -376q0 -88 -6 -98q-14 -19 -36 -19q-14 0 -25.5 9t-14.5 21q-2 9 -2 87v376q0 79 2 87q3 12 14.5 21t25.5 9t25.5 -9t14.5 -21q3 -9 3 -87zM657 233l-1 -376q0 -88 -6 -97q-14 -19 -36 -19q-14 0 -25.5 8.5t-14.5 20.5q-2 9 -2 87v376q0 79 2 87
q3 13 14.5 21.5t25.5 8.5t25.5 -8.5t14.5 -21.5q3 -8 3 -87z" />
    <glyph glyph-name="Eth" unicode="&#xd0;" 
d="M213 564h-99q-79 0 -87 2q-13 4 -21.5 15t-8.5 26q0 14 8.5 25t21.5 15q8 2 87 2h99v437h-70q-31 0 -44 11.5t-13 30.5t13 30.5t44 11.5h451q106 0 193.5 -44t133.5 -100q79 -95 120 -201q30 -77 30 -182v-116q0 -129 -57.5 -250t-190.5 -211q-99 -66 -229 -66h-451
q-31 0 -44 12t-13 30q0 19 13 30.5t44 11.5h70v480zM298 564v-480h305q105 0 198 69t139 165.5t46 190.5v152q0 78 -24 139q-37 89 -102 169q-36 44 -106.5 80.5t-150.5 36.5h-305v-437h234q79 0 87 -2q12 -4 21 -15t9 -25q0 -15 -9 -26t-21 -15q-8 -2 -87 -2h-234z" />
    <glyph glyph-name="eth" unicode="&#xf0;" 
d="M725 1173l159 58q28 9 47 9q16 0 26.5 -11t10.5 -29q0 -19 -16 -30q-27 -20 -155 -47q137 -126 205 -272t68 -355q0 -258 -131.5 -392.5t-342.5 -134.5q-200 0 -333.5 135t-133.5 326q0 183 132 313t327 130q95 0 177 -34t135 -80q36 -33 75 -95q-38 150 -87.5 229
t-181.5 196q-321 -112 -341 -112q-19 0 -31 11t-12 27q0 15 15 28.5t104 40.5q140 42 180 51q-67 20 -138 29q-39 5 -53 17.5t-14 28.5t14 28t41 12q130 0 254 -77zM600 48q94 0 187 47t142 133t49 190q0 157 -108.5 263.5t-272.5 106.5q-167 0 -276.5 -107.5t-109.5 -256.5
q0 -94 52.5 -185t147.5 -141t189 -50z" />
    <glyph glyph-name="Yacute" unicode="&#xdd;" 
d="M659 528v-444h218q30 0 43 -11.5t13 -30.5q0 -18 -13 -30t-43 -12h-521q-30 0 -43 12t-13 30q0 19 12.5 30.5t43.5 11.5h218v444l-369 558h-50q-30 0 -43 11.5t-13 30.5t13 30.5t43 11.5h231q30 0 43 -11.5t13 -30.5t-13 -30.5t-43 -11.5h-83l314 -473l307 473h-82
q-31 0 -44 11.5t-13 30.5t13 30.5t44 11.5h230q30 0 43 -11.5t13 -30.5t-13 -30.5t-43 -11.5h-50zM760 1503l-237 -204q-22 -20 -38 -20q-17 0 -29.5 12.5t-12.5 30.5q0 10 4.5 18t20.5 23l236 204q23 20 39 20q17 0 29.5 -12.5t12.5 -30.5q0 -10 -4.5 -18.5t-20.5 -22.5z
" />
    <glyph glyph-name="yacute" unicode="&#xfd;" 
d="M620 0l-390 781h-25q-30 0 -43 12t-13 30q0 13 6.5 23.5t17 15t32.5 4.5h230q30 0 43 -12t13 -31q0 -18 -13 -30t-43 -12h-113l343 -689l338 689h-113q-30 0 -43 12t-13 31q0 18 13 30t43 12h229q31 0 44 -12t13 -31q0 -13 -8 -24t-18 -14.5t-56 -3.5l-532 -1083h131
q30 0 43 -11.5t13 -30.5q0 -18 -13 -30t-43 -12h-484q-30 0 -43 11.5t-13 30.5t13 30.5t43 11.5h263zM900 1245l-237 -204q-22 -20 -38 -20q-17 0 -29.5 12.5t-12.5 30.5q0 10 4.5 18t20.5 23l236 204q23 20 39 20q17 0 29.5 -12.5t12.5 -30.5q0 -10 -4.5 -18.5t-20.5 -22.5
z" />
    <glyph glyph-name="Thorn" unicode="&#xde;" 
d="M259 1170h461q30 0 43 -11.5t13 -30.5t-13 -30.5t-43 -11.5h-288v-157h291q173 0 282.5 -102.5t109.5 -239.5q0 -80 -35.5 -145t-85.5 -102q-75 -56 -155 -82q-58 -20 -144 -20h-263v-154h288q30 0 43 -11.5t13 -30.5q0 -18 -13 -30t-43 -12h-485q-30 0 -43 12t-13 30
q0 19 13 30.5t43 11.5h113v1002h-113q-30 0 -43 11.5t-13 30.5q0 13 7.5 24t17.5 14.5t55 3.5zM432 323h268q93 0 174.5 41t119 101t37.5 122q0 99 -85 178t-215 79h-299v-521z" />
    <glyph glyph-name="thorn" unicode="&#xfe;" 
d="M298 1255v-542q75 91 161 137t203 46q124 0 229 -58t162.5 -161.5t57.5 -217.5q0 -181 -129.5 -309.5t-318.5 -128.5q-225 0 -365 183v-506h204q30 0 43 -11.5t13 -30.5q0 -18 -13 -30t-43 -12h-401q-30 0 -43 11.5t-13 30.5t13 30.5t43 11.5h113v1472h-113q-30 0 -43 12
t-13 31q0 18 13 30t43 12h197zM1026 459q0 145 -105.5 248.5t-257.5 103.5q-153 0 -259 -104t-106 -248q0 -145 106 -249t259 -104q151 0 257 103.5t106 249.5z" />
    <glyph glyph-name="minus" unicode="&#x2212;" 
d="M968 543h-707q-79 0 -87 2q-13 3 -21.5 14.5t-8.5 25.5t8.5 25.5t21.5 14.5q8 2 87 2h707q79 0 87 -2q13 -3 21.5 -14.5t8.5 -25.5t-8.5 -25.5t-21.5 -14.5q-8 -2 -87 -2z" />
    <glyph glyph-name="multiply" unicode="&#xd7;" 
d="M615 525l-263 -263q-15 -15 -22 -18.5t-17 -3.5q-18 0 -30.5 12.5t-12.5 30.5q0 17 23 39l262 263l-263 263q-22 22 -22 39q0 18 12.5 30.5t30.5 12.5q17 0 39 -23l263 -263l261 262q23 22 40 22q18 0 30 -12.5t12 -30.5q0 -17 -22 -39l-261 -261l263 -263q22 -23 22 -40
q0 -18 -12.5 -30.5t-30.5 -12.5q-9 0 -15 4q-10 4 -24 19z" />
    <glyph glyph-name="onesuperior" unicode="&#xb9;" 
d="M651 1282v-609h157q25 0 35.5 -8.5t10.5 -20.5q0 -11 -10.5 -19.5t-35.5 -8.5h-389q-24 0 -34.5 8.5t-10.5 20.5q0 11 10.5 19.5t34.5 8.5h158v529l-148 -40q-11 -3 -19 -3q-15 0 -25 8.5t-10 19.5q0 9 6.5 16t28.5 13z" />
    <glyph glyph-name="twosuperior" unicode="&#xb2;" 
d="M420 673h350q0 27 7 33q11 12 30 12q18 0 30 -11q7 -7 7 -24v-67h-503v72q353 277 401 339q28 36 28 69q0 50 -46.5 91.5t-117.5 41.5q-61 0 -106 -30t-63 -79q-4 -13 -10 -17q-12 -7 -26 -7q-17 0 -28 9q-8 7 -8 17q0 46 67.5 104.5t173.5 58.5q102 0 170 -60t68 -128
q0 -38 -18 -68q-29 -48 -162 -160q-165 -139 -244 -196z" />
    <glyph glyph-name="threesuperior" unicode="&#xb3;" 
d="M736 972q63 -27 98 -74t35 -96q0 -75 -73 -138t-192 -63q-71 0 -144 26.5t-98 51.5q-7 8 -7 17q0 11 9.5 19t24.5 8t44 -17q78 -49 171 -49q85 0 138 45.5t53 98.5q0 54 -54 99.5t-154 47.5q-25 1 -35 9t-10 20q0 11 10.5 19t32.5 8q79 0 112 13.5t52 40.5t19 56
q0 44 -40.5 79.5t-111.5 35.5q-103 0 -157 -57q-13 -15 -33 -15q-16 0 -26 8t-10 18q0 9 11 21q33 36 91 58.5t124 22.5q103 0 164.5 -52.5t61.5 -118.5q0 -44 -24 -77q-33 -45 -82 -65z" />
    <glyph glyph-name="onehalf" unicode="&#xbd;" 
d="M277 1282v-609h157q25 0 35.5 -8.5t10.5 -20.5q0 -11 -10.5 -19.5t-35.5 -8.5h-389q-24 0 -34.5 8.5t-10.5 20.5q0 11 10.5 19.5t34.5 8.5h158v529l-148 -40q-11 -3 -19 -3q-15 0 -25 8.5t-10 19.5q0 9 6.5 16t28.5 13zM1155 893l-916 -590q-22 -14 -34 -14
q-18 0 -30.5 12t-12.5 30q0 23 32 43l915 590q22 14 34 14q18 0 30.5 -12.5t12.5 -29.5q0 -23 -31 -43zM818 56h350q0 27 7 34q11 11 30 11q18 0 30 -10q7 -7 7 -25v-66h-503v71q353 277 401 340q28 35 28 68q0 51 -46.5 92t-117.5 41q-61 0 -106 -29.5t-62 -79.5
q-5 -13 -11 -16q-11 -8 -26 -8q-16 0 -27 10q-9 6 -9 16q0 46 67.5 104.5t173.5 58.5q102 0 170 -59.5t68 -127.5q0 -38 -18 -68q-29 -48 -162 -160q-165 -140 -244 -197z" />
    <glyph glyph-name="onequarter" unicode="&#xbc;" 
d="M277 1282v-609h157q25 0 35.5 -8.5t10.5 -20.5q0 -11 -10.5 -19.5t-35.5 -8.5h-389q-24 0 -34.5 8.5t-10.5 20.5q0 11 10.5 19.5t34.5 8.5h158v529l-148 -40q-11 -3 -19 -3q-15 0 -25 8.5t-10 19.5q0 9 6.5 16t28.5 13zM1185 893l-915 -590q-23 -14 -35 -14q-18 0 -30 12
t-12 30q0 23 31 43l915 590q23 14 35 14q17 0 29.5 -12.5t12.5 -29.5q0 -23 -31 -43zM1069 179h-329v57l279 417h124v-418h29q25 0 35.5 -8.5t10.5 -19.5q0 -7 -5 -14t-13.5 -10.5t-27.5 -3.5h-29v-123h29q25 0 35.5 -8.5t10.5 -19.5t-10.5 -19.5t-35.5 -8.5h-184
q-25 0 -35.5 8.5t-10.5 19.5q0 12 10.5 20t35.5 8h81v123zM1069 235v362h-6l-243 -362h249z" />
    <glyph glyph-name="threequarters" unicode="&#xbe;" 
d="M381 972q63 -27 98 -74t35 -96q0 -75 -73 -138t-192 -63q-71 0 -144 26.5t-98 51.5q-7 8 -7 17q0 11 9.5 19t24.5 8t44 -17q78 -49 171 -49q85 0 138 45.5t53 98.5q0 54 -54 99.5t-154 47.5q-25 1 -35 9t-10 20q0 11 10.5 19t32.5 8q79 0 112 13.5t52 40.5t19 56
q0 44 -40.5 79.5t-111.5 35.5q-103 0 -157 -57q-13 -15 -33 -15q-16 0 -26 8t-10 18q0 9 11 21q33 36 91 58.5t124 22.5q103 0 164.5 -52.5t61.5 -118.5q0 -44 -24 -77q-33 -45 -82 -65zM1171 893l-915 -590q-22 -14 -34 -14q-18 0 -30.5 12t-12.5 30q0 23 31 43l916 590
q22 14 34 14q18 0 30.5 -12.5t12.5 -29.5q0 -23 -32 -43zM1064 179h-329v57l279 417h124v-418h29q25 0 35.5 -8.5t10.5 -19.5q0 -7 -5 -14t-13.5 -10.5t-27.5 -3.5h-29v-123h29q25 0 35.5 -8.5t10.5 -19.5t-10.5 -19.5t-35.5 -8.5h-184q-25 0 -35 8.5t-10 19.5q0 12 10 20
t35 8h81v123zM1064 235v362h-6l-242 -362h248z" />
    <glyph glyph-name="franc" unicode="&#x20a3;" 
d="M412 322h216q30 0 43 -11.5t13 -30.5q0 -18 -13 -30t-43 -12h-216v-154h288q30 0 43 -11.5t13 -30.5q0 -18 -13 -30t-43 -12h-485q-30 0 -43 12t-13 30q0 19 13 30.5t43 11.5h113v154h-113q-30 0 -43 12t-13 30q0 19 13 30.5t43 11.5h113v764h-113q-30 0 -43 11.5
t-13 30.5t15 32q11 10 41 10h925v-289q0 -30 -11.5 -43t-30.5 -13t-31 13t-12 43v205h-643v-437h302v95q0 30 11.5 43t30.5 13t30.5 -13t11.5 -43v-274q0 -30 -11.5 -43t-30.5 -13t-30.5 13t-11.5 43v95h-302v-243z" />
    <glyph glyph-name="Gbreve" unicode="&#x11e;" 
d="M1071 434v-360q-96 -53 -191.5 -80t-190.5 -27q-135 0 -237.5 40t-173.5 112t-110.5 161t-39.5 226v154q0 138 68.5 268.5t187.5 199.5t259 69q203 0 343 -111q0 49 3.5 59t14.5 17.5t25 7.5q18 0 30 -13t12 -43v-190q0 -31 -12 -43.5t-30 -12.5q-17 0 -28.5 11.5
t-12.5 40.5q-6 85 -110.5 139t-227.5 54q-116 0 -209.5 -50.5t-174.5 -192.5q-54 -93 -54 -211v-153q0 -209 128 -332t353 -123q76 0 141 16t152 56v311h-289q-30 0 -43 11.5t-13 30.5t13 31t43 12l404 -1q30 0 43 -11.5t13 -30.5q0 -13 -8 -24t-18 -14.5t-60 -3.5z
M408 1563q18 0 29 -10.5t13 -37.5q6 -57 65 -102q58 -45 152 -45q93 0 151.5 45t64.5 102q3 27 12 36q13 12 30 12q18 0 30.5 -12.5t12.5 -33.5q0 -90 -81.5 -162t-219.5 -72t-219.5 72t-81.5 162q0 21 12 33.5t30 12.5z" />
    <glyph glyph-name="gbreve" unicode="&#x11f;" 
d="M897 712v154h197q30 0 43 -12t13 -31q0 -18 -13 -30t-43 -12h-113v-839q0 -84 -36 -150q-24 -44 -80 -91t-102 -67t-123 -20h-238q-30 0 -43 11.5t-13 30.5t13 31t43 12l241 -1q74 0 133.5 38t98.5 111q22 42 22 107v252q-135 -185 -348 -185q-173 0 -298.5 128.5
t-125.5 309.5t125.5 309t298.5 128q213 0 348 -184zM897 459q0 148 -101.5 250t-242.5 102t-242 -102.5t-101 -249.5q0 -148 101 -250.5t242 -102.5t242.5 102.5t101.5 250.5zM355 1298q18 0 29 -10.5t13 -37.5q6 -57 65 -102q58 -45 152 -45q93 0 151.5 45t64.5 102
q3 27 12 36q13 12 30 12q18 0 30.5 -12.5t12.5 -33.5q0 -90 -81.5 -162t-219.5 -72t-219.5 72t-81.5 162q0 21 12 33.5t30 12.5z" />
    <glyph glyph-name="Idotaccent" unicode="&#x130;" 
d="M657 1086v-1002h288q30 0 43 -11.5t13 -30.5q0 -18 -13 -30t-43 -12h-660q-30 0 -43 12t-13 30q0 19 13 30.5t43 11.5h288v1002h-288q-30 0 -43 11.5t-13 30.5t13 30.5t43 11.5h660q30 0 43 -11.5t13 -30.5t-13 -30.5t-43 -11.5h-288zM717 1411q0 -42 -30 -72t-72 -30
q-43 0 -73 30t-30 72q0 43 30 73t73 30q42 0 72 -30t30 -73z" />
    <glyph glyph-name="Scedilla" unicode="&#x15e;" 
d="M915 1086v28q0 30 11.5 43t30.5 13t30.5 -13t11.5 -43v-214q0 -30 -11.5 -43t-30.5 -13q-18 0 -29.5 12t-12.5 39q-5 84 -86.5 151t-213.5 67q-139 0 -221 -71.5t-82 -168.5q0 -50 23 -91t61 -66.5t86 -41t150 -32.5q171 -28 236 -57q87 -39 131.5 -108t44.5 -163
q0 -144 -115 -245.5t-310 -101.5q-219 0 -350 137v-48q0 -30 -11.5 -43t-30.5 -13q-18 0 -30 13t-12 43v232q0 31 11.5 44t30.5 13q18 0 29.5 -12t12.5 -39q5 -92 98.5 -167.5t251.5 -75.5t249.5 79t91.5 187q0 66 -35 117.5t-104 81.5q-48 21 -200 47q-209 35 -301 107
t-92 205q0 132 105.5 227t278.5 95q176 0 303 -111zM586 -163v153q0 22 8.5 31t21.5 9q14 0 22 -9.5t8 -30.5v-96q56 -8 87 -38.5t31 -71.5q0 -49 -37.5 -83t-106.5 -34q-47 0 -101 18.5t-67 33.5q-10 11 -10 23q0 13 8.5 21.5t21.5 8.5q10 0 23 -7q68 -38 125 -38
q39 0 61 18.5t22 40.5q0 19 -17 33q-23 18 -59 18h-41z" />
    <glyph glyph-name="scedilla" unicode="&#x15f;" 
d="M892 811q0 29 12 42t30 13q19 0 31 -13t12 -44v-144q0 -30 -12 -43t-31 -13q-17 0 -28.5 11t-13.5 36q-6 60 -62 99q-82 56 -217 56q-141 0 -219 -57q-59 -43 -59 -96q0 -60 70 -100q48 -28 182 -43q175 -19 243 -43q97 -35 144.5 -97t47.5 -134q0 -107 -103 -190.5
t-302 -83.5t-326 101q0 -34 -4 -44t-14.5 -17t-23.5 -7q-18 0 -30 13t-12 43v173q0 30 11.5 43t30.5 13q18 0 30.5 -12.5t12.5 -33.5q0 -46 23 -77q35 -48 111.5 -79.5t187.5 -31.5q164 0 244 61t80 129q0 78 -81 125q-82 47 -238.5 63t-224.5 42t-106 78t-38 112
q0 108 106 171.5t253 63.5q174 0 283 -85zM586 -163v153q0 22 8.5 31t21.5 9q14 0 22 -9.5t8 -30.5v-96q56 -8 87 -38.5t31 -71.5q0 -49 -37.5 -83t-106.5 -34q-47 0 -101 18.5t-67 33.5q-10 11 -10 23q0 13 8.5 21.5t21.5 8.5q10 0 23 -7q68 -38 125 -38q39 0 61 18.5
t22 40.5q0 19 -17 33q-23 18 -59 18h-41z" />
    <glyph glyph-name="Cacute" unicode="&#x106;" 
d="M984 1055v59q0 30 11.5 43t30.5 13t30.5 -13t11.5 -43v-233q0 -31 -11.5 -44t-30.5 -13q-17 0 -28.5 12t-13.5 39q-5 84 -91 149q-116 89 -264 89q-97 0 -183 -43q-64 -31 -102 -76q-66 -78 -105 -173q-28 -70 -28 -158v-147q0 -188 136 -326.5t316 -138.5
q108 0 193.5 47t165.5 142q17 21 38 21q18 0 29 -11t11 -28q0 -23 -43 -70q-82 -92 -184.5 -138.5t-207.5 -46.5q-91 0 -185 35q-72 27 -119 63t-115.5 121.5t-93.5 158t-25 159.5v171q0 124 66.5 253.5t182 199t250.5 69.5q208 0 358 -142zM832 1509l-237 -204
q-22 -20 -38 -20q-17 0 -29.5 12.5t-12.5 30.5q0 10 4.5 18t20.5 23l236 204q23 20 39 20q17 0 29.5 -12.5t12.5 -30.5q0 -10 -4.5 -18.5t-20.5 -22.5z" />
    <glyph glyph-name="cacute" unicode="&#x107;" 
d="M965 781v28q0 31 12 44t30 13q19 0 31 -13t12 -44v-190q-1 -31 -12.5 -44t-30.5 -13q-17 0 -28.5 11.5t-13.5 38.5q-6 71 -93.5 135t-235.5 64q-187 0 -284 -117t-97 -268q0 -163 107 -269t277 -106q98 0 199.5 36t183.5 116q21 20 37 20q17 0 28.5 -11.5t11.5 -28.5
q0 -43 -101 -109q-163 -107 -363 -107q-203 0 -333.5 129.5t-130.5 328.5q0 203 133.5 337t336.5 134q193 0 324 -115zM830 1245l-237 -204q-22 -20 -38 -20q-17 0 -29.5 12.5t-12.5 30.5q0 10 4.5 18t20.5 23l236 204q23 20 39 20q17 0 29.5 -12.5t12.5 -30.5
q0 -10 -4.5 -18.5t-20.5 -22.5z" />
    <glyph glyph-name="Ccaron" unicode="&#x10c;" 
d="M984 1055v59q0 30 11.5 43t30.5 13t30.5 -13t11.5 -43v-233q0 -31 -11.5 -44t-30.5 -13q-17 0 -28.5 12t-13.5 39q-5 84 -91 149q-116 89 -264 89q-97 0 -183 -43q-64 -31 -102 -76q-66 -78 -105 -173q-28 -70 -28 -158v-147q0 -188 136 -326.5t316 -138.5
q108 0 193.5 47t165.5 142q17 21 38 21q18 0 29 -11t11 -28q0 -23 -43 -70q-82 -92 -184.5 -138.5t-207.5 -46.5q-91 0 -185 35q-72 27 -119 63t-115.5 121.5t-93.5 158t-25 159.5v171q0 124 66.5 253.5t182 199t250.5 69.5q208 0 358 -142zM662 1272l-271 206
q-18 14 -23 22.5t-5 19.5q0 18 12.5 30.5t30.5 12.5q13 0 35 -17l221 -170l220 169q22 17 36 17q17 0 29.5 -12.5t12.5 -29.5q0 -21 -28 -42z" />
    <glyph glyph-name="ccaron" unicode="&#x10d;" 
d="M965 781v28q0 31 12 44t30 13q19 0 31 -13t12 -44v-190q-1 -31 -12.5 -44t-30.5 -13q-17 0 -28.5 11.5t-13.5 38.5q-6 71 -93.5 135t-235.5 64q-187 0 -284 -117t-97 -268q0 -163 107 -269t277 -106q98 0 199.5 36t183.5 116q21 20 37 20q17 0 28.5 -11.5t11.5 -28.5
q0 -43 -101 -109q-163 -107 -363 -107q-203 0 -333.5 129.5t-130.5 328.5q0 203 133.5 337t336.5 134q193 0 324 -115zM672 1008l-271 206q-18 14 -23 22.5t-5 19.5q0 18 12.5 30.5t30.5 12.5q13 0 35 -17l221 -170l220 169q22 17 36 17q17 0 29.5 -12.5t12.5 -29.5
q0 -21 -28 -42z" />
    <glyph glyph-name="dmacron" unicode="&#x111;" 
d="M1026 1075h110q26 0 35.5 -4.5t16.5 -15t7 -22.5t-7.5 -23t-17 -15t-41.5 -4h-103v-907h112q31 0 44 -11.5t13 -30.5q0 -18 -13 -30t-44 -12h-197v167q-146 -200 -371 -200q-114 0 -218.5 60.5t-165 172.5t-60.5 231q0 120 60.5 231.5t165 172.5t219.5 61q220 0 370 -200
v295h-250q-71 0 -79 2q-12 4 -20.5 15t-8.5 25t8.5 25.5t19.5 14.5q9 2 80 2h250v95h-112q-31 0 -44 12t-13 31q0 18 13 30t44 12h197v-180zM941 431q0 160 -108 270t-257 110q-150 0 -258 -110t-108 -270q0 -159 108 -269.5t258 -110.5q149 0 257 110.5t108 269.5z" />
    <glyph glyph-name="overscore" unicode="&#xaf;" 
d="M1200 1340h-1171q-30 0 -43 12t-13 31q0 18 13 30t43 12h1171q31 0 43.5 -12t12.5 -31q0 -18 -12.5 -30t-43.5 -12z" />
    <glyph glyph-name="middot" 
d="M913 683q0 -42 -30 -72t-72 -30q-43 0 -73 30t-30 72q0 43 30 73t73 30q42 0 72 -30t30 -73z" />
    <glyph glyph-name="Abreve" unicode="&#x102;" 
d="M891 391h-552l-113 -307h161q30 0 43 -11.5t13 -30.5q0 -18 -13 -30t-43 -12h-314q-30 0 -43 12t-13 30q0 19 13 30.5t43 11.5h65l371 1002h-248q-30 0 -43 11.5t-13 30.5t13 30.5t43 11.5h423l410 -1086h65q30 0 43 -11.5t13 -30.5q0 -18 -13 -30t-43 -12h-313
q-31 0 -44 12t-13 30q0 19 13 30.5t44 11.5h160zM859 475l-232 611h-31l-225 -611h488zM357 1563q18 0 29 -10.5t13 -37.5q6 -57 65 -102q58 -45 152 -45q93 0 151.5 45t64.5 102q3 27 12 36q13 12 30 12q18 0 30.5 -12.5t12.5 -33.5q0 -90 -81.5 -162t-219.5 -72t-219.5 72
t-81.5 162q0 21 12 33.5t30 12.5z" />
    <glyph glyph-name="abreve" unicode="&#x103;" 
d="M856 0v121q-183 -154 -391 -154q-151 0 -236 76.5t-85 187.5q0 122 112 213t327 91q58 0 126 -7.5t147 -23.5v136q0 69 -64 120t-192 51q-98 0 -275 -57q-32 -10 -41 -10q-16 0 -27.5 12t-11.5 30q0 17 10 27q14 15 113 41q156 42 236 42q159 0 248 -78.5t89 -177.5v-556
h112q31 0 44 -11.5t13 -30.5q0 -18 -13 -30t-44 -12h-197zM856 418q-59 17 -125 25t-139 8q-183 0 -286 -79q-78 -59 -78 -141q0 -76 59.5 -128t173.5 -52q109 0 202.5 43.5t192.5 138.5v185zM368 1298q18 0 29 -10.5t13 -37.5q6 -57 65 -102q58 -45 152 -45q93 0 151.5 45
t64.5 102q3 27 12 36q13 12 30 12q18 0 30.5 -12.5t12.5 -33.5q0 -90 -81.5 -162t-219.5 -72t-219.5 72t-81.5 162q0 21 12 33.5t30 12.5z" />
    <glyph glyph-name="Aogonek" unicode="&#x104;" 
d="M891 391h-552l-113 -307h161q30 0 43 -11.5t13 -30.5q0 -18 -13 -30t-43 -12h-314q-30 0 -43 12t-13 30q0 19 13 30.5t43 11.5h65l371 1002h-248q-30 0 -43 11.5t-13 30.5t13 30.5t43 11.5h423l410 -1086h65q30 0 43 -11.5t13 -30.5q0 -18 -13 -30t-43 -12h-313
q-31 0 -44 12t-13 30q0 19 13 30.5t44 11.5h160zM859 475l-232 611h-31l-225 -611h488zM1173 29q0 -13 -9 -22q-7 -7 -30 -9q-36 -4 -65 -38t-29 -79q0 -35 26.5 -58.5t74.5 -23.5q46 0 78 28q15 14 26 14q12 0 21 -8.5t9 -22.5q0 -20 -29 -39q-45 -32 -107 -32
q-73 0 -116 41t-43 107q0 70 50 121.5t111 51.5q14 0 23 -8.5t9 -22.5z" />
    <glyph glyph-name="aogonek" unicode="&#x105;" 
d="M856 0v121q-183 -154 -391 -154q-151 0 -236 76.5t-85 187.5q0 122 112 213t327 91q58 0 126 -7.5t147 -23.5v136q0 69 -64 120t-192 51q-98 0 -275 -57q-32 -10 -41 -10q-16 0 -27.5 12t-11.5 30q0 17 10 27q14 15 113 41q156 42 236 42q159 0 248 -78.5t89 -177.5v-556
h112q31 0 44 -11.5t13 -30.5q0 -18 -13 -30t-44 -12h-197zM856 418q-59 17 -125 25t-139 8q-183 0 -286 -79q-78 -59 -78 -141q0 -76 59.5 -128t173.5 -52q109 0 202.5 43.5t192.5 138.5v185zM1095 30q0 -13 -9 -22q-7 -7 -30 -9q-36 -4 -65 -38t-29 -79q0 -35 26.5 -58.5
t74.5 -23.5q46 0 78 28q15 14 26 14q12 0 21 -8.5t9 -22.5q0 -20 -29 -39q-45 -32 -107 -32q-73 0 -116 41t-43 107q0 70 50 121.5t111 51.5q14 0 23 -8.5t9 -22.5z" />
    <glyph glyph-name="Dcaron" unicode="&#x10e;" 
d="M285 84v1002h-71q-30 0 -43 11.5t-13 30.5t13 30.5t43 11.5h452q106 0 193.5 -44t133.5 -100q79 -95 120 -201q29 -77 29 -182v-116q0 -129 -57 -250t-190 -211q-99 -66 -229 -66h-452q-30 0 -43 12t-13 30q0 19 13 30.5t43 11.5h71zM369 84h305q106 0 198.5 69
t139 165.5t46.5 190.5v152q0 78 -25 139q-36 89 -102 169q-36 44 -106 80.5t-151 36.5h-305v-1002zM626 1272l-271 206q-18 14 -23 22.5t-5 19.5q0 18 12.5 30.5t30.5 12.5q13 0 35 -17l221 -170l220 169q22 17 36 17q17 0 29.5 -12.5t12.5 -29.5q0 -21 -28 -42z" />
    <glyph glyph-name="dcaron" unicode="&#x10f;" 
d="M881 1255v-1171h113q56 0 56 -42t-56 -42h-198l1 155q-118 -188 -299 -188q-156 0 -264 138t-108 326q0 194 110.5 329.5t262.5 135.5q176 0 298 -182l-1 456h-112q-56 0 -56 42q0 43 56 43h197zM796 431q0 158 -86 269t-207 111t-207 -111.5t-86 -268.5q0 -154 85 -267
t208 -113q120 0 206.5 111t86.5 269zM1143 1096h-24q-79 0 -79 77q0 33 21 57.5t58 24.5h30q80 0 80 -85q0 -75 -61 -161.5t-87 -86.5q-36 0 -36 30q0 16 30 47q59 62 68 97z" />
    <glyph glyph-name="Dslash" unicode="&#x110;" 
d="M213 564h-99q-79 0 -87 2q-13 4 -21.5 15t-8.5 26q0 14 8.5 25t21.5 15q8 2 87 2h99v437h-70q-31 0 -44 11.5t-13 30.5t13 30.5t44 11.5h451q106 0 193.5 -44t133.5 -100q79 -95 120 -201q30 -77 30 -182v-116q0 -129 -57.5 -250t-190.5 -211q-99 -66 -229 -66h-451
q-31 0 -44 12t-13 30q0 19 13 30.5t44 11.5h70v480zM298 564v-480h305q105 0 198 69t139 165.5t46 190.5v152q0 78 -24 139q-37 89 -102 169q-36 44 -106.5 80.5t-150.5 36.5h-305v-437h234q79 0 87 -2q12 -4 21 -15t9 -25q0 -15 -9 -26t-21 -15q-8 -2 -87 -2h-234z" />
    <glyph glyph-name="Eogonek" unicode="&#x118;" 
d="M341 565v-481h646v248q0 30 11.5 43t30.5 13t30.5 -13t11.5 -43v-332h-927q-30 0 -43 12t-13 30q0 19 13 30.5t43 11.5h113v1002h-113q-30 0 -43 11.5t-13 30.5t13 30.5t43 11.5h883v-289q0 -30 -11.5 -43t-30.5 -13t-30.5 13t-11.5 43v205h-602v-437h301v95q0 30 12 43
t31 13q18 0 30 -13t12 -43v-274q0 -30 -12 -43t-30 -13q-19 0 -31 13t-12 43v95h-301zM1064 23q0 -13 -9 -22q-7 -7 -30 -9q-36 -4 -65 -38t-29 -79q0 -35 26.5 -58.5t74.5 -23.5q46 0 78 28q15 14 26 14q12 0 21 -8.5t9 -22.5q0 -20 -29 -39q-45 -32 -107 -32
q-73 0 -116 41t-43 107q0 70 50 121.5t111 51.5q14 0 23 -8.5t9 -22.5z" />
    <glyph glyph-name="eogonek" unicode="&#x119;" 
d="M1069 413h-856q22 -163 136.5 -262.5t283.5 -99.5q94 0 197 31t168 82q19 15 33 15q16 0 28 -12.5t12 -29.5t-16 -33q-48 -50 -170.5 -93.5t-251.5 -43.5q-216 0 -360.5 141.5t-144.5 342.5q0 183 135.5 314t335.5 131q206 0 339 -134.5t131 -348.5zM984 498
q-25 139 -131.5 226t-253.5 87t-253 -86t-132 -227h770zM694 -1q0 -13 -9 -22q-7 -7 -30 -9q-36 -4 -65 -38t-29 -79q0 -35 26.5 -58.5t74.5 -23.5q46 0 78 28q15 14 26 14q12 0 21 -8.5t9 -22.5q0 -20 -29 -39q-45 -32 -107 -32q-73 0 -116 41t-43 107q0 70 50 121.5
t111 51.5q14 0 23 -8.5t9 -22.5z" />
    <glyph glyph-name="Ecaron" unicode="&#x11a;" 
d="M341 565v-481h646v248q0 30 11.5 43t30.5 13t30.5 -13t11.5 -43v-332h-927q-30 0 -43 12t-13 30q0 19 13 30.5t43 11.5h113v1002h-113q-30 0 -43 11.5t-13 30.5t13 30.5t43 11.5h883v-289q0 -30 -11.5 -43t-30.5 -13t-30.5 13t-11.5 43v205h-602v-437h301v95q0 30 12 43
t31 13q18 0 30 -13t12 -43v-274q0 -30 -12 -43t-30 -13q-19 0 -31 13t-12 43v95h-301zM640 1272l-271 206q-18 14 -23 22.5t-5 19.5q0 18 12.5 30.5t30.5 12.5q13 0 35 -17l221 -170l220 169q22 17 36 17q17 0 29.5 -12.5t12.5 -29.5q0 -21 -28 -42z" />
    <glyph glyph-name="ecaron" unicode="&#x11b;" 
d="M1069 413h-856q22 -163 136.5 -262.5t283.5 -99.5q94 0 197 31t168 82q19 15 33 15q16 0 28 -12.5t12 -29.5t-16 -33q-48 -50 -170.5 -93.5t-251.5 -43.5q-216 0 -360.5 141.5t-144.5 342.5q0 183 135.5 314t335.5 131q206 0 339 -134.5t131 -348.5zM984 498
q-25 139 -131.5 226t-253.5 87t-253 -86t-132 -227h770zM648 1008l-271 206q-18 14 -23 22.5t-5 19.5q0 18 12.5 30.5t30.5 12.5q13 0 35 -17l221 -170l220 169q22 17 36 17q17 0 29.5 -12.5t12.5 -29.5q0 -21 -28 -42z" />
    <glyph glyph-name="Lacute" unicode="&#x139;" 
d="M469 1086v-1002h558v334q0 30 12 43t31 13q18 0 30 -12.5t12 -43.5v-418h-928q-30 0 -43 12t-13 30q0 19 13 30.5t43 11.5h200v1002h-200q-30 0 -43 11.5t-13 30.5t13 30.5t43 11.5h485q30 0 43 -11.5t13 -30.5t-13 -30.5t-43 -11.5h-200zM766 1509l-237 -204
q-22 -20 -38 -20q-17 0 -29.5 12.5t-12.5 30.5q0 10 4.5 18t20.5 23l236 204q23 20 39 20q17 0 29.5 -12.5t12.5 -30.5q0 -10 -4.5 -18.5t-20.5 -22.5z" />
    <glyph glyph-name="lacute" unicode="&#x13a;" 
d="M657 1255v-1171h330q31 0 44 -11.5t13 -30.5q0 -18 -13 -30t-44 -12h-744q-30 0 -43 12t-13 30q0 19 13 30.5t43 11.5h330v1086h-242q-30 0 -43.5 12t-13.5 31q0 18 13 30t44 12h326zM762 1553l-237 -204q-22 -20 -38 -20q-17 0 -29.5 12.5t-12.5 30.5q0 10 4.5 18
t20.5 23l236 204q23 20 39 20q17 0 29.5 -12.5t12.5 -30.5q0 -10 -4.5 -18.5t-20.5 -22.5z" />
    <glyph glyph-name="Lcaron" unicode="&#x13d;" 
d="M469 1086v-1002h558v334q0 30 12 43t31 13q18 0 30 -12.5t12 -43.5v-418h-928q-30 0 -43 12t-13 30q0 19 13 30.5t43 11.5h200v1002h-200q-30 0 -43 11.5t-13 30.5t13 30.5t43 11.5h485q30 0 43 -11.5t13 -30.5t-13 -30.5t-43 -11.5h-200zM947 971h-24q-80 0 -80 77
q0 35 21.5 58.5t58.5 23.5h30q79 0 79 -84q0 -75 -60.5 -161.5t-87.5 -86.5q-36 0 -36 30q0 16 30 47q59 62 69 96z" />
    <glyph glyph-name="lcaron" unicode="&#x13e;" 
d="M657 1255v-1171h330q31 0 44 -11.5t13 -30.5q0 -18 -13 -30t-44 -12h-744q-30 0 -43 12t-13 30q0 19 13 30.5t43 11.5h330v1086h-242q-30 0 -43.5 12t-13.5 31q0 18 13 30t44 12h326zM897 1096h-24q-80 0 -80 77q0 35 21.5 58.5t58.5 23.5h30q79 0 79 -84
q0 -75 -60.5 -161.5t-87.5 -86.5q-36 0 -36 30q0 16 30 47q59 62 69 96z" />
    <glyph glyph-name="Ldot" unicode="&#x13f;" 
d="M469 1086v-1002h558v334q0 30 12 43t31 13q18 0 30 -12.5t12 -43.5v-418h-928q-30 0 -43 12t-13 30q0 19 13 30.5t43 11.5h200v1002h-200q-30 0 -43 11.5t-13 30.5t13 30.5t43 11.5h485q30 0 43 -11.5t13 -30.5t-13 -30.5t-43 -11.5h-200zM913 683q0 -42 -30 -72t-72 -30
q-43 0 -73 30t-30 72q0 43 30 73t73 30q42 0 72 -30t30 -73z" />
    <glyph glyph-name="ldot" unicode="&#x140;" 
d="M657 1255v-1171h330q31 0 44 -11.5t13 -30.5q0 -18 -13 -30t-44 -12h-744q-30 0 -43 12t-13 30q0 19 13 30.5t43 11.5h330v1086h-242q-30 0 -43.5 12t-13.5 31q0 18 13 30t44 12h326zM960 627q0 -42 -30 -72t-72 -30q-43 0 -73 30t-30 72q0 43 30 73t73 30q42 0 72 -30
t30 -73z" />
    <glyph glyph-name="Nacute" unicode="&#x143;" 
d="M1026 0h-108l-619 1047v-963h155q31 0 44 -11.5t13 -30.5q0 -18 -13 -30t-44 -12h-309q-31 0 -44 12t-13 30q0 19 13 30.5t44 11.5h70v1002h-113q-30 0 -43 11.5t-13 30.5t13 30.5t43 11.5h220l620 -1049v965h-155q-30 0 -43 11.5t-13 30.5t12.5 30.5t43.5 11.5h310
q30 0 43 -11.5t13 -30.5t-13 -30.5t-43 -11.5h-71v-1086zM794 1509l-237 -204q-22 -20 -38 -20q-17 0 -29.5 12.5t-12.5 30.5q0 10 4.5 18t20.5 23l236 204q23 20 39 20q17 0 29.5 -12.5t12.5 -30.5q0 -10 -4.5 -18.5t-20.5 -22.5z" />
    <glyph glyph-name="nacute" unicode="&#x144;" 
d="M343 866v-127q88 89 159 123t160 34q96 0 175 -41q56 -30 101.5 -99.5t45.5 -142.5v-529h71q30 0 43 -11.5t13 -30.5q0 -18 -13 -30t-43 -12h-225q-31 0 -44 12t-13 30q0 19 13 30.5t44 11.5h70v515q0 89 -65 150.5t-174 61.5q-83 0 -144 -33.5t-174 -166.5v-527h95
q30 0 43 -11.5t13 -30.5q0 -18 -13 -30t-43 -12h-274q-30 0 -43 12t-13 30q0 19 13 30.5t43 11.5h95v697h-71q-30 0 -43 12t-13 31q0 18 13 30t43 12h155zM804 1245l-237 -204q-22 -20 -38 -20q-17 0 -29.5 12.5t-12.5 30.5q0 10 4.5 18t20.5 23l236 204q23 20 39 20
q17 0 29.5 -12.5t12.5 -30.5q0 -10 -4.5 -18.5t-20.5 -22.5z" />
    <glyph glyph-name="Ncaron" unicode="&#x147;" 
d="M1026 0h-108l-619 1047v-963h155q31 0 44 -11.5t13 -30.5q0 -18 -13 -30t-44 -12h-309q-31 0 -44 12t-13 30q0 19 13 30.5t44 11.5h70v1002h-113q-30 0 -43 11.5t-13 30.5t13 30.5t43 11.5h220l620 -1049v965h-155q-30 0 -43 11.5t-13 30.5t12.5 30.5t43.5 11.5h310
q30 0 43 -11.5t13 -30.5t-13 -30.5t-43 -11.5h-71v-1086zM624 1272l-271 206q-18 14 -23 22.5t-5 19.5q0 18 12.5 30.5t30.5 12.5q13 0 35 -17l221 -170l220 169q22 17 36 17q17 0 29.5 -12.5t12.5 -29.5q0 -21 -28 -42z" />
    <glyph glyph-name="ncaron" unicode="&#x148;" 
d="M343 866v-127q88 89 159 123t160 34q96 0 175 -41q56 -30 101.5 -99.5t45.5 -142.5v-529h71q30 0 43 -11.5t13 -30.5q0 -18 -13 -30t-43 -12h-225q-31 0 -44 12t-13 30q0 19 13 30.5t44 11.5h70v515q0 89 -65 150.5t-174 61.5q-83 0 -144 -33.5t-174 -166.5v-527h95
q30 0 43 -11.5t13 -30.5q0 -18 -13 -30t-43 -12h-274q-30 0 -43 12t-13 30q0 19 13 30.5t43 11.5h95v697h-71q-30 0 -43 12t-13 31q0 18 13 30t43 12h155zM634 1008l-271 206q-18 14 -23 22.5t-5 19.5q0 18 12.5 30.5t30.5 12.5q13 0 35 -17l221 -170l220 169q22 17 36 17
q17 0 29.5 -12.5t12.5 -29.5q0 -21 -28 -42z" />
    <glyph glyph-name="Odblacute" unicode="&#x150;" 
d="M1128 582q0 -168 -68 -311.5t-187.5 -223.5t-256.5 -80q-203 0 -357.5 172.5t-154.5 442.5q0 271 154.5 443t357.5 172q137 0 256 -80t187.5 -223t68.5 -312zM1043 582q0 205 -119 368t-308 163q-177 0 -302.5 -155.5t-125.5 -375.5q0 -234 131.5 -382.5t296.5 -148.5
q189 0 308 162.5t119 368.5zM591 1511l-193 -204q-23 -23 -41 -23q-17 0 -29.5 12t-12.5 31q0 16 21 38l193 204q23 23 41 23t30 -12.5t12 -30.5q0 -16 -21 -38zM894 1511l-193 -204q-22 -23 -41 -23q-17 0 -29.5 12t-12.5 31q0 16 21 38l194 204q22 23 40 23t30 -12.5
t12 -30.5q0 -16 -21 -38z" />
    <glyph glyph-name="odblacute" unicode="&#x151;" 
d="M1084 431q0 -192 -137.5 -328t-331.5 -136q-196 0 -333 136.5t-137 327.5q0 192 137 328.5t333 136.5q194 0 331.5 -136t137.5 -329zM999 431q0 158 -112.5 269t-272.5 111t-272.5 -111.5t-112.5 -268.5q0 -156 112.5 -268t272.5 -112t272.5 111.5t112.5 268.5zM699 1247
l-193 -204q-23 -23 -41 -23q-17 0 -29.5 12t-12.5 31q0 16 21 38l193 204q23 23 41 23t30 -12.5t12 -30.5q0 -16 -21 -38zM1002 1247l-193 -204q-22 -23 -41 -23q-17 0 -29.5 12t-12.5 31q0 16 21 38l194 204q22 23 40 23t30 -12.5t12 -30.5q0 -16 -21 -38z" />
    <glyph glyph-name="Racute" unicode="&#x154;" 
d="M341 522v-438h155q31 0 44 -11.5t13 -30.5q0 -18 -13 -30t-44 -12h-352q-30 0 -43 12t-13 30q0 19 13 30.5t43 11.5h113v1002h-113q-30 0 -43 11.5t-13 30.5t13 30.5t43 11.5h508q157 0 264.5 -99.5t107.5 -224.5q0 -90 -66.5 -169.5t-222.5 -132.5q90 -62 154 -140
t205 -320h64q30 0 43 -11.5t13 -30.5q0 -18 -13 -30t-43 -12h-112q-156 279 -241.5 374t-196.5 148h-267zM341 606h229q110 0 199.5 40t130 94t40.5 110q0 84 -84.5 160t-205.5 76h-309v-480zM798 1509l-237 -204q-22 -20 -38 -20q-17 0 -29.5 12.5t-12.5 30.5q0 10 4.5 18
t20.5 23l236 204q23 20 39 20q17 0 29.5 -12.5t12.5 -30.5q0 -10 -4.5 -18.5t-20.5 -22.5z" />
    <glyph glyph-name="racute" unicode="&#x155;" 
d="M514 866v-212q164 148 245.5 190.5t150.5 42.5q75 0 139.5 -50.5t64.5 -76.5q0 -19 -12.5 -31.5t-31.5 -12.5q-10 0 -17 3.5t-26 22.5q-35 35 -61 48t-51 13q-55 0 -132.5 -44t-268.5 -215v-460h372q31 0 44 -11.5t13 -30.5q0 -18 -13 -30t-44 -12h-659q-30 0 -43 11.5
t-13 29.5q0 17 12.5 28.5t43.5 11.5h203v700h-155q-30 0 -43 12t-13 31q0 18 12.5 30t43.5 12h239zM790 1245l-237 -204q-22 -20 -38 -20q-17 0 -29.5 12.5t-12.5 30.5q0 10 4.5 18t20.5 23l236 204q23 20 39 20q17 0 29.5 -12.5t12.5 -30.5q0 -10 -4.5 -18.5t-20.5 -22.5z
" />
    <glyph glyph-name="Rcaron" unicode="&#x158;" 
d="M341 522v-438h155q31 0 44 -11.5t13 -30.5q0 -18 -13 -30t-44 -12h-352q-30 0 -43 12t-13 30q0 19 13 30.5t43 11.5h113v1002h-113q-30 0 -43 11.5t-13 30.5t13 30.5t43 11.5h508q157 0 264.5 -99.5t107.5 -224.5q0 -90 -66.5 -169.5t-222.5 -132.5q90 -62 154 -140
t205 -320h64q30 0 43 -11.5t13 -30.5q0 -18 -13 -30t-43 -12h-112q-156 279 -241.5 374t-196.5 148h-267zM341 606h229q110 0 199.5 40t130 94t40.5 110q0 84 -84.5 160t-205.5 76h-309v-480zM591 1272l-271 206q-18 14 -23 22.5t-5 19.5q0 18 12.5 30.5t30.5 12.5
q13 0 35 -17l221 -170l220 169q22 17 36 17q17 0 29.5 -12.5t12.5 -29.5q0 -21 -28 -42z" />
    <glyph glyph-name="rcaron" unicode="&#x159;" 
d="M514 866v-212q164 148 245.5 190.5t150.5 42.5q75 0 139.5 -50.5t64.5 -76.5q0 -19 -12.5 -31.5t-31.5 -12.5q-10 0 -17 3.5t-26 22.5q-35 35 -61 48t-51 13q-55 0 -132.5 -44t-268.5 -215v-460h372q31 0 44 -11.5t13 -30.5q0 -18 -13 -30t-44 -12h-659q-30 0 -43 11.5
t-13 29.5q0 17 12.5 28.5t43.5 11.5h203v700h-155q-30 0 -43 12t-13 31q0 18 12.5 30t43.5 12h239zM644 1008l-271 206q-18 14 -23 22.5t-5 19.5q0 18 12.5 30.5t30.5 12.5q13 0 35 -17l221 -170l220 169q22 17 36 17q17 0 29.5 -12.5t12.5 -29.5q0 -21 -28 -42z" />
    <glyph glyph-name="Sacute" unicode="&#x15a;" 
d="M915 1086v28q0 30 11.5 43t30.5 13t30.5 -13t11.5 -43v-214q0 -30 -11.5 -43t-30.5 -13q-18 0 -29.5 12t-12.5 39q-5 84 -86.5 151t-213.5 67q-139 0 -221 -71.5t-82 -168.5q0 -50 23 -91t61 -66.5t86 -41t150 -32.5q171 -28 236 -57q87 -39 131.5 -108t44.5 -163
q0 -144 -115 -245.5t-310 -101.5q-219 0 -350 137v-48q0 -30 -11.5 -43t-30.5 -13q-18 0 -30 13t-12 43v232q0 31 11.5 44t30.5 13q18 0 29.5 -12t12.5 -39q5 -92 98.5 -167.5t251.5 -75.5t249.5 79t91.5 187q0 66 -35 117.5t-104 81.5q-48 21 -200 47q-209 35 -301 107
t-92 205q0 132 105.5 227t278.5 95q176 0 303 -111zM833 1509l-237 -204q-22 -20 -38 -20q-17 0 -29.5 12.5t-12.5 30.5q0 10 4.5 18t20.5 23l236 204q23 20 39 20q17 0 29.5 -12.5t12.5 -30.5q0 -10 -4.5 -18.5t-20.5 -22.5z" />
    <glyph glyph-name="sacute" unicode="&#x15b;" 
d="M892 811q0 29 12 42t30 13q19 0 31 -13t12 -44v-144q0 -30 -12 -43t-31 -13q-17 0 -28.5 11t-13.5 36q-6 60 -62 99q-82 56 -217 56q-141 0 -219 -57q-59 -43 -59 -96q0 -60 70 -100q48 -28 182 -43q175 -19 243 -43q97 -35 144.5 -97t47.5 -134q0 -107 -103 -190.5
t-302 -83.5t-326 101q0 -34 -4 -44t-14.5 -17t-23.5 -7q-18 0 -30 13t-12 43v173q0 30 11.5 43t30.5 13q18 0 30.5 -12.5t12.5 -33.5q0 -46 23 -77q35 -48 111.5 -79.5t187.5 -31.5q164 0 244 61t80 129q0 78 -81 125q-82 47 -238.5 63t-224.5 42t-106 78t-38 112
q0 108 106 171.5t253 63.5q174 0 283 -85zM821 1245l-237 -204q-22 -20 -38 -20q-17 0 -29.5 12.5t-12.5 30.5q0 10 4.5 18t20.5 23l236 204q23 20 39 20q17 0 29.5 -12.5t12.5 -30.5q0 -10 -4.5 -18.5t-20.5 -22.5z" />
    <glyph glyph-name="Tcedilla" unicode="&#x162;" 
d="M656 1086v-1002h218q30 0 43 -11.5t13 -30.5q0 -18 -13 -30t-43 -12h-521q-30 0 -43 12t-13 30q0 19 13 30.5t43 11.5h218v1002h-344v-291q0 -31 -11.5 -44t-30.5 -13q-18 0 -30 13t-12 44v375h941v-375q0 -31 -11.5 -44t-30.5 -13t-30.5 13t-11.5 44v291h-344zM624 -268
h-24q-80 0 -80 77q0 35 21.5 58.5t58.5 23.5h30q79 0 79 -84q0 -75 -60.5 -161.5t-87.5 -86.5q-36 0 -36 30q0 16 30 47q59 62 69 96z" />
    <glyph glyph-name="tcedilla" unicode="&#x163;" 
d="M442 866h456q30 0 43 -12t13 -31q0 -18 -13 -30t-43 -12h-456v-559q0 -73 58.5 -122t171.5 -49q85 0 184 25.5t154 57.5q20 13 33 13q16 0 28 -12.5t12 -29.5q0 -15 -13 -28q-32 -33 -155.5 -71.5t-236.5 -38.5q-147 0 -234 69t-87 186v559h-155q-30 0 -43 12t-13 31
q0 18 13 30t43 12h155v248q0 30 12 43t30 13q19 0 31 -13t12 -43v-248zM624 -268h-24q-80 0 -80 77q0 35 21.5 58.5t58.5 23.5h30q79 0 79 -84q0 -75 -60.5 -161.5t-87.5 -86.5q-36 0 -36 30q0 16 30 47q59 62 69 96z" />
    <glyph glyph-name="Tcaron" unicode="&#x164;" 
d="M656 1086v-1002h218q30 0 43 -11.5t13 -30.5q0 -18 -13 -30t-43 -12h-521q-30 0 -43 12t-13 30q0 19 13 30.5t43 11.5h218v1002h-344v-291q0 -31 -11.5 -44t-30.5 -13q-18 0 -30 13t-12 44v375h941v-375q0 -31 -11.5 -44t-30.5 -13t-30.5 13t-11.5 44v291h-344zM616 1272
l-271 206q-18 14 -23 22.5t-5 19.5q0 18 12.5 30.5t30.5 12.5q13 0 35 -17l221 -170l220 169q22 17 36 17q17 0 29.5 -12.5t12.5 -29.5q0 -21 -28 -42z" />
    <glyph glyph-name="tcaron" unicode="&#x165;" 
d="M1080 1180q0 -76 -64 -157t-94 -81q-37 0 -37 28q0 15 32 44q62 58 72 91h-25q-84 0 -84 73q0 32 23 54.5t61 22.5h32q74 0 84 -75zM442 866h456q56 0 56 -43q0 -42 -56 -42h-456v-559q0 -87 66.5 -129t158.5 -42q88 0 187.5 25t155.5 58q20 13 33 13q40 0 40 -42
q0 -40 -134.5 -89t-270.5 -49q-147 0 -234 69t-87 186v559h-155q-56 0 -56 42q0 43 56 43h155v248q0 56 42 56q43 0 43 -56v-248z" />
    <glyph glyph-name="Uring" unicode="&#x16e;" 
d="M1021 1086v-702q0 -177 -118 -297t-285 -120q-112 0 -199 49t-148 148.5t-61 219.5v702h-71q-30 0 -43 11.5t-13 30.5t14 32q12 10 42 10h310q30 0 43 -11.5t13 -30.5t-13 -30.5t-43 -11.5h-155v-702q0 -139 95 -236t225 -97q83 0 151.5 38t120 117t51.5 178v702h-155
q-30 0 -43 11.5t-13 30.5t13 30.5t43 11.5h310q30 0 43 -11.5t13 -30.5t-13 -30.5t-43 -11.5h-71zM797 1450q0 -73 -53 -125.5t-128 -52.5t-128 52.5t-53 125.5t53 125.5t128 52.5t128 -52.5t53 -125.5zM737 1450q0 49 -35.5 83.5t-85.5 34.5q-51 0 -86 -35t-35 -83
t35.5 -83t85.5 -35t85.5 34.5t35.5 83.5z" />
    <glyph glyph-name="uring" unicode="&#x16f;" 
d="M902 0v123q-172 -156 -372 -156q-123 0 -187 67q-83 88 -83 205v542h-113q-30 0 -43 12t-13 31q0 18 13 30t43 12h197v-627q0 -82 52 -135t130 -53q205 0 376 188v542h-155q-30 0 -43 12t-13 31q0 18 13 30t43 12h239v-782h71q30 0 43 -11.5t13 -30.5q0 -18 -13 -30
t-43 -12h-155zM783 1186q0 -73 -53 -125.5t-128 -52.5t-128 52.5t-53 125.5t53 125.5t128 52.5t128 -52.5t53 -125.5zM723 1186q0 49 -35.5 83.5t-85.5 34.5q-51 0 -86 -35t-35 -83t35.5 -83t85.5 -35t85.5 34.5t35.5 83.5z" />
    <glyph glyph-name="Udblacute" unicode="&#x170;" 
d="M1021 1086v-702q0 -177 -118 -297t-285 -120q-112 0 -199 49t-148 148.5t-61 219.5v702h-71q-30 0 -43 11.5t-13 30.5t14 32q12 10 42 10h310q30 0 43 -11.5t13 -30.5t-13 -30.5t-43 -11.5h-155v-702q0 -139 95 -236t225 -97q83 0 151.5 38t120 117t51.5 178v702h-155
q-30 0 -43 11.5t-13 30.5t13 30.5t43 11.5h310q30 0 43 -11.5t13 -30.5t-13 -30.5t-43 -11.5h-71zM688 1511l-193 -204q-23 -23 -41 -23q-17 0 -29.5 12t-12.5 31q0 16 21 38l193 204q23 23 41 23t30 -12.5t12 -30.5q0 -16 -21 -38zM991 1511l-193 -204q-22 -23 -41 -23
q-17 0 -29.5 12t-12.5 31q0 16 21 38l194 204q22 23 40 23t30 -12.5t12 -30.5q0 -16 -21 -38z" />
    <glyph glyph-name="udblacute" unicode="&#x171;" 
d="M902 0v123q-172 -156 -372 -156q-123 0 -187 67q-83 88 -83 205v542h-113q-30 0 -43 12t-13 31q0 18 13 30t43 12h197v-627q0 -82 52 -135t130 -53q205 0 376 188v542h-155q-30 0 -43 12t-13 31q0 18 13 30t43 12h239v-782h71q30 0 43 -11.5t13 -30.5q0 -18 -13 -30
t-43 -12h-155zM663 1247l-193 -204q-23 -23 -41 -23q-17 0 -29.5 12t-12.5 31q0 16 21 38l193 204q23 23 41 23t30 -12.5t12 -30.5q0 -16 -21 -38zM966 1247l-193 -204q-22 -23 -41 -23q-17 0 -29.5 12t-12.5 31q0 16 21 38l194 204q22 23 40 23t30 -12.5t12 -30.5
q0 -16 -21 -38z" />
    <glyph glyph-name="Zacute" unicode="&#x179;" 
d="M1022 0h-809v122l682 957v7h-559v-247q0 -31 -12 -44t-31 -13q-18 0 -30 13t-12 44v331h725v-119l-682 -958v-9h644v293q0 31 11.5 44t30.5 13t30.5 -13t11.5 -44v-377zM836 1509l-237 -204q-22 -20 -38 -20q-17 0 -29.5 12.5t-12.5 30.5q0 10 4.5 18t20.5 23l236 204
q23 20 39 20q17 0 29.5 -12.5t12.5 -30.5q0 -10 -4.5 -18.5t-20.5 -22.5z" />
    <glyph glyph-name="zacute" unicode="&#x17a;" 
d="M982 866v-75l-629 -707h568v116q0 30 11.5 43t30.5 13t31 -13t12 -43l-1 -200h-768v75l626 706h-522v-114q0 -30 -12 -43t-30 -13q-19 0 -31 13t-12 43v199h726zM840 1245l-237 -204q-22 -20 -38 -20q-17 0 -29.5 12.5t-12.5 30.5q0 10 4.5 18t20.5 23l236 204
q23 20 39 20q17 0 29.5 -12.5t12.5 -30.5q0 -10 -4.5 -18.5t-20.5 -22.5z" />
    <glyph glyph-name="Zdot" unicode="&#x17b;" 
d="M1022 0h-809v122l682 957v7h-559v-247q0 -31 -12 -44t-31 -13q-18 0 -30 13t-12 44v331h725v-119l-682 -958v-9h644v293q0 31 11.5 44t30.5 13t30.5 -13t11.5 -44v-377zM720 1411q0 -42 -30 -72t-72 -30q-43 0 -73 30t-30 72q0 43 30 73t73 30q42 0 72 -30t30 -73z" />
    <glyph glyph-name="zdot" unicode="&#x17c;" 
d="M982 866v-75l-629 -707h568v116q0 30 11.5 43t30.5 13t31 -13t12 -43l-1 -200h-768v75l626 706h-522v-114q0 -30 -12 -43t-30 -13q-19 0 -31 13t-12 43v199h726zM726 1147q0 -42 -30 -72t-72 -30q-43 0 -73 30t-30 72q0 43 30 73t73 30q42 0 72 -30t30 -73z" />
    <glyph glyph-name="Gamma" unicode="&#x393;" 
d="M468 84h200q56 0 56 -42t-56 -42h-485q-56 0 -56 42t56 42h200v1002h-200q-56 0 -56 42t56 42h928v-418q0 -56 -42 -56q-43 0 -43 56v334h-558v-1002z" />
    <glyph glyph-name="Theta" unicode="&#x398;" 
d="M1127 582q0 -256 -148.5 -435.5t-363.5 -179.5q-214 0 -363 179t-149 436q0 255 148 435t364 180q152 0 271.5 -91.5t180 -229t60.5 -294.5zM1042 582q0 213 -122 372t-305 159q-176 0 -302 -156.5t-126 -374.5q0 -217 124.5 -374t303.5 -157q183 0 305 159.5t122 371.5z
M423 624h384v87q0 56 42 56q43 0 43 -56v-258q0 -56 -43 -56q-42 0 -42 56v87h-384v-87q0 -56 -43 -56q-42 0 -42 56v258q0 56 42 56q43 0 43 -56v-87z" />
    <glyph glyph-name="Phi" unicode="&#x3a6;" 
d="M656 1086v-103q237 -2 359.5 -113t122.5 -285t-122.5 -285t-359.5 -113v-103h122q57 0 57 -42t-57 -42h-328q-57 0 -57 42t57 42h122v103q-237 2 -359.5 113.5t-122.5 284.5q0 120 59 211.5t164.5 138.5t258.5 48v103h-122q-57 0 -57 42t57 42h328q57 0 57 -42t-57 -42
h-122zM572 898q-200 -4 -299 -83.5t-99 -229.5q0 -304 398 -313v626zM656 898v-626q213 1 305 89.5t92 223.5q0 304 -397 313z" />
    <glyph glyph-name="alpha" unicode="&#x3b1;" 
d="M1001 84h78q56 0 56 -42t-56 -42h-149l-51 268q-117 -178 -209 -239.5t-195 -61.5q-152 0 -264.5 131t-112.5 337q0 194 109.5 327.5t279.5 133.5q134 0 248 -101.5t172 -295.5q103 201 141 343q14 54 47 54q42 0 42 -40q0 -99 -195 -486q54 -248 59 -286zM848 385
q-31 173 -133 299.5t-234 126.5q-126 0 -212.5 -105t-86.5 -271q0 -173 89.5 -278.5t207.5 -105.5q190 0 369 334z" />
    <glyph glyph-name="delta" unicode="&#x3b4;" 
d="M360 1170l402 -304q161 -122 225.5 -216t64.5 -236q0 -184 -129 -315.5t-308 -131.5q-110 0 -210 56t-162 156.5t-62 227.5q0 160 114 297.5t360 137.5l-268 196q-55 40 -102 93v124h614q56 0 56 -43q0 -42 -56 -42h-539zM616 757q-154 0 -252.5 -100.5t-98.5 -249.5
t100.5 -252.5t249.5 -103.5t250.5 104t101.5 258q0 151 -97.5 247.5t-253.5 96.5z" />
    <glyph glyph-name="epsilon" unicode="&#x3b5;" 
d="M522 456q-95 23 -148 83.5t-53 134.5q0 87 77.5 154.5t231.5 67.5q144 0 253 -76l10 41q9 35 42 35q43 0 43 -46q0 -16 -4 -50q-4 -37 -4 -66q0 -42 3 -69q3 -30 3 -34q0 -29 -38 -29q-31 0 -43 38q-22 70 -49.5 101.5t-87 50.5t-137.5 19q-111 0 -163.5 -39t-52.5 -98
q0 -163 318 -178v-84q-162 0 -259 -52t-97 -135q0 -68 67 -121t201 -53q114 0 233 48q20 8 28 8q16 0 28.5 -13.5t12.5 -30.5q0 -32 -92 -64t-216 -32q-158 0 -252 69t-94 181q0 89 62 154.5t177 84.5z" />
    <glyph glyph-name="sigma" unicode="&#x3c3;" 
d="M855 811q107 -59 164.5 -167t57.5 -225q0 -178 -134.5 -315t-325.5 -137q-195 0 -330 140t-135 327q0 148 87.5 267t209 157t320.5 38h375q56 0 56 -42q0 -43 -56 -43h-289zM617 811q-63 0 -163.5 -41.5t-159 -138.5t-58.5 -204q0 -154 110 -265t270 -111
q153 0 265 111.5t112 267.5q0 165 -113.5 273t-262.5 108z" />
    <glyph glyph-name="tau" unicode="&#x3c4;" 
d="M618 781v-647q0 -83 80 -83q48 0 107 26q31 14 42 14q38 0 38 -43q0 -39 -65.5 -60t-132.5 -21q-154 0 -154 146v668h-136q-33 0 -112 -7q-18 -2 -29 -2q-48 0 -48 42q0 31 34 41.5t136 10.5h496q56 0 56 -43q0 -42 -56 -42h-256z" />
    <glyph glyph-name="phi" unicode="&#x3c6;" 
d="M516 -26q-185 31 -289 159t-104 326q0 120 44.5 214.5t120.5 158.5t116 64q36 0 36 -45q0 -23 -53 -51q-83 -43 -131.5 -135t-48.5 -211q0 -311 309 -395v447q0 157 21 227.5t77 116.5t137 46q149 0 255 -134.5t106 -320.5q0 -215 -137.5 -344.5t-322.5 -129.5
q-20 0 -52 1v-284q0 -70 -42 -70t-42 70v290zM600 51q208 0 317.5 111.5t109.5 277.5q0 157 -84 264t-189 107q-84 0 -119 -64t-35 -240v-456z" />
    <glyph glyph-name="underscoredbl" unicode="&#x2017;" 
d="M1200 -380h-1171q-30 0 -43 11.5t-13 30.5t13 30.5t43 11.5h1171q31 0 43.5 -11.5t12.5 -30.5t-12.5 -30.5t-43.5 -11.5zM1200 -561h-1171q-30 0 -43 11.5t-13 30.5t13 30.5t43 11.5h1171q31 0 43.5 -11.5t12.5 -30.5t-12.5 -30.5t-43.5 -11.5z" />
    <glyph glyph-name="exclamdbl" unicode="&#x203c;" 
d="M478 1170l-38 -678q-2 -32 -13.5 -45t-28.5 -13q-18 0 -29.5 13t-13.5 45l-37 678q-2 24 -2 35q0 34 23.5 57t58.5 23t58 -23t23 -58q0 -10 -1 -34zM378 178h39q43 0 73.5 -30.5t30.5 -73.5q0 -44 -31 -74t-73 -30h-39q-43 0 -73.5 30.5t-30.5 72.5q0 45 31 75t73 30z
M913 1170l-38 -678q-2 -32 -13.5 -45t-28.5 -13q-18 0 -29.5 13t-13.5 45l-37 678q-2 24 -2 35q0 34 23.5 57t58.5 23t58 -23t23 -58q0 -10 -1 -34zM813 178h39q43 0 73.5 -30.5t30.5 -73.5q0 -44 -31 -74t-73 -30h-39q-43 0 -73.5 30.5t-30.5 72.5q0 45 31 75t73 30z" />
    <glyph glyph-name="nsuperior" unicode="&#x207f;" 
d="M448 1050v-79q56 55 102.5 77t105.5 22q62 0 109 -28t67.5 -70.5t20.5 -148.5v-243q31 1 41.5 -3.5t17 -13.5t6.5 -22q0 -12 -6.5 -21.5t-16.5 -13.5t-42 -4h-79q-31 0 -41.5 4t-17 13.5t-6.5 21.5q0 13 6.5 22t17.5 13.5t41 3.5v248q0 78 -11 103.5t-40 43t-70 17.5
q-47 0 -94 -25.5t-111 -104.5v-282h30q31 0 43.5 -10.5t12.5 -27.5q0 -19 -12.5 -29.5t-43.5 -10.5h-139q-31 0 -43.5 10.5t-12.5 29.5q0 17 12.5 27.5t43.5 10.5h30v392h-30q-31 0 -43.5 10.5t-12.5 28.5t12.5 28.5t43.5 10.5h109z" />
    <glyph glyph-name="peseta" unicode="&#x20a7;" 
d="M230 642v-558h90q30 0 43 -11.5t13 -30.5t-13 -30.5t-43 -11.5h-250q-30 0 -43 11.5t-13 30.5q0 12 6.5 22.5t16 15t33.5 4.5l76 1v1001h-76q-30 0 -43 11.5t-13 30.5t13 30.5t43 11.5h395q200 0 283.5 -33t126.5 -95t43 -136t-41 -136.5t-115 -95t-226 -32.5h-306z
M230 726h270q154 0 212.5 21t90 66t31.5 94q0 50 -30.5 91.5t-96.5 64.5t-234 23h-243v-360zM490 445h229q30 0 43 -11.5t13 -30.5t-13 -30.5t-43 -11.5h-229v-151q0 -75 7.5 -95t26 -32.5t47.5 -12.5q47 0 128 29q14 5 24 5q12 0 22 -11q12 -14 12 -33q0 -29 -49 -48
q-66 -26 -144 -26q-50 0 -86 21t-54.5 55t-18.5 97v202h-32q-31 0 -44 11.5t-13 30.5q0 14 8.5 25t18 14t62.5 3v85q0 30 12 43t31 13q18 0 30 -12.5t12 -43.5v-85zM1108 433q7 22 17.5 29.5t25.5 7.5q16 0 25 -10t9 -35q0 -66 -9 -112q-3 -15 -13 -23t-26 -8q-14 0 -25 8
q-7 6 -14 29t-25 33q-33 20 -82 20t-77 -21q-21 -15 -21 -33q0 -20 19 -33q18 -14 106 -24q116 -14 148 -33q48 -31 48 -93t-48.5 -104t-140.5 -42q-37 0 -71.5 8t-66.5 23q-6 -19 -14 -26q-11 -8 -27 -8q-23 0 -34 18q-22 35 -22 116q0 29 13 44t30 15q15 0 25 -7.5
t15 -25.5q9 -34 31 -47q46 -26 122 -26q54 0 79 18t25 36q0 14 -14.5 25t-62.5 16q-140 13 -177 34q-68 40 -68 115q0 57 48.5 97.5t137.5 40.5q22 0 50.5 -5.5t63.5 -16.5z" />
    <glyph glyph-name="arrowleft" unicode="&#x2190;" 
d="M270 568h49q-38 -77 -57 -107t-69 -93h1034v-66h-1034q67 -71 128 -200h-50q-83 93 -144 141.5t-125 78.5v30q117 50 268 216z" />
    <glyph glyph-name="arrowup" unicode="&#x2191;" 
d="M381 600q166 153 216 268h30q31 -64 79 -124.5t141 -143.5v-51q-131 62 -200 128v-955h-66v956q-60 -49 -91.5 -69t-108.5 -58v49z" />
    <glyph glyph-name="arrowright" unicode="&#x2192;" 
d="M959 568q150 -166 268 -216v-30q-65 -30 -125.5 -78.5t-143.5 -141.5h-50q61 130 128 200h-1034v66h1034q-49 61 -68.5 92.5t-58.5 107.5h50z" />
    <glyph glyph-name="arrowdown" unicode="&#x2193;" 
d="M381 -11v50q77 -38 108.5 -58t91.5 -69v956h66v-955q69 66 200 128v-51q-93 -83 -141 -143.5t-79 -124.5h-30q-51 118 -216 267z" />
    <glyph glyph-name="arrowboth" unicode="&#x2194;" 
d="M1227 350v-29q-60 -28 -120 -75.5t-144 -142.5h-51q44 111 125 201h-846q82 -90 126 -201h-52q-84 95 -143.5 142.5t-119.5 75.5v29q61 28 119 74.5t144 144.5h52q-45 -112 -126 -202h846q-80 90 -125 202h51q87 -98 145 -144.5t119 -74.5z" />
    <glyph glyph-name="arrowupdn" unicode="&#x2195;" 
d="M599 948h30q56 -122 218 -263v-52q-110 44 -201 126v-846q90 81 201 125v-51q-161 -141 -218 -264h-30q-28 62 -75.5 121t-142.5 143v51q112 -45 201 -125v846q-91 -82 -201 -126v52q96 84 143 143t75 120z" />
    <glyph glyph-name="arrowupdnbse" unicode="&#x21a8;" 
d="M599 948h30q56 -122 218 -263v-52q-110 44 -201 126v-846q90 81 201 125v-51q-161 -141 -218 -264h-30q-28 62 -75.5 121t-142.5 143v51q112 -45 201 -125v846q-91 -82 -201 -126v52q96 84 143 143t75 120zM382 -339h465v-63h-465v63z" />
    <glyph glyph-name="orthogonal" unicode="&#x221f;" 
d="M2 1223h95v-1128h1130v-95h-1225v1223z" />
    <glyph glyph-name="intersection" unicode="&#x2229;" 
d="M169 23v698q0 170 52.5 266.5t151 153t243.5 56.5q140 0 241.5 -59t152 -153t50.5 -264v-698q0 -30 -12 -43t-31 -13q-18 0 -30 13t-12 43v659q0 171 -41.5 253t-121.5 130t-199 48q-116 0 -197.5 -49t-122 -129.5t-40.5 -252.5v-659q0 -30 -11.5 -43t-30.5 -13t-30.5 13
t-11.5 43z" />
    <glyph glyph-name="equivalence" unicode="&#x2261;" 
d="M1073 846h-916q-30 0 -43 12t-13 30q0 19 13 31t43 12h916q30 -1 43 -12.5t13 -30.5q0 -18 -13 -30t-43 -12zM1073 544h-916q-30 0 -43 12t-13 31q0 18 13 30t43 12h916q30 0 43 -12t13 -30q0 -19 -13 -31t-43 -12zM1073 243h-916q-30 0 -43 11.5t-13 30.5t13 30.5
t43 11.5h916q30 0 43 -11.5t13 -30.5t-13 -30.5t-43 -11.5z" />
    <glyph glyph-name="house" unicode="&#x2302;" 
d="M153 0v634l461 519l462 -519v-634h-923zM234 81h761v519l-381 427l-380 -427v-519z" />
    <glyph glyph-name="revlogicalnot" unicode="&#x2310;" 
d="M1148 543h-920v-420q0 -30 -11.5 -43t-30.5 -13t-30.5 12.5t-11.5 43.5v504h1004q31 0 44 -11.5t13 -30.5t-13 -30.5t-44 -11.5z" />
    <glyph glyph-name="integraltp" unicode="&#x2320;" 
d="M688 -615h-147v1879q0 197 83 319t211 122q63 0 100.5 -31t37.5 -78q0 -40 -25.5 -66t-62.5 -26q-31 0 -57 15l-39 44q-35 39 -49 39q-37 0 -45 -39q-7 -34 -7 -139v-2039z" />
    <glyph glyph-name="integralbt" unicode="&#x2321;" 
d="M541 1705h147v-1879q0 -207 -90 -330q-81 -111 -204 -111q-61 0 -99.5 30.5t-38.5 78.5q0 40 25.5 66t61.5 26q32 0 59 -16q8 -5 41 -46q29 -36 46 -36q37 0 45 40q7 35 7 138v2039z" />
    <glyph glyph-name="SF100000" unicode="&#x2500;" 
d="M1229 450h-1229v147h1229v-147z" />
    <glyph glyph-name="SF110000" unicode="&#x2502;" 
d="M541 -615v2320h147v-2320h-147z" />
    <glyph glyph-name="SF010000" unicode="&#x250c;" 
d="M1229 597v-147h-541v-1065h-147v1212h688z" />
    <glyph glyph-name="SF030000" unicode="&#x2510;" 
d="M541 450h-541v147h688v-1212h-147v1065z" />
    <glyph glyph-name="SF020000" unicode="&#x2514;" 
d="M541 450v1255h147v-1108h541v-147h-688z" />
    <glyph glyph-name="SF040000" unicode="&#x2518;" 
d="M688 450h-688v147h541v1108h147v-1255z" />
    <glyph glyph-name="SF080000" unicode="&#x251c;" 
d="M541 -615v2320h147v-1108h541v-147h-541v-1065h-147z" />
    <glyph glyph-name="SF090000" unicode="&#x2524;" 
d="M541 -615v1065h-541v147h541v1108h147v-2320h-147z" />
    <glyph glyph-name="SF060000" unicode="&#x252c;" 
d="M541 450h-541v147h1229v-147h-541v-1065h-147v1065z" />
    <glyph glyph-name="SF070000" unicode="&#x2534;" 
d="M1229 450h-1229v147h541v1108h147v-1108h541v-147z" />
    <glyph glyph-name="SF050000" unicode="&#x253c;" 
d="M541 450h-541v147h541v1108h147v-1108h541v-147h-541v-1065h-147v1065z" />
    <glyph glyph-name="SF430000" unicode="&#x2550;" 
d="M1229 610h-1229v147h1229v-147zM1229 290h-1229v147h1229v-147z" />
    <glyph glyph-name="SF240000" unicode="&#x2551;" 
d="M701 -615v2320h147v-2320h-147zM381 -615v2320h147v-2320h-147z" />
    <glyph glyph-name="SF510000" unicode="&#x2552;" 
d="M541 -615v1372h688v-147h-541v-173h541v-147h-541v-905h-147z" />
    <glyph glyph-name="SF520000" unicode="&#x2553;" 
d="M381 -615v1212h848v-148h-381v-1064h-147v1064h-173v-1064h-147z" />
    <glyph glyph-name="SF390000" unicode="&#x2554;" 
d="M528 -615h-147v1372h848v-147h-701v-1225zM848 290v-905h-147v1052h528v-147h-381z" />
    <glyph glyph-name="SF220000" unicode="&#x2555;" 
d="M541 290h-541v147h541v173h-541v147h688v-1372h-147v905z" />
    <glyph glyph-name="SF210000" unicode="&#x2556;" 
d="M381 -615v1065h-381v147h848v-1212h-147v1065h-173v-1065h-147z" />
    <glyph glyph-name="SF250000" unicode="&#x2557;" 
d="M701 -615v1225h-701v147h848v-1372h-147zM381 290h-381v147h528v-1052h-147v905z" />
    <glyph glyph-name="SF500000" unicode="&#x2558;" 
d="M541 290v1415h147v-948h541v-147h-541v-173h541v-147h-688z" />
    <glyph glyph-name="SF490000" unicode="&#x2559;" 
d="M1229 450h-848v1255h147v-1108h173v1108h147v-1108h381v-147z" />
    <glyph glyph-name="SF380000" unicode="&#x255a;" 
d="M528 1705v-1268h701v-147h-848v1415h147zM848 757h381v-147h-528v1095h147v-948z" />
    <glyph glyph-name="SF280000" unicode="&#x255b;" 
d="M688 290h-688v147h541v173h-541v147h541v948h147v-1415z" />
    <glyph glyph-name="SF270000" unicode="&#x255c;" 
d="M848 450h-848v147h381v1108h147v-1108h173v1108h147v-1255z" />
    <glyph glyph-name="SF260000" unicode="&#x255d;" 
d="M701 1705h147v-1415h-848v147h701v1268zM381 757v948h147v-1095h-528v147h381z" />
    <glyph glyph-name="SF360000" unicode="&#x255e;" 
d="M541 -615v2320h147v-948h541v-147h-541v-173h541v-147h-541v-905h-147z" />
    <glyph glyph-name="SF370000" unicode="&#x255f;" 
d="M701 -615v2320h147v-1108h381v-147h-381v-1065h-147zM381 -615v2320h147v-2320h-147z" />
    <glyph glyph-name="SF420000" unicode="&#x2560;" 
d="M381 -615v2320h147v-2320h-147zM701 610v1095h147v-948h381v-147h-528zM701 -615v1052h528v-147h-381v-905h-147z" />
    <glyph glyph-name="SF190000" unicode="&#x2561;" 
d="M541 290h-541v147h541v173h-541v147h541v948h147v-2320h-147v905z" />
    <glyph glyph-name="SF200000" unicode="&#x2562;" 
d="M381 -615v1065h-381v147h381v1108h147v-2320h-147zM701 -615v2320h147v-2320h-147z" />
    <glyph glyph-name="SF230000" unicode="&#x2563;" 
d="M701 -615v2320h147v-2320h-147zM528 1705v-1095h-528v147h381v948h147zM381 290h-381v147h528v-1052h-147v905z" />
    <glyph glyph-name="SF470000" unicode="&#x2564;" 
d="M1229 610h-1229v147h1229v-147zM541 290h-541v147h1229v-147h-541v-905h-147v905z" />
    <glyph glyph-name="SF480000" unicode="&#x2565;" 
d="M381 -615v1065h-381v147h1229v-147h-381v-1065h-147v1065h-173v-1065h-147z" />
    <glyph glyph-name="SF410000" unicode="&#x2566;" 
d="M1229 610h-1229v147h1229v-147zM381 290h-381v147h528v-1052h-147v905zM701 -615v1052h528v-147h-381v-905h-147z" />
    <glyph glyph-name="SF450000" unicode="&#x2567;" 
d="M1229 610h-1229v147h541v948h147v-948h541v-147zM1229 290h-1229v147h1229v-147z" />
    <glyph glyph-name="SF460000" unicode="&#x2568;" 
d="M1229 450h-1229v147h381v1108h147v-1108h173v1108h147v-1108h381v-147z" />
    <glyph glyph-name="SF400000" unicode="&#x2569;" 
d="M528 610h-528v147h381v948h147v-1095zM1229 610h-528v1095h147v-948h381v-147zM1229 290h-1229v147h1229v-147z" />
    <glyph glyph-name="SF540000" unicode="&#x256a;" 
d="M541 290h-541v147h541v173h-541v147h541v948h147v-948h541v-147h-541v-173h541v-147h-541v-905h-147v905z" />
    <glyph glyph-name="SF530000" unicode="&#x256b;" 
d="M381 -615v1065h-381v147h381v1108h147v-1108h173v1108h147v-1108h381v-147h-381v-1065h-147v1065h-173v-1065h-147z" />
    <glyph glyph-name="SF440000" unicode="&#x256c;" 
d="M848 757h381v-147h-528v1095h147v-948zM381 757v948h147v-1095h-528v147h381zM381 290h-381v147h528v-1052h-147v905zM848 290v-905h-147v1052h528v-147h-381z" />
    <glyph glyph-name="upblock" unicode="&#x2580;" 
d="M1229 523h-1229v1182h1229v-1182z" />
    <glyph glyph-name="dnblock" unicode="&#x2584;" 
d="M1229 -615h-1229v1138h1229v-1138z" />
    <glyph glyph-name="block" unicode="&#x2588;" 
d="M0 -615v2320h1229v-2320h-1229z" />
    <glyph glyph-name="lfblock" unicode="&#x258c;" 
d="M0 -615v2320h615v-2320h-615z" />
    <glyph glyph-name="rtblock" unicode="&#x2590;" 
d="M615 -615v2320h614v-2320h-614z" />
    <glyph glyph-name="ltshade" unicode="&#x2591;" 
d="M102 1320h103v-97h-103v97zM512 1320h103v-97h-103v97zM922 1320h103v-97h-103v97zM307 1126h103v-96h-103v96zM717 1126h103v-96h-103v96zM1127 1126h102v-96h-102v96zM922 933h103v-96h-103v96zM512 933h103v-96h-103v96zM102 933h103v-96h-103v96zM1127 740h102v-97
h-102v97zM717 740h103v-97h-103v97zM307 740h103v-97h-103v97zM102 546h103v-96h-103v96zM512 546h103v-96h-103v96zM922 546h103v-96h-103v96zM1127 353h102v-96h-102v96zM717 353h103v-96h-103v96zM307 353h103v-96h-103v96zM102 160h103v-97h-103v97zM512 160h103v-97
h-103v97zM922 160h103v-97h-103v97zM307 -34h103v-96h-103v96zM717 -34h103v-96h-103v96zM1127 -34h102v-96h-102v96zM922 -227h103v-97h-103v97zM512 -227h103v-97h-103v97zM102 -227h103v-97h-103v97zM307 -420h103v-97h-103v97zM717 -420h103v-97h-103v97zM1127 -420h102
v-97h-102v97zM0 -615zM307 1513h103v-97h-103v97zM717 1513h103v-97h-103v97zM1127 1513h102v-97h-102v97zM102 1705h103v-95h-103v95zM512 1705h103v-95h-103v95zM922 1705h103v-95h-103v95z" />
    <glyph glyph-name="shade" unicode="&#x2592;" 
d="M102 1320h103v-97h-103v97zM307 1320h103v-97h-103v97zM512 1320h103v-97h-103v97zM717 1320h103v-97h-103v97zM922 1320h103v-97h-103v97zM1127 1320h102v-97h-102v97zM0 1126h102v-96h-102v96zM205 1126h102v-96h-102v96zM410 1126h102v-96h-102v96zM615 1126h102v-96
h-102v96zM820 1126h102v-96h-102v96zM1025 1126h102v-96h-102v96zM102 933h103v-96h-103v96zM307 933h103v-96h-103v96zM512 933h103v-96h-103v96zM717 933h103v-96h-103v96zM922 933h103v-96h-103v96zM1127 933h102v-96h-102v96zM0 740h102v-97h-102v97zM205 740h102v-97
h-102v97zM410 740h102v-97h-102v97zM615 740h102v-97h-102v97zM820 740h102v-97h-102v97zM1025 740h102v-97h-102v97zM102 546h103v-96h-103v96zM307 546h103v-96h-103v96zM512 546h103v-96h-103v96zM717 546h103v-96h-103v96zM922 546h103v-96h-103v96zM1127 546h102v-96
h-102v96zM0 353h102v-96h-102v96zM410 353h102v-96h-102v96zM615 353h102v-96h-102v96zM820 353h102v-96h-102v96zM1025 353h102v-96h-102v96zM205 353h102v-96h-102v96zM1127 160h102v-97h-102v97zM922 160h103v-97h-103v97zM717 160h103v-97h-103v97zM512 160h103v-97
h-103v97zM307 160h103v-97h-103v97zM102 160h103v-97h-103v97zM0 -34h102v-96h-102v96zM205 -34h102v-96h-102v96zM410 -34h102v-96h-102v96zM615 -34h102v-96h-102v96zM820 -34h102v-96h-102v96zM1025 -34h102v-96h-102v96zM1127 -227h102v-97h-102v97zM922 -227h103v-97
h-103v97zM717 -227h103v-97h-103v97zM512 -227h103v-97h-103v97zM307 -227h103v-97h-103v97zM102 -227h103v-97h-103v97zM0 -420h102v-97h-102v97zM205 -420h102v-97h-102v97zM410 -420h102v-97h-102v97zM615 -420h102v-97h-102v97zM820 -420h102v-97h-102v97zM1025 -420
h102v-97h-102v97zM0 -615zM0 1513h102v-97h-102v97zM205 1513h102v-97h-102v97zM410 1513h102v-97h-102v97zM615 1513h102v-97h-102v97zM820 1513h102v-97h-102v97zM1025 1513h102v-97h-102v97zM102 1705h103v-95h-103v95zM307 1705h103v-95h-103v95zM512 1705h103v-95h-103
v95zM717 1705h103v-95h-103v95zM922 1705h103v-95h-103v95zM1127 1705h102v-95h-102v95z" />
    <glyph glyph-name="dkshade" unicode="&#x2593;" 
d="M1229 1513h-102v-97h102v-290h-102v-96h102v-290h-102v-97h102v-290h-102v-97h102v-290h-102v-96h102v-290h-102v-97h102v-98h-1229v291h102v97h-102v290h102v97h-102v290h102v96h-102v290h102v97h-102v290h102v97h-102v290h102v95h103v-95h102v95h103v-95h102v95h103
v-95h102v95h103v-95h102v95h103v-95h102v95h102v-192zM102 1126v-96h103v96h-103zM307 1126v-96h103v96h-103zM512 1126v-96h103v96h-103zM717 1126v-96h103v96h-103zM922 1126v-96h103v96h-103zM1127 933h-102v-97h102v97zM922 933h-102v-97h102v97zM717 933h-102v-97h102
v97zM512 933h-102v-97h102v97zM307 933h-102v-97h102v97zM102 740v-97h103v97h-103zM307 740v-97h103v97h-103zM512 740v-97h103v97h-103zM717 740v-97h103v97h-103zM922 740v-97h103v97h-103zM307 546h-102v-96h102v96zM410 546v-96h102v96h-102zM615 546v-96h102v96h-102z
M820 546v-96h102v96h-102zM1025 546v-96h102v96h-102zM102 353v-97h103v97h-103zM512 353v-97h103v97h-103zM410 256v97h-103v-97h103zM717 353v-97h103v97h-103zM922 353v-97h103v97h-103zM1127 63v97h-102v-97h102zM922 63v97h-102v-97h102zM717 63v97h-102v-97h102z
M512 63v97h-102v-97h102zM307 63v97h-102v-97h102zM102 -34v-96h103v96h-103zM307 -34v-96h103v96h-103zM512 -34v-96h103v96h-103zM717 -34v-96h103v96h-103zM922 -34v-96h103v96h-103zM1127 -324v97h-102v-97h102zM922 -324v97h-102v-97h102zM717 -324v97h-102v-97h102z
M512 -324v97h-102v-97h102zM307 -324v97h-102v-97h102zM102 -420v-97h103v97h-103zM307 -420v-97h103v97h-103zM512 -420v-97h103v97h-103zM717 -420v-97h103v97h-103zM922 -420v-97h103v97h-103zM1127 1320h-102v-97h102v97zM922 1320h-102v-97h102v97zM717 1320h-102v-97
h102v97zM512 1320h-102v-97h102v97zM307 1320h-102v-97h102v97zM1025 1513h-103v-97h103v97zM820 1513h-103v-97h103v97zM615 1513h-103v-97h103v97zM410 1513h-103v-97h103v97zM205 1513h-103v-97h103v97z" />
    <glyph glyph-name="filledbox" unicode="&#x25a0;" 
d="M2 1225h1225v-1225h-1225v1225z" />
    <glyph glyph-name="filledrect" unicode="&#x25ac;" 
d="M2 626h1225v-231h-1225v231z" />
    <glyph glyph-name="triagup" unicode="&#x25b2;" 
d="M15 0l599 1198l599 -1198h-1198z" />
    <glyph glyph-name="triagrt" unicode="&#x25ba;" 
d="M2 1196l1225 -611l-1225 -611v1222z" />
    <glyph glyph-name="triagdn" unicode="&#x25bc;" 
d="M1213 1172l-599 -1198l-599 1198h1198z" />
    <glyph glyph-name="triaglf" unicode="&#x25c4;" 
d="M1227 1196v-1222l-1225 611z" />
    <glyph glyph-name="circle" unicode="&#x25cb;" 
d="M615 1018q110 0 216 -57t165 -163t59 -220q0 -183 -129 -312t-311 -129q-183 0 -312 129t-129 312q0 115 59 220.5t165 162.5t217 57zM615 942q-93 0 -180 -47t-136 -135t-49 -182q0 -151 107 -258t258 -107t257.5 107t106.5 258q0 94 -49 182t-136 135t-179 47z" />
    <glyph glyph-name="invbullet" unicode="&#x25d8;" 
d="M124 0v980h980v-980h-980zM614 692q-84 0 -143 -59t-59 -143q0 -83 59.5 -142.5t142.5 -59.5q84 0 143 59.5t59 142.5q0 84 -59 143t-143 59z" />
    <glyph glyph-name="invcircle" unicode="&#x25d9;" 
d="M38 0v1155h1155v-1155h-1155zM615 1018q-111 0 -216.5 -57t-164.5 -163t-59 -221q0 -182 129 -311t311 -129q183 0 312 129t129 311q0 115 -59 221t-164.5 163t-217.5 57zM616 942q91 0 178.5 -47t136.5 -134.5t49 -183.5q0 -151 -106.5 -257.5t-257.5 -106.5
q-152 0 -258.5 106.5t-106.5 257.5q0 96 49 183.5t136.5 134.5t179.5 47z" />
    <glyph glyph-name="smileface" unicode="&#x263a;" 
d="M1226 584q0 -253 -179 -432t-433 -179q-253 0 -432 179t-179 432q0 254 179 433t432 179q254 0 433 -179t179 -433zM1137 584q0 217 -153 370t-370 153q-216 0 -369 -153t-153 -370q0 -216 153 -369t369 -153q217 0 370 153t153 369zM458 711q0 -32 -23 -55t-55 -23
t-54.5 23t-22.5 55t22.5 54.5t54.5 22.5t55 -22.5t23 -54.5zM926 711q0 -32 -22.5 -55t-54.5 -23t-55 23t-23 55t23 54.5t55 22.5t54.5 -22.5t22.5 -54.5zM332 387l60 35q76 -138 222 -138t222 138l60 -35q-98 -187 -282 -187q-93 0 -163.5 48t-118.5 139z" />
    <glyph glyph-name="invsmileface" unicode="&#x263b;" 
d="M1226 584q0 -253 -179 -432t-433 -179q-253 0 -432 179t-179 432q0 254 179 433t432 179q254 0 433 -179t179 -433zM458 711q0 32 -23 54.5t-55 22.5t-54.5 -22.5t-22.5 -54.5t22.5 -55t54.5 -23t55 23t23 55zM926 711q0 32 -22.5 54.5t-54.5 22.5t-55 -22.5t-23 -54.5
t23 -55t55 -23t54.5 23t22.5 55zM332 387q48 -91 118.5 -139t163.5 -48q92 0 162.5 47t119.5 140l-60 35q-76 -138 -222 -138t-222 138z" />
    <glyph glyph-name="sun" unicode="&#x263c;" 
d="M582 1083h66v-217q64 -5 115.5 -25.5t108.5 -64.5l186 182l45 -45l-184 -184q88 -116 92 -230h216v-61h-216q-13 -120 -91 -221l183 -189l-48 -43l-183 182q-61 -45 -109 -64t-115 -27v-217h-66v217q-126 18 -221 89l-189 -179l-44 44l183 185q-79 100 -93 226h-216v61
h216q12 126 92 224l-182 184l41 49l189 -182q115 78 224 89v217zM613 804q-138 0 -235 -98t-97 -235q0 -138 97 -235t235 -97t235.5 97t97.5 235q0 137 -97.5 235t-235.5 98z" />
    <glyph glyph-name="female" unicode="&#x2640;" 
d="M579 577q-109 15 -180 96.5t-71 188.5q0 121 84.5 206t203.5 85q118 0 202.5 -85t84.5 -206q0 -109 -70.5 -190t-178.5 -95v-165h255v-69h-255v-263h-75v263h-258v69h258v165zM615 1069q-85 0 -145 -60t-60 -145t60 -145.5t145 -60.5t145.5 60.5t60.5 145.5t-60 145
t-146 60z" />
    <glyph glyph-name="male" unicode="&#x2642;" 
d="M628 782l242 242q-35 9 -108 37q-55 21 -83 49q-8 8 -8 19q0 8 7 15q5 5 15 5q9 0 31 -5q64 -15 127 -15q94 0 130.5 12t48.5 12q8 0 12 -3.5t4 -11.5q0 -7 -5 -25q-18 -69 -18 -158q0 -63 13 -130q5 -23 5 -32t-5 -14q-7 -7 -14 -7q-19 0 -40 39q-44 83 -65 166
l-237 -237q84 -81 84 -192q0 -124 -85.5 -211t-205.5 -87t-204.5 84t-84.5 201q0 120 85.5 205t205.5 85q71 0 153 -43zM475 750q-89 0 -151 -62t-62 -150t62.5 -150.5t150.5 -62.5t150 62t62 151q0 88 -62 150t-150 62z" />
    <glyph glyph-name="spade" unicode="&#x2660;" 
d="M615 1231q26 -108 80 -193t192.5 -210.5t175.5 -193t37 -136.5q0 -95 -64 -159t-154 -64q-156 0 -255 190q1 -147 38.5 -233.5t119.5 -136t219 -58.5l7 -37h-792l7 37q124 0 210.5 50t131 139t41.5 239q-45 -95 -111.5 -142.5t-149.5 -47.5q-90 0 -155 65t-65 154
q0 74 32 133q45 83 157 174q140 115 217 229q56 83 81 201z" />
    <glyph glyph-name="club" unicode="&#x2663;" 
d="M1037 0h-842l8 34q165 35 218 68q81 51 132 150.5t51 208.5q0 15 -2 46q-59 -122 -146.5 -179t-177.5 -57q-116 0 -196 80.5t-80 197.5q0 115 73.5 194.5t165.5 79.5q61 0 163 -51q-42 68 -54.5 104t-12.5 77q0 113 78.5 191t196.5 78q117 0 196.5 -78.5t79.5 -187.5
q0 -88 -68 -184q84 39 100 44q27 8 61 8q100 0 173 -78t73 -193q0 -119 -80 -200t-193 -81q-61 0 -127.5 30t-115.5 81q-35 36 -86 124q4 -158 48 -250t136 -152q61 -40 220 -71z" />
    <glyph glyph-name="heart" unicode="&#x2665;" 
d="M617 -22q-29 109 -83 205.5t-206 298.5q-112 148 -139 189q-43 65 -62 119t-19 110q0 104 69 173.5t171 69.5q101 0 176 -72q57 -55 93 -161q33 118 104.5 176t158.5 58q101 0 171 -69t70 -163q0 -85 -40.5 -175t-158.5 -239q-152 -192 -214.5 -302.5t-90.5 -217.5z" />
    <glyph glyph-name="diamond" unicode="&#x2666;" 
d="M613 1222q89 -151 227 -335t231 -287q-76 -79 -242 -302q-136 -182 -215 -322q-26 50 -69 114q-76 113 -196 273q-30 40 -190 237q101 115 258 325q117 156 196 297z" />
    <glyph glyph-name="musicalnote" unicode="&#x266a;" 
d="M563 303v850h75v-101l155 -191q50 -70 79 -152t29 -166q0 -154 -95 -271h-47q59 130 59 249t-57.5 198.5t-122.5 89.5v-506q0 -124 -72.5 -199t-179.5 -75q-57 0 -86 27t-29 72q0 76 59.5 134.5t142.5 58.5q23 0 45.5 -4.5t44.5 -13.5z" />
    <glyph glyph-name="musicalnotedbl" unicode="&#x266b;" 
d="M1082 323q0 -125 -74 -199t-177 -74q-57 0 -86 27t-29 72q0 76 59.5 134t141.5 58q23 0 45.5 -4.5t44.5 -13.5v450l-550 -150v-393q0 -124 -72.5 -198.5t-179.5 -74.5q-57 0 -86 27t-29 72q0 75 59.5 133t142.5 58q23 0 45.5 -4t44.5 -13v750l700 179v-836zM457 750
l550 150v115l-550 -150v-115z" />
    <glyph glyph-name="IJ" unicode="&#x132;" 
d="M280 1086v-1002h131q31 0 44 -11.5t13 -30.5q0 -18 -13 -30t-44 -12h-346q-30 0 -43 12t-13 30q0 19 13 30.5t43 11.5h131v1002h-131q-30 0 -43 11.5t-13 30.5t13 30.5t43 11.5h346q31 0 44 -11.5t13 -30.5t-13 -30.5t-44 -11.5h-131zM1036 1086v-742q0 -188 -81 -282.5
t-196 -94.5q-156 0 -266 186v189q0 30 12 43.5t31 13.5q18 0 30 -13t12 -44v-165q46 -69 88 -97.5t93 -28.5q80 0 129 62q64 81 64 231v742h-246q-30 0 -43 11.5t-13 30.5t13 30.5t43 11.5h458q30 0 43 -11.5t13 -30.5t-13 -30.5t-43 -11.5h-128z" />
    <glyph glyph-name="ij" unicode="&#x133;" 
d="M437 1297v-217h-123v217h123zM905 1297v-217h-124v217h124zM429 866v-782h270q30 0 43 -11.5t13 -30.5q0 -18 -13 -30t-43 -12h-624q-30 0 -43 12t-13 30q0 19 13 30.5t43 11.5h270v697h-246q-30 0 -43 12t-13 30q0 19 13 31t43 12h330zM936 781h-298q-30 0 -43 12
t-13 31q0 18 13 30t43 12h382v-925q0 -107 -44 -179t-132 -117q-61 -31 -144 -31h-207q-30 0 -43 11.5t-13 30.5t13 31t43 12l205 -1q106 0 172 70t66 173v840z" />
    <glyph glyph-name="napostrophe" unicode="&#x149;" 
d="M343 866v-127q88 89 159 123t160 34q96 0 175 -41q56 -30 101.5 -99.5t45.5 -142.5v-529h71q30 0 43 -11.5t13 -30.5q0 -18 -13 -30t-43 -12h-225q-31 0 -44 12t-13 30q0 19 13 30.5t44 11.5h70v515q0 89 -65 150.5t-174 61.5q-83 0 -144 -33.5t-174 -166.5v-527h95
q30 0 43 -11.5t13 -30.5q0 -18 -13 -30t-43 -12h-274q-30 0 -43 12t-13 30q0 19 13 30.5t43 11.5h95v697h-71q-30 0 -43 12t-13 31q0 18 13 30t43 12h155zM104 1096h-24q-80 0 -80 77q0 35 21.5 58.5t58.5 23.5h30q79 0 79 -84q0 -75 -60.5 -161.5t-87.5 -86.5q-36 0 -36 30
q0 16 30 47q59 62 69 96z" />
    <glyph glyph-name="minute" unicode="&#x2032;" 
d="M555 1255h266l-182 -525q-15 -43 -34.5 -59t-44.5 -16q-21 0 -34 13.5t-13 42.5q0 8 1 19z" />
    <glyph glyph-name="second" unicode="&#x2033;" 
d="M335 1255h266l-182 -525q-15 -43 -34.5 -59t-44.5 -16q-21 0 -34 13.5t-13 42.5q0 8 1 19zM765 1255h266l-182 -525q-15 -43 -34.5 -59t-44.5 -16q-21 0 -34 13.5t-13 42.5q0 8 1 19z" />
    <glyph glyph-name="afii61248" unicode="&#x2105;" 
d="M671 1211q0 32 4 38q8 10 19 10t18 -9q6 -6 6 -23v-106q0 -18 -6.5 -25t-17.5 -7q-9 0 -15.5 6.5t-7.5 21.5q-4 40 -52.5 75.5t-131.5 35.5q-94 0 -153.5 -60t-59.5 -155q0 -91 60 -150.5t155 -59.5q127 0 213 85q12 12 21 12t15.5 -6.5t6.5 -16.5q0 -24 -56 -61
q-91 -60 -203 -60q-113 0 -186 72.5t-73 183.5q0 114 74.5 188.5t188.5 74.5q108 0 181 -64zM1014 725l-778 -253q-14 -4 -21 -4q-11 0 -19.5 9t-8.5 21q0 10 7 20q5 6 23 12l778 253q14 4 22 4q10 0 18.5 -9t8.5 -21q0 -10 -7 -20q-5 -6 -23 -12zM1006 235
q0 -107 -76.5 -183t-185.5 -76t-185.5 76t-76.5 183t76.5 183.5t185.5 76.5t185.5 -76t76.5 -184zM959 235q0 88 -62.5 150.5t-152.5 62.5q-89 0 -152 -62.5t-63 -150.5q0 -87 63 -149.5t152 -62.5t152 62t63 150z" />
    <glyph glyph-name="afii61289" unicode="&#x2113;" 
d="M439 446v41q0 193 32.5 379.5t108.5 277.5q45 53 100 53q48 0 75 -35q37 -50 37 -149q0 -151 -76 -322q-49 -113 -187 -281q-5 -114 -5 -144q0 -149 22 -192q12 -22 36 -22q32 0 52.5 44t50.5 44q13 0 22.5 -10.5t9.5 -27.5q0 -49 -41 -92t-95 -43q-79 0 -109.5 69
t-32.5 269q-15 -13 -21 -20q-29 -30 -35 -34q-9 -6 -20 -6q-18 0 -30 11.5t-12 26.5q0 17 14 39q19 30 104 124zM529 544q89 122 126 216q51 131 51 246q0 72 -13 96q-6 12 -17 12q-27 0 -62 -66q-74 -143 -85 -504z" />
    <glyph glyph-name="H22073" unicode="&#x25a1;" 
d="M2 1225h1225v-1225h-1225v1225zM78 1149v-1073h1073v1073h-1073z" />
    <glyph glyph-name="H18543" unicode="&#x25aa;" 
d="M868 383h-507v507h507v-507z" />
    <glyph glyph-name="H18551" unicode="&#x25ab;" 
d="M868 383h-507v507h507v-507zM792 459v355h-355v-355h355z" />
    <glyph glyph-name="H18533" unicode="&#x25cf;" 
d="M615 1018q110 0 216 -57t165 -163t59 -220q0 -183 -129 -312t-311 -129q-183 0 -312 129t-129 312q0 115 59 220.5t165 162.5t217 57z" />
    <glyph glyph-name="openbullet" unicode="&#x25e6;" 
d="M862 637q0 -103 -73 -175.5t-175 -72.5t-174.5 72.5t-72.5 175.5q0 102 72.5 174.5t174.5 72.5q103 0 175.5 -72.5t72.5 -174.5zM786 637q0 71 -50.5 121t-121.5 50t-121 -50.5t-50 -120.5q0 -71 50 -121.5t121 -50.5t121.5 50t50.5 122z" />
    <glyph glyph-name="Amacron" unicode="&#x100;" 
d="M891 391h-552l-113 -307h161q30 0 43 -11.5t13 -30.5q0 -18 -13 -30t-43 -12h-314q-30 0 -43 12t-13 30q0 19 13 30.5t43 11.5h65l371 1002h-248q-30 0 -43 11.5t-13 30.5t13 30.5t43 11.5h423l410 -1086h65q30 0 43 -11.5t13 -30.5q0 -18 -13 -30t-43 -12h-313
q-31 0 -44 12t-13 30q0 19 13 30.5t44 11.5h160zM859 475l-232 611h-31l-225 -611h488zM772 1340h-485q-30 0 -43 12t-13 30q0 19 13 31t43 12h483q33 -1 46 -12.5t13 -30.5t-13 -30.5t-44 -11.5z" />
    <glyph glyph-name="amacron" unicode="&#x101;" 
d="M856 0v121q-183 -154 -391 -154q-151 0 -236 76.5t-85 187.5q0 122 112 213t327 91q58 0 126 -7.5t147 -23.5v136q0 69 -64 120t-192 51q-98 0 -275 -57q-32 -10 -41 -10q-16 0 -27.5 12t-11.5 30q0 17 10 27q14 15 113 41q156 42 236 42q159 0 248 -78.5t89 -177.5v-556
h112q31 0 44 -11.5t13 -30.5q0 -18 -13 -30t-44 -12h-197zM856 418q-59 17 -125 25t-139 8q-183 0 -286 -79q-78 -59 -78 -141q0 -76 59.5 -128t173.5 -52q109 0 202.5 43.5t192.5 138.5v185zM845 1076h-485q-30 0 -43 12t-13 30q0 19 13 31t43 12h483q33 -1 46 -12.5
t13 -30.5t-13 -30.5t-44 -11.5z" />
    <glyph glyph-name="Ccircumflex" unicode="&#x108;" 
d="M984 1055v59q0 30 11.5 43t30.5 13t30.5 -13t11.5 -43v-233q0 -31 -11.5 -44t-30.5 -13q-17 0 -28.5 12t-13.5 39q-5 84 -91 149q-116 89 -264 89q-97 0 -183 -43q-64 -31 -102 -76q-66 -78 -105 -173q-28 -70 -28 -158v-147q0 -188 136 -326.5t316 -138.5
q108 0 193.5 47t165.5 142q17 21 38 21q18 0 29 -11t11 -28q0 -23 -43 -70q-82 -92 -184.5 -138.5t-207.5 -46.5q-91 0 -185 35q-72 27 -119 63t-115.5 121.5t-93.5 158t-25 159.5v171q0 124 66.5 253.5t182 199t250.5 69.5q208 0 358 -142zM654 1574l271 -206
q18 -14 23 -22.5t5 -19.5q0 -18 -12.5 -30t-30.5 -12q-13 0 -35 17l-221 169l-220 -169q-22 -17 -36 -17q-17 0 -29.5 12.5t-12.5 29.5q0 21 28 42z" />
    <glyph glyph-name="ccircumflex" unicode="&#x109;" 
d="M965 781v28q0 31 12 44t30 13q19 0 31 -13t12 -44v-190q-1 -31 -12.5 -44t-30.5 -13q-17 0 -28.5 11.5t-13.5 38.5q-6 71 -93.5 135t-235.5 64q-187 0 -284 -117t-97 -268q0 -163 107 -269t277 -106q98 0 199.5 36t183.5 116q21 20 37 20q17 0 28.5 -11.5t11.5 -28.5
q0 -43 -101 -109q-163 -107 -363 -107q-203 0 -333.5 129.5t-130.5 328.5q0 203 133.5 337t336.5 134q193 0 324 -115zM648 1310l271 -206q18 -14 23 -22.5t5 -19.5q0 -18 -12.5 -30t-30.5 -12q-13 0 -35 17l-221 169l-220 -169q-22 -17 -36 -17q-17 0 -29.5 12.5
t-12.5 29.5q0 21 28 42z" />
    <glyph glyph-name="Cdot" unicode="&#x10a;" 
d="M984 1055v59q0 30 11.5 43t30.5 13t30.5 -13t11.5 -43v-233q0 -31 -11.5 -44t-30.5 -13q-17 0 -28.5 12t-13.5 39q-5 84 -91 149q-116 89 -264 89q-97 0 -183 -43q-64 -31 -102 -76q-66 -78 -105 -173q-28 -70 -28 -158v-147q0 -188 136 -326.5t316 -138.5
q108 0 193.5 47t165.5 142q17 21 38 21q18 0 29 -11t11 -28q0 -23 -43 -70q-82 -92 -184.5 -138.5t-207.5 -46.5q-91 0 -185 35q-72 27 -119 63t-115.5 121.5t-93.5 158t-25 159.5v171q0 124 66.5 253.5t182 199t250.5 69.5q208 0 358 -142zM760 1411q0 -42 -30 -72t-72 -30
q-43 0 -73 30t-30 72q0 43 30 73t73 30q42 0 72 -30t30 -73z" />
    <glyph glyph-name="cdot" unicode="&#x10b;" 
d="M965 781v28q0 31 12 44t30 13q19 0 31 -13t12 -44v-190q-1 -31 -12.5 -44t-30.5 -13q-17 0 -28.5 11.5t-13.5 38.5q-6 71 -93.5 135t-235.5 64q-187 0 -284 -117t-97 -268q0 -163 107 -269t277 -106q98 0 199.5 36t183.5 116q21 20 37 20q17 0 28.5 -11.5t11.5 -28.5
q0 -43 -101 -109q-163 -107 -363 -107q-203 0 -333.5 129.5t-130.5 328.5q0 203 133.5 337t336.5 134q193 0 324 -115zM760 1147q0 -42 -30 -72t-72 -30q-43 0 -73 30t-30 72q0 43 30 73t73 30q42 0 72 -30t30 -73z" />
    <glyph glyph-name="Emacron" unicode="&#x112;" 
d="M341 565v-481h646v248q0 30 11.5 43t30.5 13t30.5 -13t11.5 -43v-332h-927q-30 0 -43 12t-13 30q0 19 13 30.5t43 11.5h113v1002h-113q-30 0 -43 11.5t-13 30.5t13 30.5t43 11.5h883v-289q0 -30 -11.5 -43t-30.5 -13t-30.5 13t-11.5 43v205h-602v-437h301v95q0 30 12 43
t31 13q18 0 30 -13t12 -43v-274q0 -30 -12 -43t-30 -13q-19 0 -31 13t-12 43v95h-301zM857 1340h-485q-30 0 -43 12t-13 30q0 19 13 31t43 12h483q33 -1 46 -12.5t13 -30.5t-13 -30.5t-44 -11.5z" />
    <glyph glyph-name="emacron" unicode="&#x113;" 
d="M1069 413h-856q22 -163 136.5 -262.5t283.5 -99.5q94 0 197 31t168 82q19 15 33 15q16 0 28 -12.5t12 -29.5t-16 -33q-48 -50 -170.5 -93.5t-251.5 -43.5q-216 0 -360.5 141.5t-144.5 342.5q0 183 135.5 314t335.5 131q206 0 339 -134.5t131 -348.5zM984 498
q-25 139 -131.5 226t-253.5 87t-253 -86t-132 -227h770zM863 1076h-485q-30 0 -43 12t-13 30q0 19 13 31t43 12h483q33 -1 46 -12.5t13 -30.5t-13 -30.5t-44 -11.5z" />
    <glyph glyph-name="Ebreve" unicode="&#x114;" 
d="M341 565v-481h646v248q0 30 11.5 43t30.5 13t30.5 -13t11.5 -43v-332h-927q-30 0 -43 12t-13 30q0 19 13 30.5t43 11.5h113v1002h-113q-30 0 -43 11.5t-13 30.5t13 30.5t43 11.5h883v-289q0 -30 -11.5 -43t-30.5 -13t-30.5 13t-11.5 43v205h-602v-437h301v95q0 30 12 43
t31 13q18 0 30 -13t12 -43v-274q0 -30 -12 -43t-30 -13q-19 0 -31 13t-12 43v95h-301zM356 1563q18 0 29 -10.5t13 -37.5q6 -57 65 -102q58 -45 152 -45q93 0 151.5 45t64.5 102q3 27 12 36q13 12 30 12q18 0 30.5 -12.5t12.5 -33.5q0 -90 -81.5 -162t-219.5 -72t-219.5 72
t-81.5 162q0 21 12 33.5t30 12.5z" />
    <glyph glyph-name="ebreve" unicode="&#x115;" 
d="M1069 413h-856q22 -163 136.5 -262.5t283.5 -99.5q94 0 197 31t168 82q19 15 33 15q16 0 28 -12.5t12 -29.5t-16 -33q-48 -50 -170.5 -93.5t-251.5 -43.5q-216 0 -360.5 141.5t-144.5 342.5q0 183 135.5 314t335.5 131q206 0 339 -134.5t131 -348.5zM984 498
q-25 139 -131.5 226t-253.5 87t-253 -86t-132 -227h770zM356 1298q18 0 29 -10.5t13 -37.5q6 -57 65 -102q58 -45 152 -45q93 0 151.5 45t64.5 102q3 27 12 36q13 12 30 12q18 0 30.5 -12.5t12.5 -33.5q0 -90 -81.5 -162t-219.5 -72t-219.5 72t-81.5 162q0 21 12 33.5
t30 12.5z" />
    <glyph glyph-name="Edot" unicode="&#x116;" 
d="M341 565v-481h646v248q0 30 11.5 43t30.5 13t30.5 -13t11.5 -43v-332h-927q-30 0 -43 12t-13 30q0 19 13 30.5t43 11.5h113v1002h-113q-30 0 -43 11.5t-13 30.5t13 30.5t43 11.5h883v-289q0 -30 -11.5 -43t-30.5 -13t-30.5 13t-11.5 43v205h-602v-437h301v95q0 30 12 43
t31 13q18 0 30 -13t12 -43v-274q0 -30 -12 -43t-30 -13q-19 0 -31 13t-12 43v95h-301zM723 1411q0 -42 -30 -72t-72 -30q-43 0 -73 30t-30 72q0 43 30 73t73 30q42 0 72 -30t30 -73z" />
    <glyph glyph-name="edot" unicode="&#x117;" 
d="M1069 413h-856q22 -163 136.5 -262.5t283.5 -99.5q94 0 197 31t168 82q19 15 33 15q16 0 28 -12.5t12 -29.5t-16 -33q-48 -50 -170.5 -93.5t-251.5 -43.5q-216 0 -360.5 141.5t-144.5 342.5q0 183 135.5 314t335.5 131q206 0 339 -134.5t131 -348.5zM984 498
q-25 139 -131.5 226t-253.5 87t-253 -86t-132 -227h770zM723 1147q0 -42 -30 -72t-72 -30q-43 0 -73 30t-30 72q0 43 30 73t73 30q42 0 72 -30t30 -73z" />
    <glyph glyph-name="Gcircumflex" unicode="&#x11c;" 
d="M1071 434v-360q-96 -53 -191.5 -80t-190.5 -27q-135 0 -237.5 40t-173.5 112t-110.5 161t-39.5 226v154q0 138 68.5 268.5t187.5 199.5t259 69q203 0 343 -111q0 49 3.5 59t14.5 17.5t25 7.5q18 0 30 -13t12 -43v-190q0 -31 -12 -43.5t-30 -12.5q-17 0 -28.5 11.5
t-12.5 40.5q-6 85 -110.5 139t-227.5 54q-116 0 -209.5 -50.5t-174.5 -192.5q-54 -93 -54 -211v-153q0 -209 128 -332t353 -123q76 0 141 16t152 56v311h-289q-30 0 -43 11.5t-13 30.5t13 31t43 12l404 -1q30 0 43 -11.5t13 -30.5q0 -13 -8 -24t-18 -14.5t-60 -3.5z
M638 1574l271 -206q18 -14 23 -22.5t5 -19.5q0 -18 -12.5 -30t-30.5 -12q-13 0 -35 17l-221 169l-220 -169q-22 -17 -36 -17q-17 0 -29.5 12.5t-12.5 29.5q0 21 28 42z" />
    <glyph glyph-name="gcircumflex" unicode="&#x11d;" 
d="M897 712v154h197q30 0 43 -12t13 -31q0 -18 -13 -30t-43 -12h-113v-839q0 -84 -36 -150q-24 -44 -80 -91t-102 -67t-123 -20h-238q-30 0 -43 11.5t-13 30.5t13 31t43 12l241 -1q74 0 133.5 38t98.5 111q22 42 22 107v252q-135 -185 -348 -185q-173 0 -298.5 128.5
t-125.5 309.5t125.5 309t298.5 128q213 0 348 -184zM897 459q0 148 -101.5 250t-242.5 102t-242 -102.5t-101 -249.5q0 -148 101 -250.5t242 -102.5t242.5 102.5t101.5 250.5zM602 1310l271 -206q18 -14 23 -22.5t5 -19.5q0 -18 -12.5 -30t-30.5 -12q-13 0 -35 17l-221 169
l-220 -169q-22 -17 -36 -17q-17 0 -29.5 12.5t-12.5 29.5q0 21 28 42z" />
    <glyph glyph-name="Gdot" unicode="&#x120;" 
d="M1071 434v-360q-96 -53 -191.5 -80t-190.5 -27q-135 0 -237.5 40t-173.5 112t-110.5 161t-39.5 226v154q0 138 68.5 268.5t187.5 199.5t259 69q203 0 343 -111q0 49 3.5 59t14.5 17.5t25 7.5q18 0 30 -13t12 -43v-190q0 -31 -12 -43.5t-30 -12.5q-17 0 -28.5 11.5
t-12.5 40.5q-6 85 -110.5 139t-227.5 54q-116 0 -209.5 -50.5t-174.5 -192.5q-54 -93 -54 -211v-153q0 -209 128 -332t353 -123q76 0 141 16t152 56v311h-289q-30 0 -43 11.5t-13 30.5t13 31t43 12l404 -1q30 0 43 -11.5t13 -30.5q0 -13 -8 -24t-18 -14.5t-60 -3.5z
M759 1411q0 -42 -30 -72t-72 -30q-43 0 -73 30t-30 72q0 43 30 73t73 30q42 0 72 -30t30 -73z" />
    <glyph glyph-name="gdot" unicode="&#x121;" 
d="M897 712v154h197q30 0 43 -12t13 -31q0 -18 -13 -30t-43 -12h-113v-839q0 -84 -36 -150q-24 -44 -80 -91t-102 -67t-123 -20h-238q-30 0 -43 11.5t-13 30.5t13 31t43 12l241 -1q74 0 133.5 38t98.5 111q22 42 22 107v252q-135 -185 -348 -185q-173 0 -298.5 128.5
t-125.5 309.5t125.5 309t298.5 128q213 0 348 -184zM897 459q0 148 -101.5 250t-242.5 102t-242 -102.5t-101 -249.5q0 -148 101 -250.5t242 -102.5t242.5 102.5t101.5 250.5zM717 1147q0 -42 -30 -72t-72 -30q-43 0 -73 30t-30 72q0 43 30 73t73 30q42 0 72 -30t30 -73z
" />
    <glyph glyph-name="Gcedilla" unicode="&#x122;" 
d="M1071 434v-360q-96 -53 -191.5 -80t-190.5 -27q-135 0 -237.5 40t-173.5 112t-110.5 161t-39.5 226v154q0 138 68.5 268.5t187.5 199.5t259 69q203 0 343 -111q0 49 3.5 59t14.5 17.5t25 7.5q18 0 30 -13t12 -43v-190q0 -31 -12 -43.5t-30 -12.5q-17 0 -28.5 11.5
t-12.5 40.5q-6 85 -110.5 139t-227.5 54q-116 0 -209.5 -50.5t-174.5 -192.5q-54 -93 -54 -211v-153q0 -209 128 -332t353 -123q76 0 141 16t152 56v311h-289q-30 0 -43 11.5t-13 30.5t13 31t43 12l404 -1q30 0 43 -11.5t13 -30.5q0 -13 -8 -24t-18 -14.5t-60 -3.5z
M601 -101q162 0 162 -115q0 -47 -36 -82t-107 -35q-40 0 -96 15t-56 47q0 29 27 29q10 0 35 -11q46 -20 89 -20q35 0 59.5 16.5t24.5 42.5q0 48 -92 51q-54 2 -54 31q0 31 44 31z" />
    <glyph glyph-name="gcedilla" unicode="&#x123;" 
d="M897 712v154h197q30 0 43 -12t13 -31q0 -18 -13 -30t-43 -12h-113v-839q0 -84 -36 -150q-24 -44 -80 -91t-102 -67t-123 -20h-238q-30 0 -43 11.5t-13 30.5t13 31t43 12l241 -1q74 0 133.5 38t98.5 111q22 42 22 107v252q-135 -185 -348 -185q-173 0 -298.5 128.5
t-125.5 309.5t125.5 309t298.5 128q213 0 348 -184zM897 459q0 148 -101.5 250t-242.5 102t-242 -102.5t-101 -249.5q0 -148 101 -250.5t242 -102.5t242.5 102.5t101.5 250.5zM584 1181h24q80 0 80 -77q0 -35 -21.5 -58.5t-58.5 -23.5h-30q-79 0 -79 84q0 75 60.5 161.5
t87.5 86.5q36 0 36 -30q0 -16 -30 -47q-59 -62 -69 -96z" />
    <glyph glyph-name="Hcircumflex" unicode="&#x124;" 
d="M899 566h-557v-482h113q30 0 43 -11.5t13 -30.5q0 -18 -13 -30t-43 -12h-292q-30 0 -43 12t-13 30q0 19 13 30.5t43 11.5h95v1002h-52q-31 0 -44 11.5t-13 30.5t13 30.5t44 11.5h249q30 0 43 -11.5t13 -30.5t-13 -30.5t-43 -11.5h-113v-436h557v436h-112q-30 0 -43 11.5
t-13 30.5t12.5 30.5t43.5 11.5h249q31 0 44 -11.5t13 -30.5t-13 -30.5t-44 -11.5h-52v-1002h95q30 0 43 -11.5t13 -30.5q0 -18 -13 -30t-43 -12h-292q-30 0 -43 12t-13 30q0 19 12.5 30.5t43.5 11.5h112v482zM620 1574l271 -206q18 -14 23 -22.5t5 -19.5q0 -18 -12.5 -30
t-30.5 -12q-13 0 -35 17l-221 169l-220 -169q-22 -17 -36 -17q-17 0 -29.5 12.5t-12.5 29.5q0 21 28 42z" />
    <glyph glyph-name="hcircumflex" unicode="&#x125;" 
d="M628 1574l274 -158q35 -19 35 -44q0 -17 -11.5 -29.5t-25.5 -12.5q-15 0 -42 15l-230 133l-228 -133q-27 -15 -41 -15q-38 0 -38 42q0 24 35 44zM338 1255v-517q141 158 318 158q155 0 241 -89t86 -202v-521h94q56 0 56 -42t-56 -42h-273q-57 0 -57 42t57 42h94v515
q0 86 -62.5 149.5t-184.5 63.5q-78 0 -136 -30t-177 -166v-532h95q56 0 56 -42t-56 -42h-274q-56 0 -56 42t56 42h95v1086h-113q-56 0 -56 42q0 43 56 43h197z" />
    <glyph glyph-name="Hbar" unicode="&#x126;" 
d="M258 830h-84q-56 0 -56 42q0 43 56 43h84v171h-52q-57 0 -57 42t57 42h249q56 0 56 -42t-56 -42h-113v-171h557v171h-112q-56 0 -56 42t56 42h249q57 0 57 -42t-57 -42h-52v-171h84q56 0 56 -43q0 -42 -56 -42h-84v-746h95q56 0 56 -42t-56 -42h-292q-56 0 -56 42t56 42
h112v482h-557v-482h113q56 0 56 -42t-56 -42h-292q-56 0 -56 42t56 42h95v746zM342 830v-180h557v180h-557z" />
    <glyph glyph-name="hbar" unicode="&#x127;" 
d="M339 1071h317q57 0 57 -42t-57 -42h-317v-249q141 158 319 158q154 0 239.5 -88.5t85.5 -202.5v-521h95q56 0 56 -42t-56 -42h-274q-56 0 -56 42t56 42h95v515q0 86 -63 149.5t-185 63.5q-76 0 -135.5 -30.5t-176.5 -165.5v-532h94q57 0 57 -42t-57 -42h-273
q-56 0 -56 42t56 42h94v903h-135q-57 0 -57 42t57 42h135v99h-112q-57 0 -57 42q0 43 57 43h197v-184z" />
    <glyph glyph-name="Itilde" unicode="&#x128;" 
d="M657 1086v-1002h288q30 0 43 -11.5t13 -30.5q0 -18 -13 -30t-43 -12h-660q-30 0 -43 12t-13 30q0 19 13 30.5t43 11.5h288v1002h-288q-30 0 -43 11.5t-13 30.5t13 30.5t43 11.5h660q30 0 43 -11.5t13 -30.5t-13 -30.5t-43 -11.5h-288zM892 1432q17 0 29.5 -12t12.5 -27
q0 -17 -13 -32q-40 -45 -95 -74q-38 -21 -79 -21q-64 0 -173 79q-58 43 -90 43q-40 0 -101 -56q-27 -25 -46 -25q-18 0 -29.5 12t-11.5 28q0 26 51 66q78 59 136 59q30 0 61 -12.5t101 -60.5t102 -48q38 0 115 68q16 13 30 13z" />
    <glyph glyph-name="itilde" unicode="&#x129;" 
d="M661 866v-782h330q31 0 44 -11.5t13 -30.5q0 -18 -13 -30t-44 -12h-744q-30 0 -43 12t-17 32q4 17 17 28.5t43 11.5h330v697h-245q-30 0 -43.5 12t-13.5 30q0 19 13 31t44 12h329zM792 1167q17 0 29.5 -12t12.5 -27q0 -17 -13 -32q-40 -45 -95 -74q-38 -21 -79 -21
q-64 0 -173 79q-58 43 -90 43q-40 0 -101 -56q-27 -25 -46 -25q-18 0 -29.5 12t-11.5 28q0 26 51 66q78 59 136 59q30 0 61 -12.5t101 -60.5t102 -48q38 0 115 68q16 13 30 13z" />
    <glyph glyph-name="Imacron" unicode="&#x12a;" 
d="M657 1086v-1002h288q30 0 43 -11.5t13 -30.5q0 -18 -13 -30t-43 -12h-660q-30 0 -43 12t-13 30q0 19 13 30.5t43 11.5h288v1002h-288q-30 0 -43 11.5t-13 30.5t13 30.5t43 11.5h660q30 0 43 -11.5t13 -30.5t-13 -30.5t-43 -11.5h-288zM857 1340h-485q-30 0 -43 12t-13 30
q0 19 13 31t43 12h483q33 -1 46 -12.5t13 -30.5t-13 -30.5t-44 -11.5z" />
    <glyph glyph-name="imacron" unicode="&#x12b;" 
d="M661 866v-782h330q31 0 44 -11.5t13 -30.5q0 -18 -13 -30t-44 -12h-744q-30 0 -43 12t-17 32q4 17 17 28.5t43 11.5h330v697h-245q-30 0 -43.5 12t-13.5 30q0 19 13 31t44 12h329zM765 1076h-485q-30 0 -43 12t-13 30q0 19 13 31t43 12h483q33 -1 46 -12.5t13 -30.5
t-13 -30.5t-44 -11.5z" />
    <glyph glyph-name="Ibreve" unicode="&#x12c;" 
d="M657 1086v-1002h288q30 0 43 -11.5t13 -30.5q0 -18 -13 -30t-43 -12h-660q-30 0 -43 12t-13 30q0 19 13 30.5t43 11.5h288v1002h-288q-30 0 -43 11.5t-13 30.5t13 30.5t43 11.5h660q30 0 43 -11.5t13 -30.5t-13 -30.5t-43 -11.5h-288zM356 1563q18 0 29 -10.5t13 -37.5
q6 -57 65 -102q58 -45 152 -45q93 0 151.5 45t64.5 102q3 27 12 36q13 12 30 12q18 0 30.5 -12.5t12.5 -33.5q0 -90 -81.5 -162t-219.5 -72t-219.5 72t-81.5 162q0 21 12 33.5t30 12.5z" />
    <glyph glyph-name="ibreve" unicode="&#x12d;" 
d="M661 866v-782h330q31 0 44 -11.5t13 -30.5q0 -18 -13 -30t-44 -12h-744q-30 0 -43 12t-17 32q4 17 17 28.5t43 11.5h330v697h-245q-30 0 -43.5 12t-13.5 30q0 19 13 31t44 12h329zM285 1298q18 0 29 -10.5t13 -37.5q6 -57 65 -102q58 -45 152 -45q93 0 151.5 45t64.5 102
q3 27 12 36q13 12 30 12q18 0 30.5 -12.5t12.5 -33.5q0 -90 -81.5 -162t-219.5 -72t-219.5 72t-81.5 162q0 21 12 33.5t30 12.5z" />
    <glyph glyph-name="Iogonek" unicode="&#x12e;" 
d="M688 0q-53 0 -91.5 -38.5t-38.5 -94.5q0 -39 29 -65t83 -26q50 0 86 31q17 15 29 15q33 0 33 -33q0 -30 -48 -55t-102 -25q-77 0 -127 43.5t-50 120.5q0 73 48 127h-254q-56 0 -56 42t56 42h288v1002h-288q-56 0 -56 42t56 42h660q56 0 56 -42t-56 -42h-288v-1002h288
q56 0 56 -42t-56 -42h-257z" />
    <glyph glyph-name="iogonek" unicode="&#x12f;" 
d="M656 1297v-217h-124v217h124zM688 0q-52 0 -91 -37.5t-39 -95.5q0 -39 29 -65t83 -26q50 0 86 31q17 15 29 15q33 0 33 -33q0 -25 -43.5 -52.5t-106.5 -27.5q-74 0 -125.5 42t-51.5 122q0 72 48 127h-294q-56 0 -56 42t56 42h330v697h-245q-57 0 -57 42q0 43 57 43h329
v-782h330q57 0 57 -42t-57 -42h-301z" />
    <glyph glyph-name="Jcircumflex" unicode="&#x134;" 
d="M943 1086v-742q0 -153 -114 -265t-272 -112q-95 0 -186.5 43.5t-199.5 142.5v310q0 30 12 43t30 13q19 0 31 -13t12 -43l-1 -270q77 -71 152.5 -106.5t149.5 -35.5q82 0 155 40q55 30 100.5 101t45.5 152v742h-329q-31 0 -44 11.5t-13 30.5t13 30.5t44 11.5h614
q30 0 43 -11.5t13 -30.5t-13 -30.5t-43 -11.5h-200zM823 1574l271 -206q18 -14 23 -22.5t5 -19.5q0 -18 -12.5 -30t-30.5 -12q-13 0 -35 17l-221 169l-220 -169q-22 -17 -36 -17q-17 0 -29.5 12.5t-12.5 29.5q0 21 28 42z" />
    <glyph glyph-name="jcircumflex" unicode="&#x135;" 
d="M586 1310l271 -206q28 -21 28 -42q0 -42 -43 -42q-13 0 -35 17l-221 169l-220 -169q-23 -17 -36 -17q-42 0 -42 42q0 21 27 42zM740 781h-499q-56 0 -56 42q0 43 56 43h583v-925q0 -149 -93.5 -238t-227.5 -89h-267q-56 0 -56 42q0 43 56 43l265 -1q111 0 175 73.5
t64 169.5v840z" />
    <glyph glyph-name="Kcedilla" unicode="&#x136;" 
d="M342 458v-374h155q31 0 44 -11.5t13 -30.5q0 -18 -13 -30t-44 -12h-352q-30 0 -43 12t-13 30q0 19 13 30.5t43 11.5h113v1002h-113q-30 0 -43 11.5t-13 30.5t13 30.5t43 11.5h352q31 0 44 -11.5t13 -30.5t-13 -30.5t-44 -11.5h-155v-517l580 517h-92q-31 0 -44 11.5
t-13 30.5t13 30.5t44 11.5h247q30 0 43 -11.5t13 -30.5t-13 -30.5t-43 -11.5h-34l-462 -413q103 -42 171 -105t131 -179q36 -65 132 -305h105q31 0 44 -11.5t13 -30.5q0 -18 -13 -30t-44 -12h-162q-132 361 -222 464.5t-225 145.5zM601 -101q162 0 162 -115q0 -47 -36 -82
t-107 -35q-40 0 -96 15t-56 47q0 29 27 29q10 0 35 -11q46 -20 89 -20q35 0 59.5 16.5t24.5 42.5q0 48 -92 51q-54 2 -54 31q0 31 44 31z" />
    <glyph glyph-name="kcedilla" unicode="&#x137;" 
d="M444 374v-374h-197q-30 0 -43 12t-13 30q0 19 13 30.5t43 11.5h113v1086h-113q-30 0 -43 12t-13 31q0 18 13 30t43 12h197v-774l357 300h-43q-30 0 -43 12t-13 30q0 19 13 31t43 12h269q31 0 44 -12t13 -31q0 -18 -13 -30t-44 -12h-97l-328 -274l415 -423h97
q31 0 44 -11.5t13 -30.5q0 -18 -13 -30t-44 -12h-272q-30 0 -43 12t-13 30q0 19 13 30.5t43 11.5h59l-361 371zM601 -101q162 0 162 -115q0 -47 -36 -82t-107 -35q-40 0 -96 15t-56 47q0 29 27 29q10 0 35 -11q46 -20 89 -20q35 0 59.5 16.5t24.5 42.5q0 48 -92 51
q-54 2 -54 31q0 31 44 31z" />
    <glyph glyph-name="kgreenlandic" unicode="&#x138;" 
d="M399 481l357 300h-43q-56 0 -56 42q0 43 56 43h269q57 0 57 -43q0 -42 -57 -42h-97l-318 -266q128 -63 210 -159t158 -272h91q56 0 56 -42t-56 -42h-153q-122 358 -378 455l-96 -81v-290h113q56 0 56 -42t-56 -42h-310q-56 0 -56 42t56 42h113v697h-113q-56 0 -56 42
q0 43 56 43h310q56 0 56 -43q0 -42 -56 -42h-113v-300z" />
    <glyph glyph-name="Lcedilla" unicode="&#x13b;" 
d="M469 1086v-1002h558v334q0 30 12 43t31 13q18 0 30 -12.5t12 -43.5v-418h-928q-30 0 -43 12t-13 30q0 19 13 30.5t43 11.5h200v1002h-200q-30 0 -43 11.5t-13 30.5t13 30.5t43 11.5h485q30 0 43 -11.5t13 -30.5t-13 -30.5t-43 -11.5h-200zM601 -101q162 0 162 -115
q0 -47 -36 -82t-107 -35q-40 0 -96 15t-56 47q0 29 27 29q10 0 35 -11q46 -20 89 -20q35 0 59.5 16.5t24.5 42.5q0 48 -92 51q-54 2 -54 31q0 31 44 31z" />
    <glyph glyph-name="lcedilla" unicode="&#x13c;" 
d="M657 1255v-1171h330q31 0 44 -11.5t13 -30.5q0 -18 -13 -30t-44 -12h-744q-30 0 -43 12t-13 30q0 19 13 30.5t43 11.5h330v1086h-242q-30 0 -43.5 12t-13.5 31q0 18 13 30t44 12h326zM588 -101q162 0 162 -115q0 -47 -36 -82t-107 -35q-40 0 -96 15t-56 47q0 29 27 29
q10 0 35 -11q46 -20 89 -20q35 0 59.5 16.5t24.5 42.5q0 48 -92 51q-54 2 -54 31q0 31 44 31z" />
    <glyph glyph-name="Ncedilla" unicode="&#x145;" 
d="M1026 0h-108l-619 1047v-963h155q31 0 44 -11.5t13 -30.5q0 -18 -13 -30t-44 -12h-309q-31 0 -44 12t-13 30q0 19 13 30.5t44 11.5h70v1002h-113q-30 0 -43 11.5t-13 30.5t13 30.5t43 11.5h220l620 -1049v965h-155q-30 0 -43 11.5t-13 30.5t12.5 30.5t43.5 11.5h310
q30 0 43 -11.5t13 -30.5t-13 -30.5t-43 -11.5h-71v-1086zM601 -101q162 0 162 -115q0 -47 -36 -82t-107 -35q-40 0 -96 15t-56 47q0 29 27 29q10 0 35 -11q46 -20 89 -20q35 0 59.5 16.5t24.5 42.5q0 48 -92 51q-54 2 -54 31q0 31 44 31z" />
    <glyph glyph-name="ncedilla" unicode="&#x146;" 
d="M343 866v-127q88 89 159 123t160 34q96 0 175 -41q56 -30 101.5 -99.5t45.5 -142.5v-529h71q30 0 43 -11.5t13 -30.5q0 -18 -13 -30t-43 -12h-225q-31 0 -44 12t-13 30q0 19 13 30.5t44 11.5h70v515q0 89 -65 150.5t-174 61.5q-83 0 -144 -33.5t-174 -166.5v-527h95
q30 0 43 -11.5t13 -30.5q0 -18 -13 -30t-43 -12h-274q-30 0 -43 12t-13 30q0 19 13 30.5t43 11.5h95v697h-71q-30 0 -43 12t-13 31q0 18 13 30t43 12h155zM601 -101q162 0 162 -115q0 -47 -36 -82t-107 -35q-40 0 -96 15t-56 47q0 29 27 29q10 0 35 -11q46 -20 89 -20
q35 0 59.5 16.5t24.5 42.5q0 48 -92 51q-54 2 -54 31q0 31 44 31z" />
    <glyph glyph-name="Eng" unicode="&#x14a;" 
d="M342 84h20q71 0 88.5 -7.5t17.5 -34.5t-18 -34.5t-88 -7.5h-125q-70 0 -88.5 7.5t-18.5 34.5t18 34.5t89 7.5h20v1002h-37q-58 0 -75 8.5t-17 33.5t16 33.5t75 8.5h123v-185q188 213 416 213q108 0 189 -59t120.5 -151t39.5 -280q0 -343 -16.5 -468t-88 -199t-185.5 -74
q-72 0 -130 27.5t-58 57.5q0 13 11.5 25t26.5 12q14 0 32 -8q82 -33 133 -33q74 0 121 53t60 155t13 408q0 210 -39 293t-101 120t-124 37q-209 0 -420 -254v-776z" />
    <glyph glyph-name="eng" unicode="&#x14b;" 
d="M984 613v-672q0 -153 -96 -240t-225 -87h-146q-56 0 -56 42q0 43 56 43l145 -1q73 0 123.5 30.5t82.5 89.5t32 123v658q0 84 -62 148t-178 64q-92 0 -162 -45.5t-155 -142.5v-539h95q56 0 56 -42t-56 -42h-274q-56 0 -56 42t56 42h95v697h-71q-56 0 -56 42q0 43 56 43
h155v-127q86 88 157.5 122.5t162.5 34.5q149 0 235 -88.5t86 -194.5z" />
    <glyph glyph-name="Omacron" unicode="&#x14c;" 
d="M1128 582q0 -168 -68 -311.5t-187.5 -223.5t-256.5 -80q-203 0 -357.5 172.5t-154.5 442.5q0 271 154.5 443t357.5 172q137 0 256 -80t187.5 -223t68.5 -312zM1043 582q0 205 -119 368t-308 163q-177 0 -302.5 -155.5t-125.5 -375.5q0 -234 131.5 -382.5t296.5 -148.5
q189 0 308 162.5t119 368.5zM767 1340h-485q-30 0 -43 12t-13 30q0 19 13 31t43 12h483q33 -1 46 -12.5t13 -30.5t-13 -30.5t-44 -11.5z" />
    <glyph glyph-name="omacron" unicode="&#x14d;" 
d="M1084 431q0 -192 -137.5 -328t-331.5 -136q-196 0 -333 136.5t-137 327.5q0 192 137 328.5t333 136.5q194 0 331.5 -136t137.5 -329zM999 431q0 158 -112.5 269t-272.5 111t-272.5 -111.5t-112.5 -268.5q0 -156 112.5 -268t272.5 -112t272.5 111.5t112.5 268.5zM856 1076
h-485q-30 0 -43 12t-13 30q0 19 13 31t43 12h483q33 -1 46 -12.5t13 -30.5t-13 -30.5t-44 -11.5z" />
    <glyph glyph-name="Obreve" unicode="&#x14e;" 
d="M1128 582q0 -168 -68 -311.5t-187.5 -223.5t-256.5 -80q-203 0 -357.5 172.5t-154.5 442.5q0 271 154.5 443t357.5 172q137 0 256 -80t187.5 -223t68.5 -312zM1043 582q0 205 -119 368t-308 163q-177 0 -302.5 -155.5t-125.5 -375.5q0 -234 131.5 -382.5t296.5 -148.5
q189 0 308 162.5t119 368.5zM266 1563q18 0 29 -10.5t13 -37.5q6 -57 65 -102q58 -45 152 -45q93 0 151.5 45t64.5 102q3 27 12 36q13 12 30 12q18 0 30.5 -12.5t12.5 -33.5q0 -90 -81.5 -162t-219.5 -72t-219.5 72t-81.5 162q0 21 12 33.5t30 12.5z" />
    <glyph glyph-name="obreve" unicode="&#x14f;" 
d="M1084 431q0 -192 -137.5 -328t-331.5 -136q-196 0 -333 136.5t-137 327.5q0 192 137 328.5t333 136.5q194 0 331.5 -136t137.5 -329zM999 431q0 158 -112.5 269t-272.5 111t-272.5 -111.5t-112.5 -268.5q0 -156 112.5 -268t272.5 -112t272.5 111.5t112.5 268.5zM356 1298
q18 0 29 -10.5t13 -37.5q6 -57 65 -102q58 -45 152 -45q93 0 151.5 45t64.5 102q3 27 12 36q13 12 30 12q18 0 30.5 -12.5t12.5 -33.5q0 -90 -81.5 -162t-219.5 -72t-219.5 72t-81.5 162q0 21 12 33.5t30 12.5z" />
    <glyph glyph-name="Rcedilla" unicode="&#x156;" 
d="M341 522v-438h155q31 0 44 -11.5t13 -30.5q0 -18 -13 -30t-44 -12h-352q-30 0 -43 12t-13 30q0 19 13 30.5t43 11.5h113v1002h-113q-30 0 -43 11.5t-13 30.5t13 30.5t43 11.5h508q157 0 264.5 -99.5t107.5 -224.5q0 -90 -66.5 -169.5t-222.5 -132.5q90 -62 154 -140
t205 -320h64q30 0 43 -11.5t13 -30.5q0 -18 -13 -30t-43 -12h-112q-156 279 -241.5 374t-196.5 148h-267zM341 606h229q110 0 199.5 40t130 94t40.5 110q0 84 -84.5 160t-205.5 76h-309v-480zM588 -101q162 0 162 -115q0 -47 -36 -82t-107 -35q-40 0 -96 15t-56 47
q0 29 27 29q10 0 35 -11q46 -20 89 -20q35 0 59.5 16.5t24.5 42.5q0 48 -92 51q-54 2 -54 31q0 31 44 31z" />
    <glyph glyph-name="rcedilla" unicode="&#x157;" 
d="M514 866v-212q164 148 245.5 190.5t150.5 42.5q75 0 139.5 -50.5t64.5 -76.5q0 -19 -12.5 -31.5t-31.5 -12.5q-10 0 -17 3.5t-26 22.5q-35 35 -61 48t-51 13q-55 0 -132.5 -44t-268.5 -215v-460h372q31 0 44 -11.5t13 -30.5q0 -18 -13 -30t-44 -12h-659q-30 0 -43 11.5
t-13 29.5q0 17 12.5 28.5t43.5 11.5h203v700h-155q-30 0 -43 12t-13 31q0 18 12.5 30t43.5 12h239zM538 -101q162 0 162 -115q0 -47 -36 -82t-107 -35q-40 0 -96 15t-56 47q0 29 27 29q10 0 35 -11q46 -20 89 -20q35 0 59.5 16.5t24.5 42.5q0 48 -92 51q-54 2 -54 31
q0 31 44 31z" />
    <glyph glyph-name="Scircumflex" unicode="&#x15c;" 
d="M915 1086v28q0 30 11.5 43t30.5 13t30.5 -13t11.5 -43v-214q0 -30 -11.5 -43t-30.5 -13q-18 0 -29.5 12t-12.5 39q-5 84 -86.5 151t-213.5 67q-139 0 -221 -71.5t-82 -168.5q0 -50 23 -91t61 -66.5t86 -41t150 -32.5q171 -28 236 -57q87 -39 131.5 -108t44.5 -163
q0 -144 -115 -245.5t-310 -101.5q-219 0 -350 137v-48q0 -30 -11.5 -43t-30.5 -13q-18 0 -30 13t-12 43v232q0 31 11.5 44t30.5 13q18 0 29.5 -12t12.5 -39q5 -92 98.5 -167.5t251.5 -75.5t249.5 79t91.5 187q0 66 -35 117.5t-104 81.5q-48 21 -200 47q-209 35 -301 107
t-92 205q0 132 105.5 227t278.5 95q176 0 303 -111zM628 1574l271 -206q18 -14 23 -22.5t5 -19.5q0 -18 -12.5 -30t-30.5 -12q-13 0 -35 17l-221 169l-220 -169q-22 -17 -36 -17q-17 0 -29.5 12.5t-12.5 29.5q0 21 28 42z" />
    <glyph glyph-name="scircumflex" unicode="&#x15d;" 
d="M892 811q0 29 12 42t30 13q19 0 31 -13t12 -44v-144q0 -30 -12 -43t-31 -13q-17 0 -28.5 11t-13.5 36q-6 60 -62 99q-82 56 -217 56q-141 0 -219 -57q-59 -43 -59 -96q0 -60 70 -100q48 -28 182 -43q175 -19 243 -43q97 -35 144.5 -97t47.5 -134q0 -107 -103 -190.5
t-302 -83.5t-326 101q0 -34 -4 -44t-14.5 -17t-23.5 -7q-18 0 -30 13t-12 43v173q0 30 11.5 43t30.5 13q18 0 30.5 -12.5t12.5 -33.5q0 -46 23 -77q35 -48 111.5 -79.5t187.5 -31.5q164 0 244 61t80 129q0 78 -81 125q-82 47 -238.5 63t-224.5 42t-106 78t-38 112
q0 108 106 171.5t253 63.5q174 0 283 -85zM628 1310l271 -206q18 -14 23 -22.5t5 -19.5q0 -18 -12.5 -30t-30.5 -12q-13 0 -35 17l-221 169l-220 -169q-22 -17 -36 -17q-17 0 -29.5 12.5t-12.5 29.5q0 21 28 42z" />
    <glyph glyph-name="Tbar" unicode="&#x166;" 
d="M571 618v468h-344v-291q0 -57 -42 -57t-42 57v375h941v-375q0 -57 -42 -57t-42 57v291h-344v-468h264q49 0 64.5 -9t15.5 -33q0 -25 -15 -34t-64 -9h-265v-449h218q56 0 56 -42t-56 -42h-521q-56 0 -56 42t56 42h218v449h-277q-67 0 -67 43q0 42 70 42h274z" />
    <glyph glyph-name="tbar" unicode="&#x167;" 
d="M357 544v237h-155q-56 0 -56 42q0 43 56 43h155v248q0 56 42 56q43 0 43 -56v-248h456q57 0 57 -43q0 -42 -57 -42h-456v-237h311q57 0 57 -42q0 -43 -57 -43h-311v-237q0 -66 53 -118.5t173 -52.5q93 0 191.5 26t150.5 57q20 13 33 13q40 0 40 -42q0 -40 -134.5 -89
t-270.5 -49q-142 0 -231.5 68t-89.5 187v237h-179q-56 0 -56 43q0 42 56 42h179z" />
    <glyph glyph-name="Utilde" unicode="&#x168;" 
d="M1021 1086v-702q0 -177 -118 -297t-285 -120q-112 0 -199 49t-148 148.5t-61 219.5v702h-71q-30 0 -43 11.5t-13 30.5t14 32q12 10 42 10h310q30 0 43 -11.5t13 -30.5t-13 -30.5t-43 -11.5h-155v-702q0 -139 95 -236t225 -97q83 0 151.5 38t120 117t51.5 178v702h-155
q-30 0 -43 11.5t-13 30.5t13 30.5t43 11.5h310q30 0 43 -11.5t13 -30.5t-13 -30.5t-43 -11.5h-71zM892 1462q17 0 29.5 -12t12.5 -27q0 -17 -13 -32q-40 -45 -95 -74q-38 -21 -79 -21q-64 0 -173 79q-58 43 -90 43q-40 0 -101 -56q-27 -25 -46 -25q-18 0 -29.5 12t-11.5 28
q0 26 51 66q78 59 136 59q30 0 61 -12.5t101 -60.5t102 -48q38 0 115 68q16 13 30 13z" />
    <glyph glyph-name="utilde" unicode="&#x169;" 
d="M902 0v123q-172 -156 -372 -156q-123 0 -187 67q-83 88 -83 205v542h-113q-30 0 -43 12t-13 31q0 18 13 30t43 12h197v-627q0 -82 52 -135t130 -53q205 0 376 188v542h-155q-30 0 -43 12t-13 31q0 18 13 30t43 12h239v-782h71q30 0 43 -11.5t13 -30.5q0 -18 -13 -30
t-43 -12h-155zM878 1167q17 0 29.5 -12t12.5 -27q0 -17 -13 -32q-40 -45 -95 -74q-38 -21 -79 -21q-64 0 -173 79q-58 43 -90 43q-40 0 -101 -56q-27 -25 -46 -25q-18 0 -29.5 12t-11.5 28q0 26 51 66q78 59 136 59q30 0 61 -12.5t101 -60.5t102 -48q38 0 115 68
q16 13 30 13z" />
    <glyph glyph-name="Umacron" unicode="&#x16a;" 
d="M1021 1086v-702q0 -177 -118 -297t-285 -120q-112 0 -199 49t-148 148.5t-61 219.5v702h-71q-30 0 -43 11.5t-13 30.5t14 32q12 10 42 10h310q30 0 43 -11.5t13 -30.5t-13 -30.5t-43 -11.5h-155v-702q0 -139 95 -236t225 -97q83 0 151.5 38t120 117t51.5 178v702h-155
q-30 0 -43 11.5t-13 30.5t13 30.5t43 11.5h310q30 0 43 -11.5t13 -30.5t-13 -30.5t-43 -11.5h-71zM857 1340h-485q-30 0 -43 12t-13 30q0 19 13 31t43 12h483q33 -1 46 -12.5t13 -30.5t-13 -30.5t-44 -11.5z" />
    <glyph glyph-name="umacron" unicode="&#x16b;" 
d="M902 0v123q-172 -156 -372 -156q-123 0 -187 67q-83 88 -83 205v542h-113q-30 0 -43 12t-13 31q0 18 13 30t43 12h197v-627q0 -82 52 -135t130 -53q205 0 376 188v542h-155q-30 0 -43 12t-13 31q0 18 13 30t43 12h239v-782h71q30 0 43 -11.5t13 -30.5q0 -18 -13 -30
t-43 -12h-155zM857 1076h-485q-30 0 -43 12t-13 30q0 19 13 31t43 12h483q33 -1 46 -12.5t13 -30.5t-13 -30.5t-44 -11.5z" />
    <glyph glyph-name="Ubreve" unicode="&#x16c;" 
d="M1021 1086v-702q0 -177 -118 -297t-285 -120q-112 0 -199 49t-148 148.5t-61 219.5v702h-71q-30 0 -43 11.5t-13 30.5t14 32q12 10 42 10h310q30 0 43 -11.5t13 -30.5t-13 -30.5t-43 -11.5h-155v-702q0 -139 95 -236t225 -97q83 0 151.5 38t120 117t51.5 178v702h-155
q-30 0 -43 11.5t-13 30.5t13 30.5t43 11.5h310q30 0 43 -11.5t13 -30.5t-13 -30.5t-43 -11.5h-71zM356 1563q18 0 29 -10.5t13 -37.5q6 -57 65 -102q58 -45 152 -45q93 0 151.5 45t64.5 102q3 27 12 36q13 12 30 12q18 0 30.5 -12.5t12.5 -33.5q0 -90 -81.5 -162t-219.5 -72
t-219.5 72t-81.5 162q0 21 12 33.5t30 12.5z" />
    <glyph glyph-name="ubreve" unicode="&#x16d;" 
d="M902 0v123q-172 -156 -372 -156q-123 0 -187 67q-83 88 -83 205v542h-113q-30 0 -43 12t-13 31q0 18 13 30t43 12h197v-627q0 -82 52 -135t130 -53q205 0 376 188v542h-155q-30 0 -43 12t-13 31q0 18 13 30t43 12h239v-782h71q30 0 43 -11.5t13 -30.5q0 -18 -13 -30
t-43 -12h-155zM356 1298q18 0 29 -10.5t13 -37.5q6 -57 65 -102q58 -45 152 -45q93 0 151.5 45t64.5 102q3 27 12 36q13 12 30 12q18 0 30.5 -12.5t12.5 -33.5q0 -90 -81.5 -162t-219.5 -72t-219.5 72t-81.5 162q0 21 12 33.5t30 12.5z" />
    <glyph glyph-name="Uogonek" unicode="&#x172;" 
d="M549 -28q-155 27 -247 145.5t-92 266.5v702h-71q-56 0 -56 42t56 42h310q56 0 56 -42t-56 -42h-155v-702q0 -141 96 -237t226 -96q133 0 227 98.5t94 234.5v702h-155q-56 0 -56 42t56 42h310q56 0 56 -42t-56 -42h-71v-702q0 -170 -110 -289t-278 -128q-44 -42 -44 -100
q0 -41 30.5 -66t81.5 -25q50 0 86 31q17 15 29 15q33 0 33 -33q0 -30 -48.5 -55t-101.5 -25q-77 0 -127 43.5t-50 120.5q0 48 27 99z" />
    <glyph glyph-name="uogonek" unicode="&#x173;" 
d="M1051 0q-53 0 -91.5 -38.5t-38.5 -94.5q0 -41 30.5 -66t81.5 -25q50 0 86 31q17 15 29 15q33 0 33 -33q0 -30 -48 -55t-102 -25q-74 0 -125.5 42t-51.5 122q0 72 48 127v123q-172 -156 -373 -156q-127 0 -198 81t-71 191v542h-113q-56 0 -56 42q0 43 56 43h197v-627
q0 -77 50 -132.5t132 -55.5q205 0 376 188v542h-155q-56 0 -56 42q0 43 56 43h239v-782h71q56 0 56 -42t-62 -42z" />
    <glyph glyph-name="Wcircumflex" unicode="&#x174;" 
d="M983 0h-132l-238 831l-233 -831h-132l-124 1086h-31q-30 0 -43 11.5t-13 30.5t13 30.5t43 11.5h312q31 0 44 -11.5t13 -30.5t-13 -30.5t-44 -11.5h-196l111 -990l227 815h129l233 -815l109 990h-197q-30 0 -43 11.5t-13 30.5t13 30.5t43 11.5h310q31 0 44 -11.5t13 -30.5
t-13 -30.5t-44 -11.5h-31zM614 1574l271 -206q18 -14 23 -22.5t5 -19.5q0 -18 -12.5 -30t-30.5 -12q-13 0 -35 17l-221 169l-220 -169q-22 -17 -36 -17q-17 0 -29.5 12.5t-12.5 29.5q0 21 28 42z" />
    <glyph glyph-name="wcircumflex" unicode="&#x175;" 
d="M904 0l-104 -1l-185 540l-184 -540l-104 1l-174 781h-41q-30 0 -43 12t-13 31q0 18 13 30t43 12h231q30 0 43 -12t13 -31q0 -18 -13 -30t-43 -12h-107l149 -666l179 532h100l184 -532l143 666h-106q-30 0 -43.5 12t-13.5 31q0 18 13 30t44 12h230q31 0 44 -12t13 -31
q0 -18 -13 -30t-44 -12h-40zM614 1310l271 -206q18 -14 23 -22.5t5 -19.5q0 -18 -12.5 -30t-30.5 -12q-13 0 -35 17l-221 169l-220 -169q-22 -17 -36 -17q-17 0 -29.5 12.5t-12.5 29.5q0 21 28 42z" />
    <glyph glyph-name="Ycircumflex" unicode="&#x176;" 
d="M659 528v-444h218q30 0 43 -11.5t13 -30.5q0 -18 -13 -30t-43 -12h-521q-30 0 -43 12t-13 30q0 19 12.5 30.5t43.5 11.5h218v444l-369 558h-50q-30 0 -43 11.5t-13 30.5t13 30.5t43 11.5h231q30 0 43 -11.5t13 -30.5t-13 -30.5t-43 -11.5h-83l314 -473l307 473h-82
q-31 0 -44 11.5t-13 30.5t13 30.5t44 11.5h230q30 0 43 -11.5t13 -30.5t-13 -30.5t-43 -11.5h-50zM614 1574l271 -206q18 -14 23 -22.5t5 -19.5q0 -18 -12.5 -30t-30.5 -12q-13 0 -35 17l-221 169l-220 -169q-22 -17 -36 -17q-17 0 -29.5 12.5t-12.5 29.5q0 21 28 42z" />
    <glyph glyph-name="ycircumflex" unicode="&#x177;" 
d="M620 0l-390 781h-25q-30 0 -43 12t-13 30q0 13 6.5 23.5t17 15t32.5 4.5h230q30 0 43 -12t13 -31q0 -18 -13 -30t-43 -12h-113l343 -689l338 689h-113q-30 0 -43 12t-13 31q0 18 13 30t43 12h229q31 0 44 -12t13 -31q0 -13 -8 -24t-18 -14.5t-56 -3.5l-532 -1083h131
q30 0 43 -11.5t13 -30.5q0 -18 -13 -30t-43 -12h-484q-30 0 -43 11.5t-13 30.5t13 30.5t43 11.5h263zM671 1310l271 -206q18 -14 23 -22.5t5 -19.5q0 -18 -12.5 -30t-30.5 -12q-13 0 -35 17l-221 169l-220 -169q-22 -17 -36 -17q-17 0 -29.5 12.5t-12.5 29.5q0 21 28 42z
" />
    <glyph glyph-name="longs" unicode="&#x17f;" 
d="M559 84h203q56 0 56 -42t-56 -42h-491q-56 0 -56 42t56 42h203v697h-182q-56 0 -56 42q0 43 56 43h182v127q0 109 87 185.5t227 76.5q70 0 188 -13t128 -27t10 -30q0 -41 -44 -41q-8 0 -27 3q-151 23 -255 23q-109 0 -169 -53t-60 -124v-909z" />
    <glyph glyph-name="Aringacute" unicode="&#x1fa;" 
d="M891 391h-552l-113 -307h161q30 0 43 -11.5t13 -30.5q0 -18 -13 -30t-43 -12h-314q-30 0 -43 12t-13 30q0 19 13 30.5t43 11.5h65l371 1002h-248q-30 0 -43 11.5t-13 30.5t13 30.5t43 11.5h423l410 -1086h65q30 0 43 -11.5t13 -30.5q0 -18 -13 -30t-43 -12h-313
q-31 0 -44 12t-13 30q0 19 13 30.5t44 11.5h160zM859 475l-232 611h-31l-225 -611h488zM744 1425q0 -73 -53 -125.5t-128 -52.5t-128 52.5t-53 125.5t53 125.5t128 52.5t128 -52.5t53 -125.5zM684 1425q0 49 -35.5 83.5t-85.5 34.5q-51 0 -86 -35t-35 -83t35.5 -83t85.5 -35
t85.5 34.5t35.5 83.5zM784 1864l-237 -204q-22 -20 -38 -20q-17 0 -29.5 12.5t-12.5 30.5q0 10 4.5 18t20.5 23l236 204q23 20 39 20q17 0 29.5 -12.5t12.5 -30.5q0 -10 -4.5 -18.5t-20.5 -22.5z" />
    <glyph glyph-name="aringacute" unicode="&#x1fb;" 
d="M856 0v121q-183 -154 -391 -154q-151 0 -236 76.5t-85 187.5q0 122 112 213t327 91q58 0 126 -7.5t147 -23.5v136q0 69 -64 120t-192 51q-98 0 -275 -57q-32 -10 -41 -10q-16 0 -27.5 12t-11.5 30q0 17 10 27q14 15 113 41q156 42 236 42q159 0 248 -78.5t89 -177.5v-556
h112q31 0 44 -11.5t13 -30.5q0 -18 -13 -30t-44 -12h-197zM856 418q-59 17 -125 25t-139 8q-183 0 -286 -79q-78 -59 -78 -141q0 -76 59.5 -128t173.5 -52q109 0 202.5 43.5t192.5 138.5v185zM795 1186q0 -73 -53 -125.5t-128 -52.5t-128 52.5t-53 125.5t53 125.5t128 52.5
t128 -52.5t53 -125.5zM735 1186q0 49 -35.5 83.5t-85.5 34.5q-51 0 -86 -35t-35 -83t35.5 -83t85.5 -35t85.5 34.5t35.5 83.5zM821 1624l-237 -204q-22 -20 -38 -20q-17 0 -29.5 12.5t-12.5 30.5q0 10 4.5 18t20.5 23l236 204q23 20 39 20q17 0 29.5 -12.5t12.5 -30.5
q0 -10 -4.5 -18.5t-20.5 -22.5z" />
    <glyph glyph-name="AEacute" unicode="&#x1fc;" 
d="M614 394h-293l-85 -310h54q30 0 43 -11.5t13 -30.5q0 -18 -13 -30t-43 -12h-216q-30 0 -43 12t-13 30q0 19 13 30.5t43 11.5h77l276 1002h-131q-30 0 -43 11.5t-13 30.5t12.5 30.5t43.5 11.5h874v-316q0 -30 -12 -43t-30 -13q-19 0 -31 13t-12 43v232h-387v-436h163v58
q0 31 11.5 44t30.5 13t31 -13t11 -44v-198q0 -31 -11.5 -44t-30.5 -13t-30.5 13t-11.5 44v57h-163v-483h430v194q0 23 5 34q3 6 14.5 14t18.5 8l20 -3q16 -9 21 -18.5t5 -34.5v-278h-706q-30 0 -43 12t-13 30q0 19 13 30.5t43 11.5h108v310zM614 475v611h-104l-166 -611h270
zM893 1509l-237 -204q-22 -20 -38 -20q-17 0 -29.5 12.5t-12.5 30.5q0 10 4.5 18t20.5 23l236 204q23 20 39 20q17 0 29.5 -12.5t12.5 -30.5q0 -10 -4.5 -18.5t-20.5 -22.5z" />
    <glyph glyph-name="aeacute" unicode="&#x1fd;" 
d="M1192 412h-534q15 -181 100 -286q61 -75 129 -75q89 0 231 116q18 15 33 15q18 0 29.5 -12t11.5 -30q0 -16 -13 -31q-48 -51 -152 -103q-79 -39 -139 -39q-61 0 -122 39.5t-108 119.5v-70q0 -30 -11.5 -43t-30.5 -13t-30.5 13t-11.5 43v45q-71 -76 -127 -105t-119 -29
q-80 0 -154 43t-116 125t-42 165q0 55 29.5 95.5t115.5 80.5q125 58 234 58q45 0 90 -6.5t89 -19.5v125q0 70 -53 124t-114 54q-33 0 -86 -14.5t-103 -40.5q-26 -13 -37 -13q-16 0 -28.5 12.5t-12.5 28.5t14 31t105 48t153 33q69 0 134 -47.5t96 -130.5q55 91 105 128
q65 50 136 50q109 0 208.5 -126.5t100.5 -357.5zM1107 496q-20 156 -102 249q-58 66 -125 66q-63 0 -121 -67q-80 -92 -101 -248h449zM574 420q-45 15 -88 22.5t-84 7.5q-141 0 -249 -72q-53 -34 -53 -85q0 -59 30.5 -119.5t84 -91.5t111.5 -31q53 0 100 30q64 40 148 148
v191zM870 1245l-237 -204q-22 -20 -38 -20q-17 0 -29.5 12.5t-12.5 30.5q0 10 4.5 18t20.5 23l236 204q23 20 39 20q17 0 29.5 -12.5t12.5 -30.5q0 -10 -4.5 -18.5t-20.5 -22.5z" />
    <glyph glyph-name="Oslashacute" unicode="&#x1fe;" 
d="M291 104l-127 -161q-14 -18 -22.5 -22.5t-18.5 -4.5q-18 0 -30.5 12.5t-12.5 30.5q0 14 18 36l137 174q-131 181 -131 412q0 272 154.5 444t357.5 172q183 0 322 -134l127 162q14 17 22.5 22t19.5 5q18 0 30 -12.5t12 -30.5q0 -14 -17 -36l-137 -174q133 -177 133 -417
q0 -270 -155 -442.5t-357 -172.5q-184 0 -325 137zM884 995q-121 118 -268 118q-177 0 -302.5 -156t-125.5 -375q0 -191 102 -343zM344 172q121 -121 272 -121q175 0 301 155t126 376q0 196 -103 347zM821 1509l-237 -204q-22 -20 -38 -20q-17 0 -29.5 12.5t-12.5 30.5
q0 10 4.5 18t20.5 23l236 204q23 20 39 20q17 0 29.5 -12.5t12.5 -30.5q0 -10 -4.5 -18.5t-20.5 -22.5z" />
    <glyph glyph-name="oslashacute" unicode="&#x1ff;" 
d="M320 66l-126 -129q-22 -23 -40 -23t-30 12.5t-12 31.5q0 16 22 38l123 126q-123 133 -123 310q0 189 140.5 326.5t342.5 137.5q167 0 298 -99l125 128q22 22 40 22q17 0 29.5 -12t12.5 -31q0 -16 -22 -39l-122 -125q122 -132 122 -309q0 -190 -140.5 -327t-342.5 -137
q-162 0 -297 99zM855 736q-106 75 -238 75q-167 0 -282.5 -112.5t-115.5 -267.5q0 -137 97 -248zM379 127q106 -76 239 -76q167 0 282 112.5t115 267.5q0 141 -96 249zM821 1245l-237 -204q-22 -20 -38 -20q-17 0 -29.5 12.5t-12.5 30.5q0 10 4.5 18t20.5 23l236 204
q23 20 39 20q17 0 29.5 -12.5t12.5 -30.5q0 -10 -4.5 -18.5t-20.5 -22.5z" />
    <glyph glyph-name="anoteleia" unicode="&#x387;" 
d="M597 772h36q56 0 96 -39.5t40 -95.5q0 -58 -40.5 -97t-95.5 -39h-36q-56 0 -96 39.5t-40 95.5q0 58 40.5 97t95.5 39z" />
    <glyph glyph-name="Wgrave" unicode="&#x1e80;" 
d="M983 0h-132l-238 831l-233 -831h-132l-124 1086h-31q-30 0 -43 11.5t-13 30.5t13 30.5t43 11.5h312q31 0 44 -11.5t13 -30.5t-13 -30.5t-44 -11.5h-196l111 -990l227 815h129l233 -815l109 990h-197q-30 0 -43 11.5t-13 30.5t13 30.5t43 11.5h310q31 0 44 -11.5t13 -30.5
t-13 -30.5t-44 -11.5h-31zM465 1573l236 -204l22 -25q3 -5 3 -16q0 -18 -12.5 -30.5t-30.5 -12.5q-15 0 -38 20l-236 204q-25 22 -25 41q0 18 12.5 30.5t30.5 12.5q15 0 38 -20z" />
    <glyph glyph-name="wgrave" unicode="&#x1e81;" 
d="M904 0l-104 -1l-185 540l-184 -540l-104 1l-174 781h-41q-30 0 -43 12t-13 31q0 18 13 30t43 12h231q30 0 43 -12t13 -31q0 -18 -13 -30t-43 -12h-107l149 -666l179 532h100l184 -532l143 666h-106q-30 0 -43.5 12t-13.5 31q0 18 13 30t44 12h230q31 0 44 -12t13 -31
q0 -18 -13 -30t-44 -12h-40zM465 1309l236 -204l22 -25q3 -5 3 -16q0 -18 -12.5 -30.5t-30.5 -12.5q-15 0 -38 20l-236 204q-25 22 -25 41q0 18 12.5 30.5t30.5 12.5q15 0 38 -20z" />
    <glyph glyph-name="Wacute" unicode="&#x1e82;" 
d="M983 0h-132l-238 831l-233 -831h-132l-124 1086h-31q-30 0 -43 11.5t-13 30.5t13 30.5t43 11.5h312q31 0 44 -11.5t13 -30.5t-13 -30.5t-44 -11.5h-196l111 -990l227 815h129l233 -815l109 990h-197q-30 0 -43 11.5t-13 30.5t13 30.5t43 11.5h310q31 0 44 -11.5t13 -30.5
t-13 -30.5t-44 -11.5h-31zM821 1509l-237 -204q-22 -20 -38 -20q-17 0 -29.5 12.5t-12.5 30.5q0 10 4.5 18t20.5 23l236 204q23 20 39 20q17 0 29.5 -12.5t12.5 -30.5q0 -10 -4.5 -18.5t-20.5 -22.5z" />
    <glyph glyph-name="wacute" unicode="&#x1e83;" 
d="M904 0l-104 -1l-185 540l-184 -540l-104 1l-174 781h-41q-30 0 -43 12t-13 31q0 18 13 30t43 12h231q30 0 43 -12t13 -31q0 -18 -13 -30t-43 -12h-107l149 -666l179 532h100l184 -532l143 666h-106q-30 0 -43.5 12t-13.5 31q0 18 13 30t44 12h230q31 0 44 -12t13 -31
q0 -18 -13 -30t-44 -12h-40zM820 1245l-237 -204q-22 -20 -38 -20q-17 0 -29.5 12.5t-12.5 30.5q0 10 4.5 18t20.5 23l236 204q23 20 39 20q17 0 29.5 -12.5t12.5 -30.5q0 -10 -4.5 -18.5t-20.5 -22.5z" />
    </font>
</defs>
</svg>
