<?xml version="1.0" standalone="no"?>
<!DOCTYPE svg PUBLIC "-//W3C//DTD SVG 1.1//EN" "http://www.w3.org/Graphics/SVG/1.1/DTD/svg11.dtd" >
<svg xmlns="http://www.w3.org/2000/svg" xmlns:xlink="http://www.w3.org/1999/xlink" version="1.1">
<metadata>
Created by FontForge 20161003 at Sat Jul 15 19:19:26 2017
 By www-data
Copyright (c) 2010, Sebastian Kosch (sebastian@aldusleaf.org),
with Reserved Font Name "Crimson".
This Font Software is licensed under the SIL Open Font License, Version 1.1.
This license is available with a FAQ at: http://scripts.sil.org/OFL
</metadata>
<defs>
<font id="Crimson-Roman" horiz-adv-x="0" >
  <font-face 
    font-family="Crimson"
    font-weight="400"
    font-stretch="normal"
    units-per-em="1024"
    panose-1="2 0 5 3 0 0 0 0 0 0"
    ascent="717"
    descent="-307"
    x-height="430"
    cap-height="662"
    bbox="-595 -231 1225 1149"
    underline-thickness="47"
    underline-position="-158"
    unicode-range="U+0020-FEFF"
  />
<missing-glyph horiz-adv-x="374" 
d="M34 0v682h272v-682h-272zM68 34h204v614h-204v-614z" />
    <glyph glyph-name=".notdef" horiz-adv-x="374" 
d="M34 0v682h272v-682h-272zM68 34h204v614h-204v-614z" />
    <glyph glyph-name=".null" 
 />
    <glyph glyph-name="nonmarkingreturn" horiz-adv-x="341" 
 />
    <glyph glyph-name="space" unicode=" " horiz-adv-x="217" 
 />
    <glyph glyph-name="exclam" unicode="!" horiz-adv-x="241" 
d="M65 45q0 22 16.5 38t39.5 16t38.5 -15.5t15.5 -38.5t-16 -39.5t-38 -16.5q-23 0 -39.5 16.5t-16.5 39.5zM125 642q21 0 32.5 -18t11.5 -40q0 -12 -4 -56.5t-13.5 -151t-17.5 -204.5q-6 -12 -16 -13q-9 4 -13 11q-30 345 -30 414q0 23 13.5 40.5t36.5 17.5z" />
    <glyph glyph-name="quotedbl" unicode="&#x22;" horiz-adv-x="280" 
d="M211 699q16 0 26 -13q0 -73 -14 -194q-6 -12 -20 -19q-6 0 -9 6q-35 120 -35 150q0 24 15 47t37 23zM91 699q16 0 26 -13q0 -73 -14 -194q-6 -12 -20 -19q-6 0 -9 6q-35 120 -35 150q0 24 15 47t37 23z" />
    <glyph glyph-name="numbersign" unicode="#" horiz-adv-x="480" 
d="M326 227h67q7 0 7.5 -11t-4 -23t-10.5 -15h-68l-16 -101q-3 -13 -24 -13q-4 0 -7 1t-3 2l-1 1l18 110h-129l-16 -101q-3 -13 -23 -13q-4 0 -7 1t-4 2v1l18 110h-67q-5 2 -5.5 12t4.5 22.5t11 14.5h64l23 142h-69q-6 0 -6 11.5t4.5 23.5t10.5 14h68l16 100q2 5 2.5 6
t2.5 3.5t6 3t11 0.5q8 0 13 -3l-18 -110h128l16 100q2 5 2.5 6t2.5 3.5t6 3t11 0.5q9 0 13 -3l-18 -110h64q7 0 8 -11t-3.5 -23t-10.5 -15h-65zM292 227l23 142h-128l-23 -142h128z" />
    <glyph glyph-name="dollar" unicode="$" horiz-adv-x="498" 
d="M292 683q35 0 35 -7l-7 -43q11 -2 37 -9.5t45 -11.5q8 -34 12 -136q-7 -4 -18 -4q-9 0 -14 5q-3 27 -22.5 59t-47.5 51l-38 -232q1 -1 3.5 -2t3.5 -2q4 -3 33 -20.5t39.5 -25t33.5 -26t33 -33t19 -36t9 -44.5q0 -77 -60.5 -126.5t-140.5 -49.5q-22 0 -33 1l-7 -43
q-35 0 -35 9l6 39q-23 4 -60.5 12.5t-43.5 9.5q-23 109 -23 147q8 8 25 8q8 0 11 -5q22 -101 98 -132l41 248q-36 21 -56.5 35t-47.5 38t-40 52t-13 61q0 74 56.5 121.5t131.5 47.5q20 0 28 -1zM259 265l-39 -239q18 -2 29 -2q48 0 81.5 31t33.5 85q0 25 -7 43.5t-25.5 34.5
t-30.5 23.5t-42 23.5zM241 375l38 227q-18 4 -28 4q-57 0 -81 -31.5t-24 -74.5q0 -41 24.5 -68.5t70.5 -56.5z" />
    <glyph glyph-name="percent" unicode="%" horiz-adv-x="667" 
d="M186 621q-41 0 -61.5 -37.5t-20.5 -87.5q0 -54 28 -100t64 -46q40 0 57.5 37t17.5 89q0 55 -23.5 100t-61.5 45zM190 645q64 0 105.5 -47t41.5 -114q0 -63 -41 -111t-106 -48q-62 0 -106 46.5t-44 112.5q0 68 42 114.5t108 46.5zM475 289q-41 0 -62 -37.5t-21 -87.5
q0 -53 28 -99.5t65 -46.5q40 0 57 37t17 89q0 55 -23.5 100t-60.5 45zM479 313q64 0 105 -47t41 -114q0 -64 -40.5 -111.5t-106.5 -47.5q-62 0 -106 46.5t-44 112.5q0 68 42.5 114.5t108.5 46.5zM598 624l-483 -624q-10 -12 -33 -12q-12 0 -18 11l482 625q10 12 20 12
q11 0 16.5 -1t7 -1.5t4 -4t4.5 -5.5z" />
    <glyph glyph-name="ampersand" unicode="&#x26;" horiz-adv-x="683" 
d="M406 95q-29 29 -70 84t-68 95l-26 40q-36 -25 -53 -38.5t-33.5 -41.5t-16.5 -62q0 -66 41 -99t101 -33q31 0 66.5 15t58.5 40zM313 620q-33 0 -56 -21.5t-23 -55.5q0 -64 52 -158q52 30 75.5 60.5t23.5 84.5q0 36 -20 63t-52 27zM308 656q67 0 106 -29.5t39 -82.5
q0 -61 -39 -104t-110 -87q58 -98 148 -199q25 38 41 73t16 44t-9 13t-22 4.5t-14 0.5q-2 4 -2 12t3 11h79q15 0 31.5 1t39 2t39.5 2q2 -1 1.5 -14.5t-2.5 -13.5q-13 0 -37 -6t-32 -11q-1 -1 -14 -22.5t-38 -58.5t-52 -68q23 -24 32 -33t24 -22.5t24 -18t18 -4.5
q14 0 30.5 17t21.5 29q8 0 15.5 -6t7.5 -12q-4 -8 -9 -16t-17.5 -23t-34 -24.5t-48.5 -9.5q-26 0 -55 18t-45 36l-15 18q-86 -75 -182 -75q-89 0 -141.5 43t-52.5 118q0 65 44 108.5t122 83.5q-19 32 -28.5 51.5t-19.5 52.5t-10 65q0 57 42 97t105 40z" />
    <glyph glyph-name="quotesingle" unicode="'" horiz-adv-x="160" 
d="M91 699q16 0 26 -13q0 -73 -14 -194q-6 -12 -20 -19q-6 0 -9 6q-35 120 -35 150q0 24 15 47t37 23z" />
    <glyph glyph-name="parenleft" unicode="(" horiz-adv-x="262" 
d="M110 285q0 -123 39 -239t107 -176q1 0 -2.5 -4t-8.5 -9t-8 -7q-92 72 -146 183.5t-54 251.5t54 250.5t146 183.5q3 -2 8 -7t8.5 -9t2.5 -4q-68 -60 -107 -175.5t-39 -238.5z" />
    <glyph glyph-name="parenright" unicode=")" horiz-adv-x="262" 
d="M225 285q0 -140 -54 -251.5t-146 -183.5q-3 2 -8 7t-8.5 9t-2.5 4q68 60 107 176t39 239t-39 238.5t-107 175.5q-1 0 2.5 4t8.5 9t8 7q92 -73 146 -183.5t54 -250.5z" />
    <glyph glyph-name="asterisk" unicode="*" horiz-adv-x="443" 
d="M302 613q13 15 28.5 19t27.5 -7q12 -12 10 -27.5t-16 -28.5q-18 -16 -50.5 -33.5t-46.5 -30.5l-5 -14q1 -7 10 -10q16 -8 50 -14t57 -16q18 -8 27 -21.5t2 -27.5q-7 -15 -23 -18t-32 6q-22 12 -48.5 37.5t-42.5 34.5l-14 3q-4 -2 -6 -13q-2 -18 2.5 -52t1.5 -59
q-2 -20 -12.5 -32t-25.5 -10q-16 2 -24 15.5t-4 32.5q5 25 21.5 58.5t19.5 51.5q1 9 -3 13q-4 5 -13 3q-17 -4 -48 -19t-57 -20q-19 -4 -34.5 2t-17.5 21q-3 16 8 28t30 14q25 3 61.5 -2t54.5 -3q9 3 11 8q3 6 -2 14q-9 15 -32.5 40.5t-36.5 47.5q-22 40 6 56q32 16 51 -23
q10 -23 16.5 -59t14.5 -53q5 -10 10 -11q6 -1 13 6q12 13 28 43.5t33 49.5z" />
    <glyph glyph-name="plus" unicode="+" horiz-adv-x="542" 
d="M242 474q29 11 43 11q4 0 7.5 -1.5t4.5 -3.5l1 -1v-205h204q9 0 9 -12q0 -28 -16 -44h-197v-202q-15 -11 -43 -11q-13 0 -13 9v204h-205q-6 0 -6 10q0 6 4.5 23.5t10.5 22.5h196v200z" />
    <glyph glyph-name="comma" unicode="," horiz-adv-x="201" 
d="M106 123q14 0 26 -7q18 -31 18 -70q0 -42 -39.5 -103t-78.5 -82q-5 0 -10 8t-5 13q63 47 63 111q0 16 -16.5 38.5t-16.5 42.5q0 17 17 33t42 16z" />
    <glyph glyph-name="hyphen" unicode="-" horiz-adv-x="377" 
d="M71 261q208 11 241 12q7 0 7 -9q0 -26 -13 -54q-20 -1 -241 -11q-7 0 -7 11q0 23 13 51z" />
    <glyph glyph-name="period" unicode="." horiz-adv-x="207" 
d="M48 45q0 22 16.5 38t39.5 16q22 0 38 -15.5t16 -38.5t-16 -39.5t-38 -16.5t-39 16.5t-17 39.5z" />
    <glyph glyph-name="slash" unicode="/" horiz-adv-x="413" 
d="M369 761q10 0 13 -9l-295 -764q-10 -23 -39 -23q-7 0 -11.5 1.5t-5.5 3.5l-1 2l299 774q1 2 5.5 5.5t14 6.5t20.5 3z" />
    <glyph glyph-name="zero" unicode="0" horiz-adv-x="497" 
d="M254 604q-61 0 -98.5 -81.5t-37.5 -202.5q0 -120 36 -203t90 -83q43 0 74 40.5t45.5 105.5t14.5 145q0 119 -34.5 199t-89.5 80zM248 641q68 0 118.5 -44.5t75 -117t24.5 -160.5t-25 -160.5t-75.5 -117t-117.5 -44.5q-65 0 -115.5 44.5t-76.5 117t-26 160.5t25.5 160.5
t76 117t116.5 44.5z" />
    <glyph glyph-name="one" unicode="1" horiz-adv-x="497" 
d="M223 116v404q0 38 -21 38q-16 0 -70 -20q-10 8 -10 17q0 5 2 6q35 16 79 36.5t69 32.5t26 12h2q7 0 10 -16q-8 -36 -8 -97v-413q0 -58 5 -74q2 -7 26 -11.5t38 -4.5q4 -4 4 -14.5t-4 -14.5q-102 5 -111 5q-4 0 -107 -5q-3 4 -3 14.5t3 14.5q15 0 38.5 4.5t25.5 11.5
q6 19 6 74z" />
    <glyph glyph-name="two" unicode="2" horiz-adv-x="497" 
d="M454 150q-22 -53 -54 -150h-346q-4 2 -7 6.5t-3 7.5q158 175 238 292q28 42 38 75.5t10 74.5q0 52 -31.5 86.5t-78.5 34.5q-28 0 -54 -10t-44 -25.5t-28.5 -28t-17.5 -22.5q-5 0 -11.5 6.5t-6.5 9.5q3 11 17 32t37 44.5t58 41t72 17.5q70 0 121 -51t51 -116
q0 -81 -56 -151q-77 -94 -218 -251h198q29 0 48 18.5t36 58.5q2 6 12 6q12 0 20 -6z" />
    <glyph glyph-name="three" unicode="3" horiz-adv-x="497" 
d="M258 642q45 0 88.5 -35.5t43.5 -92.5q0 -43 -29 -78.5t-65 -56.5q51 -7 95.5 -50.5t44.5 -110.5q0 -66 -37.5 -118t-95 -78.5t-121.5 -26.5q-56 0 -102 23q-5 4 -12.5 15.5t-7.5 22.5q0 21 12.5 34.5t29.5 13.5q13 0 22.5 -6.5t20 -20.5t13.5 -17q26 -25 74 -25
q47 0 82.5 38t35.5 117q0 59 -38.5 100t-89.5 41q-9 0 -20.5 -2.5t-24.5 -6.5t-15 -4q-6 8 -6 20q0 7 2 10q68 15 112 51.5t44 96.5q0 40 -27.5 66.5t-70.5 26.5q-21 0 -42.5 -9.5t-33.5 -20.5t-23.5 -23t-12.5 -13q-4 0 -8 7.5t-4 14.5q28 40 70.5 68.5t95.5 28.5z" />
    <glyph glyph-name="four" unicode="4" horiz-adv-x="497" 
d="M382 644q7 0 11.5 -5.5t4.5 -12.5v-395h58q5 0 9.5 -13t4.5 -28q0 -10 -4 -16h-68v-175q-5 -5 -44 -5q-36 0 -36 8v172h-282q-10 6 -10 19l326 426q19 25 30 25zM318 524l-224 -293h224v293z" />
    <glyph glyph-name="five" unicode="5" horiz-adv-x="497" 
d="M248 395q84 0 136 -54t52 -123q0 -66 -37.5 -118t-95 -78.5t-121.5 -26.5q-56 0 -102 23q-5 4 -12.5 15.5t-7.5 22.5q0 21 12.5 34.5t29.5 13.5q13 0 22.5 -6.5t20 -20.5t13.5 -17q26 -25 74 -25q47 0 82.5 37.5t35.5 117.5q0 25 -9 50t-27 47.5t-50 37t-74 14.5
q-17 0 -44.5 -4.5t-39.5 -10.5q-2 0 -5 4.5t-3 9.5q55 276 58 297h148q19 0 42 2.5t37 4.5l13 2l5 -2.5t4 -2.5t2 -2.5t1 -3.5q0 -7 -9 -32t-21 -39q-56 -6 -116 -6h-84q-4 -20 -11 -57.5t-13 -67.5t-12 -55q21 8 53 13.5t53 5.5z" />
    <glyph glyph-name="six" unicode="6" horiz-adv-x="497" 
d="M139 306q-4 -28 -4 -68q0 -78 31.5 -144.5t86.5 -66.5q47 0 78.5 45t31.5 112q0 70 -31.5 116t-94.5 46q-61 0 -98 -40zM265 395q50 0 87.5 -19.5t57 -50t29 -61.5t9.5 -61q0 -85 -59 -147t-144 -62q-86 0 -141 69.5t-55 156.5q0 160 96 265q51 56 126.5 100.5
t141.5 61.5q12 0 12 -29q-229 -73 -278 -268q54 45 118 45z" />
    <glyph glyph-name="seven" unicode="7" horiz-adv-x="497" 
d="M384 633q16 0 42 1.5l26 1.5q6 0 6 -9q0 -6 -3 -14.5t-12.5 -28t-12.5 -24.5l-264 -562q-2 -3 -10 -3q-12 0 -28 6t-16 12q46 69 117 206t119 239l48 102h-254q-28 0 -44 -18t-28 -59q-1 -6 -12 -6q-12 0 -20 6q31 96 42 150h304z" />
    <glyph glyph-name="eight" unicode="8" horiz-adv-x="497" 
d="M248 27q50 0 79 30t29 81q0 29 -17 57.5t-43 50.5t-40.5 32t-27.5 17q-4 2 -6 2q-3 0 -4 -1q-42 -26 -60.5 -58.5t-18.5 -80.5q0 -58 33 -94t76 -36zM248 608q-36 0 -61 -32.5t-25 -77.5q0 -27 9.5 -49t30 -39.5t31 -25t33.5 -20.5q4 -2 6 -2q3 0 6 2q68 45 68 122
q0 47 -27.5 84.5t-70.5 37.5zM254 643q69 0 116.5 -40t47.5 -107q0 -28 -10 -52t-29.5 -43.5t-34.5 -31t-38 -25.5q-7 -2 0 -6q52 -30 91.5 -75.5t39.5 -95.5q0 -74 -57.5 -125t-133.5 -51q-83 0 -134.5 45t-51.5 118q0 13 3 25.5t6.5 22.5t11.5 21.5t13.5 19t16.5 17.5
t16 14.5t18 13.5t16.5 11.5t16.5 10.5l12 8q5 3 0 6q-39 23 -70.5 64.5t-31.5 91.5q0 64 50 113.5t116 49.5z" />
    <glyph glyph-name="nine" unicode="9" horiz-adv-x="497" 
d="M358 335q4 28 4 68q0 48 -12.5 94.5t-40.5 81.5t-65 35q-48 0 -79 -44.5t-31 -112.5q0 -70 31 -116t95 -46q61 0 98 40zM72 23q228 73 278 268q-26 -21 -59 -33t-59 -12q-41 0 -73 13t-52 33.5t-33.5 47t-18.5 51t-5 47.5q0 85 58.5 147t143.5 62q57 0 103 -34.5
t69.5 -85.5t23.5 -106q0 -160 -96 -265q-52 -56 -127 -100.5t-141 -61.5q-6 0 -9 10.5t-3 18.5z" />
    <glyph glyph-name="colon" unicode=":" horiz-adv-x="226" 
d="M58 45q0 22 16.5 38t39.5 16q22 0 38 -15.5t16 -38.5t-16 -39.5t-38 -16.5t-39 16.5t-17 39.5zM58 377q0 22 16.5 38t39.5 16q22 0 38 -15.5t16 -38.5t-16 -39.5t-38 -16.5t-39 16.5t-17 39.5z" />
    <glyph glyph-name="semicolon" unicode=";" horiz-adv-x="232" 
d="M127 123q14 0 26 -7q18 -31 18 -70q0 -42 -39.5 -103t-78.5 -82q-5 0 -10 8t-5 13q63 47 63 111q0 16 -16.5 38.5t-16.5 42.5q0 17 17 33t42 16zM61 377q0 22 16.5 38t39.5 16t38.5 -15.5t15.5 -38.5t-16 -39.5t-38 -16.5q-23 0 -39.5 16.5t-16.5 39.5z" />
    <glyph glyph-name="less" unicode="&#x3c;" horiz-adv-x="492" 
d="M444 35q0 -7 -6 -28.5t-10 -21.5q-1 0 -5 2l-375 190q-18 10 -18 40q0 15 18 24l369 187q4 2 5 2q8 0 17 -47l-3 -9l-326 -165l331 -168q3 -1 3 -6z" />
    <glyph glyph-name="equal" unicode="=" horiz-adv-x="565" 
d="M479 120h-406q-5 2 -4 13t7 25.5t13 16.5h403q6 -2 6 -13t-6 -25t-13 -17zM479 264h-406q-5 2 -4 13t7 25.5t13 16.5h403q6 -2 6 -13t-6 -25t-13 -17z" />
    <glyph glyph-name="greater" unicode="&#x3e;" horiz-adv-x="493" 
d="M48 35l3 6l331 168l-325 165q-3 1 -3 8q0 13 6.5 30.5t9.5 17.5q1 0 5 -2l370 -187q17 -9 17 -24q0 -31 -17 -40l-375 -190q-4 -2 -5 -2q-4 0 -10.5 21.5t-6.5 28.5z" />
    <glyph glyph-name="question" unicode="?" horiz-adv-x="356" 
d="M63 45q0 22 16.5 38t39.5 16t38.5 -15.5t15.5 -38.5t-16 -39.5t-38 -16.5q-23 0 -39.5 16.5t-16.5 39.5zM100 548q-13 0 -28.5 14t-15.5 36q0 24 9 37q14 7 48 7q60 0 128.5 -53t68.5 -132q0 -52 -22.5 -86.5t-78.5 -66.5q-21 -12 -47.5 -33t-30.5 -29q-6 -11 -6 -70
q-6 -12 -16 -13q-9 4 -13 11q-8 34 -8 91q0 26 6.5 46t24 36.5t24 21.5t30.5 20q32 20 46 30.5t27.5 29.5t13.5 42q0 37 -22 59.5t-52 22.5t-53 -10.5t-33 -10.5z" />
    <glyph glyph-name="at" unicode="@" horiz-adv-x="748" 
d="M418 578q139 0 216.5 -91t77.5 -217q0 -116 -59.5 -196.5t-146.5 -80.5q-83 0 -83 86q0 27 7 46q-21 -41 -62 -85.5t-79 -44.5q-44 0 -69.5 39.5t-25.5 95.5q0 71 42.5 142.5t109.5 117t134 45.5q38 0 73 -13l-61 -316q-3 -12 -3 -25q0 -45 48 -45q49 0 92 70t43 161
q0 71 -26 130.5t-85.5 100t-142.5 40.5q-97 0 -174.5 -56.5t-116 -139.5t-38.5 -172q0 -84 37.5 -149t95.5 -99q38 -22 75 -28q0 -6 -13 -12t-23 -6q-23 0 -39 6q-72 27 -122.5 106.5t-50.5 181.5q0 74 25.5 146.5t71.5 131t117 94.5t155 36zM438 389q-59 0 -114.5 -76.5
t-55.5 -161.5q0 -98 51 -98q36 0 80.5 73t59.5 148l20 102q-12 13 -41 13z" />
    <glyph glyph-name="A" unicode="A" horiz-adv-x="627" 
d="M95 139q132 339 193 495q4 8 17.5 18.5t20.5 10.5q2 0 3 -1q2 -2 3 -2l204 -534l25 -66q6 -15 31 -24.5t37 -9.5q8 -11 2 -29q-100 5 -110 5q-1 0 -116 -5q-4 4 -3.5 14.5t4.5 14.5q41 0 56 13q4 4 4 14q0 13 -17 62t-34 91l-17 42q-3 4 -6 4q-13 1 -99 1q-63 0 -108 -3
l-5 -3q-28 -74 -45 -122q-14 -41 -14 -71q0 -15 26 -21.5t43 -6.5q2 -2 3 -13.5t-1 -15.5q-14 1 -31 2t-31.5 2t-34.5 1t-36 -1t-35 -2t-36 -2q-2 2 -2 13t2 16q13 0 33 5t27 14q21 27 47 94zM291 542l-92 -244q0 -4 2 -4q52 -2 91 -2q38 0 84 3l3 5z" />
    <glyph glyph-name="B" unicode="B" horiz-adv-x="596" 
d="M206 332v-217q0 -59 9 -68q17 -18 79 -18q159 0 159 147q0 156 -186 156h-61zM206 370h84q63 0 94 34.5t31 82.5q0 66 -41.5 103t-112.5 37q-46 0 -50 -10q-5 -12 -5 -75v-172zM305 659q50 0 93 -12.5t75.5 -47.5t32.5 -89q0 -52 -33.5 -92.5t-67.5 -52.5q-4 -2 0 -5
q45 -2 96 -48t51 -113q0 -92 -67 -148q-63 -52 -210 -54h-230q-4 4 -3.5 14.5t3.5 14.5q15 0 41 4.5t28 11.5q5 16 5 74v427q0 58 -5 74q-2 7 -28 11.5t-41 4.5q-3 4 -3.5 14.5t3.5 14.5q103 -5 118 -5q17 0 63.5 1t78.5 1z" />
    <glyph glyph-name="C" unicode="C" horiz-adv-x="674" 
d="M386 667q115 0 212 -21q23 -138 23 -148q1 -4 -6.5 -8.5t-15.5 -4.5q-7 0 -12 3q-28 146 -196 146q-106 0 -175 -89.5t-69 -201.5q0 -81 27.5 -151t88.5 -117.5t144 -47.5q78 0 132 48q45 40 61 116q17 2 32 -8q0 -19 -13 -77.5t-22 -66.5q-80 -45 -215 -45
q-145 0 -239.5 96t-94.5 232q0 143 96.5 244t241.5 101z" />
    <glyph glyph-name="D" unicode="D" horiz-adv-x="710" 
d="M207 541v-426q0 -65 6 -72q10 -14 82 -14q114 0 189.5 72.5t75.5 211.5q0 82 -23 144t-63 98t-88.5 53.5t-104.5 17.5q-66 0 -69 -11q-5 -16 -5 -74zM308 658q161 0 256 -91t95 -233q0 -68 -18 -125t-57.5 -106.5t-113 -77.5t-175.5 -28h-250q-4 4 -3.5 14.5t3.5 14.5
q15 0 41 4.5t28 11.5q5 16 5 74v427q0 58 -5 74q-2 7 -28 11.5t-41 4.5q-3 4 -3.5 14.5t3.5 14.5q103 -5 118 -5q19 0 70.5 0.5t74.5 0.5z" />
    <glyph glyph-name="E" unicode="E" horiz-adv-x="587" 
d="M163 657q45 0 155.5 3.5t166.5 3.5q4 -29 15.5 -76.5t13.5 -59.5q-5 -5 -18 -5t-14 7q-15 56 -43 75t-73 19h-86q-66 0 -69 -11q-5 -16 -5 -71v-187q0 -6 43 -6h53q67 0 82 9.5t26 53.5q1 6 2 9q1 7 15 7q12 0 17 -5v-189q-4 -4 -16 -4q-13 0 -16 8q-7 28 -12 41.5t-8 17
t-8 7.5q-13 8 -106 8q-72 0 -72 -9v-190q0 -64 6 -69q13 -10 71 -10h48q82 0 126 27q33 19 63 101q2 6 14 6q19 0 25 -6q-5 -13 -15.5 -41.5t-16.5 -46t-13 -40.5t-9 -38q-51 0 -161 2t-180 2q-24 0 -62 -1.5t-57 -1.5q-4 4 -3.5 14.5t3.5 14.5q15 0 41 4.5t28 11.5
q5 16 5 74v427q0 58 -5 74q-2 7 -28 11.5t-41 4.5q-3 4 -3.5 14.5t3.5 14.5q103 -5 118 -5z" />
    <glyph glyph-name="F" unicode="F" horiz-adv-x="535" 
d="M163 657q45 0 155.5 3.5t166.5 3.5q4 -29 15.5 -76.5t13.5 -59.5q-5 -5 -18 -5t-14 7q-15 56 -43 75t-73 19h-86q-66 0 -69 -11q-5 -16 -5 -71v-187q0 -6 43 -6h53q67 0 82 9.5t26 53.5q1 6 2 9q1 7 15 7q12 0 17 -5v-189q-4 -4 -16 -4q-13 0 -16 8q-7 28 -12 41.5t-8 17
t-8 7.5q-13 8 -106 8q-72 0 -72 -9v-187q0 -58 5 -74q2 -7 32.5 -11.5t46.5 -4.5q3 -4 3.5 -14.5t-3.5 -14.5q-102 5 -127 5t-62 -2.5t-56 -2.5q-4 4 -3.5 14.5t3.5 14.5q15 0 41 4.5t28 11.5q5 16 5 74v427q0 58 -5 74q-2 7 -28 11.5t-41 4.5q-3 4 -3.5 14.5t3.5 14.5
q103 -5 118 -5z" />
    <glyph glyph-name="G" unicode="G" horiz-adv-x="720" 
d="M535 175q0 58 -5 74q-2 7 -27.5 11.5t-40.5 4.5q-3 4 -3.5 14.5t3.5 14.5q102 -5 117 -5q9 0 112 5q4 -4 3.5 -14.5t-3.5 -14.5q-15 0 -39 -4.5t-26 -11.5q-5 -16 -5 -74v-71q0 -12 5 -24t5 -16q0 -7 -20 -18q-30 -16 -50.5 -24.5t-69 -18t-109.5 -9.5q-145 0 -239.5 96
t-94.5 232q0 143 96.5 244t241.5 101q115 0 212 -21q23 -138 23 -148q1 -4 -6.5 -8.5t-15.5 -4.5q-7 0 -12 3q-28 146 -196 146q-106 0 -175 -89.5t-69 -201.5q0 -60 16.5 -115.5t47.5 -101t82 -72.5t114 -27q57 0 121 32q7 3 7 15v101z" />
    <glyph glyph-name="H" unicode="H" horiz-adv-x="726" 
d="M163 657q15 0 117 5q4 -4 3.5 -16t-3.5 -16q-15 0 -41 -4.5t-28 -11.5q-5 -16 -5 -74v-175l2 -3q147 -3 157 -3q18 0 153 3q2 2 2 4v174q0 58 -5 74q-2 7 -28 11.5t-41 4.5q-3 4 -3.5 16t3.5 16q102 -5 118 -5q14 0 117 5q4 -4 3.5 -16t-3.5 -16q-15 0 -41 -4.5
t-28 -11.5q-5 -16 -5 -74v-421q0 -58 5 -74q2 -7 28 -11.5t41 -4.5q3 -4 3.5 -16t-3.5 -16q-103 5 -117 5q-16 0 -118 -5q-4 4 -3.5 16t3.5 16q15 0 41 4.5t28 11.5q5 16 5 74v198l-2 4q-12 0 -67.5 2t-85.5 2q-146 0 -158 -6l-1 -2v-198q0 -58 5 -74q2 -7 28 -11.5t41 -4.5
q3 -4 3.5 -16t-3.5 -16q-102 5 -117 5t-118 -5q-4 4 -3.5 16t3.5 16q15 0 41 4.5t28 11.5q5 16 5 74v421q0 58 -5 74q-2 7 -28 11.5t-41 4.5q-3 4 -3.5 16t3.5 16q103 -5 118 -5z" />
    <glyph glyph-name="I" unicode="I" horiz-adv-x="324" 
d="M163 657q15 0 117 5q4 -4 3.5 -14.5t-3.5 -14.5q-15 0 -41 -4.5t-28 -11.5q-5 -16 -5 -74v-427q0 -58 5 -74q2 -7 28 -11.5t41 -4.5q3 -4 3.5 -14.5t-3.5 -14.5q-102 5 -117 5t-118 -5q-4 4 -3.5 14.5t3.5 14.5q15 0 41 4.5t28 11.5q5 16 5 74v427q0 58 -5 74
q-2 7 -28 11.5t-41 4.5q-3 4 -3.5 14.5t3.5 14.5q103 -5 118 -5z" />
    <glyph glyph-name="J" unicode="J" horiz-adv-x="313" 
d="M158 657q14 0 117 5q4 -4 3.5 -14.5t-3.5 -14.5q-15 0 -41 -4.5t-28 -11.5q-5 -16 -5 -74v-422q0 -179 -63 -263.5t-171 -84.5q-12 0 -33 6t-30 12q-8 8 -8 23q0 24 12.5 40t35.5 16q17 0 48 -29q23 -21 45 -21q23 0 39 22t27 90.5t11 183.5v427q0 58 -5 74
q-2 7 -28 11.5t-41 4.5q-3 4 -3.5 14.5t3.5 14.5q102 -5 118 -5z" />
    <glyph glyph-name="K" unicode="K" horiz-adv-x="657" 
d="M163 657q15 0 117 5q4 -4 3.5 -16t-3.5 -16q-15 0 -41 -4.5t-28 -11.5q-5 -16 -5 -74v-199q26 16 113 101q93 92 127 136q14 19 14 31q0 22 -56 22q-6 12 0 31q111 -6 115 -6q26 0 62.5 3t45.5 3q2 -4 1.5 -17.5t-3.5 -13.5l-8 -1q-8 0 -14.5 -1t-17.5 -3.5t-20.5 -6
t-20 -10t-18.5 -15.5q-30 -33 -62 -65.5t-51 -51t-59.5 -57t-58.5 -56.5q-3 -4 0 -8q5 -6 39 -45.5t41.5 -48.5t35 -40.5t39 -44t32.5 -35.5t37 -39t32 -31q45 -41 109 -46q3 -5 2 -15.5t-3 -13.5q-111 0 -142 11q-39 14 -68 43q-27 27 -225 253q-2 3 -9 3q-5 0 -9 -2v-186
q0 -58 5 -74q2 -7 28 -11.5t41 -4.5q3 -4 3.5 -16t-3.5 -16q-102 5 -117 5t-118 -5q-4 4 -3.5 16t3.5 16q15 0 41 4.5t28 11.5q5 16 5 74v421q0 58 -5 74q-2 7 -28 11.5t-41 4.5q-3 4 -3.5 16t3.5 16q103 -5 118 -5z" />
    <glyph glyph-name="L" unicode="L" horiz-adv-x="564" 
d="M206 116q0 -67 6 -72q13 -10 71 -10h57q77 0 117 27q41 28 63 101q2 6 14 6q19 0 25 -6q-5 -13 -15.5 -41.5t-16.5 -46t-13 -40.5t-9 -38q-51 0 -161 2t-180 2q-24 0 -62 -1.5t-57 -1.5q-4 4 -3.5 14.5t3.5 14.5q15 0 41 4.5t28 11.5q5 16 5 74v427q0 58 -5 74
q-2 7 -28 11.5t-41 4.5q-3 4 -3.5 14.5t3.5 14.5q103 -5 118 -5t117 5q4 -4 3.5 -14.5t-3.5 -14.5q-15 0 -41 -4.5t-28 -11.5q-5 -16 -5 -74v-427z" />
    <glyph glyph-name="M" unicode="M" horiz-adv-x="907" 
d="M162 657q26 0 81 5q9 -27 45.5 -115t87.5 -209t79 -192q1 -2 4 -2q4 0 5 4q146 376 153 394l44 120q64 -4 79 -4q62 0 112 4l3 -29q-14 0 -41 -5.5t-30 -12.5q-5 -11 -5 -38q1 -31 2.5 -108t4 -180.5t3.5 -148.5q2 -70 12 -97q3 -9 29 -13t41 -4q7 -13 2 -29
q-100 5 -119 5q-5 0 -120 -5q-2 2 -2.5 12.5t2.5 16.5q46 0 65 11q9 5 9 42q0 7 -1 28.5t-1 29.5q-9 308 -13 428q0 20 -9 20q-2 0 -5 -7q-23 -57 -211 -529q-5 -11 -18 -30.5t-20 -20.5q-2 0 -9 2l-244 584q-2 -96 -5 -221t-5.5 -205.5t-2.5 -82.5q0 -20 4 -31
q4 -10 33 -14t46 -4q8 -10 2 -29q-100 5 -106 5q-2 0 -117 -5q-2 2 -2.5 12.5t2.5 16.5q16 0 45.5 5t35.5 13q10 15 12 50q14 373 14 478q0 29 -4 40q-3 8 -30 14.5t-40 6.5q-1 0 -1 13.5t1 15.5q14 -1 45 -3t58 -2z" />
    <glyph glyph-name="N" unicode="N" horiz-adv-x="776" 
d="M143 660q48 0 76 2q25 -39 180 -228t212 -268v58v321q0 53 -10 69q-4 7 -32.5 13.5t-43.5 6.5q-8 11 -2 29q100 -5 115 -5q20 0 36 1t35 2t36 2q7 -13 0 -29q-14 0 -43.5 -6t-34.5 -14q-10 -17 -10 -68v-407q0 -86 2 -138q-1 -6 -13 -6q-17 0 -35 23l-436 551v-454
q0 -53 10 -69q4 -7 32 -13.5t43 -6.5q8 -11 2 -29q-100 5 -114 5q-20 0 -36 -1t-35 -2t-36 -2q-7 13 0 29q14 0 43.5 6t34.5 14q10 17 10 68v434q0 51 -10 68q-5 8 -34.5 14t-43.5 6q-7 16 0 29q16 -1 49.5 -3t52.5 -2z" />
    <glyph glyph-name="O" unicode="O" horiz-adv-x="748" 
d="M358 633q-54 0 -96 -25t-66 -66.5t-36 -90.5t-12 -101q0 -80 27 -153t83.5 -123t130.5 -50q54 0 96 25t66 67t36.5 91t12.5 102q0 80 -27.5 152.5t-84 122t-130.5 49.5zM373 667q135 0 230.5 -96t95.5 -243q0 -139 -96.5 -238.5t-229.5 -99.5q-134 0 -229 96t-95 242
q0 140 96 239.5t228 99.5z" />
    <glyph glyph-name="P" unicode="P" horiz-adv-x="548" 
d="M518 479q0 -91 -60.5 -146t-159.5 -55q-27 0 -43 8q-14 9 -14 22q0 6 5 5q26 -7 38 -7q62 0 102 41.5t40 114.5q0 77 -42 121t-123 44q-46 0 -50 -10q-5 -12 -5 -75v-426q0 -58 5 -74q2 -7 28 -11.5t41 -4.5q3 -4 3.5 -14.5t-3.5 -14.5q-102 5 -117 5t-118 -5
q-4 4 -3.5 14.5t3.5 14.5q15 0 41 4.5t28 11.5q5 16 5 74v427q0 58 -5 74q-2 7 -28 11.5t-41 4.5q-3 4 -3.5 14.5t3.5 14.5q103 -5 118 -5q17 0 63.5 1t78.5 1q85 0 149 -48.5t64 -131.5z" />
    <glyph glyph-name="Q" unicode="Q" horiz-adv-x="747" 
d="M358 633q-54 0 -96 -25t-66 -66.5t-36 -90.5t-12 -101q0 -80 27 -153t83.5 -123t130.5 -50q54 0 96 25t66 67t36.5 91t12.5 102q0 80 -27.5 152.5t-84 122t-130.5 49.5zM373 667q135 0 230.5 -96t95.5 -243q0 -113 -66 -202.5t-167 -121.5q28 -14 71 -40t72 -35.5
t76 -9.5q50 0 71 6q13 0 18 -7q1 -1 1 -3q-97 -51 -166 -51q-46 0 -96 26.5t-109 61.5t-111 48q-107 27 -175.5 116t-68.5 212q0 140 96 239.5t228 99.5z" />
    <glyph glyph-name="R" unicode="R" horiz-adv-x="621" 
d="M305 659q76 0 139.5 -46.5t63.5 -126.5q0 -52 -41.5 -99.5t-94.5 -65.5q67 -110 161 -235q22 -29 47.5 -43t65.5 -17q3 -5 2 -15.5t-3 -13.5q-98 0 -132 12q-43 15 -65 44q-46 62 -159 237q-8 12 -30 12h-53v-186q0 -58 5 -74q2 -7 28 -11.5t41 -4.5q3 -4 3.5 -14.5
t-3.5 -14.5q-102 5 -117 5t-118 -5q-4 4 -3.5 14.5t3.5 14.5q15 0 41 4.5t28 11.5q5 16 5 74v427q0 58 -5 74q-2 7 -28 11.5t-41 4.5q-3 4 -3.5 14.5t3.5 14.5q103 -5 118 -5q17 0 63.5 1t78.5 1zM415 477q0 69 -37.5 109.5t-116.5 40.5q-46 0 -50 -10q-5 -12 -5 -75v-209
h54q62 0 108.5 40.5t46.5 103.5z" />
    <glyph glyph-name="S" unicode="S" horiz-adv-x="502" 
d="M261 666q22 0 41.5 -2.5t32 -5.5t36 -9.5t41.5 -10.5q7 -44 14 -142q1 -5 -6.5 -8t-14.5 -3t-11 4q-6 47 -44.5 95t-95.5 48q-56 0 -82.5 -34t-26.5 -77q0 -19 7 -36.5t14 -29t25.5 -26.5t27 -21t34 -22t32.5 -20q5 -3 35 -21.5t41 -26t34.5 -27t34 -34.5t20 -37.5
t9.5 -46.5q0 -80 -62.5 -131.5t-146.5 -51.5q-24 0 -51 3.5t-45 7t-45.5 10t-38.5 8.5q-21 103 -21 155q12 12 26 12q9 0 11 -9q3 -15 8.5 -31t19 -39t30.5 -40.5t45.5 -30t62.5 -12.5q51 0 85.5 33t34.5 89q0 20 -6 37t-12.5 28t-23 23.5t-25.5 18.5t-33 19t-33 18
q-29 17 -40.5 24t-38 24.5t-38.5 31t-28 33t-22.5 41.5t-6.5 46q0 77 59 126.5t137 49.5z" />
    <glyph glyph-name="T" unicode="T" horiz-adv-x="626" 
d="M508 661q30 0 60 15q12 6 19 2q12 -105 26 -172q-8 -8 -19 -7q-11 0 -14 5q-11 55 -35.5 88.5t-60.5 33.5h-127v-510q0 -58 5 -74q2 -7 28 -11.5t41 -4.5q3 -4 3.5 -14.5t-3.5 -14.5q-103 5 -117 5q-16 0 -118 -5q-4 4 -3.5 14.5t3.5 14.5q15 0 41 4.5t28 11.5q5 16 5 74
v510h-129q-36 0 -60.5 -33.5t-35.5 -88.5q-3 -5 -14 -5q-11 -1 -19 7q14 67 26 172q8 4 23 -3q28 -14 56 -14h391z" />
    <glyph glyph-name="U" unicode="U" horiz-adv-x="723" 
d="M147 657q15 0 117 5q4 -4 3.5 -14.5t-3.5 -14.5q-15 0 -41 -4.5t-28 -11.5q-5 -16 -5 -74v-247q0 -123 49 -184q46 -58 137 -58q190 0 194 220v271q0 53 -10 69q-4 7 -31 13.5t-41 6.5q-8 11 -2 29q100 -5 111 -5q20 0 36 1t35 2t36 2q8 -13 0 -29q-14 0 -43.5 -6
t-34.5 -14q-10 -17 -10 -68v-270q0 -144 -69 -212t-192 -68q-109 0 -178 66q-74 71 -74 189v292q0 58 -5 74q-2 7 -28 11.5t-41 4.5q-3 4 -3.5 14.5t3.5 14.5q103 -5 118 -5z" />
    <glyph glyph-name="V" unicode="V" horiz-adv-x="638" 
d="M110 657q24 0 124 5q2 -4 1.5 -16t-3.5 -13q-7 0 -19.5 -2t-26.5 -10t-14 -21q0 -20 17 -68q93 -255 149 -403q4 8 30 71t64.5 158t65.5 165q18 46 18 70q0 14 -15 24t-28.5 12.5t-22.5 2.5q-4 2 -4 13.5t4 15.5q74 -4 104 -4q20 0 35 1t32 2t31 2q2 -4 1 -16.5t-3 -12.5
q-11 0 -32 -6.5t-32 -19.5q-19 -22 -50 -101q-84 -211 -194 -474q-14 -34 -38 -34q-2 0 -10 16q-20 52 -83.5 220.5t-106.5 279.5q-24 62 -46 96q-7 11 -29 17t-35 6q-2 0 -2 13.5t2 15.5q115 -5 116 -5z" />
    <glyph glyph-name="W" unicode="W" horiz-adv-x="900" 
d="M118 657q8 0 108 5q2 -4 1.5 -16t-3.5 -13q-7 0 -19.5 -2t-26.5 -10t-14 -21q0 -12 15 -65q13 -46 56.5 -189t59.5 -198q26 87 83 265.5t68 215.5q4 13 15.5 23t20.5 10q5 0 12 -16q132 -414 159 -495q15 55 36 126.5t37 127.5t32 119q12 48 12 70q0 14 -15.5 24
t-29.5 12.5t-23 2.5q-4 1 -4 13t4 16q92 -5 108 -5q20 0 34 1t29.5 2t30.5 2q2 -4 1 -16.5t-3 -12.5q-8 0 -29 -7.5t-34 -18.5q-18 -16 -36 -76q-24 -82 -69 -242t-74 -257q-4 -13 -16 -23.5t-22 -10.5q-6 0 -10 16q-14 40 -36 106.5t-43.5 131t-41 124t-31.5 96.5l-12 36
q-27 -87 -74.5 -235.5t-75.5 -240.5q-4 -13 -16 -23.5t-22 -10.5q-6 0 -10 16q-33 106 -87 281.5t-73 236.5q-1 4 -4 14t-4 13.5t-3.5 11t-4 10.5t-4 8.5t-4.5 9t-5 7.5t-7 7q-22 20 -58 20q-2 0 -2 13.5t2 15.5q115 -5 122 -5z" />
    <glyph glyph-name="X" unicode="X" horiz-adv-x="668" 
d="M159 657q28 0 128 5q2 -4 1.5 -16.5t-3.5 -12.5q-18 0 -39 -7.5t-21 -24.5q0 -12 12 -30l116 -178q17 23 55 73t59 78t32 46q4 6 4 16q0 26 -67 26q-3 1 -3.5 12.5t1.5 16.5q67 -5 103 -5q50 0 110 5q3 -3 2.5 -14t-4.5 -15q-8 0 -20.5 -2.5t-34 -12t-34.5 -25.5
q-96 -115 -184 -232l197 -294q13 -20 41.5 -30t56.5 -10q3 -5 2.5 -16t-1.5 -13q-100 5 -103 5q-6 0 -146 -5q-4 4 -4 16.5t4 12.5q14 0 36 8t22 20q0 4 -5 12l-152 235q-140 -187 -166 -235q-5 -15 -5 -16q0 -24 77 -24q3 -4 3.5 -15.5t-1.5 -13.5q-92 5 -113 5
q-23 0 -123 -5q-2 5 -1 15.5t3 13.5q17 0 53 10.5t54 33.5q34 43 65.5 85t68 92.5t62.5 84.5l-141 216q-31 49 -66 69q-27 16 -56 16q-4 0 -4 12.5t4 16.5q122 -5 125 -5z" />
    <glyph glyph-name="Y" unicode="Y" horiz-adv-x="598" 
d="M261 116v151q0 14 -7 28q-31 56 -73.5 131t-68.5 122q-26 46 -66 69q-27 16 -56 16q-4 0 -4 12.5t4 16.5q122 -5 125 -5q28 0 128 5q2 -4 1.5 -16.5t-3.5 -12.5q-18 0 -39 -7.5t-21 -24.5q0 -11 12 -30l139 -240q88 158 130 259q3 9 3 15t-5.5 11.5t-22 10.5t-42.5 5
q-2 0 -3 13.5t1 15.5q93 -5 100 -5q10 0 110 5q2 -5 1 -17t-3 -12q-66 0 -89 -40q-30 -54 -158 -291q-5 -9 -5 -31l-1 -154q0 -58 5 -74q2 -7 28 -11.5t41 -4.5q3 -4 3.5 -14.5t-3.5 -14.5q-102 5 -117 5t-118 -5q-4 4 -3.5 14.5t3.5 14.5q15 0 41 4.5t28 11.5q5 16 5 74z
" />
    <glyph glyph-name="Z" unicode="Z" horiz-adv-x="633" 
d="M216 626q-101 0 -136 -131q-3 -4 -11 -4q-18 0 -26 8q24 64 33 170q56 -8 82 -8h194q70 0 210 10q4 -1 11 -9t7 -13q-1 -4 -106.5 -157.5t-211.5 -305.5l-105 -151h261q57 0 93 36q25 25 53 98q2 3 14 3q15 0 24 -9q-43 -141 -48 -163h-501q-8 0 -14.5 5t-3.5 9l425 612
h-244z" />
    <glyph glyph-name="bracketleft" unicode="[" horiz-adv-x="259" 
d="M98 718l153 6q3 -3 3 -9q0 -13 -10 -16q-17 -6 -46 -11.5t-50 -8.5l-21 -3v-772q79 -10 117 -23q10 -3 10 -16l-3 -9q-71 6 -153 6q-19 0 -19 23v810q0 23 19 23z" />
    <glyph glyph-name="backslash" unicode="\" horiz-adv-x="401" 
d="M31 750q4 7 20 7q8 0 17 -5t11 -11q290 -752 290 -758q-3 -11 -23 -11q-15 0 -21 14q-253 658 -294 764z" />
    <glyph glyph-name="bracketright" unicode="]" horiz-adv-x="260" 
d="M162 718q19 0 19 -23v-810q0 -23 -19 -23l-153 -6q-3 3 -3 9q0 13 10 16q17 6 46 11.5t50 8.5l21 3v772q-79 10 -117 23q-10 3 -10 16l3 9q71 -6 153 -6z" />
    <glyph glyph-name="asciicircum" unicode="^" horiz-adv-x="390" 
d="M186 645q10 0 16 -13q12 -25 109 -193q0 -7 -5 -11.5t-10 -4.5q-20 21 -47.5 53.5t-44.5 53.5l-18 22q-63 -81 -109 -129q-5 0 -10.5 4.5t-5.5 11.5q14 25 36.5 62t39 66.5t34.5 64.5q7 13 15 13z" />
    <glyph glyph-name="underscore" unicode="_" horiz-adv-x="505" 
d="M14 -33q5 46 15 46h449q4 0 4 -5q0 -8 -10 -45q-1 -3 -2.5 -4.5t-2.5 -1.5h-1h-445q-7 0 -7 10z" />
    <glyph glyph-name="grave" unicode="`" horiz-adv-x="342" 
d="M152 684q19 0 27 -8q24 -30 60.5 -82.5t36.5 -56.5q0 -13 -9 -13q-11 0 -81 55t-70 76q0 29 36 29z" />
    <glyph glyph-name="a" unicode="a" horiz-adv-x="431" 
d="M187 46q24 0 55.5 16t31.5 25v136q-77 -23 -93 -29q-61 -24 -61 -78q0 -28 19.5 -49t47.5 -21zM241 436q43 0 76 -40t33 -97v-206q0 -47 31 -47q13 0 33 13q4 0 4 -8q0 -11 -5 -19q-12 -11 -36.5 -24.5t-38.5 -13.5q-21 0 -38.5 20t-22.5 45q-14 -14 -57 -40.5t-66 -26.5
q-50 0 -83.5 33t-33.5 82q0 29 15.5 51t34.5 29q170 61 175 63q8 3 10 7.5t2 17.5v27q0 35 -25.5 65.5t-60.5 30.5q-25 0 -37 -15.5t-18 -46.5q-8 -48 -47 -48q-15 0 -24.5 13t-9.5 29q0 15 7 24q31 29 82 55.5t100 26.5z" />
    <glyph glyph-name="b" unicode="b" horiz-adv-x="498" 
d="M211 -7q-21 0 -74 15q-46 13 -65 6q-3 0 -8 9t-5 13q12 27 12 74v448q0 40 -5 52q-8 18 -61 18q-1 0 -1.5 6.5t0 13t2.5 6.5q69 7 142 40q4 0 7.5 -5.5t3.5 -10.5q-11 -32 -11 -87v-197q0 -11 3 -11q1 0 3 1q20 15 58 34.5t63 19.5q84 0 133.5 -64.5t49.5 -140.5
q0 -99 -71 -169.5t-176 -70.5zM227 379q-18 0 -42 -9.5t-32 -17.5q-5 -5 -5 -11v-243q0 -31 29 -51t64 -20q53 0 93 52.5t40 114.5q0 86 -40 135.5t-107 49.5z" />
    <glyph glyph-name="c" unicode="c" horiz-adv-x="423" 
d="M382 386q0 -25 -11.5 -36.5t-26.5 -11.5q-10 0 -20 6.5t-21.5 17t-16.5 13.5q-28 19 -57 19q-43 0 -77.5 -46.5t-34.5 -120.5q0 -84 45 -126.5t117 -42.5q62 0 106 51q1 0 2.5 -1.5t3.5 -5t2 -7.5q0 -8 -6 -18q-19 -31 -56.5 -58t-89.5 -27q-88 0 -145 60.5t-57 141.5
q0 103 79 173.5t164 70.5q54 0 90 -24q10 -10 10 -28z" />
    <glyph glyph-name="d" unicode="d" horiz-adv-x="515" 
d="M277 438q44 0 69 -10q5 0 5 21v109q0 40 -5 52q-8 18 -61 18q-1 0 -1.5 6.5t0 13t2.5 6.5q69 7 142 40q4 0 7.5 -5.5t3.5 -10.5q-11 -32 -11 -87v-428q0 -82 7 -98q3 -6 12.5 -10t19 -5.5t18.5 -1.5l9 -1q3 -1 3 -12q0 -3 -2.5 -9t-5.5 -6q-15 -1 -33.5 -4t-34.5 -7
t-30.5 -8t-22.5 -7l-9 -2q-8 0 -8 19v35q-1 7 -3 6q-15 -16 -58 -38t-75 -22q-70 0 -123 62t-53 152q0 62 41 117.5t96 85t101 29.5zM245 396q-55 0 -88.5 -49.5t-33.5 -116.5q0 -74 37.5 -125t103.5 -51q32 0 59.5 13.5t27.5 26.5v253q0 18 -32.5 33.5t-73.5 15.5z" />
    <glyph glyph-name="e" unicode="e" horiz-adv-x="430" 
d="M116 285h163q23 0 23 23q0 30 -21 62t-61 32q-37 0 -63 -29t-35 -58.5t-6 -29.5zM111 248v-7q0 -88 47 -136.5t116 -48.5q36 0 65 17.5t45 35.5q1 0 2.5 -1.5t3.5 -5t2 -7.5q0 -8 -6 -18q-19 -31 -56.5 -58t-89.5 -27q-88 0 -144 59.5t-56 148.5q0 96 63.5 167t133.5 71
q42 0 73.5 -15t47 -38.5t22.5 -44t7 -38.5q0 -46 -24 -47q-109 -7 -252 -7z" />
    <glyph glyph-name="f" unicode="f" horiz-adv-x="308" 
d="M269 697q21 0 28 -2t19 -10q10 -10 10 -28q0 -40 -40 -40q-9 0 -29 11q-17 9 -29 9q-24 0 -40 -24.5t-15 -69.5v-111h118q5 0 5 -11q0 -16 -14 -30h-109v-275q0 -58 5 -74q2 -7 27 -11.5t40 -4.5q3 -4 3.5 -14.5t-3.5 -14.5q-103 5 -111 5q-4 0 -106 -5q-4 4 -3.5 14.5
t3.5 14.5q14 0 37.5 4.5t25.5 11.5q5 16 5 74v275h-58q-5 0 -5 9q0 6 26 32h37v4v2q0 101 60.5 180t112.5 79z" />
    <glyph glyph-name="g" unicode="g" horiz-adv-x="466" 
d="M215 409q-40 0 -64 -35.5t-24 -81.5q0 -49 26.5 -87t69.5 -38q39 0 62 34.5t23 79.5q0 51 -24.5 89.5t-68.5 38.5zM255 -4q-84 0 -93 -5q-60 -34 -60 -67q0 -50 36 -81t98 -31q53 0 102 33.5t49 73.5q0 27 -34 52t-98 25zM301 67q60 0 107.5 -31.5t47.5 -73.5
q0 -65 -80 -126.5t-180 -62.5q-67 -1 -120 31.5t-53 90.5q0 29 34 57t72 47q-31 10 -56.5 34.5t-25.5 58.5q11 14 40 36t46 32q-37 20 -60 55.5t-23 72.5q0 60 49 105.5t120 45.5q34 0 91 -22q13 -5 23 -7l107 15q10 -3 10 -10t-8 -22t-15 -19l-66 4q-4 0 -4 -3
q7 -7 17.5 -34t10.5 -57q0 -55 -50 -101t-119 -46q-34 0 -56 9q-37 -21 -37 -44q0 -10 16.5 -22.5t43.5 -12.5h118z" />
    <glyph glyph-name="h" unicode="h" horiz-adv-x="516" 
d="M307 438q77 0 103 -48t26 -164v-110q0 -58 5 -74q2 -7 25.5 -11.5t37.5 -4.5q3 -4 3.5 -14.5t-3.5 -14.5q-102 5 -107 5q-3 0 -106 -5q-4 4 -3.5 14.5t3.5 14.5q14 0 37.5 4.5t25.5 11.5q5 16 5 74v100q0 94 -20 129t-78 35q-25 0 -60 -23t-35 -32v-209q0 -58 5 -74
q2 -7 25.5 -11.5t37.5 -4.5q3 -4 3.5 -14.5t-3.5 -14.5q-102 5 -107 5q-3 0 -106 -5q-4 4 -3.5 14.5t3.5 14.5q14 0 37.5 4.5t25.5 11.5q5 16 5 74v442q0 40 -5 52q-8 18 -61 18q-1 0 -1.5 6.5t0 13t2.5 6.5q69 7 142 40q4 0 7.5 -5.5t3.5 -10.5q-11 -32 -11 -87v-226
q0 -2 3 -2q1 0 3 2q20 22 61.5 47.5t73.5 25.5z" />
    <glyph glyph-name="i" unicode="i" horiz-adv-x="270" 
d="M181 325v-209q0 -58 5 -74q2 -7 25.5 -11.5t37.5 -4.5q3 -4 3.5 -14.5t-3.5 -14.5q-103 5 -107 5t-106 -5q-4 4 -3.5 14.5t3.5 14.5q14 0 37.5 4.5t25.5 11.5q5 16 5 74v186q0 40 -5 52q-7 18 -65 18q-2 2 -2.5 12t2.5 14q85 12 143 42q4 0 7.5 -6t3.5 -10q-7 -49 -7 -66
v-33zM85 593q0 21 14.5 35.5t35.5 14.5t35.5 -14.5t14.5 -35.5t-14.5 -35.5t-35.5 -14.5t-35.5 14.5t-14.5 35.5z" />
    <glyph glyph-name="j" unicode="j" horiz-adv-x="239" 
d="M92 45v257q0 40 -5 52q-7 18 -65 18q-2 2 -2.5 12t2.5 14q85 12 143 42q4 0 7.5 -6t3.5 -10q-7 -49 -7 -66v-34v-256q0 -68 -17 -123t-45 -89t-55 -54.5t-56 -32.5q-9 6 -13 15q-2 5 0 7q35 25 55 47.5t37 75.5t17 131zM66 593q0 21 14.5 35.5t35.5 14.5t35.5 -14.5
t14.5 -35.5t-14.5 -35.5t-35.5 -14.5t-35.5 14.5t-14.5 35.5z" />
    <glyph glyph-name="k" unicode="k" horiz-adv-x="518" 
d="M166 116q0 -58 5 -74q2 -7 25.5 -11.5t37.5 -4.5q3 -4 3.5 -14.5t-3.5 -14.5q-102 5 -107 5q-3 0 -106 -5q-4 4 -3.5 14.5t3.5 14.5q14 0 37.5 4.5t25.5 11.5q5 16 5 74v442q0 40 -5 52q-8 18 -61 18q-1 0 -1.5 6.5t0 13t2.5 6.5q69 7 142 40q4 0 7.5 -5.5t3.5 -10.5
q-11 -32 -11 -87v-356q18 6 82 61q13 11 29.5 24.5t26 21.5l19 16t13.5 13t4 8q0 12 -48 17q-4 5 -3 16t5 13q48 -5 96 -5q51 0 88 5q3 -5 2.5 -15.5t-2.5 -13.5q-13 0 -38 -6.5t-39 -16.5q-111 -80 -162 -124q28 -31 71.5 -79.5t70.5 -78t38 -38.5q36 -29 92 -27
q2 -3 2.5 -11.5t-1.5 -12.5q-14 -6 -65 -6q-40 0 -74.5 14.5t-48.5 29.5q-86 93 -143 155l-15 9v-88z" />
    <glyph glyph-name="l" unicode="l" horiz-adv-x="255" 
d="M89 558q0 40 -5 52q-8 18 -61 18q-1 0 -1.5 6.5t0 13t2.5 6.5q69 7 142 40q4 0 7.5 -5.5t3.5 -10.5q-11 -32 -11 -87v-475q0 -58 5 -74q2 -7 25.5 -11.5t37.5 -4.5q3 -4 3.5 -14.5t-3.5 -14.5q-102 5 -107 5q-3 0 -106 -5q-4 4 -3.5 14.5t3.5 14.5q14 0 37.5 4.5
t25.5 11.5q5 16 5 74v442z" />
    <glyph glyph-name="m" unicode="m" horiz-adv-x="790" 
d="M319 438q92 0 114 -83q91 83 147 83q77 0 103 -48t26 -164v-110q0 -58 5 -74q2 -7 25.5 -11.5t37.5 -4.5q3 -4 3.5 -14.5t-3.5 -14.5q-103 5 -107 5t-106 -5q-4 4 -3.5 14.5t3.5 14.5q14 0 37.5 4.5t25.5 11.5q5 16 5 74v107q0 82 -18.5 119.5t-75.5 37.5
q-22 0 -46.5 -13t-38 -26.5t-13.5 -17.5v-6q1 -6 1 -7q4 -25 4 -71v-123q0 -58 5 -74q2 -7 25.5 -11.5t37.5 -4.5q3 -4 3.5 -14.5t-3.5 -14.5q-103 5 -107 5t-106 -5q-4 4 -3.5 14.5t3.5 14.5q14 0 37.5 4.5t25.5 11.5q5 16 5 74v102q0 92 -20 127t-74 35q-30 0 -61.5 -21.5
t-31.5 -33.5v-209q0 -58 5 -74q2 -7 25.5 -11.5t37.5 -4.5q3 -4 3.5 -14.5t-3.5 -14.5q-103 5 -107 5t-106 -5q-4 4 -3.5 14.5t3.5 14.5q14 0 37.5 4.5t25.5 11.5q5 16 5 74v182q0 44 -5 56q-7 18 -65 18q-2 2 -2.5 12t2.5 14q85 12 143 42q4 0 7.5 -6t3.5 -10
q-6 -42 -6 -52q0 -4 2 -4q1 0 3 2q81 68 132 68z" />
    <glyph glyph-name="n" unicode="n" horiz-adv-x="532" 
d="M322 438q77 0 103 -48t26 -164v-110q0 -58 5 -74q2 -7 25.5 -11.5t37.5 -4.5q3 -4 3.5 -14.5t-3.5 -14.5q-103 5 -107 5t-106 -5q-4 4 -3.5 14.5t3.5 14.5q14 0 37.5 4.5t25.5 11.5q5 16 5 74v100q0 94 -20 129t-78 35q-25 0 -60 -23t-35 -32v-209q0 -58 5 -74
q2 -7 25.5 -11.5t37.5 -4.5q3 -4 3.5 -14.5t-3.5 -14.5q-103 5 -107 5t-106 -5q-4 4 -3.5 14.5t3.5 14.5q14 0 37.5 4.5t25.5 11.5q5 16 5 74v182q0 44 -5 56q-7 18 -65 18q-2 2 -2.5 12t2.5 14q85 12 143 42q4 0 7.5 -6t3.5 -10q-6 -42 -6 -57q0 -4 2 -4q1 0 3 2
q20 22 61.5 47.5t73.5 25.5z" />
    <glyph glyph-name="o" unicode="o" horiz-adv-x="509" 
d="M243 406q-59 0 -87.5 -50t-28.5 -123q0 -80 38 -143.5t101 -63.5q59 0 87.5 50t28.5 122q0 79 -38 143.5t-101 64.5zM254 439q97 0 155.5 -61.5t58.5 -156.5q0 -97 -60.5 -162.5t-151.5 -65.5q-97 0 -156 62t-59 158q0 97 61 161.5t152 64.5z" />
    <glyph glyph-name="p" unicode="p" horiz-adv-x="510" 
d="M290 438q85 0 133 -65.5t48 -140.5q0 -95 -73.5 -167.5t-160.5 -72.5q-35 0 -70 11q-4 -5 -4 -13v-97q0 -58 5 -74q2 -7 25.5 -11.5t37.5 -4.5q3 -4 3.5 -14.5t-3.5 -14.5q-103 5 -107 5t-106 -5q-4 4 -3.5 14.5t3.5 14.5q14 0 37.5 4.5t25.5 11.5q5 16 5 74v409
q0 40 -5 52q-7 18 -65 18q-2 2 -2.5 12t2.5 14q85 12 143 42q4 0 7.5 -6t3.5 -10q0 -1 -3.5 -18.5t-3.5 -22.5q0 -4 2 -4q1 0 3 2q24 20 59.5 38.5t62.5 18.5zM247 379q-29 0 -56.5 -14t-27.5 -25v-240q0 -35 30.5 -54t62.5 -19q59 0 95 51.5t36 116.5q0 86 -40 135t-100 49
z" />
    <glyph glyph-name="q" unicode="q" horiz-adv-x="497" 
d="M256 402q-44 0 -75.5 -30t-44.5 -66.5t-13 -70.5q0 -86 41 -134t105 -48q28 0 54 14t26 26v239q0 31 -29 50.5t-64 19.5zM286 438q15 0 58.5 -12.5t60.5 -12.5q11 0 20 3q4 0 8.5 -8.5t4.5 -13.5q-12 -27 -12 -74v-428q0 -58 5 -74q2 -7 25.5 -11.5t37.5 -4.5
q3 -4 3.5 -14.5t-3.5 -14.5q-102 5 -107 5q-3 0 -106 -5q-4 4 -3.5 14.5t3.5 14.5q14 0 37.5 4.5t25.5 11.5q5 16 5 74v148q0 5 -2 9t-5 1q-18 -15 -57.5 -36t-67.5 -21q-80 0 -129 65.5t-49 140.5q0 97 80.5 168t166.5 71z" />
    <glyph glyph-name="r" unicode="r" horiz-adv-x="383" 
d="M303 437q19 0 36.5 -8.5t24.5 -20.5q4 -12 4 -27q0 -25 -11.5 -38.5t-21.5 -13.5q-6 0 -12 2.5t-15 9t-10 7.5q-18 12 -37 12q-29 0 -54.5 -34t-25.5 -56v-154q0 -58 5 -74q2 -7 35.5 -11.5t50.5 -4.5q3 -4 3.5 -14.5t-3.5 -14.5q-102 5 -124 5q-10 0 -112 -5
q-4 4 -3.5 14.5t3.5 14.5q14 0 37.5 4.5t25.5 11.5q5 16 5 74v186q0 40 -5 52q-7 18 -65 18q-2 2 -2.5 12t2.5 14q85 12 143 42q4 0 7.5 -6t3.5 -10q-7 -49 -7 -92q0 -6 4 -2q17 37 52 72t66 35z" />
    <glyph glyph-name="s" unicode="s" horiz-adv-x="369" 
d="M195 437q22 0 55.5 -5.5t46.5 -7.5q10 -45 12 -110q0 -5 -10 -5q-11 0 -17 5q-9 34 -32 63t-52 29q-35 0 -53 -17.5t-18 -45.5q0 -13 4 -23.5t8 -17.5t15 -15.5t17 -12.5t21.5 -12.5t21.5 -12.5q2 -1 23 -13.5t27.5 -16.5t23 -17t22.5 -22t12.5 -23.5t6.5 -29.5
q0 -59 -46 -98.5t-108 -39.5q-21 0 -38.5 2.5t-41.5 8.5t-37 8q-6 16 -11.5 50t-5.5 54q8 6 18 6q6 0 9 -2q10 -35 40.5 -65t67.5 -30q32 0 52 19t20 53q0 18 -6 32t-21 26t-26.5 19t-34.5 19.5t-34 18.5q-76 44 -76 107q0 54 43.5 88t101.5 34z" />
    <glyph glyph-name="t" unicode="t" horiz-adv-x="311" 
d="M160 432h129q5 0 5 -11q0 -16 -14 -30h-120v-262q0 -82 66 -82q33 0 65 23q3 -2 3 -7q0 -11 -4 -15q-48 -55 -103 -55q-104 0 -104 108v290h-58q-5 0 -5 9q0 6 26 32h37v63q8 9 23 25.5t26 28.5t12 13q2 2 6 3t7 0.5t3 -2.5v-131z" />
    <glyph glyph-name="u" unicode="u" horiz-adv-x="515" 
d="M350 320q0 39 -8 54q-11 20 -56 20q-2 2 -2.5 12t2.5 14q82 3 137 20q3 0 7 -9.5t4 -14.5q-7 -14 -7 -65v-46v-164q0 -43 7 -76q2 -7 11 -11t19 -5t20 -1l9 -1q3 -1 3 -11q0 -3 -2.5 -9.5t-5.5 -6.5q-15 -1 -33.5 -4t-34.5 -7t-30.5 -8t-23.5 -7l-8 -2q-8 0 -8 16v46
l-2 5q-23 -25 -64.5 -45.5t-77.5 -20.5q-125 0 -125 199v128q0 39 -8 54q-11 20 -56 20q-2 2 -2.5 12t2.5 14q82 3 137 20q3 0 7 -8t4 -12q-7 -14 -7 -69v-43v-104q0 -80 24 -117.5t76 -37.5q32 0 62 18.5t30 36.5v216z" />
    <glyph glyph-name="v" unicode="v" horiz-adv-x="473" 
d="M102 425l100 5q2 -4 0.5 -16.5t-4.5 -12.5q-49 0 -49 -17q0 -2 1 -4l110 -270q51 133 89 227q6 14 6 32q0 15 -16 23.5t-42 8.5q-4 0 -4 12.5t4 16.5q77 -5 81 -5q17 0 30.5 1t30.5 2t32 2q3 -4 1.5 -16.5t-4.5 -12.5q-13 0 -34 -8t-29 -26q-107 -255 -150 -361
q-2 -6 -11.5 -11.5t-14.5 -5.5q-7 0 -9 4q-23 55 -56 137t-58 141.5t-49 109.5q-10 20 -55 20q-6 15 0 29q15 -1 33.5 -2t33.5 -2t33 -1z" />
    <glyph glyph-name="w" unicode="w" horiz-adv-x="721" 
d="M101 425l100 5q2 -4 1.5 -16t-3.5 -13q-50 0 -50 -23l5 -15q10 -28 103 -246q81 205 81 210q0 20 -24 55q-13 19 -44 19q-4 2 -4 13.5t4 15.5q12 -1 39.5 -3t51.5 -2q4 0 104 5q2 -5 2 -15.5t-3 -13.5q-50 0 -50 -32q0 -3 3 -11q4 -13 91 -238q72 178 88 224q5 14 5 24
t-5.5 17t-17 10t-17.5 4t-20 2q-3 2 -3.5 13.5t3.5 15.5q14 -1 39 -3t48 -2q17 0 30.5 1t30 2t31.5 2q1 -2 1 -14t-4 -15q-14 0 -37 -8.5t-31 -27.5q-88 -222 -145 -359q-2 -6 -9 -11.5t-12 -5.5q-10 0 -12 4l-111 289l-108 -274q-1 -4 -9.5 -11.5t-15.5 -7.5t-9 4
q-84 209 -162 386q-9 22 -54 22q-2 5 -2 15t2 14q15 -1 33 -2t33 -2t33 -1z" />
    <glyph glyph-name="x" unicode="x" horiz-adv-x="476" 
d="M123 425q46 0 101 5q5 -20 -2 -29q-40 0 -40 -17q0 -4 5 -12l66 -105q8 13 28.5 41.5t31.5 46.5t11 27q0 7 -8 11.5t-17 5.5t-20 1l-11 1q-2 1 -2 13.5t2 15.5q15 -1 33.5 -2t34 -2t33.5 -1q45 0 80 5q1 -4 0.5 -16.5t-1.5 -12.5q-63 -3 -77 -22q-13 -18 -38.5 -53.5
t-41.5 -58t-20 -27.5l120 -178q25 -36 77 -36q1 0 1.5 -6.5t-0.5 -13.5t-2 -9q-93 5 -94 5q-3 0 -111 -5q-2 5 -1.5 17t2.5 12q42 3 42 18q0 2 -2 6q-52 85 -79 125q-5 -8 -30.5 -45.5t-41.5 -62.5q-6 -10 -6 -19q0 -18 50 -22h5q1 0 1.5 -6t0 -13.5t-2.5 -9.5
q-14 1 -31.5 2t-32 2t-31.5 1t-31 -1t-32 -2t-31 -2q-2 6 -1 15.5t3 13.5q2 0 12 1.5t13.5 2t12.5 2.5t13 3.5l12 4.5t12.5 6.5t10 8t9.5 10.5q93 134 98 141l-116 173q-14 22 -67 22q-1 0 -1.5 6t0.5 13t2 10q55 -5 99 -5z" />
    <glyph glyph-name="y" unicode="y" horiz-adv-x="469" 
d="M102 425q58 0 100 5q2 -4 0.5 -16.5t-4.5 -12.5q-50 0 -50 -17l2 -4l106 -270q50 133 88 227q6 14 6 32q0 15 -16 23.5t-42 8.5q-4 0 -4 12.5t4 16.5q38 -5 90 -5q34 0 84 5q3 -4 2 -16.5t-4 -12.5q-13 0 -34.5 -8t-29.5 -26q-107 -255 -150 -361q-6 -14 -21.5 -56.5
t-28.5 -70t-29 -51.5q-38 -56 -87 -56q-44 0 -44 43q0 15 12 29q40 0 63 10t51 47q11 14 28 52t20 49q-94 241 -158 379q-10 20 -54 20q-2 0 -2 13.5t2 15.5q48 -5 100 -5z" />
    <glyph glyph-name="z" unicode="z" horiz-adv-x="447" 
d="M148 431h128q56 0 122 8q3 -5 3 -24q-265 -377 -265 -380h140q42 0 71 27t39 63q1 6 7 6q16 0 26 -12q-30 -73 -45 -119h-325q-5 2 -10 8t-5 12t1 7l257 369l-140 1q-16 0 -28.5 -5t-21 -15.5t-12.5 -16.5t-9 -20l-5 -13q-4 -9 -22 -9q-11 0 -11 3q12 44 16 118
q53 -8 89 -8z" />
    <glyph glyph-name="braceleft" unicode="{" horiz-adv-x="222" 
d="M104 383q0 23 -23 75q-23 50 -23 83q0 66 34 115t73 64q6 0 11 -6t5 -13q-25 -12 -52 -45t-27 -67q0 -33 25 -91q23 -48 23 -93q0 -44 -24 -75.5t-49 -41.5q25 -10 49 -41.5t24 -75.5q0 -45 -23 -93q-25 -58 -25 -91q0 -34 27 -67t52 -45q0 -7 -5 -13t-11 -6
q-39 15 -73 64t-34 115q0 33 23 83q23 52 23 75q0 65 -76 84q-2 2 -2 11t2 11q76 19 76 84z" />
    <glyph glyph-name="bar" unicode="|" horiz-adv-x="205" 
d="M128 -106q0 -5 -20.5 -11t-25.5 -6t-5 8v872q-1 6 5 8q24 7 37 7q4 0 6 -1.5t2 -2.5v-2z" />
    <glyph glyph-name="braceright" unicode="}" horiz-adv-x="223" 
d="M57 720q39 -15 73 -64t34 -115q0 -33 -23 -83q-23 -52 -23 -75q0 -65 76 -84q2 -4 2 -11q0 -8 -2 -11q-76 -19 -76 -84q0 -23 23 -75q23 -50 23 -83q0 -66 -34 -115t-73 -64q-6 0 -11 6t-5 13q25 12 52 45t27 67q0 33 -25 91q-23 48 -23 93q0 44 24 75.5t49 41.5
q-25 10 -49 41.5t-24 75.5q0 45 23 93q25 58 25 91q0 34 -27 67t-52 45q0 7 5 13t11 6z" />
    <glyph glyph-name="asciitilde" unicode="~" horiz-adv-x="570" 
d="M271 277q-70 26 -115 26q-43 0 -91 -44q-9 5 -9 17q0 27 44.5 52.5t85.5 25.5q44 0 119 -27q70 -26 117 -26q7 0 14 1t12 2.5t12 5t10.5 5t11 7t9.5 7t10.5 8t10.5 8.5q9 -5 9 -17q0 -26 -41.5 -52t-86.5 -26q-51 0 -122 27z" />
    <glyph glyph-name="uni00A0" unicode="&#xa0;" horiz-adv-x="217" 
 />
    <glyph glyph-name="exclamdown" unicode="&#xa1;" horiz-adv-x="215" 
d="M53 374q0 23 16 39.5t38 16.5q23 0 39.5 -17t16.5 -39t-16.5 -38t-39.5 -16t-38.5 16t-15.5 38zM103 -223q-21 0 -32.5 18t-11.5 40q0 7 34 412q6 12 16 13q11 -4 14 -11q30 -345 30 -414q0 -23 -13.5 -40.5t-36.5 -17.5z" />
    <glyph glyph-name="cent" unicode="&#xa2;" horiz-adv-x="446" 
d="M272 472q28 0 28 -6l-83 -511q-28 0 -28 7zM388 386q0 -25 -11.5 -36.5t-26.5 -11.5q-10 0 -20 6.5t-21.5 17t-16.5 13.5q-28 19 -57 19q-43 0 -77.5 -46.5t-34.5 -120.5q0 -84 45 -126.5t117 -42.5q62 0 106 51q1 0 2.5 -1.5t3.5 -5t2 -7.5q0 -8 -6 -18
q-19 -31 -56.5 -58t-89.5 -27q-88 0 -145 60.5t-57 141.5q0 103 79 173.5t164 70.5q54 0 90 -24q10 -10 10 -28z" />
    <glyph glyph-name="sterling" unicode="&#xa3;" horiz-adv-x="477" 
d="M314 636q36 0 72 -24q10 -10 10 -28q0 -25 -11.5 -36.5t-26.5 -11.5q-8 0 -16 4t-13 8.5t-13 13t-11 11.5q-18 17 -35 17q-68 0 -68 -131q0 -38 13 -117h166q8 -10 3 -20.5t-12 -15.5h-151q2 -19 2 -34q0 -49 -30 -99t-59 -76q16 8 35 8q23 0 66 -23.5t92 -23.5
q25 0 48.5 18t34 33t17.5 30q1 0 4 -2t6 -6t3 -8q0 -6 -3 -15q-12 -35 -53.5 -75.5t-92.5 -40.5q-47 0 -100 28.5t-75 28.5q-14 0 -23.5 -9.5t-18 -25t-14.5 -20.5q-6 0 -11 7.5t-5 14.5q0 28 50 78q22 22 38 61.5t16 75.5q0 10 -10 75h-83q-4 4 6 20t17 16h54q-7 43 -7 57
q-3 98 56 167.5t133 69.5z" />
    <glyph glyph-name="currency" unicode="&#xa4;" horiz-adv-x="574" 
d="M294 152q44 0 72.5 42t28.5 100q0 69 -35.5 119t-82.5 50q-44 0 -73 -43t-29 -101q0 -68 35.5 -117.5t83.5 -49.5zM398 455l59 55q4 4 12.5 -2t17 -18t11.5 -24l-60 -56q29 -48 29 -103q0 -59 -33 -108l54 -58q4 -4 -2 -12.5t-18 -17t-24 -11.5l-52 55q-48 -35 -106 -35
q-64 0 -114 40l-53 -50q-4 -4 -12.5 2t-17 18t-11.5 24l54 51q-30 47 -30 102q0 65 38 116l-52 56q-4 4 2 12.5t18 17t24 11.5l52 -55q45 31 102 31q63 0 112 -41z" />
    <glyph glyph-name="yen" unicode="&#xa5;" horiz-adv-x="672" 
d="M301 218h-98q-4 4 4.5 20.5t15.5 16.5h77q-2 10 -6 18q-31 56 -73.5 131t-68.5 122q-26 46 -66 69q-27 16 -56 16q-4 0 -4 12.5t4 16.5q122 -5 125 -5q28 0 128 5q2 -4 1.5 -16.5t-3.5 -12.5q-18 0 -39 -7.5t-21 -24.5q0 -11 12 -30l139 -238q97 175 132 259q3 9 3 15
q0 4 -6.5 9.5t-25 10.5t-43.5 5q-2 0 -3 13.5t1 15.5q92 -5 103 -5q10 0 110 5q2 -5 1 -17t-3 -12q-66 0 -89 -40q-30 -54 -158 -291q-5 -9 -5 -24h96q8 -10 2.5 -21t-12.5 -16h-86v-43h96q8 -10 2.5 -21t-12.5 -16h-87v-22q0 -58 5 -74q2 -7 28 -11.5t41 -4.5
q3 -4 3.5 -14.5t-3.5 -14.5q-102 5 -117 5t-118 -5q-4 4 -3.5 14.5t3.5 14.5q15 0 41 4.5t28 11.5q5 16 5 74v22h-98q-4 4 4.5 20.5t15.5 16.5h78v43z" />
    <glyph glyph-name="brokenbar" unicode="&#xa6;" horiz-adv-x="214" 
d="M133 400q0 -5 -20.5 -10t-25.5 -5t-5 8v364q-1 6 5 8q17 5 38 5q4 0 6 -1.5t2 -2.5v-2v-364zM82 -115v364q-1 6 5 8q17 5 38 5q4 0 6 -1.5t2 -2.5v-2v-364q0 -5 -20.5 -10t-25.5 -5t-5 8z" />
    <glyph glyph-name="section" unicode="&#xa7;" horiz-adv-x="441" 
d="M138 -78q-22 0 -41 8q-6 12 -6 26q0 11 12 23.5t24 12.5t36 -12q16 -8 32 -8q28 0 54.5 14t26.5 40q0 54 -122 166q-116 107 -116 204q0 44 39.5 105t79.5 97q-30 -32 -36 -74q-11 -18 -15.5 -27t-9 -24.5t-4.5 -32.5q0 -96 112 -200q2 -2 18 -16.5t21 -19t19 -18.5
t19.5 -21.5t15.5 -21.5t14 -24.5t7.5 -24t3.5 -26.5q0 -8 -1 -17q-7 -11 -11 -18q-24 -19 -34 -36q-1 -2 -6 -32q7 4 15 12q-53 -55 -147 -55zM285 -23q40 36 79.5 97t39.5 105q0 97 -116 204q-122 112 -122 166q0 26 26.5 40t54.5 14q16 0 32 -8q24 -12 36 -12t24 12.5
t12 23.5q0 14 -6 26q-19 8 -41 8q-94 0 -147 -55q8 8 15 12q-5 -30 -6 -32q-4 -8 -12.5 -17t-15.5 -14l-6 -5q-4 -7 -11 -18q-1 -9 -1 -17q0 -13 3.5 -26.5t7.5 -24t14 -24.5t15.5 -21.5t19.5 -21.5t19 -18.5t21 -19t18 -16.5q112 -104 112 -200q0 -17 -4.5 -32.5t-9 -24.5
t-15.5 -27q-6 -42 -36 -74z" />
    <glyph glyph-name="dieresis" unicode="&#xa8;" horiz-adv-x="377" 
d="M281 563q19 0 32.5 -14t13.5 -33t-14 -32t-33 -13t-33 13.5t-14 32.5t14.5 32.5t33.5 13.5zM98 563q19 0 32.5 -14t13.5 -33t-14 -32t-33 -13t-33 13.5t-14 32.5t14.5 32.5t33.5 13.5z" />
    <glyph glyph-name="copyright" unicode="&#xa9;" horiz-adv-x="659" 
d="M456 276q0 -5 -8 -32.5t-12 -29.5q-47 -19 -106 -19q-61 0 -102 41t-41 100q0 61 40 104t101 43q62 0 112 -19q16 -57 16 -61q0 -9 -16 -9q-3 0 -7 2q-2 10 -9 20t-29.5 21.5t-54.5 11.5q-40 0 -68 -31t-28 -73q0 -56 33 -87t72 -31q51 0 72 19q5 5 8.5 13t4.5 14t2 6
q18 0 20 -3zM89 342q0 -100 70.5 -171t170.5 -71t171 71t71 171t-71 171t-171 71t-170.5 -71t-70.5 -171zM56 342q0 113 80 193t193 80t193.5 -80t80.5 -193t-80.5 -193t-193.5 -80t-193 80t-80 193z" />
    <glyph glyph-name="ordfeminine" unicode="&#xaa;" horiz-adv-x="345" 
d="M151 286q16 0 38 14t22 20v85q-6 -2 -21 -6.5t-26.5 -8t-16.5 -5.5q-43 -17 -43 -50q0 -20 14 -34.5t33 -14.5zM188 556q30 0 53 -27.5t23 -66.5v-143q0 -33 21 -33q5 0 23 9q3 0 3 -5q0 -7 -4 -13q-7 -7 -24.5 -17t-27.5 -10q-14 0 -26.5 14t-15.5 31q-10 -10 -39.5 -28
t-45.5 -18q-34 0 -57.5 23t-23.5 57q0 19 11 34.5t24 20.5q115 41 121 44q8 3 8 17v19q0 25 -16 43.5t-43 18.5q-18 0 -26.5 -9t-12.5 -30q-5 -33 -32 -33q-11 0 -17.5 9t-6.5 20q0 12 5 17q21 20 56.5 38t69.5 18z" />
    <glyph glyph-name="guillemotleft" unicode="&#xab;" horiz-adv-x="482" 
d="M207 246q0 7 5 18q126 76 209 159q18 -6 22 -12q-4 -15 -57 -72.5t-91 -91.5q38 -34 91 -91.5t57 -72.5q-4 -6 -22 -12q-83 83 -209 159q-5 8 -5 16zM27 246q0 7 5 18q126 76 209 159q18 -6 22 -12q-4 -15 -57 -72.5t-91 -91.5q38 -34 91 -91.5t57 -72.5q-4 -6 -22 -12
q-83 83 -209 159q-5 8 -5 16z" />
    <glyph glyph-name="logicalnot" unicode="&#xac;" horiz-adv-x="587" 
d="M516 420v-251q-1 -1 -8 -4.5t-18.5 -7t-20.5 -3.5q-10 1 -13 7v203h-405q-6 0 -6 10q5 46 15 46h456z" />
    <glyph glyph-name="registered" unicode="&#xae;" horiz-adv-x="659" 
d="M323 553q32 0 61 -20.5t29 -53.5q0 -22 -16 -41t-39 -28q27 -45 72 -100q16 -20 48 -23q1 -2 0.5 -4.5t-0.5 -6.5l-1 -3q-55 0 -68 5q-18 6 -27 18q-23 31 -70 102q-4 5 -13 5h-15v-78q0 -24 2 -31q1 -7 29 -7q1 -1 1 -7t-1 -7q-34 2 -54 2q-21 0 -55 -2q-2 1 -2 7t2 7
q28 0 29 7q2 7 2 31v177q0 24 -2 31q-1 7 -29 7q-2 2 -2 7t2 7q34 -2 57 -2q7 0 26.5 0.5t33.5 0.5zM365 469q0 67 -58 67q-19 0 -21 -4q-2 -5 -2 -32v-79h18q63 0 63 48zM89 407q0 -100 70.5 -171t170.5 -71t171 71t71 171t-71 170.5t-171 70.5t-170.5 -70.5t-70.5 -170.5z
M56 407q0 113 80 193t193 80t193.5 -80t80.5 -193t-80.5 -193.5t-193.5 -80.5t-193 80.5t-80 193.5z" />
    <glyph glyph-name="macron" unicode="&#xaf;" horiz-adv-x="338" 
d="M279 498h-224q-7 3 -4 20t10 22h224q5 -4 3 -19t-9 -23z" />
    <glyph glyph-name="degree" unicode="&#xb0;" horiz-adv-x="274" 
d="M75 536q0 -26 18.5 -44t43.5 -18t43 18t18 44t-18 43.5t-43 17.5q-26 0 -44 -18t-18 -43zM38 536q0 40 29 69t70 29t69.5 -29t28.5 -69q0 -41 -29 -70t-69 -29q-41 0 -70 29.5t-29 69.5z" />
    <glyph glyph-name="plusminus" unicode="&#xb1;" horiz-adv-x="548" 
d="M49 62h456q9 0 9 -12q0 -28 -16 -44h-458q-6 0 -6 10q0 6 4.5 23.5t10.5 22.5zM49 361h196v200q29 11 43 11q4 0 7.5 -1.5t4.5 -2.5l1 -2v-205h204q9 0 9 -12q0 -28 -16 -44h-197v-202q-15 -11 -43 -11q-13 0 -13 9v204h-205q-6 0 -6 10q0 7 4.5 24t10.5 22z" />
    <glyph glyph-name="uni00B2" unicode="&#xb2;" horiz-adv-x="358" 
d="M320 360q-4 -10 -16.5 -48.5t-20.5 -57.5h-232q-5 0 -9 4.5t-3 7.5q4 5 60.5 62t80.5 90q47 62 47 112q0 32 -17.5 52t-48.5 20q-47 0 -87 -49q-3 -3 -10.5 5t-6.5 12q18 32 50.5 54.5t65.5 22.5q53 0 86 -30t33 -77q0 -46 -46 -101q-15 -17 -125 -130h120q12 0 21.5 4.5
t16 12t10.5 14t7.5 14.5t4.5 9q1 2 5 3q10 0 14 -6z" />
    <glyph glyph-name="uni00B3" unicode="&#xb3;" horiz-adv-x="318" 
d="M162 646q34 0 60.5 -20.5t26.5 -56.5q0 -30 -18.5 -51.5t-39.5 -31.5q26 0 58 -28t32 -72q0 -63 -47 -100t-116 -37q-50 0 -67 15q-12 11 -12 24q0 14 9.5 23.5t21.5 9.5q8 0 13.5 -4t12.5 -13t10 -12q15 -15 39 -15q33 0 52.5 23.5t19.5 67.5q0 36 -22 61t-50 25
q-8 0 -16.5 -1.5t-15.5 -4t-8 -2.5q-3 3 -5 11q-2 7 0 10q40 8 66.5 31t26.5 58q0 20 -15.5 35.5t-35.5 15.5q-33 0 -70 -37q-2 1 -4.5 4.5t-4 7t-0.5 4.5q40 60 99 60z" />
    <glyph glyph-name="acute" unicode="&#xb4;" horiz-adv-x="260" 
d="M174 684q36 0 36 -29q0 -21 -70 -76t-81 -55q-9 0 -9 13q0 4 36.5 56.5t60.5 82.5q8 8 27 8z" />
    <glyph glyph-name="uni00B5" unicode="&#xb5;" horiz-adv-x="541" 
d="M144 223q0 -66 13 -112.5t38 -46.5q46 0 82.5 49t59.5 114v71v119q13 20 24 20q9 0 31 -14t22 -23q0 -8 -23 -154l-10 -51q0 -56 18.5 -92.5t51.5 -36.5q28 0 51 30q4 0 9 -9q3 -6 3 -11q-10 -33 -36.5 -56.5t-56.5 -23.5q-17 0 -30 18.5t-20 45.5t-10.5 47t-4.5 35
q-27 -62 -67 -106.5t-88 -44.5q-45 0 -63 110v-59.5t3.5 -126.5t13.5 -122q-13 -20 -24 -20q-9 0 -31 14t-22 23q0 32 6.5 180t14.5 214q0 12 -2 47.5t-2 46.5v119q13 20 24 20q9 0 31 -14t22 -23q0 -46 -23 -154z" />
    <glyph glyph-name="paragraph" unicode="&#xb6;" horiz-adv-x="484" 
d="M322 333v273q-5 5 -29 5q-22 0 -28 -6v-277q50 0 57 5zM321 292q-4 0 -16 -1t-22.5 -2t-17.5 -1v-172q0 -58 3 -74q1 -6 25 -6q25 0 26 6q3 16 3 74zM361 299v-183q0 -58 5 -74q2 -7 27 -13t38 -6q1 0 1 -12.5t-1 -14.5q-25 1 -62 3.5t-72 2.5q-19 0 -139 -6
q-2 4 -1.5 14t3.5 13q10 0 34.5 6t26.5 13q5 16 5 74v171q-88 0 -140 60t-52 122q0 78 53 130.5t118 52.5q29 0 48 -2t49 -2l121 5q4 -4 3.5 -15.5t-4.5 -13.5q-14 0 -34 -6t-23 -14q-3 -10 -3 -64v-201l49 13q10 0 10 -6q-1 -7 -12 -21t-17 -16q-19 -8 -31 -10z" />
    <glyph glyph-name="periodcentered" unicode="&#xb7;" horiz-adv-x="224" 
d="M54 264q0 24 17 41t41 17t41 -17t17 -41t-17 -41.5t-41 -17.5t-41 17.5t-17 41.5z" />
    <glyph glyph-name="cedilla" unicode="&#xb8;" horiz-adv-x="231" 
d="M112 -27h25q19 0 31.5 -14.5t12.5 -34.5q0 -34 -27 -55t-67 -21q-20 0 -34 9q0 1 -1.5 5.5t-1.5 8.5q0 5 4.5 9.5t9.5 4.5t17 -6.5t20 -6.5q20 0 31.5 9.5t11.5 23.5q0 16 -10 25t-21 9q-8 0 -26 -7q-2 0 -6.5 5t-3.5 8q4 6 16 24.5t16 26.5h21z" />
    <glyph glyph-name="uni00B9" unicode="&#xb9;" horiz-adv-x="292" 
d="M123 518q0 32 -4.5 41.5t-14.5 9.5t-56 -16q-9 5 -9 17q0 6 3 8q47 19 84 38t52 28l14 8h2q4 0 12 -23q-9 -42 -9 -81v-208q0 -29 8 -47q2 -5 22.5 -9.5t29.5 -4.5q2 0 2 -11.5t-2 -14.5q-13 0 -43.5 1.5t-52.5 1.5q-23 0 -56 -1.5t-44 -1.5q-4 2 -4 13.5t4 11.5
q11 0 32.5 4.5t23.5 9.5q6 16 6 46v180z" />
    <glyph glyph-name="ordmasculine" unicode="&#xba;" horiz-adv-x="388" 
d="M187 530q-40 0 -60 -35.5t-20 -83.5q0 -55 25.5 -97.5t71.5 -42.5q38 0 57.5 36.5t19.5 83.5q0 55 -24.5 97t-69.5 42zM196 554q65 0 109.5 -44t44.5 -107t-45 -109.5t-109 -46.5q-65 0 -111.5 45t-46.5 107q0 64 46 109.5t112 45.5z" />
    <glyph glyph-name="guillemotright" unicode="&#xbb;" horiz-adv-x="482" 
d="M277 246q0 -8 -5 -16q-126 -76 -209 -159q-18 6 -22 12q4 15 57 72.5t91 91.5q-38 34 -91 91.5t-57 72.5q4 6 22 12q83 -83 209 -159q5 -11 5 -18zM457 246q0 -8 -5 -16q-126 -76 -209 -159q-18 6 -22 12q4 15 57 72.5t91 91.5q-38 34 -91 91.5t-57 72.5q4 6 22 12
q83 -83 209 -159q5 -11 5 -18z" />
    <glyph glyph-name="onequarter" unicode="&#xbc;" horiz-adv-x="699" 
d="M606 407q9 0 9 -12v-249h35q7 -6 9.5 -17.5t-3.5 -22.5h-38v-106q-3 -3 -30 -3q-26 0 -32 5v104h-165q-9 2 -10 16l205 273q10 12 20 12zM556 151v154q-21 -27 -56.5 -76.5t-57.5 -77.5h114zM174 534v-198q0 -28 7 -49q1 -5 21 -9.5t29 -4.5q8 -8 1 -22q-15 0 -39.5 1.5
t-46.5 1.5t-50 -1.5t-42 -1.5q-4 2 -3.5 10.5t3.5 11.5q10 0 29 5t21 10q8 21 8 46v186q0 35 -17 35q-5 0 -48 -15q-8 4 -13 18q14 9 135 80q13 -4 13 -16q-8 -49 -8 -88zM186 -13q-5 1 -7.5 3t-2.5 4l-1 2l349 640q1 2 4.5 4t11 3.5t15.5 0.5t8 -10l-345 -632
q-10 -19 -32 -15z" />
    <glyph glyph-name="onehalf" unicode="&#xbd;" horiz-adv-x="750" 
d="M569 392q53 0 86 -30t33 -77q0 -46 -46 -101q-15 -17 -125 -130h120q12 0 21.5 4.5t16 12t10.5 14t7.5 14.5t4.5 9q1 2 5 3q10 0 14 -6q-4 -10 -16.5 -48.5t-20.5 -57.5h-232q-5 0 -9 4.5t-3 7.5q2 2 55 56t77 85q56 72 56 123q0 32 -17.5 52t-48.5 20q-47 0 -87 -49
q-3 -3 -10.5 5t-6.5 12q18 32 50.5 54.5t65.5 22.5zM177 534v-198q0 -28 7 -49q1 -5 21.5 -9.5t28.5 -4.5q8 -8 1 -22q-15 0 -39.5 1.5t-46.5 1.5t-50 -1.5t-42 -1.5q-4 2 -3.5 10.5t3.5 11.5q10 0 29 5t21 10q8 21 8 46v186q0 35 -17 35q-5 0 -48 -15q-8 4 -13 18
q14 9 135 80q13 -4 13 -16q-8 -49 -8 -88zM564 634l-345 -632q-10 -19 -32 -15q-5 1 -7.5 3t-3.5 4v2l349 640q1 2 4.5 4t11 3.5t15.5 0.5t8 -10z" />
    <glyph glyph-name="threequarters" unicode="&#xbe;" horiz-adv-x="700" 
d="M607 407q9 0 9 -12v-249h35q7 -6 9.5 -17.5t-3.5 -22.5h-38v-106q-3 -3 -30 -3q-26 0 -32 5v104h-165q-9 2 -10 16l205 273q10 12 20 12zM557 151v154q-21 -27 -56.5 -76.5t-57.5 -77.5h114zM158 646q34 0 60.5 -20.5t26.5 -56.5q0 -30 -18.5 -51.5t-39.5 -31.5
q26 0 58 -28t32 -72q0 -63 -47 -100t-116 -37q-50 0 -67 15q-12 11 -12 24q0 14 9.5 23.5t21.5 9.5q8 0 13.5 -4t12.5 -13t10 -12q15 -15 39 -15q33 0 52.5 23.5t19.5 67.5q0 36 -22 61t-50 25q-8 0 -16.5 -1.5t-15.5 -4t-8 -2.5q-3 3 -5 12q-2 5 0 9q40 8 66.5 31t26.5 58
q0 20 -15.5 35.5t-35.5 15.5q-33 0 -70 -37q-2 1 -4.5 4.5t-4 7t-0.5 4.5q40 60 99 60zM569 634l-345 -632q-10 -19 -32 -15q-5 1 -7.5 3t-2.5 4l-1 2l349 640q1 2 4.5 4t11 3.5t15.5 0.5t8 -10z" />
    <glyph glyph-name="questiondown" unicode="&#xbf;" horiz-adv-x="345" 
d="M288 374q0 -22 -16.5 -38t-39.5 -16q-22 0 -38 16t-16 38q0 23 16 39.5t38 16.5t39 -17t17 -39zM255 249q8 -34 8 -91q0 -26 -6.5 -46t-24 -36.5t-24 -21.5t-30.5 -20q-32 -20 -46 -30.5t-27.5 -29.5t-13.5 -42q0 -37 22 -59.5t52 -22.5t53 10.5t33 10.5q13 0 28.5 -14
t15.5 -36q0 -24 -9 -37q-14 -7 -48 -7q-60 0 -128.5 53t-68.5 132q0 52 22.5 86.5t78.5 66.5q21 12 47.5 33t30.5 29q6 11 6 70q6 12 16 13q9 -4 13 -11z" />
    <glyph glyph-name="Agrave" unicode="&#xc0;" horiz-adv-x="627" 
d="M95 139q132 339 193 495q4 8 17.5 18.5t20.5 10.5q2 0 3 -1q2 -2 3 -2l204 -534l25 -66q6 -15 31 -24.5t37 -9.5q8 -11 2 -29q-100 5 -110 5q-1 0 -116 -5q-4 4 -3.5 14.5t4.5 14.5q41 0 56 13q4 4 4 14q0 13 -17 62t-34 91l-17 42q-3 4 -6 4q-13 1 -99 1q-63 0 -108 -3
l-5 -3q-28 -74 -45 -122q-14 -41 -14 -71q0 -15 26 -21.5t43 -6.5q2 -2 3 -13.5t-1 -15.5q-14 1 -31 2t-31.5 2t-34.5 1t-36 -1t-35 -2t-36 -2q-2 2 -2 13t2 16q13 0 33 5t27 14q21 27 47 94zM291 542l-92 -244q0 -4 2 -4q52 -2 91 -2q38 0 84 3l3 5zM355 737q0 -9 -6 -9
q-19 0 -99 40t-80 63q0 30 46 30q12 0 18 -3q25 -19 73 -67t48 -54z" />
    <glyph glyph-name="Aacute" unicode="&#xc1;" horiz-adv-x="627" 
d="M95 139q132 339 193 495q4 8 17.5 18.5t20.5 10.5q2 0 3 -1q2 -2 3 -2l204 -534l25 -66q6 -15 31 -24.5t37 -9.5q8 -11 2 -29q-100 5 -110 5q-1 0 -116 -5q-4 4 -3.5 14.5t4.5 14.5q41 0 56 13q4 4 4 14q0 13 -17 62t-34 91l-17 42q-3 4 -6 4q-13 1 -99 1q-63 0 -108 -3
l-5 -3q-28 -74 -45 -122q-14 -41 -14 -71q0 -15 26 -21.5t43 -6.5q2 -2 3 -13.5t-1 -15.5q-14 1 -31 2t-31.5 2t-34.5 1t-36 -1t-35 -2t-36 -2q-2 2 -2 13t2 16q13 0 33 5t27 14q21 27 47 94zM291 542l-92 -244q0 -4 2 -4q52 -2 91 -2q38 0 84 3l3 5zM269 737q0 6 48 54
t73 67q6 3 18 3q46 0 46 -30q0 -23 -80 -63t-99 -40q-6 0 -6 9z" />
    <glyph glyph-name="Acircumflex" unicode="&#xc2;" horiz-adv-x="627" 
d="M95 139q132 339 193 495q4 8 17.5 18.5t20.5 10.5q2 0 3 -1q2 -2 3 -2l204 -534l25 -66q6 -15 31 -24.5t37 -9.5q8 -11 2 -29q-100 5 -110 5q-1 0 -116 -5q-4 4 -3.5 14.5t4.5 14.5q41 0 56 13q4 4 4 14q0 13 -17 62t-34 91l-17 42q-3 4 -6 4q-13 1 -99 1q-63 0 -108 -3
l-5 -3q-28 -74 -45 -122q-14 -41 -14 -71q0 -15 26 -21.5t43 -6.5q2 -2 3 -13.5t-1 -15.5q-14 1 -31 2t-31.5 2t-34.5 1t-36 -1t-35 -2t-36 -2q-2 2 -2 13t2 16q13 0 33 5t27 14q21 27 47 94zM291 542l-92 -244q0 -4 2 -4q52 -2 91 -2q38 0 84 3l3 5zM325 859q4 0 12 -8
q20 -22 50.5 -53t51.5 -54q0 -17 -10 -17l-104 64l-104 -64q-4 0 -7.5 6t-3.5 11q13 14 46 47.5t57 59.5q8 8 12 8z" />
    <glyph glyph-name="Atilde" unicode="&#xc3;" horiz-adv-x="627" 
d="M95 139q132 339 193 495q4 8 17.5 18.5t20.5 10.5q2 0 3 -1q2 -2 3 -2l204 -534l25 -66q6 -15 31 -24.5t37 -9.5q8 -11 2 -29q-100 5 -110 5q-1 0 -116 -5q-4 4 -3.5 14.5t4.5 14.5q41 0 56 13q4 4 4 14q0 13 -17 62t-34 91l-17 42q-3 4 -6 4q-13 1 -99 1q-63 0 -108 -3
l-5 -3q-28 -74 -45 -122q-14 -41 -14 -71q0 -15 26 -21.5t43 -6.5q2 -2 3 -13.5t-1 -15.5q-14 1 -31 2t-31.5 2t-34.5 1t-36 -1t-35 -2t-36 -2q-2 2 -2 13t2 16q13 0 33 5t27 14q21 27 47 94zM291 542l-92 -244q0 -4 2 -4q52 -2 91 -2q38 0 84 3l3 5zM270 811q27 0 67 -22
q42 -24 61 -24q18 0 32 8.5t23 19t10 10.5q6 0 6 -10q0 -17 -14 -35q-31 -37 -69 -37q-27 0 -67 22q-42 24 -62 24q-18 0 -32 -8.5t-22.5 -19t-9.5 -10.5q-6 0 -6 11q0 17 14 35q30 36 69 36z" />
    <glyph glyph-name="Adieresis" unicode="&#xc4;" horiz-adv-x="627" 
d="M366 778q0 21 14.5 35.5t35.5 14.5t35.5 -14.5t14.5 -35.5t-14.5 -35.5t-35.5 -14.5t-35.5 14.5t-14.5 35.5zM185 778q0 21 14.5 35.5t35.5 14.5t35.5 -14.5t14.5 -35.5t-14.5 -35.5t-35.5 -14.5t-35.5 14.5t-14.5 35.5zM95 139q132 339 193 495q4 8 17.5 18.5t20.5 10.5
q2 0 3 -1q2 -2 3 -2l204 -534l25 -66q6 -15 31 -24.5t37 -9.5q8 -11 2 -29q-100 5 -110 5q-1 0 -116 -5q-4 4 -3.5 14.5t4.5 14.5q41 0 56 13q4 4 4 14q0 13 -17 62t-34 91l-17 42q-3 4 -6 4q-13 1 -99 1q-63 0 -108 -3l-5 -3q-28 -74 -45 -122q-14 -41 -14 -71
q0 -15 26 -21.5t43 -6.5q2 -2 3 -13.5t-1 -15.5q-14 1 -31 2t-31.5 2t-34.5 1t-36 -1t-35 -2t-36 -2q-2 2 -2 13t2 16q13 0 33 5t27 14q21 27 47 94zM291 542l-92 -244q0 -4 2 -4q52 -2 91 -2q38 0 84 3l3 5z" />
    <glyph glyph-name="Aring" unicode="&#xc5;" horiz-adv-x="627" 
d="M95 139q132 339 193 495q4 8 17.5 18.5t20.5 10.5q2 0 3 -1q2 -2 3 -2l204 -534l25 -66q6 -15 31 -24.5t37 -9.5q8 -11 2 -29q-100 5 -110 5q-1 0 -116 -5q-4 4 -3.5 14.5t4.5 14.5q41 0 56 13q4 4 4 14q0 13 -17 62t-34 91l-17 42q-3 4 -6 4q-13 1 -99 1q-63 0 -108 -3
l-5 -3q-28 -74 -45 -122q-14 -41 -14 -71q0 -15 26 -21.5t43 -6.5q2 -2 3 -13.5t-1 -15.5q-14 1 -31 2t-31.5 2t-34.5 1t-36 -1t-35 -2t-36 -2q-2 2 -2 13t2 16q13 0 33 5t27 14q21 27 47 94zM291 542l-92 -244q0 -4 2 -4q52 -2 91 -2q38 0 84 3l3 5zM266 752
q0 -23 16.5 -39.5t39.5 -16.5q22 0 38 16.5t16 39.5t-15.5 39t-38.5 16t-39.5 -16t-16.5 -39zM233 752q0 37 26.5 63t62.5 26t61.5 -26t25.5 -63t-25.5 -63.5t-61.5 -26.5t-62.5 26.5t-26.5 63.5z" />
    <glyph glyph-name="AE" unicode="&#xc6;" horiz-adv-x="897" 
d="M473 0l-116 -3q-2 2 -2.5 9.5t0.5 13.5t2 6q12 0 37.5 7.5t28.5 15.5q7 27 7 86v120q-36 2 -89 2q-25 0 -102 -5l-5 -3q-42 -71 -73 -120q-40 -62 -40 -77q0 -11 15.5 -17.5t27.5 -7.5t21 -1q2 -2 3 -13.5t-1 -15.5q-14 1 -31 2t-31.5 2t-34.5 1t-35 -1t-33.5 -2
t-35.5 -2q-2 2 -2 13t2 16q27 0 57 19q31 20 75 92l277 447q7 12 7 20q0 12 -16 18.5t-29 6.5q-3 5 -2.5 16t2.5 13q49 -1 116 -1q45 0 155 3.5t166 3.5q4 -29 15.5 -76.5t13.5 -59.5q-5 -5 -18 -5t-14 7q-15 56 -43 75t-73 19h-86q-66 0 -69 -11q-5 -16 -5 -71v-187
q0 -6 43 -6h53q67 0 82 9.5t26 53.5q1 6 2 9q1 7 15 7q12 0 17 -5v-189q-4 -4 -16 -4q-13 0 -16 8q-7 28 -12 41.5t-8 17t-8 7.5q-13 8 -106 8q-72 0 -72 -9v-190q0 -64 6 -69q13 -10 71 -10h48q82 0 126 27q33 19 63 101q1 6 14 6q19 0 25 -6q-5 -13 -15.5 -41.5t-16.5 -46
t-13 -40.5t-9 -38q-52 0 -162 2t-179 2zM430 297v269l-164 -266q-1 -4 1 -4q26 -1 79 -1q46 0 84 2z" />
    <glyph glyph-name="Ccedilla" unicode="&#xc7;" horiz-adv-x="674" 
d="M380 -27h30q23 0 37.5 -17t14.5 -41q0 -40 -32 -64.5t-79 -24.5q-26 0 -40 10q0 2 -2 7.5t-2 9.5q0 6 5.5 11t11.5 5t19.5 -7.5t23.5 -7.5q24 0 37.5 11.5t13.5 27.5q0 19 -11.5 29.5t-24.5 10.5q-12 0 -31 -8q-2 0 -7.5 6t-4.5 9q3 5 18 27.5t20 32.5h25zM387 667
q115 0 212 -21q23 -138 23 -148q1 -4 -6.5 -8.5t-15.5 -4.5q-7 0 -12 3q-28 146 -196 146q-106 0 -175 -89.5t-69 -201.5q0 -81 27.5 -151t88.5 -117.5t144 -47.5q78 0 132 48q45 40 61 116q17 2 32 -8q0 -19 -13 -77.5t-22 -66.5q-80 -45 -215 -45q-145 0 -239.5 96
t-94.5 232q0 143 96.5 244t241.5 101z" />
    <glyph glyph-name="Egrave" unicode="&#xc8;" horiz-adv-x="587" 
d="M163 657q45 0 155.5 3.5t166.5 3.5q4 -29 15.5 -76.5t13.5 -59.5q-5 -5 -18 -5t-14 7q-15 56 -43 75t-73 19h-86q-66 0 -69 -11q-5 -16 -5 -71v-187q0 -6 43 -6h53q67 0 82 9.5t26 53.5q1 6 2 9q1 7 15 7q12 0 17 -5v-189q-4 -4 -16 -4q-13 0 -16 8q-7 28 -12 41.5t-8 17
t-8 7.5q-13 8 -106 8q-72 0 -72 -9v-190q0 -64 6 -69q13 -10 71 -10h48q82 0 126 27q33 19 63 101q2 6 14 6q19 0 25 -6q-5 -13 -15.5 -41.5t-16.5 -46t-13 -40.5t-9 -38q-51 0 -161 2t-180 2q-24 0 -62 -1.5t-57 -1.5q-4 4 -3.5 14.5t3.5 14.5q15 0 41 4.5t28 11.5
q5 16 5 74v427q0 58 -5 74q-2 7 -28 11.5t-41 4.5q-3 4 -3.5 14.5t3.5 14.5q103 -5 118 -5zM343 737q0 -9 -6 -9q-19 0 -99 40t-80 63q0 30 46 30q12 0 18 -3q25 -19 73 -67t48 -54z" />
    <glyph glyph-name="Eacute" unicode="&#xc9;" horiz-adv-x="587" 
d="M163 657q45 0 155.5 3.5t166.5 3.5q4 -29 15.5 -76.5t13.5 -59.5q-5 -5 -18 -5t-14 7q-15 56 -43 75t-73 19h-86q-66 0 -69 -11q-5 -16 -5 -71v-187q0 -6 43 -6h53q67 0 82 9.5t26 53.5q1 6 2 9q1 7 15 7q12 0 17 -5v-189q-4 -4 -16 -4q-13 0 -16 8q-7 28 -12 41.5t-8 17
t-8 7.5q-13 8 -106 8q-72 0 -72 -9v-190q0 -64 6 -69q13 -10 71 -10h48q82 0 126 27q33 19 63 101q2 6 14 6q19 0 25 -6q-5 -13 -15.5 -41.5t-16.5 -46t-13 -40.5t-9 -38q-51 0 -161 2t-180 2q-24 0 -62 -1.5t-57 -1.5q-4 4 -3.5 14.5t3.5 14.5q15 0 41 4.5t28 11.5
q5 16 5 74v427q0 58 -5 74q-2 7 -28 11.5t-41 4.5q-3 4 -3.5 14.5t3.5 14.5q103 -5 118 -5zM256 737q0 6 48 54t73 67q6 3 18 3q46 0 46 -30q0 -23 -80 -63t-99 -40q-6 0 -6 9z" />
    <glyph glyph-name="Ecircumflex" unicode="&#xca;" horiz-adv-x="587" 
d="M163 657q45 0 155.5 3.5t166.5 3.5q4 -29 15.5 -76.5t13.5 -59.5q-5 -5 -18 -5t-14 7q-15 56 -43 75t-73 19h-86q-66 0 -69 -11q-5 -16 -5 -71v-187q0 -6 43 -6h53q67 0 82 9.5t26 53.5q1 6 2 9q1 7 15 7q12 0 17 -5v-189q-4 -4 -16 -4q-13 0 -16 8q-7 28 -12 41.5t-8 17
t-8 7.5q-13 8 -106 8q-72 0 -72 -9v-190q0 -64 6 -69q13 -10 71 -10h48q82 0 126 27q33 19 63 101q2 6 14 6q19 0 25 -6q-5 -13 -15.5 -41.5t-16.5 -46t-13 -40.5t-9 -38q-51 0 -161 2t-180 2q-24 0 -62 -1.5t-57 -1.5q-4 4 -3.5 14.5t3.5 14.5q15 0 41 4.5t28 11.5
q5 16 5 74v427q0 58 -5 74q-2 7 -28 11.5t-41 4.5q-3 4 -3.5 14.5t3.5 14.5q103 -5 118 -5zM304 859q4 0 12 -8q20 -22 50.5 -53t51.5 -54q0 -17 -10 -17l-104 64l-104 -64q-4 0 -7.5 6t-3.5 11q13 14 46 47.5t57 59.5q8 8 12 8z" />
    <glyph glyph-name="Edieresis" unicode="&#xcb;" horiz-adv-x="587" 
d="M337 778q0 21 14.5 35.5t35.5 14.5t35.5 -14.5t14.5 -35.5t-14.5 -35.5t-35.5 -14.5t-35.5 14.5t-14.5 35.5zM156 778q0 21 14.5 35.5t35.5 14.5t35.5 -14.5t14.5 -35.5t-14.5 -35.5t-35.5 -14.5t-35.5 14.5t-14.5 35.5zM163 657q45 0 155.5 3.5t166.5 3.5
q4 -29 15.5 -76.5t13.5 -59.5q-5 -5 -18 -5t-14 7q-15 56 -43 75t-73 19h-86q-66 0 -69 -11q-5 -16 -5 -71v-187q0 -6 43 -6h53q67 0 82 9.5t26 53.5q1 6 2 9q1 7 15 7q12 0 17 -5v-189q-4 -4 -16 -4q-13 0 -16 8q-7 28 -12 41.5t-8 17t-8 7.5q-13 8 -106 8q-72 0 -72 -9
v-190q0 -64 6 -69q13 -10 71 -10h48q82 0 126 27q33 19 63 101q2 6 14 6q19 0 25 -6q-5 -13 -15.5 -41.5t-16.5 -46t-13 -40.5t-9 -38q-51 0 -161 2t-180 2q-24 0 -62 -1.5t-57 -1.5q-4 4 -3.5 14.5t3.5 14.5q15 0 41 4.5t28 11.5q5 16 5 74v427q0 58 -5 74q-2 7 -28 11.5
t-41 4.5q-3 4 -3.5 14.5t3.5 14.5q103 -5 118 -5z" />
    <glyph glyph-name="Igrave" unicode="&#xcc;" horiz-adv-x="324" 
d="M163 657q15 0 117 5q4 -4 3.5 -14.5t-3.5 -14.5q-15 0 -41 -4.5t-28 -11.5q-5 -16 -5 -74v-427q0 -58 5 -74q2 -7 28 -11.5t41 -4.5q3 -4 3.5 -14.5t-3.5 -14.5q-102 5 -117 5t-118 -5q-4 4 -3.5 14.5t3.5 14.5q15 0 41 4.5t28 11.5q5 16 5 74v427q0 58 -5 74
q-2 7 -28 11.5t-41 4.5q-3 4 -3.5 14.5t3.5 14.5q103 -5 118 -5zM222 737q0 -9 -6 -9q-19 0 -99 40t-80 63q0 30 46 30q12 0 18 -3q25 -19 73 -67t48 -54z" />
    <glyph glyph-name="Iacute" unicode="&#xcd;" horiz-adv-x="324" 
d="M163 657q15 0 117 5q4 -4 3.5 -14.5t-3.5 -14.5q-15 0 -41 -4.5t-28 -11.5q-5 -16 -5 -74v-427q0 -58 5 -74q2 -7 28 -11.5t41 -4.5q3 -4 3.5 -14.5t-3.5 -14.5q-102 5 -117 5t-118 -5q-4 4 -3.5 14.5t3.5 14.5q15 0 41 4.5t28 11.5q5 16 5 74v427q0 58 -5 74
q-2 7 -28 11.5t-41 4.5q-3 4 -3.5 14.5t3.5 14.5q103 -5 118 -5zM115 737q0 6 48 54t73 67q6 3 18 3q46 0 46 -30q0 -23 -80 -63t-99 -40q-6 0 -6 9z" />
    <glyph glyph-name="Icircumflex" unicode="&#xce;" horiz-adv-x="324" 
d="M163 657q15 0 117 5q4 -4 3.5 -14.5t-3.5 -14.5q-15 0 -41 -4.5t-28 -11.5q-5 -16 -5 -74v-427q0 -58 5 -74q2 -7 28 -11.5t41 -4.5q3 -4 3.5 -14.5t-3.5 -14.5q-102 5 -117 5t-118 -5q-4 4 -3.5 14.5t3.5 14.5q15 0 41 4.5t28 11.5q5 16 5 74v427q0 58 -5 74
q-2 7 -28 11.5t-41 4.5q-3 4 -3.5 14.5t3.5 14.5q103 -5 118 -5zM171 836q4 0 12 -8q20 -22 50.5 -53t51.5 -54q0 -17 -10 -17l-104 64l-104 -64q-4 0 -7.5 6t-3.5 11q13 14 46 47.5t57 59.5q8 8 12 8z" />
    <glyph glyph-name="Idieresis" unicode="&#xcf;" horiz-adv-x="324" 
d="M209 778q0 21 14.5 35.5t35.5 14.5t35.5 -14.5t14.5 -35.5t-14.5 -35.5t-35.5 -14.5t-35.5 14.5t-14.5 35.5zM28 778q0 21 14.5 35.5t35.5 14.5t35.5 -14.5t14.5 -35.5t-14.5 -35.5t-35.5 -14.5t-35.5 14.5t-14.5 35.5zM164 657q15 0 117 5q4 -4 3.5 -14.5t-3.5 -14.5
q-15 0 -41 -4.5t-28 -11.5q-5 -16 -5 -74v-427q0 -58 5 -74q2 -7 28 -11.5t41 -4.5q3 -4 3.5 -14.5t-3.5 -14.5q-102 5 -117 5t-118 -5q-4 4 -3.5 14.5t3.5 14.5q15 0 41 4.5t28 11.5q5 16 5 74v427q0 58 -5 74q-2 7 -28 11.5t-41 4.5q-3 4 -3.5 14.5t3.5 14.5
q103 -5 118 -5z" />
    <glyph glyph-name="Eth" unicode="&#xd0;" horiz-adv-x="710" 
d="M365 311h-316q-2 0 -3 7.5t0 16.5t4 13h315q3 0 3 -15t-3 -22zM207 541v-426q0 -65 6 -72q10 -14 82 -14q114 0 189.5 72.5t75.5 211.5q0 82 -23 144t-63 98t-88.5 53.5t-104.5 17.5q-66 0 -69 -11q-5 -16 -5 -74zM308 658q161 0 256 -91t95 -233q0 -68 -18 -125
t-57.5 -106.5t-113 -77.5t-175.5 -28h-250q-4 4 -3.5 14.5t3.5 14.5q15 0 41 4.5t28 11.5q5 16 5 74v427q0 58 -5 74q-2 7 -28 11.5t-41 4.5q-3 4 -3.5 14.5t3.5 14.5q103 -5 118 -5q19 0 70.5 0.5t74.5 0.5z" />
    <glyph glyph-name="Ntilde" unicode="&#xd1;" horiz-adv-x="776" 
d="M143 660q48 0 76 2q25 -39 180 -228t212 -268v58v321q0 53 -10 69q-4 7 -32.5 13.5t-43.5 6.5q-8 11 -2 29q100 -5 115 -5q20 0 36 1t35 2t36 2q7 -13 0 -29q-14 0 -43.5 -6t-34.5 -14q-10 -17 -10 -68v-407q0 -86 2 -138q-1 -6 -13 -6q-17 0 -35 23l-436 551v-454
q0 -53 10 -69q4 -7 32 -13.5t43 -6.5q8 -11 2 -29q-100 5 -114 5q-20 0 -36 -1t-35 -2t-36 -2q-7 13 0 29q14 0 43.5 6t34.5 14q10 17 10 68v434q0 51 -10 68q-5 8 -34.5 14t-43.5 6q-7 16 0 29q16 -1 49.5 -3t52.5 -2zM313 811q27 0 67 -22q42 -24 61 -24q18 0 32 8.5
t23 19t10 10.5q6 0 6 -10q0 -17 -14 -35q-31 -37 -69 -37q-27 0 -67 22q-42 24 -62 24q-18 0 -32 -8.5t-22.5 -19t-9.5 -10.5q-6 0 -6 11q0 17 14 35q30 36 69 36z" />
    <glyph glyph-name="Ograve" unicode="&#xd2;" horiz-adv-x="748" 
d="M358 633q-54 0 -96 -25t-66 -66.5t-36 -90.5t-12 -101q0 -80 27 -153t83.5 -123t130.5 -50q54 0 96 25t66 67t36.5 91t12.5 102q0 80 -27.5 152.5t-84 122t-130.5 49.5zM373 667q135 0 230.5 -96t95.5 -243q0 -139 -96.5 -238.5t-229.5 -99.5q-134 0 -229 96t-95 242
q0 140 96 239.5t228 99.5zM418 737q0 -9 -6 -9q-19 0 -99 40t-80 63q0 30 46 30q12 0 18 -3q25 -19 73 -67t48 -54z" />
    <glyph glyph-name="Oacute" unicode="&#xd3;" horiz-adv-x="748" 
d="M358 633q-54 0 -96 -25t-66 -66.5t-36 -90.5t-12 -101q0 -80 27 -153t83.5 -123t130.5 -50q54 0 96 25t66 67t36.5 91t12.5 102q0 80 -27.5 152.5t-84 122t-130.5 49.5zM373 667q135 0 230.5 -96t95.5 -243q0 -139 -96.5 -238.5t-229.5 -99.5q-134 0 -229 96t-95 242
q0 140 96 239.5t228 99.5zM312 737q0 6 48 54t73 67q6 3 18 3q46 0 46 -30q0 -23 -80 -63t-99 -40q-6 0 -6 9z" />
    <glyph glyph-name="Ocircumflex" unicode="&#xd4;" horiz-adv-x="748" 
d="M358 633q-54 0 -96 -25t-66 -66.5t-36 -90.5t-12 -101q0 -80 27 -153t83.5 -123t130.5 -50q54 0 96 25t66 67t36.5 91t12.5 102q0 80 -27.5 152.5t-84 122t-130.5 49.5zM373 667q135 0 230.5 -96t95.5 -243q0 -139 -96.5 -238.5t-229.5 -99.5q-134 0 -229 96t-95 242
q0 140 96 239.5t228 99.5zM376 859q4 0 12 -8q20 -22 50.5 -53t51.5 -54q0 -17 -10 -17l-104 64l-104 -64q-4 0 -7.5 6t-3.5 11q13 14 46 47.5t57 59.5q8 8 12 8z" />
    <glyph glyph-name="Otilde" unicode="&#xd5;" horiz-adv-x="748" 
d="M358 633q-54 0 -96 -25t-66 -66.5t-36 -90.5t-12 -101q0 -80 27 -153t83.5 -123t130.5 -50q54 0 96 25t66 67t36.5 91t12.5 102q0 80 -27.5 152.5t-84 122t-130.5 49.5zM373 667q135 0 230.5 -96t95.5 -243q0 -139 -96.5 -238.5t-229.5 -99.5q-134 0 -229 96t-95 242
q0 140 96 239.5t228 99.5zM324 810q27 0 67 -22q42 -24 61 -24q18 0 32 8.5t23 19t10 10.5q6 0 6 -10q0 -17 -14 -35q-31 -37 -69 -37q-27 0 -67 22q-42 24 -62 24q-18 0 -32 -8.5t-22.5 -19t-9.5 -10.5q-6 0 -6 11q0 17 14 35q30 36 69 36z" />
    <glyph glyph-name="Odieresis" unicode="&#xd6;" horiz-adv-x="748" 
d="M415 778q0 21 14.5 35.5t35.5 14.5t35.5 -14.5t14.5 -35.5t-14.5 -35.5t-35.5 -14.5t-35.5 14.5t-14.5 35.5zM234 778q0 21 14.5 35.5t35.5 14.5t35.5 -14.5t14.5 -35.5t-14.5 -35.5t-35.5 -14.5t-35.5 14.5t-14.5 35.5zM358 633q-54 0 -96 -25t-66 -66.5t-36 -90.5
t-12 -101q0 -80 27 -153t83.5 -123t130.5 -50q54 0 96 25t66 67t36.5 91t12.5 102q0 80 -27.5 152.5t-84 122t-130.5 49.5zM373 667q135 0 230.5 -96t95.5 -243q0 -139 -96.5 -238.5t-229.5 -99.5q-134 0 -229 96t-95 242q0 140 96 239.5t228 99.5z" />
    <glyph glyph-name="multiply" unicode="&#xd7;" horiz-adv-x="464" 
d="M199 247l-144 144q0 11 8.5 24.5t15.5 13.5q5 0 7 -2q147 -142 149 -144l145 144q2 2 6 2q6 0 14 -15.5t8 -24.5q-137 -136 -140 -139l140 -145q0 -12 -7 -26t-15 -14q-5 0 -7 2l-147 147l-149 -148q-4 -2 -6 -2q-6 0 -14 16t-8 25q140 138 144 142z" />
    <glyph glyph-name="Oslash" unicode="&#xd8;" horiz-adv-x="748" 
d="M565 667q8 -2 20 -10t9 -12l-418 -658q-9 3 -20.5 11t-8.5 12zM358 633q-54 0 -96 -25t-66 -66.5t-36 -90.5t-12 -101q0 -80 27 -153t83.5 -123t130.5 -50q54 0 96 25t66 67t36.5 91t12.5 102q0 80 -27.5 152.5t-84 122t-130.5 49.5zM373 667q135 0 230.5 -96t95.5 -243
q0 -139 -96.5 -238.5t-229.5 -99.5q-134 0 -229 96t-95 242q0 140 96 239.5t228 99.5z" />
    <glyph glyph-name="Ugrave" unicode="&#xd9;" horiz-adv-x="723" 
d="M147 657q15 0 117 5q4 -4 3.5 -14.5t-3.5 -14.5q-15 0 -41 -4.5t-28 -11.5q-5 -16 -5 -74v-247q0 -123 49 -184q46 -58 137 -58q190 0 194 220v271q0 53 -10 69q-4 7 -31 13.5t-41 6.5q-8 11 -2 29q100 -5 111 -5q20 0 36 1t35 2t36 2q8 -13 0 -29q-14 0 -43.5 -6
t-34.5 -14q-10 -17 -10 -68v-270q0 -144 -69 -212t-192 -68q-109 0 -178 66q-74 71 -74 189v292q0 58 -5 74q-2 7 -28 11.5t-41 4.5q-3 4 -3.5 14.5t3.5 14.5q103 -5 118 -5zM420 737q0 -9 -6 -9q-19 0 -99 40t-80 63q0 30 46 30q12 0 18 -3q25 -19 73 -67t48 -54z" />
    <glyph glyph-name="Uacute" unicode="&#xda;" horiz-adv-x="723" 
d="M147 657q15 0 117 5q4 -4 3.5 -14.5t-3.5 -14.5q-15 0 -41 -4.5t-28 -11.5q-5 -16 -5 -74v-247q0 -123 49 -184q46 -58 137 -58q190 0 194 220v271q0 53 -10 69q-4 7 -31 13.5t-41 6.5q-8 11 -2 29q100 -5 111 -5q20 0 36 1t35 2t36 2q8 -13 0 -29q-14 0 -43.5 -6
t-34.5 -14q-10 -17 -10 -68v-270q0 -144 -69 -212t-192 -68q-109 0 -178 66q-74 71 -74 189v292q0 58 -5 74q-2 7 -28 11.5t-41 4.5q-3 4 -3.5 14.5t3.5 14.5q103 -5 118 -5zM334 737q0 6 48 54t73 67q6 3 18 3q46 0 46 -30q0 -23 -80 -63t-99 -40q-6 0 -6 9z" />
    <glyph glyph-name="Ucircumflex" unicode="&#xdb;" horiz-adv-x="723" 
d="M147 657q15 0 117 5q4 -4 3.5 -14.5t-3.5 -14.5q-15 0 -41 -4.5t-28 -11.5q-5 -16 -5 -74v-247q0 -123 49 -184q46 -58 137 -58q190 0 194 220v271q0 53 -10 69q-4 7 -31 13.5t-41 6.5q-8 11 -2 29q100 -5 111 -5q20 0 36 1t35 2t36 2q8 -13 0 -29q-14 0 -43.5 -6
t-34.5 -14q-10 -17 -10 -68v-270q0 -144 -69 -212t-192 -68q-109 0 -178 66q-74 71 -74 189v292q0 58 -5 74q-2 7 -28 11.5t-41 4.5q-3 4 -3.5 14.5t3.5 14.5q103 -5 118 -5zM366 859q4 0 12 -8q20 -22 50.5 -53t51.5 -54q0 -17 -10 -17l-104 64l-104 -64q-4 0 -7.5 6
t-3.5 11q13 14 46 47.5t57 59.5q8 8 12 8z" />
    <glyph glyph-name="Udieresis" unicode="&#xdc;" horiz-adv-x="723" 
d="M405 778q0 21 14.5 35.5t35.5 14.5t35.5 -14.5t14.5 -35.5t-14.5 -35.5t-35.5 -14.5t-35.5 14.5t-14.5 35.5zM224 778q0 21 14.5 35.5t35.5 14.5t35.5 -14.5t14.5 -35.5t-14.5 -35.5t-35.5 -14.5t-35.5 14.5t-14.5 35.5zM147 657q15 0 117 5q4 -4 3.5 -14.5t-3.5 -14.5
q-15 0 -41 -4.5t-28 -11.5q-5 -16 -5 -74v-247q0 -123 49 -184q46 -58 137 -58q190 0 194 220v271q0 53 -10 69q-4 7 -31 13.5t-41 6.5q-8 11 -2 29q100 -5 111 -5q20 0 36 1t35 2t36 2q8 -13 0 -29q-14 0 -43.5 -6t-34.5 -14q-10 -17 -10 -68v-270q0 -144 -69 -212
t-192 -68q-109 0 -178 66q-74 71 -74 189v292q0 58 -5 74q-2 7 -28 11.5t-41 4.5q-3 4 -3.5 14.5t3.5 14.5q103 -5 118 -5z" />
    <glyph glyph-name="Yacute" unicode="&#xdd;" horiz-adv-x="598" 
d="M261 116v151q0 14 -7 28q-31 56 -73.5 131t-68.5 122q-26 46 -66 69q-27 16 -56 16q-4 0 -4 12.5t4 16.5q122 -5 125 -5q28 0 128 5q2 -4 1.5 -16.5t-3.5 -12.5q-18 0 -39 -7.5t-21 -24.5q0 -11 12 -30l139 -240q88 158 130 259q3 9 3 15t-5.5 11.5t-22 10.5t-42.5 5
q-2 0 -3 13.5t1 15.5q93 -5 100 -5q10 0 110 5q2 -5 1 -17t-3 -12q-66 0 -89 -40q-30 -54 -158 -291q-5 -9 -5 -31l-1 -154q0 -58 5 -74q2 -7 28 -11.5t41 -4.5q3 -4 3.5 -14.5t-3.5 -14.5q-102 5 -117 5t-118 -5q-4 4 -3.5 14.5t3.5 14.5q15 0 41 4.5t28 11.5q5 16 5 74z
M290 737q0 6 48 54t73 67q6 3 18 3q46 0 46 -30q0 -23 -80 -63t-99 -40q-6 0 -6 9z" />
    <glyph glyph-name="Thorn" unicode="&#xde;" horiz-adv-x="548" 
d="M163 657q15 0 117 5q4 -4 3.5 -14.5t-3.5 -14.5q-15 0 -41 -4.5t-28 -11.5q-5 -16 -5 -74v-63q41 29 119 29q69 0 131 -49.5t62 -130.5q0 -91 -60.5 -146t-159.5 -55q-27 0 -43 8q-14 9 -14 22q0 6 5 5q26 -7 38 -7q62 0 102 41.5t40 114.5t-38 115.5t-100 42.5
q-16 0 -40 -7t-34 -23q-8 -13 -8 -80v-244q0 -58 5 -74q2 -7 28 -11.5t41 -4.5q3 -4 3.5 -14.5t-3.5 -14.5q-102 5 -117 5t-118 -5q-4 4 -3.5 14.5t3.5 14.5q15 0 41 4.5t28 11.5q5 16 5 74v427q0 58 -5 74q-2 7 -28 11.5t-41 4.5q-3 4 -3.5 14.5t3.5 14.5q103 -5 118 -5z
" />
    <glyph glyph-name="germandbls" unicode="&#xdf;" horiz-adv-x="537" 
d="M267 693q77 0 126.5 -33t49.5 -99q0 -61 -59 -114q-10 -9 -27.5 -23.5t-26.5 -22.5t-17 -19.5t-8 -22.5q0 -19 16.5 -37.5t33.5 -29.5t48 -27q23 -12 37.5 -21.5t33 -25.5t28 -36.5t9.5 -44.5q0 -60 -38 -103.5t-94 -43.5q-42 0 -75.5 14t-42.5 29q0 2 0.5 6.5t0.5 6.5
q3 45 33 45q7 0 13 -4.5t9.5 -9t9.5 -14.5t9 -14q19 -28 45 -28q27 0 44.5 22t17.5 59q0 30 -21 49.5t-63 41.5q-22 12 -32.5 18t-29 19t-27 25t-16 30.5t-7.5 39.5q0 15 7.5 29.5t16 24t25 25.5t25.5 26q47 53 47 119q0 50 -25.5 80.5t-72.5 30.5q-32 0 -52.5 -16.5
t-29.5 -46.5t-12 -57.5t-3 -64.5v-359q0 -58 5 -74q2 -7 27 -11.5t40 -4.5q3 -4 3.5 -14.5t-3.5 -14.5q-103 5 -111 5q-4 0 -106 -5q-4 4 -3.5 14.5t3.5 14.5q14 0 37.5 4.5t25.5 11.5q5 16 5 74v275h-58q-5 0 -5 9q0 6 26 32h37v6q0 91 55.5 173t115.5 82z" />
    <glyph glyph-name="agrave" unicode="&#xe0;" horiz-adv-x="431" 
d="M187 46q24 0 55.5 16t31.5 25v136q-77 -23 -93 -29q-61 -24 -61 -78q0 -28 19.5 -49t47.5 -21zM241 436q43 0 76 -40t33 -97v-206q0 -47 31 -47q13 0 33 13q4 0 4 -8q0 -11 -5 -19q-12 -11 -36.5 -24.5t-38.5 -13.5q-21 0 -38.5 20t-22.5 45q-14 -14 -57 -40.5t-66 -26.5
q-50 0 -83.5 33t-33.5 82q0 29 15.5 51t34.5 29q170 61 175 63q8 3 10 7.5t2 17.5v27q0 35 -25.5 65.5t-60.5 30.5q-25 0 -37 -15.5t-18 -46.5q-8 -48 -47 -48q-15 0 -24.5 13t-9.5 29q0 15 7 24q31 29 82 55.5t100 26.5zM128 654q19 0 27 -8q24 -30 60.5 -82.5t36.5 -56.5
q0 -13 -9 -13q-11 0 -81 55t-70 76q0 29 36 29z" />
    <glyph glyph-name="aacute" unicode="&#xe1;" horiz-adv-x="431" 
d="M187 46q24 0 55.5 16t31.5 25v136q-77 -23 -93 -29q-61 -24 -61 -78q0 -28 19.5 -49t47.5 -21zM241 436q43 0 76 -40t33 -97v-206q0 -47 31 -47q13 0 33 13q4 0 4 -8q0 -11 -5 -19q-12 -11 -36.5 -24.5t-38.5 -13.5q-21 0 -38.5 20t-22.5 45q-14 -14 -57 -40.5t-66 -26.5
q-50 0 -83.5 33t-33.5 82q0 29 15.5 51t34.5 29q170 61 175 63q8 3 10 7.5t2 17.5v27q0 35 -25.5 65.5t-60.5 30.5q-25 0 -37 -15.5t-18 -46.5q-8 -48 -47 -48q-15 0 -24.5 13t-9.5 29q0 15 7 24q31 29 82 55.5t100 26.5zM274 654q36 0 36 -29q0 -21 -70 -76t-81 -55
q-9 0 -9 13q0 4 36.5 56.5t60.5 82.5q8 8 27 8z" />
    <glyph glyph-name="acircumflex" unicode="&#xe2;" horiz-adv-x="431" 
d="M187 46q24 0 55.5 16t31.5 25v136q-77 -23 -93 -29q-61 -24 -61 -78q0 -28 19.5 -49t47.5 -21zM241 436q43 0 76 -40t33 -97v-206q0 -47 31 -47q13 0 33 13q4 0 4 -8q0 -11 -5 -19q-12 -11 -36.5 -24.5t-38.5 -13.5q-21 0 -38.5 20t-22.5 45q-14 -14 -57 -40.5t-66 -26.5
q-50 0 -83.5 33t-33.5 82q0 29 15.5 51t34.5 29q170 61 175 63q8 3 10 7.5t2 17.5v27q0 35 -25.5 65.5t-60.5 30.5q-25 0 -37 -15.5t-18 -46.5q-8 -48 -47 -48q-15 0 -24.5 13t-9.5 29q0 15 7 24q31 29 82 55.5t100 26.5zM221 646q6 0 11 -9q29 -47 94 -132q0 -5 -3.5 -9
t-7.5 -4l-94 76q-59 -48 -94 -76q-4 0 -7.5 4t-3.5 9q65 85 94 132q5 9 11 9z" />
    <glyph glyph-name="atilde" unicode="&#xe3;" horiz-adv-x="431" 
d="M187 46q24 0 55.5 16t31.5 25v136q-77 -23 -93 -29q-61 -24 -61 -78q0 -28 19.5 -49t47.5 -21zM241 436q43 0 76 -40t33 -97v-206q0 -47 31 -47q13 0 33 13q4 0 4 -8q0 -11 -5 -19q-12 -11 -36.5 -24.5t-38.5 -13.5q-21 0 -38.5 20t-22.5 45q-14 -14 -57 -40.5t-66 -26.5
q-50 0 -83.5 33t-33.5 82q0 29 15.5 51t34.5 29q170 61 175 63q8 3 10 7.5t2 17.5v27q0 35 -25.5 65.5t-60.5 30.5q-25 0 -37 -15.5t-18 -46.5q-8 -48 -47 -48q-15 0 -24.5 13t-9.5 29q0 15 7 24q31 29 82 55.5t100 26.5zM158 588q23 0 61 -23q38 -24 58 -24q16 0 28 8.5
t19.5 19t8.5 11.5q6 0 6 -9q0 -17 -14 -38q-27 -37 -62 -37q-24 0 -60 22q-40 25 -59 25q-16 0 -27 -8.5t-17 -19t-8 -11.5q-8 0 -8 11q0 19 12 37q27 36 62 36z" />
    <glyph glyph-name="adieresis" unicode="&#xe4;" horiz-adv-x="431" 
d="M187 46q24 0 55.5 16t31.5 25v136q-77 -23 -93 -29q-61 -24 -61 -78q0 -28 19.5 -49t47.5 -21zM241 436q43 0 76 -40t33 -97v-206q0 -47 31 -47q13 0 33 13q4 0 4 -8q0 -11 -5 -19q-12 -11 -36.5 -24.5t-38.5 -13.5q-21 0 -38.5 20t-22.5 45q-14 -14 -57 -40.5t-66 -26.5
q-50 0 -83.5 33t-33.5 82q0 29 15.5 51t34.5 29q170 61 175 63q8 3 10 7.5t2 17.5v27q0 35 -25.5 65.5t-60.5 30.5q-25 0 -37 -15.5t-18 -46.5q-8 -48 -47 -48q-15 0 -24.5 13t-9.5 29q0 15 7 24q31 29 82 55.5t100 26.5zM295 592q19 0 32.5 -14t13.5 -33t-14 -32t-33 -13
t-33 13.5t-14 32.5t14.5 32.5t33.5 13.5zM112 592q19 0 32.5 -14t13.5 -33t-14 -32t-33 -13t-33 13.5t-14 32.5t14.5 32.5t33.5 13.5z" />
    <glyph glyph-name="aring" unicode="&#xe5;" horiz-adv-x="431" 
d="M187 46q24 0 55.5 16t31.5 25v136q-77 -23 -93 -29q-61 -24 -61 -78q0 -28 19.5 -49t47.5 -21zM241 436q43 0 76 -40t33 -97v-206q0 -47 31 -47q13 0 33 13q4 0 4 -8q0 -11 -5 -19q-12 -11 -36.5 -24.5t-38.5 -13.5q-21 0 -38.5 20t-22.5 45q-14 -14 -57 -40.5t-66 -26.5
q-50 0 -83.5 33t-33.5 82q0 29 15.5 51t34.5 29q170 61 175 63q8 3 10 7.5t2 17.5v27q0 35 -25.5 65.5t-60.5 30.5q-25 0 -37 -15.5t-18 -46.5q-8 -48 -47 -48q-15 0 -24.5 13t-9.5 29q0 15 7 24q31 29 82 55.5t100 26.5zM169 587q0 -23 16 -39.5t39 -16.5q22 0 38 16.5
t16 39.5t-15.5 39t-38.5 16t-39 -16t-16 -39zM136 587q0 37 26 63t62 26t61.5 -26t25.5 -63t-25.5 -63.5t-61.5 -26.5t-62 26.5t-26 63.5z" />
    <glyph glyph-name="ae" unicode="&#xe6;" horiz-adv-x="653" 
d="M181 194q-61 -22 -61 -78q0 -28 19.5 -49t47.5 -21q29 0 60.5 18.5t31.5 39.5q-12 26 -18 89q-2 22 -2 27q-13 -5 -41.5 -14t-36.5 -12zM443 402q-37 0 -63 -29t-35 -58.5t-6 -29.5h163q22 0 23 23q1 26 -20.5 60t-61.5 34zM460 438q42 0 73.5 -15t47 -38.5t22.5 -44
t7 -38.5q0 -46 -24 -47q-108 -7 -252 -7q-2 -91 45.5 -141.5t117.5 -50.5q36 0 65 17.5t45 35.5q1 0 2.5 -1.5t3.5 -5t2 -7.5q0 -8 -6 -18q-19 -31 -56.5 -58t-89.5 -27q-49 0 -95 22t-70 63q-22 -23 -71 -54t-73 -31q-50 0 -83.5 33t-33.5 82q0 55 46 79q28 14 94.5 41
t71.5 29q12 5 14 14t2 32q0 37 -21 66.5t-56 29.5q-25 0 -37 -15.5t-18 -47.5q-8 -47 -47 -47q-15 0 -24.5 13t-9.5 29q0 15 7 24q27 25 79.5 53.5t100.5 28.5q60 0 93 -62q59 64 128 64z" />
    <glyph glyph-name="ccedilla" unicode="&#xe7;" horiz-adv-x="423" 
d="M382 386q0 -25 -11.5 -36.5t-26.5 -11.5q-10 0 -20 6.5t-21.5 17t-16.5 13.5q-28 19 -57 19q-43 0 -77.5 -46.5t-34.5 -120.5q0 -84 45 -126.5t117 -42.5q62 0 106 51q1 0 2.5 -1.5t3.5 -5t2 -7.5q0 -8 -6 -18q-19 -31 -56.5 -58t-89.5 -27q-88 0 -145 60.5t-57 141.5
q0 103 79 173.5t164 70.5q54 0 90 -24q10 -10 10 -28zM241 -23h25q19 0 31.5 -14.5t12.5 -34.5q0 -34 -27 -55t-67 -21q-20 0 -34 9q0 1 -1.5 5.5t-1.5 8.5q0 5 4.5 9.5t9.5 4.5t17 -6.5t20 -6.5q20 0 31.5 9.5t11.5 23.5q0 16 -10 25t-21 9q-8 0 -26 -7q-2 0 -6.5 5t-3.5 8
q4 6 16 24.5t16 26.5h21z" />
    <glyph glyph-name="egrave" unicode="&#xe8;" horiz-adv-x="430" 
d="M116 285h163q23 0 23 23q0 30 -21 62t-61 32q-37 0 -63 -29t-35 -58.5t-6 -29.5zM111 248v-7q0 -88 47 -136.5t116 -48.5q36 0 65 17.5t45 35.5q1 0 2.5 -1.5t3.5 -5t2 -7.5q0 -8 -6 -18q-19 -31 -56.5 -58t-89.5 -27q-88 0 -144 59.5t-56 148.5q0 96 63.5 167t133.5 71
q42 0 73.5 -15t47 -38.5t22.5 -44t7 -38.5q0 -46 -24 -47q-109 -7 -252 -7zM144 654q19 0 27 -8q24 -30 60.5 -82.5t36.5 -56.5q0 -13 -9 -13q-11 0 -81 55t-70 76q0 29 36 29z" />
    <glyph glyph-name="eacute" unicode="&#xe9;" horiz-adv-x="430" 
d="M116 285h163q23 0 23 23q0 30 -21 62t-61 32q-37 0 -63 -29t-35 -58.5t-6 -29.5zM111 248v-7q0 -88 47 -136.5t116 -48.5q36 0 65 17.5t45 35.5q1 0 2.5 -1.5t3.5 -5t2 -7.5q0 -8 -6 -18q-19 -31 -56.5 -58t-89.5 -27q-88 0 -144 59.5t-56 148.5q0 96 63.5 167t133.5 71
q42 0 73.5 -15t47 -38.5t22.5 -44t7 -38.5q0 -46 -24 -47q-109 -7 -252 -7zM300 654q36 0 36 -29q0 -21 -70 -76t-81 -55q-9 0 -9 13q0 4 36.5 56.5t60.5 82.5q8 8 27 8z" />
    <glyph glyph-name="ecircumflex" unicode="&#xea;" horiz-adv-x="430" 
d="M116 285h163q23 0 23 23q0 30 -21 62t-61 32q-37 0 -63 -29t-35 -58.5t-6 -29.5zM111 248v-7q0 -88 47 -136.5t116 -48.5q36 0 65 17.5t45 35.5q1 0 2.5 -1.5t3.5 -5t2 -7.5q0 -8 -6 -18q-19 -31 -56.5 -58t-89.5 -27q-88 0 -144 59.5t-56 148.5q0 96 63.5 167t133.5 71
q42 0 73.5 -15t47 -38.5t22.5 -44t7 -38.5q0 -46 -24 -47q-109 -7 -252 -7zM223 646q6 0 11 -9q29 -47 94 -132q0 -5 -3.5 -9t-7.5 -4l-94 76q-59 -48 -94 -76q-4 0 -7.5 4t-3.5 9q65 85 94 132q5 9 11 9z" />
    <glyph glyph-name="edieresis" unicode="&#xeb;" horiz-adv-x="430" 
d="M116 285h163q23 0 23 23q0 30 -21 62t-61 32q-37 0 -63 -29t-35 -58.5t-6 -29.5zM111 248v-7q0 -88 47 -136.5t116 -48.5q36 0 65 17.5t45 35.5q1 0 2.5 -1.5t3.5 -5t2 -7.5q0 -8 -6 -18q-19 -31 -56.5 -58t-89.5 -27q-88 0 -144 59.5t-56 148.5q0 96 63.5 167t133.5 71
q42 0 73.5 -15t47 -38.5t22.5 -44t7 -38.5q0 -46 -24 -47q-109 -7 -252 -7zM323 592q19 0 32.5 -14t13.5 -33t-14 -32t-33 -13t-33 13.5t-14 32.5t14.5 32.5t33.5 13.5zM140 592q19 0 32.5 -14t13.5 -33t-14 -32t-33 -13t-33 13.5t-14 32.5t14.5 32.5t33.5 13.5z" />
    <glyph glyph-name="igrave" unicode="&#xec;" horiz-adv-x="270" 
d="M181 325v-209q0 -58 5 -74q2 -7 25.5 -11.5t37.5 -4.5q3 -4 3.5 -14.5t-3.5 -14.5q-103 5 -107 5t-106 -5q-4 4 -3.5 14.5t3.5 14.5q14 0 37.5 4.5t25.5 11.5q5 16 5 74v186q0 40 -5 52q-7 18 -65 18q-2 2 -2.5 12t2.5 14q85 12 143 42q4 0 7.5 -6t3.5 -10q-7 -49 -7 -66
v-33zM56 654q19 0 27 -8q24 -30 60.5 -82.5t36.5 -56.5q0 -13 -9 -13q-11 0 -81 55t-70 76q0 29 36 29z" />
    <glyph glyph-name="iacute" unicode="&#xed;" horiz-adv-x="270" 
d="M181 325v-209q0 -58 5 -74q2 -7 25.5 -11.5t37.5 -4.5q3 -4 3.5 -14.5t-3.5 -14.5q-103 5 -107 5t-106 -5q-4 4 -3.5 14.5t3.5 14.5q14 0 37.5 4.5t25.5 11.5q5 16 5 74v186q0 40 -5 52q-7 18 -65 18q-2 2 -2.5 12t2.5 14q85 12 143 42q4 0 7.5 -6t3.5 -10q-7 -49 -7 -66
v-33zM208 654q36 0 36 -29q0 -21 -70 -76t-81 -55q-9 0 -9 13q0 4 36.5 56.5t60.5 82.5q8 8 27 8z" />
    <glyph glyph-name="icircumflex" unicode="&#xee;" horiz-adv-x="270" 
d="M181 325v-209q0 -58 5 -74q2 -7 25.5 -11.5t37.5 -4.5q3 -4 3.5 -14.5t-3.5 -14.5q-103 5 -107 5t-106 -5q-4 4 -3.5 14.5t3.5 14.5q14 0 37.5 4.5t25.5 11.5q5 16 5 74v186q0 40 -5 52q-7 18 -65 18q-2 2 -2.5 12t2.5 14q85 12 143 42q4 0 7.5 -6t3.5 -10q-7 -49 -7 -66
v-33zM156 646q6 0 11 -9q29 -47 94 -132q0 -5 -3.5 -9t-7.5 -4l-94 76q-59 -48 -94 -76q-4 0 -7.5 4t-3.5 9q65 85 94 132q5 9 11 9z" />
    <glyph glyph-name="idieresis" unicode="&#xef;" horiz-adv-x="272" 
d="M219 595q20 0 34.5 -15t14.5 -35t-15 -34t-35 -14t-35 14.5t-15 34.5t15.5 34.5t35.5 14.5zM59 595q20 0 34.5 -15t14.5 -35t-15 -34t-35 -14t-35 14.5t-15 34.5t15.5 34.5t35.5 14.5zM181 325v-209q0 -58 5 -74q2 -7 25.5 -11.5t37.5 -4.5q3 -4 3.5 -14.5t-3.5 -14.5
q-103 5 -107 5t-106 -5q-4 4 -3.5 14.5t3.5 14.5q14 0 37.5 4.5t25.5 11.5q5 16 5 74v186q0 40 -5 52q-7 18 -65 18q-2 2 -2.5 12t2.5 14q85 12 143 42q4 0 7.5 -6t3.5 -10q-7 -49 -7 -66v-33z" />
    <glyph glyph-name="eth" unicode="&#xf0;" horiz-adv-x="517" 
d="M247 439q58 0 85 -16q-11 27 -19.5 45.5t-31 50t-53.5 58.5l-100 -68q-7 5 -14.5 16.5t-2.5 15.5l88 59q-50 36 -118 64q0 6 4.5 15t9.5 9q70 -16 140 -63l111 74q7 -5 15 -16t3 -15l-98 -66q45 -34 81 -76q115 -132 115 -279q0 -116 -61 -185t-145 -69
q-99 0 -157.5 62.5t-58.5 155.5q0 89 54.5 158.5t152.5 69.5zM234 406q-56 0 -82 -51t-26 -128q0 -78 37.5 -139.5t95.5 -61.5q57 0 86.5 49t29.5 127q0 89 -20 127q-41 77 -121 77z" />
    <glyph glyph-name="ntilde" unicode="&#xf1;" horiz-adv-x="532" 
d="M322 438q77 0 103 -48t26 -164v-110q0 -58 5 -74q2 -7 25.5 -11.5t37.5 -4.5q3 -4 3.5 -14.5t-3.5 -14.5q-103 5 -107 5t-106 -5q-4 4 -3.5 14.5t3.5 14.5q14 0 37.5 4.5t25.5 11.5q5 16 5 74v100q0 94 -20 129t-78 35q-25 0 -60 -23t-35 -32v-209q0 -58 5 -74
q2 -7 25.5 -11.5t37.5 -4.5q3 -4 3.5 -14.5t-3.5 -14.5q-103 5 -107 5t-106 -5q-4 4 -3.5 14.5t3.5 14.5q14 0 37.5 4.5t25.5 11.5q5 16 5 74v182q0 44 -5 56q-7 18 -65 18q-2 2 -2.5 12t2.5 14q85 12 143 42q4 0 7.5 -6t3.5 -10q-6 -42 -6 -57q0 -4 2 -4q1 0 3 2
q20 22 61.5 47.5t73.5 25.5zM211 590q23 0 61 -23q38 -24 58 -24q16 0 28 8.5t19.5 19t8.5 11.5q6 0 6 -9q0 -17 -14 -38q-27 -37 -62 -37q-24 0 -60 22q-40 25 -59 25q-16 0 -27 -8.5t-17 -19t-8 -11.5q-8 0 -8 11q0 19 12 37q27 36 62 36z" />
    <glyph glyph-name="ograve" unicode="&#xf2;" horiz-adv-x="509" 
d="M243 406q-59 0 -87.5 -50t-28.5 -123q0 -80 38 -143.5t101 -63.5q59 0 87.5 50t28.5 122q0 79 -38 143.5t-101 64.5zM254 439q97 0 155.5 -61.5t58.5 -156.5q0 -97 -60.5 -162.5t-151.5 -65.5q-97 0 -156 62t-59 158q0 97 61 161.5t152 64.5zM195 654q19 0 27 -8
q24 -30 60.5 -82.5t36.5 -56.5q0 -13 -9 -13q-11 0 -81 55t-70 76q0 29 36 29z" />
    <glyph glyph-name="oacute" unicode="&#xf3;" horiz-adv-x="509" 
d="M243 406q-59 0 -87.5 -50t-28.5 -123q0 -80 38 -143.5t101 -63.5q59 0 87.5 50t28.5 122q0 79 -38 143.5t-101 64.5zM254 439q97 0 155.5 -61.5t58.5 -156.5q0 -97 -60.5 -162.5t-151.5 -65.5q-97 0 -156 62t-59 158q0 97 61 161.5t152 64.5zM337 654q36 0 36 -29
q0 -21 -70 -76t-81 -55q-9 0 -9 13q0 4 36.5 56.5t60.5 82.5q8 8 27 8z" />
    <glyph glyph-name="ocircumflex" unicode="&#xf4;" horiz-adv-x="509" 
d="M243 406q-59 0 -87.5 -50t-28.5 -123q0 -80 38 -143.5t101 -63.5q59 0 87.5 50t28.5 122q0 79 -38 143.5t-101 64.5zM254 439q97 0 155.5 -61.5t58.5 -156.5q0 -97 -60.5 -162.5t-151.5 -65.5q-97 0 -156 62t-59 158q0 97 61 161.5t152 64.5zM257 646q6 0 11 -9
q29 -47 94 -132q0 -5 -3.5 -9t-7.5 -4l-94 76q-59 -48 -94 -76q-4 0 -7.5 4t-3.5 9q65 85 94 132q5 9 11 9z" />
    <glyph glyph-name="otilde" unicode="&#xf5;" horiz-adv-x="509" 
d="M243 406q-59 0 -87.5 -50t-28.5 -123q0 -80 38 -143.5t101 -63.5q59 0 87.5 50t28.5 122q0 79 -38 143.5t-101 64.5zM254 439q97 0 155.5 -61.5t58.5 -156.5q0 -97 -60.5 -162.5t-151.5 -65.5q-97 0 -156 62t-59 158q0 97 61 161.5t152 64.5zM206 589q23 0 61 -23
q38 -24 58 -24q16 0 28 8.5t19.5 19t8.5 11.5q6 0 6 -9q0 -17 -14 -38q-27 -37 -62 -37q-24 0 -60 22q-40 25 -59 25q-16 0 -27 -8.5t-17 -19t-8 -11.5q-8 0 -8 11q0 19 12 37q27 36 62 36z" />
    <glyph glyph-name="odieresis" unicode="&#xf6;" horiz-adv-x="509" 
d="M243 406q-59 0 -87.5 -50t-28.5 -123q0 -80 38 -143.5t101 -63.5q59 0 87.5 50t28.5 122q0 79 -38 143.5t-101 64.5zM254 439q97 0 155.5 -61.5t58.5 -156.5q0 -97 -60.5 -162.5t-151.5 -65.5q-97 0 -156 62t-59 158q0 97 61 161.5t152 64.5zM347 592q19 0 32.5 -14
t13.5 -33t-14 -32t-33 -13t-33 13.5t-14 32.5t14.5 32.5t33.5 13.5zM164 592q19 0 32.5 -14t13.5 -33t-14 -32t-33 -13t-33 13.5t-14 32.5t14.5 32.5t33.5 13.5z" />
    <glyph glyph-name="divide" unicode="&#xf7;" horiz-adv-x="599" 
d="M66 219q-6 0 -6 10q0 6 5 23.5t12 22.5h454q9 0 9 -12q0 -28 -16 -44h-458zM252 438q0 21 14.5 35.5t35.5 14.5t35.5 -14.5t14.5 -35.5t-14.5 -35.5t-35.5 -14.5t-35.5 14.5t-14.5 35.5zM252 55q0 21 14.5 35.5t35.5 14.5t35.5 -14.5t14.5 -35.5t-14.5 -35.5t-35.5 -14.5
t-35.5 14.5t-14.5 35.5z" />
    <glyph glyph-name="oslash" unicode="&#xf8;" horiz-adv-x="509" 
d="M129 -8q-30 15 -27 21l270 424q30 -13 27 -20zM244 406q-59 0 -87.5 -50t-28.5 -123q0 -80 38 -143.5t101 -63.5q59 0 87.5 50t28.5 122q0 79 -38 143.5t-101 64.5zM255 439q97 0 155.5 -61.5t58.5 -156.5q0 -97 -60.5 -162.5t-151.5 -65.5q-97 0 -156 62t-59 158
q0 97 61 161.5t152 64.5z" />
    <glyph glyph-name="ugrave" unicode="&#xf9;" horiz-adv-x="515" 
d="M350 320q0 39 -8 54q-11 20 -56 20q-2 2 -2.5 12t2.5 14q82 3 137 20q3 0 7 -9.5t4 -14.5q-7 -14 -7 -65v-46v-164q0 -43 7 -76q2 -7 11 -11t19 -5t20 -1l9 -1q3 -1 3 -11q0 -3 -2.5 -9.5t-5.5 -6.5q-15 -1 -33.5 -4t-34.5 -7t-30.5 -8t-23.5 -7l-8 -2q-8 0 -8 16v46
l-2 5q-23 -25 -64.5 -45.5t-77.5 -20.5q-125 0 -125 199v128q0 39 -8 54q-11 20 -56 20q-2 2 -2.5 12t2.5 14q82 3 137 20q3 0 7 -8t4 -12q-7 -14 -7 -69v-43v-104q0 -80 24 -117.5t76 -37.5q32 0 62 18.5t30 36.5v216zM166 654q19 0 27 -8q24 -30 60.5 -82.5t36.5 -56.5
q0 -13 -9 -13q-11 0 -81 55t-70 76q0 29 36 29z" />
    <glyph glyph-name="uacute" unicode="&#xfa;" horiz-adv-x="515" 
d="M350 320q0 39 -8 54q-11 20 -56 20q-2 2 -2.5 12t2.5 14q82 3 137 20q3 0 7 -9.5t4 -14.5q-7 -14 -7 -65v-46v-164q0 -43 7 -76q2 -7 11 -11t19 -5t20 -1l9 -1q3 -1 3 -11q0 -3 -2.5 -9.5t-5.5 -6.5q-15 -1 -33.5 -4t-34.5 -7t-30.5 -8t-23.5 -7l-8 -2q-8 0 -8 16v46
l-2 5q-23 -25 -64.5 -45.5t-77.5 -20.5q-125 0 -125 199v128q0 39 -8 54q-11 20 -56 20q-2 2 -2.5 12t2.5 14q82 3 137 20q3 0 7 -8t4 -12q-7 -14 -7 -69v-43v-104q0 -80 24 -117.5t76 -37.5q32 0 62 18.5t30 36.5v216zM344 654q36 0 36 -29q0 -21 -70 -76t-81 -55
q-9 0 -9 13q0 4 36.5 56.5t60.5 82.5q8 8 27 8z" />
    <glyph glyph-name="ucircumflex" unicode="&#xfb;" horiz-adv-x="515" 
d="M350 320q0 39 -8 54q-11 20 -56 20q-2 2 -2.5 12t2.5 14q82 3 137 20q3 0 7 -9.5t4 -14.5q-7 -14 -7 -65v-46v-164q0 -43 7 -76q2 -7 11 -11t19 -5t20 -1l9 -1q3 -1 3 -11q0 -3 -2.5 -9.5t-5.5 -6.5q-15 -1 -33.5 -4t-34.5 -7t-30.5 -8t-23.5 -7l-8 -2q-8 0 -8 16v46
l-2 5q-23 -25 -64.5 -45.5t-77.5 -20.5q-125 0 -125 199v128q0 39 -8 54q-11 20 -56 20q-2 2 -2.5 12t2.5 14q82 3 137 20q3 0 7 -8t4 -12q-7 -14 -7 -69v-43v-104q0 -80 24 -117.5t76 -37.5q32 0 62 18.5t30 36.5v216zM255 646q6 0 11 -9q29 -47 94 -132q0 -5 -3.5 -9
t-7.5 -4l-94 76q-59 -48 -94 -76q-4 0 -7.5 4t-3.5 9q65 85 94 132q5 9 11 9z" />
    <glyph glyph-name="udieresis" unicode="&#xfc;" horiz-adv-x="515" 
d="M350 320q0 39 -8 54q-11 20 -56 20q-2 2 -2.5 12t2.5 14q82 3 137 20q3 0 7 -9.5t4 -14.5q-7 -14 -7 -65v-46v-164q0 -43 7 -76q2 -7 11 -11t19 -5t20 -1l9 -1q3 -1 3 -11q0 -3 -2.5 -9.5t-5.5 -6.5q-15 -1 -33.5 -4t-34.5 -7t-30.5 -8t-23.5 -7l-8 -2q-8 0 -8 16v46
l-2 5q-23 -25 -64.5 -45.5t-77.5 -20.5q-125 0 -125 199v128q0 39 -8 54q-11 20 -56 20q-2 2 -2.5 12t2.5 14q82 3 137 20q3 0 7 -8t4 -12q-7 -14 -7 -69v-43v-104q0 -80 24 -117.5t76 -37.5q32 0 62 18.5t30 36.5v216zM337 592q19 0 32.5 -14t13.5 -33t-14 -32t-33 -13
t-33 13.5t-14 32.5t14.5 32.5t33.5 13.5zM154 592q19 0 32.5 -14t13.5 -33t-14 -32t-33 -13t-33 13.5t-14 32.5t14.5 32.5t33.5 13.5z" />
    <glyph glyph-name="yacute" unicode="&#xfd;" horiz-adv-x="469" 
d="M102 425q58 0 100 5q2 -4 0.5 -16.5t-4.5 -12.5q-50 0 -50 -17l2 -4l106 -270q50 133 88 227q6 14 6 32q0 15 -16 23.5t-42 8.5q-4 0 -4 12.5t4 16.5q38 -5 90 -5q34 0 84 5q3 -4 2 -16.5t-4 -12.5q-13 0 -34.5 -8t-29.5 -26q-107 -255 -150 -361q-6 -14 -21.5 -56.5
t-28.5 -70t-29 -51.5q-38 -56 -87 -56q-44 0 -44 43q0 15 12 29q40 0 63 10t51 47q11 14 28 52t20 49q-94 241 -158 379q-10 20 -54 20q-2 0 -2 13.5t2 15.5q48 -5 100 -5zM356 654q36 0 36 -29q0 -21 -70 -76t-81 -55q-9 0 -9 13q0 4 36.5 56.5t60.5 82.5q8 8 27 8z" />
    <glyph glyph-name="thorn" unicode="&#xfe;" horiz-adv-x="495" 
d="M275 438q85 0 133 -65.5t48 -140.5q0 -95 -73.5 -167.5t-160.5 -72.5q-35 0 -70 11q-4 -5 -4 -13v-97q0 -58 5 -74q2 -7 25.5 -11.5t37.5 -4.5q3 -4 3.5 -14.5t-3.5 -14.5q-102 5 -107 5q-3 0 -106 -5q-4 4 -3.5 14.5t3.5 14.5q14 0 37.5 4.5t25.5 11.5q5 16 5 74v665
q0 40 -5 52q-8 18 -61 18q-1 0 -1.5 6.5t0 13t2.5 6.5q69 7 142 40q4 0 7.5 -5.5t3.5 -10.5q-11 -32 -11 -87v-207q0 -5 2 -5q1 0 3 2q24 20 59.5 38.5t62.5 18.5zM232 379q-29 0 -56.5 -14t-27.5 -25v-240q0 -35 30.5 -54t62.5 -19q59 0 95 51.5t36 116.5q0 86 -40 135
t-100 49z" />
    <glyph glyph-name="ydieresis" unicode="&#xff;" horiz-adv-x="469" 
d="M102 425q58 0 100 5q2 -4 0.5 -16.5t-4.5 -12.5q-50 0 -50 -17l2 -4l106 -270q50 133 88 227q6 14 6 32q0 15 -16 23.5t-42 8.5q-4 0 -4 12.5t4 16.5q38 -5 90 -5q34 0 84 5q3 -4 2 -16.5t-4 -12.5q-13 0 -34.5 -8t-29.5 -26q-107 -255 -150 -361q-6 -14 -21.5 -56.5
t-28.5 -70t-29 -51.5q-38 -56 -87 -56q-44 0 -44 43q0 15 12 29q40 0 63 10t51 47q11 14 28 52t20 49q-94 241 -158 379q-10 20 -54 20q-2 0 -2 13.5t2 15.5q48 -5 100 -5zM344 592q19 0 32.5 -14t13.5 -33t-14 -32t-33 -13t-33 13.5t-14 32.5t14.5 32.5t33.5 13.5zM161 592
q19 0 32.5 -14t13.5 -33t-14 -32t-33 -13t-33 13.5t-14 32.5t14.5 32.5t33.5 13.5z" />
    <glyph glyph-name="Amacron" unicode="&#x100;" horiz-adv-x="627" 
d="M95 139q132 339 193 495q4 8 17.5 18.5t20.5 10.5q2 0 3 -1q2 -2 3 -2l204 -534l25 -66q6 -15 31 -24.5t37 -9.5q8 -11 2 -29q-100 5 -110 5q-1 0 -116 -5q-4 4 -3.5 14.5t4.5 14.5q41 0 56 13q4 4 4 14q0 13 -17 62t-34 91l-17 42q-3 4 -6 4q-13 1 -99 1q-63 0 -108 -3
l-5 -3q-28 -74 -45 -122q-14 -41 -14 -71q0 -15 26 -21.5t43 -6.5q2 -2 3 -13.5t-1 -15.5q-14 1 -31 2t-31.5 2t-34.5 1t-36 -1t-35 -2t-36 -2q-2 2 -2 13t2 16q13 0 33 5t27 14q21 27 47 94zM291 542l-92 -244q0 -4 2 -4q52 -2 91 -2q38 0 84 3l3 5zM439 756h-246
q-7 3 -4 20t10 22h246q5 -4 3 -19t-9 -23z" />
    <glyph glyph-name="amacron" unicode="&#x101;" horiz-adv-x="431" 
d="M187 46q24 0 55.5 16t31.5 25v136q-77 -23 -93 -29q-61 -24 -61 -78q0 -28 19.5 -49t47.5 -21zM241 436q43 0 76 -40t33 -97v-206q0 -47 31 -47q13 0 33 13q4 0 4 -8q0 -11 -5 -19q-12 -11 -36.5 -24.5t-38.5 -13.5q-21 0 -38.5 20t-22.5 45q-14 -14 -57 -40.5t-66 -26.5
q-50 0 -83.5 33t-33.5 82q0 29 15.5 51t34.5 29q170 61 175 63q8 3 10 7.5t2 17.5v27q0 35 -25.5 65.5t-60.5 30.5q-25 0 -37 -15.5t-18 -46.5q-8 -48 -47 -48q-15 0 -24.5 13t-9.5 29q0 15 7 24q31 29 82 55.5t100 26.5zM322 525h-224q-7 3 -4 20t10 22h224q5 -4 3 -19
t-9 -23z" />
    <glyph glyph-name="Abreve" unicode="&#x102;" horiz-adv-x="627" 
d="M95 139q132 339 193 495q4 8 17.5 18.5t20.5 10.5q2 0 3 -1q2 -2 3 -2l204 -534l25 -66q6 -15 31 -24.5t37 -9.5q8 -11 2 -29q-100 5 -110 5q-1 0 -116 -5q-4 4 -3.5 14.5t4.5 14.5q41 0 56 13q4 4 4 14q0 13 -17 62t-34 91l-17 42q-3 4 -6 4q-13 1 -99 1q-63 0 -108 -3
l-5 -3q-28 -74 -45 -122q-14 -41 -14 -71q0 -15 26 -21.5t43 -6.5q2 -2 3 -13.5t-1 -15.5q-14 1 -31 2t-31.5 2t-34.5 1t-36 -1t-35 -2t-36 -2q-2 2 -2 13t2 16q13 0 33 5t27 14q21 27 47 94zM291 542l-92 -244q0 -4 2 -4q52 -2 91 -2q38 0 84 3l3 5zM413 833q7 0 14.5 -6
t7.5 -11q0 -4 -1 -6q-10 -38 -40.5 -61.5t-67.5 -23.5t-67.5 23.5t-40.5 61.5q-1 2 -1 6q0 5 7.5 11t14.5 6q21 -62 87 -62t87 62z" />
    <glyph glyph-name="abreve" unicode="&#x103;" horiz-adv-x="431" 
d="M187 46q24 0 55.5 16t31.5 25v136q-77 -23 -93 -29q-61 -24 -61 -78q0 -28 19.5 -49t47.5 -21zM241 436q43 0 76 -40t33 -97v-206q0 -47 31 -47q13 0 33 13q4 0 4 -8q0 -11 -5 -19q-12 -11 -36.5 -24.5t-38.5 -13.5q-21 0 -38.5 20t-22.5 45q-14 -14 -57 -40.5t-66 -26.5
q-50 0 -83.5 33t-33.5 82q0 29 15.5 51t34.5 29q170 61 175 63q8 3 10 7.5t2 17.5v27q0 35 -25.5 65.5t-60.5 30.5q-25 0 -37 -15.5t-18 -46.5q-8 -48 -47 -48q-15 0 -24.5 13t-9.5 29q0 15 7 24q31 29 82 55.5t100 26.5zM213 543q31 0 55 20t32 52q0 3 4 3q5 0 11.5 -4.5
t6.5 -8.5v-3q-1 -4 -1 -5q-7 -41 -37.5 -70.5t-70.5 -29.5t-70.5 29t-37.5 72q0 1 -1 4v3q0 4 6.5 8.5t11.5 4.5q4 0 4 -3q8 -32 32 -52t55 -20z" />
    <glyph glyph-name="Aogonek" unicode="&#x104;" horiz-adv-x="627" 
d="M631 -3q-15 1 -38 2.5t-34 1.5q-39 -23 -71 -57.5t-32 -64.5q0 -16 9 -29.5t32 -13.5t41.5 9.5t28.5 19t11 9.5q5 0 5 -13q0 -11 -5 -18q-50 -66 -105 -66q-37 0 -54 25t-17 52q0 38 33.5 78.5t78.5 69.5h-2q-2 0 -107 -5q-4 4 -3.5 14.5t4.5 14.5q41 0 56 13q4 4 4 14
q0 13 -17 62t-34 91l-17 42q-3 4 -6 4q-13 1 -99 1q-63 0 -108 -3l-5 -3q-28 -74 -45 -122q-14 -41 -14 -71q1 -15 26.5 -21.5t42.5 -6.5q2 -2 3 -13.5t-1 -15.5q-14 1 -31.5 2t-32 2t-33.5 1q-20 0 -36 -1t-35 -2t-36 -2q-2 2 -2 13t2 16q13 0 33 5t27 14q21 27 47 94
q132 339 193 495q4 8 17.5 18.5t20.5 10.5q2 0 3 -1q2 -2 3 -2l204 -534l25 -66q6 -15 31 -24.5t37 -9.5q8 -11 2 -29zM291 542l-92 -244q0 -4 2 -4q52 -2 91 -2q38 0 84 3l3 5z" />
    <glyph glyph-name="aogonek" unicode="&#x105;" horiz-adv-x="431" 
d="M187 46q24 0 55.5 16t31.5 25v136q-77 -23 -93 -29q-61 -24 -61 -78q0 -28 19.5 -49t47.5 -21zM277 59q-14 -14 -57 -40.5t-66 -26.5q-50 0 -83.5 33t-33.5 82q0 29 15.5 51t34.5 29q170 61 175 63q8 3 10 7.5t2 17.5v27q0 35 -25.5 65.5t-60.5 30.5q-25 0 -37 -15.5
t-18 -46.5q-8 -48 -47 -48q-15 0 -24.5 13t-9.5 29q0 15 7 24q31 29 82 55.5t100 26.5q43 0 76 -40t33 -97v-206q0 -47 31 -47q13 0 33 13q4 0 4 -8q0 -11 -5 -19q-30 -21 -36 -25q-2 -1 -15.5 -10.5t-18.5 -13.5t-18 -14t-19 -16t-16 -16.5t-14.5 -19t-8 -18.5t-3.5 -20
q0 -16 9 -29.5t32 -13.5t41.5 9.5t28.5 19t11 9.5q5 0 5 -13q0 -11 -5 -18q-50 -66 -105 -66q-37 0 -54 25t-17 52q0 31 31.5 73t71.5 74q-13 8 -24 24.5t-12 33.5z" />
    <glyph glyph-name="Cacute" unicode="&#x106;" horiz-adv-x="674" 
d="M386 667q115 0 212 -21q23 -138 23 -148q1 -4 -6.5 -8.5t-15.5 -4.5q-7 0 -12 3q-28 146 -196 146q-106 0 -175 -89.5t-69 -201.5q0 -81 27.5 -151t88.5 -117.5t144 -47.5q78 0 132 48q45 40 61 116q17 2 32 -8q0 -19 -13 -77.5t-22 -66.5q-80 -45 -215 -45
q-145 0 -239.5 96t-94.5 232q0 143 96.5 244t241.5 101zM356 737q0 6 48 54t73 67q6 3 18 3q46 0 46 -30q0 -23 -80 -63t-99 -40q-6 0 -6 9z" />
    <glyph glyph-name="cacute" unicode="&#x107;" horiz-adv-x="423" 
d="M382 386q0 -25 -11.5 -36.5t-26.5 -11.5q-10 0 -20 6.5t-21.5 17t-16.5 13.5q-28 19 -57 19q-43 0 -77.5 -46.5t-34.5 -120.5q0 -84 45 -126.5t117 -42.5q62 0 106 51q1 0 2.5 -1.5t3.5 -5t2 -7.5q0 -8 -6 -18q-19 -31 -56.5 -58t-89.5 -27q-88 0 -145 60.5t-57 141.5
q0 103 79 173.5t164 70.5q54 0 90 -24q10 -10 10 -28zM317 654q36 0 36 -29q0 -21 -70 -76t-81 -55q-9 0 -9 13q0 4 36.5 56.5t60.5 82.5q8 8 27 8z" />
    <glyph glyph-name="Ccircumflex" unicode="&#x108;" horiz-adv-x="674" 
d="M386 667q115 0 212 -21q23 -138 23 -148q1 -4 -6.5 -8.5t-15.5 -4.5q-7 0 -12 3q-28 146 -196 146q-106 0 -175 -89.5t-69 -201.5q0 -81 27.5 -151t88.5 -117.5t144 -47.5q78 0 132 48q45 40 61 116q17 2 32 -8q0 -19 -13 -77.5t-22 -66.5q-80 -45 -215 -45
q-145 0 -239.5 96t-94.5 232q0 143 96.5 244t241.5 101zM397 859q4 0 12 -8q20 -22 50.5 -53t51.5 -54q0 -17 -10 -17l-104 64l-104 -64q-4 0 -7.5 6t-3.5 11q13 14 46 47.5t57 59.5q8 8 12 8z" />
    <glyph glyph-name="ccircumflex" unicode="&#x109;" horiz-adv-x="423" 
d="M382 386q0 -25 -11.5 -36.5t-26.5 -11.5q-10 0 -20 6.5t-21.5 17t-16.5 13.5q-28 19 -57 19q-43 0 -77.5 -46.5t-34.5 -120.5q0 -84 45 -126.5t117 -42.5q62 0 106 51q1 0 2.5 -1.5t3.5 -5t2 -7.5q0 -8 -6 -18q-19 -31 -56.5 -58t-89.5 -27q-88 0 -145 60.5t-57 141.5
q0 103 79 173.5t164 70.5q54 0 90 -24q10 -10 10 -28zM238 646q6 0 11 -9q29 -47 94 -132q0 -5 -3.5 -9t-7.5 -4l-94 76q-59 -48 -94 -76q-4 0 -7.5 4t-3.5 9q65 85 94 132q5 9 11 9z" />
    <glyph glyph-name="Cdotaccent" unicode="&#x10a;" horiz-adv-x="674" 
d="M386 667q115 0 212 -21q23 -138 23 -148q1 -4 -6.5 -8.5t-15.5 -4.5q-7 0 -12 3q-28 146 -196 146q-106 0 -175 -89.5t-69 -201.5q0 -81 27.5 -151t88.5 -117.5t144 -47.5q78 0 132 48q45 40 61 116q17 2 32 -8q0 -19 -13 -77.5t-22 -66.5q-80 -45 -215 -45
q-145 0 -239.5 96t-94.5 232q0 143 96.5 244t241.5 101zM333 778q0 21 14.5 35.5t35.5 14.5t35.5 -14.5t14.5 -35.5t-14.5 -35.5t-35.5 -14.5t-35.5 14.5t-14.5 35.5z" />
    <glyph glyph-name="cdotaccent" unicode="&#x10b;" horiz-adv-x="423" 
d="M382 386q0 -25 -11.5 -36.5t-26.5 -11.5q-10 0 -20 6.5t-21.5 17t-16.5 13.5q-28 19 -57 19q-43 0 -77.5 -46.5t-34.5 -120.5q0 -84 45 -126.5t117 -42.5q62 0 106 51q1 0 2.5 -1.5t3.5 -5t2 -7.5q0 -8 -6 -18q-19 -31 -56.5 -58t-89.5 -27q-88 0 -145 60.5t-57 141.5
q0 103 79 173.5t164 70.5q54 0 90 -24q10 -10 10 -28zM197 593q0 21 14.5 35.5t35.5 14.5t35.5 -14.5t14.5 -35.5t-14.5 -35.5t-35.5 -14.5t-35.5 14.5t-14.5 35.5z" />
    <glyph glyph-name="Ccaron" unicode="&#x10c;" horiz-adv-x="674" 
d="M382 727q-4 0 -12 8q-20 22 -50.5 53t-51.5 54q0 17 10 17l104 -64l104 64q4 0 7.5 -6t3.5 -11q-13 -14 -46 -47.5t-57 -59.5q-8 -8 -12 -8zM386 667q115 0 212 -21q23 -138 23 -148q1 -4 -6.5 -8.5t-15.5 -4.5q-7 0 -12 3q-28 146 -196 146q-106 0 -175 -89.5
t-69 -201.5q0 -81 27.5 -151t88.5 -117.5t144 -47.5q78 0 132 48q45 40 61 116q17 2 32 -8q0 -19 -13 -77.5t-22 -66.5q-80 -45 -215 -45q-145 0 -239.5 96t-94.5 232q0 143 96.5 244t241.5 101z" />
    <glyph glyph-name="ccaron" unicode="&#x10d;" horiz-adv-x="423" 
d="M382 386q0 -25 -11.5 -36.5t-26.5 -11.5q-10 0 -20 6.5t-21.5 17t-16.5 13.5q-28 19 -57 19q-43 0 -77.5 -46.5t-34.5 -120.5q0 -84 45 -126.5t117 -42.5q62 0 106 51q1 0 2.5 -1.5t3.5 -5t2 -7.5q0 -8 -6 -18q-19 -31 -56.5 -58t-89.5 -27q-88 0 -145 60.5t-57 141.5
q0 103 79 173.5t164 70.5q54 0 90 -24q10 -10 10 -28zM249 497q-6 0 -11 9q-29 47 -94 132q0 5 3.5 9t7.5 4l94 -83q55 49 94 83q4 0 7.5 -4t3.5 -9q-65 -85 -94 -132q-5 -9 -11 -9z" />
    <glyph glyph-name="Dcaron" unicode="&#x10e;" horiz-adv-x="710" 
d="M333 727q-4 0 -12 8q-20 22 -50.5 53t-51.5 54q0 17 10 17l104 -64l104 64q4 0 7.5 -6t3.5 -11q-13 -14 -46 -47.5t-57 -59.5q-8 -8 -12 -8zM207 541v-426q0 -65 6 -72q10 -14 82 -14q114 0 189.5 72.5t75.5 211.5q0 82 -23 144t-63 98t-88.5 53.5t-104.5 17.5
q-66 0 -69 -11q-5 -16 -5 -74zM308 658q161 0 256 -91t95 -233q0 -68 -18 -125t-57.5 -106.5t-113 -77.5t-175.5 -28h-250q-4 4 -3.5 14.5t3.5 14.5q15 0 41 4.5t28 11.5q5 16 5 74v427q0 58 -5 74q-2 7 -28 11.5t-41 4.5q-3 4 -3.5 14.5t3.5 14.5q103 -5 118 -5
q19 0 70.5 0.5t74.5 0.5z" />
    <glyph glyph-name="dcaron" unicode="&#x10f;" horiz-adv-x="532" 
d="M277 438q44 0 69 -10q5 0 5 21v109q0 40 -5 52q-8 18 -61 18q-1 0 -1.5 6.5t0 13t2.5 6.5q69 7 142 40q4 0 7.5 -5.5t3.5 -10.5q-11 -32 -11 -87v-428q0 -82 7 -98q3 -6 12.5 -10t19 -5.5t18.5 -1.5l9 -1q3 -1 3 -12q0 -3 -2.5 -9t-5.5 -6q-15 -1 -33.5 -4t-34.5 -7
t-30.5 -8t-22.5 -7l-9 -2q-8 0 -8 19v35q-1 7 -3 6q-15 -16 -58 -38t-75 -22q-70 0 -123 62t-53 152q0 62 41 117.5t96 85t101 29.5zM245 396q-55 0 -88.5 -49.5t-33.5 -116.5q0 -74 37.5 -125t103.5 -51q32 0 59.5 13.5t27.5 26.5v253q0 18 -32.5 33.5t-73.5 15.5zM556 715
q10 0 22 -6q14 -23 14 -56q0 -74 -70 -151q-5 0 -12 3.5t-7 7.5q31 40 31 81q0 25 -14 44.5t-14 34.5t14 28.5t36 13.5z" />
    <glyph glyph-name="Dcroat" unicode="&#x110;" horiz-adv-x="710" 
d="M365 311h-316q-2 0 -3 7.5t0 16.5t4 13h315q3 0 3 -15t-3 -22zM207 541v-426q0 -65 6 -72q10 -14 82 -14q114 0 189.5 72.5t75.5 211.5q0 82 -23 144t-63 98t-88.5 53.5t-104.5 17.5q-66 0 -69 -11q-5 -16 -5 -74zM308 658q161 0 256 -91t95 -233q0 -68 -18 -125
t-57.5 -106.5t-113 -77.5t-175.5 -28h-250q-4 4 -3.5 14.5t3.5 14.5q15 0 41 4.5t28 11.5q5 16 5 74v427q0 58 -5 74q-2 7 -28 11.5t-41 4.5q-3 4 -3.5 14.5t3.5 14.5q103 -5 118 -5q19 0 70.5 0.5t74.5 0.5z" />
    <glyph glyph-name="dcroat" unicode="&#x111;" horiz-adv-x="515" 
d="M219 560h265q6 0 6 -8q0 -15 -6 -27h-266q-5 0 -5 12q0 13 6 23zM277 438q44 0 69 -10q5 0 5 21v109q0 40 -5 52q-8 18 -61 18q-1 0 -1.5 6.5t0 13t2.5 6.5q69 7 142 40q4 0 7.5 -5.5t3.5 -10.5q-11 -32 -11 -87v-428q0 -82 7 -98q3 -6 12.5 -10t19 -5.5t18.5 -1.5l9 -1
q3 -1 3 -12q0 -3 -2.5 -9t-5.5 -6q-15 -1 -33.5 -4t-34.5 -7t-30.5 -8t-22.5 -7l-9 -2q-8 0 -8 19v35q-1 7 -3 6q-15 -16 -58 -38t-75 -22q-70 0 -123 62t-53 152q0 62 41 117.5t96 85t101 29.5zM245 396q-55 0 -88.5 -49.5t-33.5 -116.5q0 -74 37.5 -125t103.5 -51
q32 0 59.5 13.5t27.5 26.5v253q0 18 -32.5 33.5t-73.5 15.5z" />
    <glyph glyph-name="Emacron" unicode="&#x112;" horiz-adv-x="587" 
d="M163 657q45 0 155.5 3.5t166.5 3.5q4 -29 15.5 -76.5t13.5 -59.5q-5 -5 -18 -5t-14 7q-15 56 -43 75t-73 19h-86q-66 0 -69 -11q-5 -16 -5 -71v-187q0 -6 43 -6h53q67 0 82 9.5t26 53.5q1 6 2 9q1 7 15 7q12 0 17 -5v-189q-4 -4 -16 -4q-13 0 -16 8q-7 28 -12 41.5t-8 17
t-8 7.5q-13 8 -106 8q-72 0 -72 -9v-190q0 -64 6 -69q13 -10 71 -10h48q82 0 126 27q33 19 63 101q2 6 14 6q19 0 25 -6q-5 -13 -15.5 -41.5t-16.5 -46t-13 -40.5t-9 -38q-51 0 -161 2t-180 2q-24 0 -62 -1.5t-57 -1.5q-4 4 -3.5 14.5t3.5 14.5q15 0 41 4.5t28 11.5
q5 16 5 74v427q0 58 -5 74q-2 7 -28 11.5t-41 4.5q-3 4 -3.5 14.5t3.5 14.5q103 -5 118 -5zM387 756h-246q-7 3 -4 20t10 22h246q5 -4 3 -19t-9 -23z" />
    <glyph glyph-name="emacron" unicode="&#x113;" horiz-adv-x="430" 
d="M116 285h163q23 0 23 23q0 30 -21 62t-61 32q-37 0 -63 -29t-35 -58.5t-6 -29.5zM111 248v-7q0 -88 47 -136.5t116 -48.5q36 0 65 17.5t45 35.5q1 0 2.5 -1.5t3.5 -5t2 -7.5q0 -8 -6 -18q-19 -31 -56.5 -58t-89.5 -27q-88 0 -144 59.5t-56 148.5q0 96 63.5 167t133.5 71
q42 0 73.5 -15t47 -38.5t22.5 -44t7 -38.5q0 -46 -24 -47q-109 -7 -252 -7zM325 525h-224q-7 3 -4 20t10 22h224q5 -4 3 -19t-9 -23z" />
    <glyph glyph-name="Ebreve" unicode="&#x114;" horiz-adv-x="587" 
d="M163 657q45 0 155.5 3.5t166.5 3.5q4 -29 15.5 -76.5t13.5 -59.5q-5 -5 -18 -5t-14 7q-15 56 -43 75t-73 19h-86q-66 0 -69 -11q-5 -16 -5 -71v-187q0 -6 43 -6h53q67 0 82 9.5t26 53.5q1 6 2 9q1 7 15 7q12 0 17 -5v-189q-4 -4 -16 -4q-13 0 -16 8q-7 28 -12 41.5t-8 17
t-8 7.5q-13 8 -106 8q-72 0 -72 -9v-190q0 -64 6 -69q13 -10 71 -10h48q82 0 126 27q33 19 63 101q2 6 14 6q19 0 25 -6q-5 -13 -15.5 -41.5t-16.5 -46t-13 -40.5t-9 -38q-51 0 -161 2t-180 2q-24 0 -62 -1.5t-57 -1.5q-4 4 -3.5 14.5t3.5 14.5q15 0 41 4.5t28 11.5
q5 16 5 74v427q0 58 -5 74q-2 7 -28 11.5t-41 4.5q-3 4 -3.5 14.5t3.5 14.5q103 -5 118 -5zM383 833q7 0 14.5 -6t7.5 -11q0 -4 -1 -6q-10 -38 -40.5 -61.5t-67.5 -23.5t-67.5 23.5t-40.5 61.5q-1 2 -1 6q0 5 7.5 11t14.5 6q21 -62 87 -62t87 62z" />
    <glyph glyph-name="ebreve" unicode="&#x115;" horiz-adv-x="430" 
d="M116 285h163q23 0 23 23q0 30 -21 62t-61 32q-37 0 -63 -29t-35 -58.5t-6 -29.5zM111 248v-7q0 -88 47 -136.5t116 -48.5q36 0 65 17.5t45 35.5q1 0 2.5 -1.5t3.5 -5t2 -7.5q0 -8 -6 -18q-19 -31 -56.5 -58t-89.5 -27q-88 0 -144 59.5t-56 148.5q0 96 63.5 167t133.5 71
q42 0 73.5 -15t47 -38.5t22.5 -44t7 -38.5q0 -46 -24 -47q-109 -7 -252 -7zM243 543q31 0 55 20t32 52q0 3 4 3q5 0 11.5 -4.5t6.5 -8.5v-3q-1 -4 -1 -5q-7 -41 -37.5 -70.5t-70.5 -29.5t-70.5 29t-37.5 72q0 1 -1 4v3q0 4 6.5 8.5t11.5 4.5q4 0 4 -3q8 -32 32 -52t55 -20z
" />
    <glyph glyph-name="Edotaccent" unicode="&#x116;" horiz-adv-x="587" 
d="M163 657q45 0 155.5 3.5t166.5 3.5q4 -29 15.5 -76.5t13.5 -59.5q-5 -5 -18 -5t-14 7q-15 56 -43 75t-73 19h-86q-66 0 -69 -11q-5 -16 -5 -71v-187q0 -6 43 -6h53q67 0 82 9.5t26 53.5q1 6 2 9q1 7 15 7q12 0 17 -5v-189q-4 -4 -16 -4q-13 0 -16 8q-7 28 -12 41.5t-8 17
t-8 7.5q-13 8 -106 8q-72 0 -72 -9v-190q0 -64 6 -69q13 -10 71 -10h48q82 0 126 27q33 19 63 101q2 6 14 6q19 0 25 -6q-5 -13 -15.5 -41.5t-16.5 -46t-13 -40.5t-9 -38q-51 0 -161 2t-180 2q-24 0 -62 -1.5t-57 -1.5q-4 4 -3.5 14.5t3.5 14.5q15 0 41 4.5t28 11.5
q5 16 5 74v427q0 58 -5 74q-2 7 -28 11.5t-41 4.5q-3 4 -3.5 14.5t3.5 14.5q103 -5 118 -5zM245 778q0 21 14.5 35.5t35.5 14.5t35.5 -14.5t14.5 -35.5t-14.5 -35.5t-35.5 -14.5t-35.5 14.5t-14.5 35.5z" />
    <glyph glyph-name="edotaccent" unicode="&#x117;" horiz-adv-x="430" 
d="M116 285h163q23 0 23 23q0 30 -21 62t-61 32q-37 0 -63 -29t-35 -58.5t-6 -29.5zM111 248v-7q0 -88 47 -136.5t116 -48.5q36 0 65 17.5t45 35.5q1 0 2.5 -1.5t3.5 -5t2 -7.5q0 -8 -6 -18q-19 -31 -56.5 -58t-89.5 -27q-88 0 -144 59.5t-56 148.5q0 96 63.5 167t133.5 71
q42 0 73.5 -15t47 -38.5t22.5 -44t7 -38.5q0 -46 -24 -47q-109 -7 -252 -7zM197 593q0 21 14.5 35.5t35.5 14.5t35.5 -14.5t14.5 -35.5t-14.5 -35.5t-35.5 -14.5t-35.5 14.5t-14.5 35.5z" />
    <glyph glyph-name="Eogonek" unicode="&#x118;" horiz-adv-x="587" 
d="M163 657q45 0 155.5 3.5t166.5 3.5q4 -29 15.5 -76.5t13.5 -59.5q-5 -5 -18 -5t-14 7q-15 56 -43 75t-73 19h-86q-66 0 -69 -11q-5 -16 -5 -71v-187q0 -6 43 -6h53q67 0 82 9.5t26 53.5q1 6 2 9q1 7 15 7q12 0 17 -5v-189q-4 -4 -16 -4q-13 0 -16 8q-7 28 -12 41.5t-8 17
t-8 7.5q-13 8 -106 8q-72 0 -72 -9v-190q0 -64 6 -69q13 -10 71 -10h48q82 0 126 27q33 19 63 101q2 6 14 6q19 0 25 -6q-5 -13 -15.5 -41.5t-16.5 -46t-13 -40.5t-9 -38q-42 0 -83.5 -42t-41.5 -76q0 -16 9 -29.5t32 -13.5t41.5 9.5t28.5 19t11 9.5q4 0 4 -13t-4 -18
q-50 -66 -105 -66q-37 0 -54 25t-17 52q0 35 31 74.5t73 69.5q-246 3 -266 3q-24 0 -62 -1.5t-57 -1.5q-4 4 -3.5 14.5t3.5 14.5q15 0 41 4.5t28 11.5q5 16 5 74v427q0 58 -5 74q-2 7 -28 11.5t-41 4.5q-3 4 -3.5 14.5t3.5 14.5q103 -5 118 -5z" />
    <glyph glyph-name="eogonek" unicode="&#x119;" horiz-adv-x="431" 
d="M338 25q-46 -39 -72 -73.5t-26 -73.5q0 -16 9 -29.5t32 -13.5t41.5 9.5t28.5 19t11 9.5q4 0 4 -13t-4 -18q-50 -66 -105 -66q-37 0 -54 25t-17 52q0 29 23 69t55 72q-16 -2 -24 -2q-88 0 -144 59.5t-56 148.5q0 96 63.5 167t133.5 71q42 0 73.5 -15t47 -38.5t22.5 -44
t7 -38.5q0 -46 -24 -47q-109 -7 -252 -7q-2 -91 45.5 -141.5t117.5 -50.5q36 0 65 17.5t45 35.5q1 0 2.5 -1.5t3.5 -5t2 -7.5q0 -8 -6 -18q-16 -24 -48 -52zM116 285h163q22 0 23 23q1 26 -20.5 60t-61.5 34q-37 0 -63 -29t-35 -58.5t-6 -29.5z" />
    <glyph glyph-name="Ecaron" unicode="&#x11a;" horiz-adv-x="587" 
d="M307 727q-4 0 -12 8q-20 22 -50.5 53t-51.5 54q0 17 10 17l104 -64l104 64q4 0 7.5 -6t3.5 -11q-13 -14 -46 -47.5t-57 -59.5q-8 -8 -12 -8zM163 657q45 0 155.5 3.5t166.5 3.5q4 -29 15.5 -76.5t13.5 -59.5q-5 -5 -18 -5t-14 7q-15 56 -43 75t-73 19h-86q-66 0 -69 -11
q-5 -16 -5 -71v-187q0 -6 43 -6h53q67 0 82 9.5t26 53.5q1 6 2 9q1 7 15 7q12 0 17 -5v-189q-4 -4 -16 -4q-13 0 -16 8q-7 28 -12 41.5t-8 17t-8 7.5q-13 8 -106 8q-72 0 -72 -9v-190q0 -64 6 -69q13 -10 71 -10h48q82 0 126 27q33 19 63 101q2 6 14 6q19 0 25 -6
q-5 -13 -15.5 -41.5t-16.5 -46t-13 -40.5t-9 -38q-51 0 -161 2t-180 2q-24 0 -62 -1.5t-57 -1.5q-4 4 -3.5 14.5t3.5 14.5q15 0 41 4.5t28 11.5q5 16 5 74v427q0 58 -5 74q-2 7 -28 11.5t-41 4.5q-3 4 -3.5 14.5t3.5 14.5q103 -5 118 -5z" />
    <glyph glyph-name="ecaron" unicode="&#x11b;" horiz-adv-x="430" 
d="M116 285h163q23 0 23 23q0 30 -21 62t-61 32q-37 0 -63 -29t-35 -58.5t-6 -29.5zM111 248v-7q0 -88 47 -136.5t116 -48.5q36 0 65 17.5t45 35.5q1 0 2.5 -1.5t3.5 -5t2 -7.5q0 -8 -6 -18q-19 -31 -56.5 -58t-89.5 -27q-88 0 -144 59.5t-56 148.5q0 96 63.5 167t133.5 71
q42 0 73.5 -15t47 -38.5t22.5 -44t7 -38.5q0 -46 -24 -47q-109 -7 -252 -7zM240 497q-6 0 -11 9q-29 47 -94 132q0 5 3.5 9t7.5 4l94 -83q55 49 94 83q4 0 7.5 -4t3.5 -9q-65 -85 -94 -132q-5 -9 -11 -9z" />
    <glyph glyph-name="Gcircumflex" unicode="&#x11c;" horiz-adv-x="720" 
d="M535 175q0 58 -5 74q-2 7 -27.5 11.5t-40.5 4.5q-3 4 -3.5 14.5t3.5 14.5q102 -5 117 -5q9 0 112 5q4 -4 3.5 -14.5t-3.5 -14.5q-15 0 -39 -4.5t-26 -11.5q-5 -16 -5 -74v-71q0 -12 5 -24t5 -16q0 -7 -20 -18q-30 -16 -50.5 -24.5t-69 -18t-109.5 -9.5q-145 0 -239.5 96
t-94.5 232q0 143 96.5 244t241.5 101q115 0 212 -21q23 -138 23 -148q1 -4 -6.5 -8.5t-15.5 -4.5q-7 0 -12 3q-28 146 -196 146q-106 0 -175 -89.5t-69 -201.5q0 -60 16.5 -115.5t47.5 -101t82 -72.5t114 -27q57 0 121 32q7 3 7 15v101zM385 859q4 0 12 -8q20 -22 50.5 -53
t51.5 -54q0 -17 -10 -17l-104 64l-104 -64q-4 0 -7.5 6t-3.5 11q13 14 46 47.5t57 59.5q8 8 12 8z" />
    <glyph glyph-name="gcircumflex" unicode="&#x11d;" horiz-adv-x="466" 
d="M215 409q-40 0 -64 -35.5t-24 -81.5q0 -49 26.5 -87t69.5 -38q39 0 62 34.5t23 79.5q0 51 -24.5 89.5t-68.5 38.5zM255 -4q-84 0 -93 -5q-60 -34 -60 -67q0 -50 36 -81t98 -31q53 0 102 33.5t49 73.5q0 27 -34 52t-98 25zM301 67q60 0 107.5 -31.5t47.5 -73.5
q0 -65 -80 -126.5t-180 -62.5q-67 -1 -120 31.5t-53 90.5q0 29 34 57t72 47q-31 10 -56.5 34.5t-25.5 58.5q11 14 40 36t46 32q-37 20 -60 55.5t-23 72.5q0 60 49 105.5t120 45.5q34 0 91 -22q13 -5 23 -7l107 15q10 -3 10 -10t-8 -22t-15 -19l-66 4q-4 0 -4 -3
q7 -7 17.5 -34t10.5 -57q0 -55 -50 -101t-119 -46q-34 0 -56 9q-37 -21 -37 -44q0 -10 16.5 -22.5t43.5 -12.5h118zM226 676q6 0 11 -9q29 -47 94 -132q0 -5 -3.5 -9t-7.5 -4l-94 76q-59 -48 -94 -76q-4 0 -7.5 4t-3.5 9q65 85 94 132q5 9 11 9z" />
    <glyph glyph-name="Gbreve" unicode="&#x11e;" horiz-adv-x="720" 
d="M535 175q0 58 -5 74q-2 7 -27.5 11.5t-40.5 4.5q-3 4 -3.5 14.5t3.5 14.5q102 -5 117 -5q9 0 112 5q4 -4 3.5 -14.5t-3.5 -14.5q-15 0 -39 -4.5t-26 -11.5q-5 -16 -5 -74v-71q0 -12 5 -24t5 -16q0 -7 -20 -18q-30 -16 -50.5 -24.5t-69 -18t-109.5 -9.5q-145 0 -239.5 96
t-94.5 232q0 143 96.5 244t241.5 101q115 0 212 -21q23 -138 23 -148q1 -4 -6.5 -8.5t-15.5 -4.5q-7 0 -12 3q-28 146 -196 146q-106 0 -175 -89.5t-69 -201.5q0 -60 16.5 -115.5t47.5 -101t82 -72.5t114 -27q57 0 121 32q7 3 7 15v101zM468 833q7 0 14.5 -6t7.5 -11
q0 -4 -1 -6q-10 -38 -40.5 -61.5t-67.5 -23.5t-67.5 23.5t-40.5 61.5q-1 2 -1 6q0 5 7.5 11t14.5 6q21 -62 87 -62t87 62z" />
    <glyph glyph-name="gbreve" unicode="&#x11f;" horiz-adv-x="466" 
d="M215 409q-40 0 -64 -35.5t-24 -81.5q0 -49 26.5 -87t69.5 -38q39 0 62 34.5t23 79.5q0 51 -24.5 89.5t-68.5 38.5zM255 -4q-84 0 -93 -5q-60 -34 -60 -67q0 -50 36 -81t98 -31q53 0 102 33.5t49 73.5q0 27 -34 52t-98 25zM301 67q60 0 107.5 -31.5t47.5 -73.5
q0 -65 -80 -126.5t-180 -62.5q-67 -1 -120 31.5t-53 90.5q0 29 34 57t72 47q-31 10 -56.5 34.5t-25.5 58.5q11 14 40 36t46 32q-37 20 -60 55.5t-23 72.5q0 60 49 105.5t120 45.5q34 0 91 -22q13 -5 23 -7l107 15q10 -3 10 -10t-8 -22t-15 -19l-66 4q-4 0 -4 -3
q7 -7 17.5 -34t10.5 -57q0 -55 -50 -101t-119 -46q-34 0 -56 9q-37 -21 -37 -44q0 -10 16.5 -22.5t43.5 -12.5h118zM237 543q31 0 55 20t32 52q0 3 4 3q5 0 11.5 -4.5t6.5 -8.5v-3q-1 -4 -1 -5q-7 -41 -37.5 -70.5t-70.5 -29.5t-70.5 29t-37.5 72q0 1 -1 4v3q0 4 6.5 8.5
t11.5 4.5q4 0 4 -3q8 -32 32 -52t55 -20z" />
    <glyph glyph-name="Gdotaccent" unicode="&#x120;" horiz-adv-x="720" 
d="M535 175q0 58 -5 74q-2 7 -27.5 11.5t-40.5 4.5q-3 4 -3.5 14.5t3.5 14.5q102 -5 117 -5q9 0 112 5q4 -4 3.5 -14.5t-3.5 -14.5q-15 0 -39 -4.5t-26 -11.5q-5 -16 -5 -74v-71q0 -12 5 -24t5 -16q0 -7 -20 -18q-30 -16 -50.5 -24.5t-69 -18t-109.5 -9.5q-145 0 -239.5 96
t-94.5 232q0 143 96.5 244t241.5 101q115 0 212 -21q23 -138 23 -148q1 -4 -6.5 -8.5t-15.5 -4.5q-7 0 -12 3q-28 146 -196 146q-106 0 -175 -89.5t-69 -201.5q0 -60 16.5 -115.5t47.5 -101t82 -72.5t114 -27q57 0 121 32q7 3 7 15v101zM333 778q0 21 14.5 35.5t35.5 14.5
t35.5 -14.5t14.5 -35.5t-14.5 -35.5t-35.5 -14.5t-35.5 14.5t-14.5 35.5z" />
    <glyph glyph-name="gdotaccent" unicode="&#x121;" horiz-adv-x="466" 
d="M215 409q-40 0 -64 -35.5t-24 -81.5q0 -49 26.5 -87t69.5 -38q39 0 62 34.5t23 79.5q0 51 -24.5 89.5t-68.5 38.5zM255 -4q-84 0 -93 -5q-60 -34 -60 -67q0 -50 36 -81t98 -31q53 0 102 33.5t49 73.5q0 27 -34 52t-98 25zM301 67q60 0 107.5 -31.5t47.5 -73.5
q0 -65 -80 -126.5t-180 -62.5q-67 -1 -120 31.5t-53 90.5q0 29 34 57t72 47q-31 10 -56.5 34.5t-25.5 58.5q11 14 40 36t46 32q-37 20 -60 55.5t-23 72.5q0 60 49 105.5t120 45.5q34 0 91 -22q13 -5 23 -7l107 15q10 -3 10 -10t-8 -22t-15 -19l-66 4q-4 0 -4 -3
q7 -7 17.5 -34t10.5 -57q0 -55 -50 -101t-119 -46q-34 0 -56 9q-37 -21 -37 -44q0 -10 16.5 -22.5t43.5 -12.5h118zM177 593q0 21 14.5 35.5t35.5 14.5t35.5 -14.5t14.5 -35.5t-14.5 -35.5t-35.5 -14.5t-35.5 14.5t-14.5 35.5z" />
    <glyph glyph-name="Gcommaaccent" unicode="&#x122;" horiz-adv-x="720" 
d="M535 175q0 58 -5 74q-2 7 -27.5 11.5t-40.5 4.5q-3 4 -3.5 14.5t3.5 14.5q102 -5 117 -5q9 0 112 5q4 -4 3.5 -14.5t-3.5 -14.5q-15 0 -39 -4.5t-26 -11.5q-5 -16 -5 -74v-71q0 -12 5 -24t5 -16q0 -7 -20 -18q-30 -16 -50.5 -24.5t-69 -18t-109.5 -9.5q-145 0 -239.5 96
t-94.5 232q0 143 96.5 244t241.5 101q115 0 212 -21q23 -138 23 -148q1 -4 -6.5 -8.5t-15.5 -4.5q-7 0 -12 3q-28 146 -196 146q-106 0 -175 -89.5t-69 -201.5q0 -60 16.5 -115.5t47.5 -101t82 -72.5t114 -27q57 0 121 32q7 3 7 15v101zM381 -46q18 0 32 -9q10 -15 10 -41
q0 -42 -29 -78.5t-70 -54.5q-6 1 -11 6.5t-5 8.5q16 8 34 27t18 39q0 8 -17.5 21.5t-17.5 36.5q0 12 13.5 28t42.5 16z" />
    <glyph glyph-name="gcommaaccent" unicode="&#x123;" horiz-adv-x="466" 
d="M215 409q-40 0 -64 -35.5t-24 -81.5q0 -49 26.5 -87t69.5 -38q39 0 62 34.5t23 79.5q0 51 -24.5 89.5t-68.5 38.5zM255 -4q-84 0 -93 -5q-60 -34 -60 -67q0 -50 36 -81t98 -31q53 0 102 33.5t49 73.5q0 27 -34 52t-98 25zM301 67q60 0 107.5 -31.5t47.5 -73.5
q0 -65 -80 -126.5t-180 -62.5q-67 -1 -120 31.5t-53 90.5q0 29 34 57t72 47q-31 10 -56.5 34.5t-25.5 58.5q11 14 40 36t46 32q-37 20 -60 55.5t-23 72.5q0 60 49 105.5t120 45.5q34 0 91 -22q13 -5 23 -7l107 15q10 -3 10 -10t-8 -22t-15 -19l-66 4q-4 0 -4 -3
q7 -7 17.5 -34t10.5 -57q0 -55 -50 -101t-119 -46q-34 0 -56 9q-37 -21 -37 -44q0 -10 16.5 -22.5t43.5 -12.5h118zM277 538q0 -22 -19 -38.5t-60 -16.5q-9 7 -15.5 23.5t-6.5 29.5q0 45 27 78t55 48q2 2 8 2q20 0 20 -7l-23 -22q-23 -23 -23 -37q0 -13 18.5 -29t18.5 -31z
" />
    <glyph glyph-name="Hcircumflex" unicode="&#x124;" horiz-adv-x="726" 
d="M163 657q15 0 117 5q4 -4 3.5 -16t-3.5 -16q-15 0 -41 -4.5t-28 -11.5q-5 -16 -5 -74v-175l2 -3q147 -3 157 -3q18 0 153 3q2 2 2 4v174q0 58 -5 74q-2 7 -28 11.5t-41 4.5q-3 4 -3.5 16t3.5 16q102 -5 118 -5q14 0 117 5q4 -4 3.5 -16t-3.5 -16q-15 0 -41 -4.5
t-28 -11.5q-5 -16 -5 -74v-421q0 -58 5 -74q2 -7 28 -11.5t41 -4.5q3 -4 3.5 -16t-3.5 -16q-103 5 -117 5q-16 0 -118 -5q-4 4 -3.5 16t3.5 16q15 0 41 4.5t28 11.5q5 16 5 74v198l-2 4q-12 0 -67.5 2t-85.5 2q-146 0 -158 -6l-1 -2v-198q0 -58 5 -74q2 -7 28 -11.5t41 -4.5
q3 -4 3.5 -16t-3.5 -16q-102 5 -117 5t-118 -5q-4 4 -3.5 16t3.5 16q15 0 41 4.5t28 11.5q5 16 5 74v421q0 58 -5 74q-2 7 -28 11.5t-41 4.5q-3 4 -3.5 16t3.5 16q103 -5 118 -5zM367 859q4 0 12 -8q20 -22 50.5 -53t51.5 -54q0 -17 -10 -17l-104 64l-104 -64q-4 0 -7.5 6
t-3.5 11q13 14 46 47.5t57 59.5q8 8 12 8z" />
    <glyph glyph-name="hcircumflex" unicode="&#x125;" horiz-adv-x="516" 
d="M308 438q77 0 103 -48t26 -164v-110q0 -58 5 -74q2 -7 25.5 -11.5t37.5 -4.5q3 -4 3.5 -14.5t-3.5 -14.5q-102 5 -107 5q-3 0 -106 -5q-4 4 -3.5 14.5t3.5 14.5q14 0 37.5 4.5t25.5 11.5q5 16 5 74v100q0 94 -20 129t-78 35q-25 0 -60 -23t-35 -32v-209q0 -58 5 -74
q2 -7 25.5 -11.5t37.5 -4.5q3 -4 3.5 -14.5t-3.5 -14.5q-102 5 -107 5q-3 0 -106 -5q-4 4 -3.5 14.5t3.5 14.5q14 0 37.5 4.5t25.5 11.5q5 16 5 74v442q0 40 -5 52q-8 18 -61 18q-1 0 -1.5 6.5t0 13t2.5 6.5q69 7 142 40q4 0 7.5 -5.5t3.5 -10.5q-11 -32 -11 -87v-226
q0 -2 3 -2q1 0 3 2q20 22 61.5 47.5t73.5 25.5zM125 859q4 0 12 -8q20 -22 50.5 -53t51.5 -54q0 -17 -10 -17l-104 64l-104 -64q-4 0 -7.5 6t-3.5 11q13 14 46 47.5t57 59.5q8 8 12 8z" />
    <glyph glyph-name="Hbar" unicode="&#x126;" horiz-adv-x="726" 
d="M86 470q-5 0 -5 13q0 16 6 25h552q5 0 5 -13q0 -16 -6 -25h-552zM163 657q15 0 117 5q4 -4 3.5 -16t-3.5 -16q-15 0 -41 -4.5t-28 -11.5q-5 -16 -5 -74v-175l2 -3q147 -3 157 -3q18 0 153 3q2 2 2 4v174q0 58 -5 74q-2 7 -28 11.5t-41 4.5q-3 4 -3.5 16t3.5 16
q102 -5 118 -5q14 0 117 5q4 -4 3.5 -16t-3.5 -16q-15 0 -41 -4.5t-28 -11.5q-5 -16 -5 -74v-421q0 -58 5 -74q2 -7 28 -11.5t41 -4.5q3 -4 3.5 -16t-3.5 -16q-103 5 -117 5q-16 0 -118 -5q-4 4 -3.5 16t3.5 16q15 0 41 4.5t28 11.5q5 16 5 74v198l-2 4q-12 0 -67.5 2
t-85.5 2q-146 0 -158 -6l-1 -2v-198q0 -58 5 -74q2 -7 28 -11.5t41 -4.5q3 -4 3.5 -16t-3.5 -16q-102 5 -117 5t-118 -5q-4 4 -3.5 16t3.5 16q15 0 41 4.5t28 11.5q5 16 5 74v421q0 58 -5 74q-2 7 -28 11.5t-41 4.5q-3 4 -3.5 16t3.5 16q103 -5 118 -5z" />
    <glyph glyph-name="hbar" unicode="&#x127;" horiz-adv-x="516" 
d="M29 560h265q6 0 6 -8q0 -15 -6 -27h-266q-5 0 -5 12q0 13 6 23zM307 438q77 0 103 -48t26 -164v-110q0 -58 5 -74q2 -7 25.5 -11.5t37.5 -4.5q3 -4 3.5 -14.5t-3.5 -14.5q-102 5 -107 5q-3 0 -106 -5q-4 4 -3.5 14.5t3.5 14.5q14 0 37.5 4.5t25.5 11.5q5 16 5 74v100
q0 94 -20 129t-78 35q-25 0 -60 -23t-35 -32v-209q0 -58 5 -74q2 -7 25.5 -11.5t37.5 -4.5q3 -4 3.5 -14.5t-3.5 -14.5q-102 5 -107 5q-3 0 -106 -5q-4 4 -3.5 14.5t3.5 14.5q14 0 37.5 4.5t25.5 11.5q5 16 5 74v442q0 40 -5 52q-8 18 -61 18q-1 0 -1.5 6.5t0 13t2.5 6.5
q69 7 142 40q4 0 7.5 -5.5t3.5 -10.5q-11 -32 -11 -87v-226q0 -2 3 -2q1 0 3 2q20 22 61.5 47.5t73.5 25.5z" />
    <glyph glyph-name="Itilde" unicode="&#x128;" horiz-adv-x="324" 
d="M162 657q15 0 117 5q4 -4 3.5 -14.5t-3.5 -14.5q-15 0 -41 -4.5t-28 -11.5q-5 -16 -5 -74v-427q0 -58 5 -74q2 -7 28 -11.5t41 -4.5q3 -4 3.5 -14.5t-3.5 -14.5q-102 5 -117 5t-118 -5q-4 4 -3.5 14.5t3.5 14.5q15 0 41 4.5t28 11.5q5 16 5 74v427q0 58 -5 74
q-2 7 -28 11.5t-41 4.5q-3 4 -3.5 14.5t3.5 14.5q103 -5 118 -5zM116 811q27 0 67 -22q42 -24 61 -24q18 0 32 8.5t23 19t10 10.5q6 0 6 -10q0 -17 -14 -35q-31 -37 -69 -37q-27 0 -67 22q-42 24 -62 24q-18 0 -32 -8.5t-22.5 -19t-9.5 -10.5q-6 0 -6 11q0 17 14 35
q30 36 69 36z" />
    <glyph glyph-name="itilde" unicode="&#x129;" horiz-adv-x="270" 
d="M189 325v-209q0 -58 5 -74q2 -7 25.5 -11.5t37.5 -4.5q3 -4 3.5 -14.5t-3.5 -14.5q-103 5 -107 5t-106 -5q-4 4 -3.5 14.5t3.5 14.5q14 0 37.5 4.5t25.5 11.5q5 16 5 74v186q0 40 -5 52q-7 18 -65 18q-2 2 -2.5 12t2.5 14q85 12 143 42q4 0 7.5 -6t3.5 -10q-7 -49 -7 -66
v-33zM101 588q23 0 61 -23q38 -24 58 -24q16 0 28 8.5t19.5 19t8.5 11.5q6 0 6 -9q0 -17 -14 -38q-27 -37 -62 -37q-24 0 -60 22q-40 25 -59 25q-16 0 -27 -8.5t-17 -19t-8 -11.5q-8 0 -8 11q0 19 12 37q27 36 62 36z" />
    <glyph glyph-name="Imacron" unicode="&#x12a;" horiz-adv-x="324" 
d="M164 657q15 0 117 5q4 -4 3.5 -14.5t-3.5 -14.5q-15 0 -41 -4.5t-28 -11.5q-5 -16 -5 -74v-427q0 -58 5 -74q2 -7 28 -11.5t41 -4.5q3 -4 3.5 -14.5t-3.5 -14.5q-102 5 -117 5t-118 -5q-4 4 -3.5 14.5t3.5 14.5q15 0 41 4.5t28 11.5q5 16 5 74v427q0 58 -5 74
q-2 7 -28 11.5t-41 4.5q-3 4 -3.5 14.5t3.5 14.5q103 -5 118 -5zM291 756h-246q-7 3 -4 20t10 22h246q5 -4 3 -19t-9 -23z" />
    <glyph glyph-name="imacron" unicode="&#x12b;" horiz-adv-x="270" 
d="M189 325v-209q0 -58 5 -74q2 -7 25.5 -11.5t37.5 -4.5q3 -4 3.5 -14.5t-3.5 -14.5q-103 5 -107 5t-106 -5q-4 4 -3.5 14.5t3.5 14.5q14 0 37.5 4.5t25.5 11.5q5 16 5 74v186q0 40 -5 52q-7 18 -65 18q-2 2 -2.5 12t2.5 14q85 12 143 42q4 0 7.5 -6t3.5 -10q-7 -49 -7 -66
v-33zM245 525h-224q-7 3 -4 20t10 22h224q5 -4 3 -19t-9 -23z" />
    <glyph glyph-name="Ibreve" unicode="&#x12c;" horiz-adv-x="324" 
d="M163 657q15 0 117 5q4 -4 3.5 -14.5t-3.5 -14.5q-15 0 -41 -4.5t-28 -11.5q-5 -16 -5 -74v-427q0 -58 5 -74q2 -7 28 -11.5t41 -4.5q3 -4 3.5 -14.5t-3.5 -14.5q-102 5 -117 5t-118 -5q-4 4 -3.5 14.5t3.5 14.5q15 0 41 4.5t28 11.5q5 16 5 74v427q0 58 -5 74
q-2 7 -28 11.5t-41 4.5q-3 4 -3.5 14.5t3.5 14.5q103 -5 118 -5zM255 833q7 0 14.5 -6t7.5 -11q0 -4 -1 -6q-10 -38 -40.5 -61.5t-67.5 -23.5t-67.5 23.5t-40.5 61.5q-1 2 -1 6q0 5 7.5 11t14.5 6q21 -62 87 -62t87 62z" />
    <glyph glyph-name="ibreve" unicode="&#x12d;" horiz-adv-x="270" 
d="M188 325v-209q0 -58 5 -74q2 -7 25.5 -11.5t37.5 -4.5q3 -4 3.5 -14.5t-3.5 -14.5q-103 5 -107 5t-106 -5q-4 4 -3.5 14.5t3.5 14.5q14 0 37.5 4.5t25.5 11.5q5 16 5 74v186q0 40 -5 52q-7 18 -65 18q-2 2 -2.5 12t2.5 14q85 12 143 42q4 0 7.5 -6t3.5 -10q-7 -49 -7 -66
v-33zM155 543q31 0 55 20t32 52q0 3 4 3q5 0 11.5 -4.5t6.5 -8.5v-3q-1 -4 -1 -5q-7 -41 -37.5 -70.5t-70.5 -29.5t-70.5 29t-37.5 72q0 1 -1 4v3q0 4 6.5 8.5t11.5 4.5q4 0 4 -3q8 -32 32 -52t55 -20z" />
    <glyph glyph-name="Iogonek" unicode="&#x12e;" horiz-adv-x="328" 
d="M166 657q16 0 116 5q2 -6 2 -15q0 -14 -4 -14q-10 0 -36 -7t-28 -14q-9 -35 -9 -93v-380q0 -58 9 -93q2 -7 28 -13.5t36 -6.5q4 0 4 -15q0 -8 -2 -14q-45 3 -53 3q-40 -24 -73.5 -58t-33.5 -64q0 -16 9 -29.5t32 -13.5t41.5 9.5t28.5 19t11 9.5q4 0 4 -13t-4 -18
q-50 -66 -105 -66q-37 0 -54 25t-17 52q0 37 35 77.5t81 71.5h-18q-5 0 -120 -5q-4 4 -4 15q0 14 4 14q13 0 38.5 6t28.5 14q7 27 7 89v388q0 62 -7 89q-3 8 -28.5 14.5t-38.5 6.5q-4 0 -4 13q0 12 4 16q115 -5 120 -5z" />
    <glyph glyph-name="iogonek" unicode="&#x12f;" horiz-adv-x="268" 
d="M32 -3q-4 4 -4 16.5t4 12.5q12 0 35.5 6.5t25.5 13.5q7 29 7 70v189q0 39 -14 54q-10 12 -24.5 16.5t-24 4.5t-9.5 2q0 24 6 25q106 16 138 26l2 1h3q4 0 5 -8.5t0 -12.5q-5 -40 -5 -72v-206q0 -58 8 -89q2 -7 26 -13.5t34 -6.5q3 0 4 -12t-1 -17q-5 0 -18.5 0.5
t-18.5 1.5q-40 -25 -72.5 -58.5t-32.5 -62.5q0 -16 9 -29.5t32 -13.5t41.5 9.5t28.5 19t11 9.5q4 0 4 -13t-4 -18q-50 -66 -105 -66q-37 0 -54 25t-17 52q0 37 34.5 77t81.5 71q-4 0 -13 0.5t-14 0.5q-7 0 -109 -5zM90 593q0 21 14.5 35.5t35.5 14.5t35.5 -14.5t14.5 -35.5
t-14.5 -35.5t-35.5 -14.5t-35.5 14.5t-14.5 35.5z" />
    <glyph glyph-name="Idotaccent" unicode="&#x130;" horiz-adv-x="324" 
d="M163 657q15 0 117 5q4 -4 3.5 -14.5t-3.5 -14.5q-15 0 -41 -4.5t-28 -11.5q-5 -16 -5 -74v-427q0 -58 5 -74q2 -7 28 -11.5t41 -4.5q3 -4 3.5 -14.5t-3.5 -14.5q-102 5 -117 5t-118 -5q-4 4 -3.5 14.5t3.5 14.5q15 0 41 4.5t28 11.5q5 16 5 74v427q0 58 -5 74
q-2 7 -28 11.5t-41 4.5q-3 4 -3.5 14.5t3.5 14.5q103 -5 118 -5zM113 778q0 21 14.5 35.5t35.5 14.5t35.5 -14.5t14.5 -35.5t-14.5 -35.5t-35.5 -14.5t-35.5 14.5t-14.5 35.5z" />
    <glyph glyph-name="dotlessi" unicode="&#x131;" horiz-adv-x="270" 
d="M181 325v-209q0 -58 5 -74q2 -7 25.5 -11.5t37.5 -4.5q3 -4 3.5 -14.5t-3.5 -14.5q-103 5 -107 5t-106 -5q-4 4 -3.5 14.5t3.5 14.5q14 0 37.5 4.5t25.5 11.5q5 16 5 74v186q0 40 -5 52q-7 18 -65 18q-2 2 -2.5 12t2.5 14q85 12 143 42q4 0 7.5 -6t3.5 -10q-7 -49 -7 -66
v-33z" />
    <glyph glyph-name="IJ" unicode="&#x132;" horiz-adv-x="571" 
d="M416 657q14 0 117 5q4 -4 3.5 -14.5t-3.5 -14.5q-15 0 -41 -4.5t-28 -11.5q-5 -16 -5 -74v-422q0 -179 -63 -263.5t-171 -84.5q-12 0 -33 6t-30 12q-8 8 -8 23q0 24 12.5 40t35.5 16q17 0 48 -29q23 -21 45 -21q23 0 39 22t27 90.5t11 183.5v427q0 58 -5 74
q-2 7 -28 11.5t-41 4.5q-3 4 -3.5 14.5t3.5 14.5q102 -5 118 -5zM162 657q15 0 117 5q4 -4 3.5 -14.5t-3.5 -14.5q-15 0 -41 -4.5t-28 -11.5q-5 -16 -5 -74v-427q0 -58 5 -74q2 -7 28 -11.5t41 -4.5q3 -4 3.5 -14.5t-3.5 -14.5q-102 5 -117 5t-118 -5q-4 4 -3.5 14.5
t3.5 14.5q15 0 41 4.5t28 11.5q5 16 5 74v427q0 58 -5 74q-2 7 -28 11.5t-41 4.5q-3 4 -3.5 14.5t3.5 14.5q103 -5 118 -5z" />
    <glyph glyph-name="ij" unicode="&#x133;" horiz-adv-x="473" 
d="M326 45v257q0 40 -5 52q-7 18 -65 18q-2 2 -2.5 12t2.5 14q85 12 143 42q4 0 7.5 -6t3.5 -10q-7 -49 -7 -66v-34v-256q0 -68 -17 -123t-45 -89t-55 -54.5t-56 -32.5q-9 6 -13 15q-2 5 0 7q35 25 55 47.5t37 75.5t17 131zM300 593q0 21 14.5 35.5t35.5 14.5t35.5 -14.5
t14.5 -35.5t-14.5 -35.5t-35.5 -14.5t-35.5 14.5t-14.5 35.5zM181 325v-209q0 -58 5 -74q2 -7 25.5 -11.5t37.5 -4.5q3 -4 3.5 -14.5t-3.5 -14.5q-103 5 -107 5t-106 -5q-4 4 -3.5 14.5t3.5 14.5q14 0 37.5 4.5t25.5 11.5q5 16 5 74v186q0 40 -5 52q-7 18 -65 18
q-2 2 -2.5 12t2.5 14q85 12 143 42q4 0 7.5 -6t3.5 -10q-7 -49 -7 -66v-33zM85 593q0 21 14.5 35.5t35.5 14.5t35.5 -14.5t14.5 -35.5t-14.5 -35.5t-35.5 -14.5t-35.5 14.5t-14.5 35.5z" />
    <glyph glyph-name="Jcircumflex" unicode="&#x134;" horiz-adv-x="313" 
d="M158 657q14 0 117 5q4 -4 3.5 -14.5t-3.5 -14.5q-15 0 -41 -4.5t-28 -11.5q-5 -16 -5 -74v-422q0 -179 -63 -263.5t-171 -84.5q-12 0 -33 6t-30 12q-8 8 -8 23q0 24 12.5 40t35.5 16q17 0 48 -29q23 -21 45 -21q23 0 39 22t27 90.5t11 183.5v427q0 58 -5 74
q-2 7 -28 11.5t-41 4.5q-3 4 -3.5 14.5t3.5 14.5q102 -5 118 -5zM163 859q4 0 12 -8q20 -22 50.5 -53t51.5 -54q0 -17 -10 -17l-104 64l-104 -64q-4 0 -7.5 6t-3.5 11q13 14 46 47.5t57 59.5q8 8 12 8z" />
    <glyph glyph-name="jcircumflex" unicode="&#x135;" horiz-adv-x="239" 
d="M95 45v257q0 40 -5 52q-7 18 -65 18q-2 2 -2.5 12t2.5 14q85 12 143 42q4 0 7.5 -6t3.5 -10q-7 -49 -7 -66v-34v-256q0 -68 -17 -123t-45 -89t-55 -54.5t-56 -32.5q-9 6 -13 15q-2 5 0 7q35 25 55 47.5t37 75.5t17 131zM134 646q6 0 11 -9q29 -47 94 -132q0 -5 -3.5 -9
t-7.5 -4l-94 76q-59 -48 -94 -76q-4 0 -7.5 4t-3.5 9q65 85 94 132q5 9 11 9z" />
    <glyph glyph-name="Kcommaaccent" unicode="&#x136;" horiz-adv-x="657" 
d="M163 657q15 0 117 5q4 -4 3.5 -16t-3.5 -16q-15 0 -41 -4.5t-28 -11.5q-5 -16 -5 -74v-199q26 16 113 101q93 92 127 136q14 19 14 31q0 22 -56 22q-6 12 0 31q111 -6 115 -6q26 0 62.5 3t45.5 3q2 -4 1.5 -17.5t-3.5 -13.5l-8 -1q-8 0 -14.5 -1t-17.5 -3.5t-20.5 -6
t-20 -10t-18.5 -15.5q-30 -33 -62 -65.5t-51 -51t-59.5 -57t-58.5 -56.5q-3 -4 0 -8q5 -6 39 -45.5t41.5 -48.5t35 -40.5t39 -44t32.5 -35.5t37 -39t32 -31q45 -41 109 -46q3 -5 2 -15.5t-3 -13.5q-111 0 -142 11q-39 14 -68 43q-27 27 -225 253q-2 3 -9 3q-5 0 -9 -2v-186
q0 -58 5 -74q2 -7 28 -11.5t41 -4.5q3 -4 3.5 -16t-3.5 -16q-102 5 -117 5t-118 -5q-4 4 -3.5 16t3.5 16q15 0 41 4.5t28 11.5q5 16 5 74v421q0 58 -5 74q-2 7 -28 11.5t-41 4.5q-3 4 -3.5 16t3.5 16q103 -5 118 -5zM359 -46q18 0 32 -9q10 -15 10 -41q0 -42 -29 -78.5
t-70 -54.5q-6 1 -11 6.5t-5 8.5q16 8 34 27t18 39q0 8 -17.5 21.5t-17.5 36.5q0 12 13.5 28t42.5 16z" />
    <glyph glyph-name="kcommaaccent" unicode="&#x137;" horiz-adv-x="518" 
d="M166 116q0 -58 5 -74q2 -7 25.5 -11.5t37.5 -4.5q3 -4 3.5 -14.5t-3.5 -14.5q-102 5 -107 5q-3 0 -106 -5q-4 4 -3.5 14.5t3.5 14.5q14 0 37.5 4.5t25.5 11.5q5 16 5 74v442q0 40 -5 52q-8 18 -61 18q-1 0 -1.5 6.5t0 13t2.5 6.5q69 7 142 40q4 0 7.5 -5.5t3.5 -10.5
q-11 -32 -11 -87v-356q18 6 82 61q13 11 29.5 24.5t26 21.5l19 16t13.5 13t4 8q0 12 -48 17q-4 5 -3 16t5 13q48 -5 96 -5q51 0 88 5q3 -5 2.5 -15.5t-2.5 -13.5q-13 0 -38 -6.5t-39 -16.5q-111 -80 -162 -124q28 -31 71.5 -79.5t70.5 -78t38 -38.5q36 -29 92 -27
q2 -3 2.5 -11.5t-1.5 -12.5q-14 -6 -65 -6q-40 0 -74.5 14.5t-48.5 29.5q-86 93 -143 155l-15 9v-88zM262 -46q18 0 32 -9q10 -15 10 -41q0 -42 -29 -78.5t-70 -54.5q-6 1 -11 6.5t-5 8.5q16 8 34 27t18 39q0 8 -17.5 21.5t-17.5 36.5q0 12 13.5 28t42.5 16z" />
    <glyph glyph-name="kgreenlandic" unicode="&#x138;" horiz-adv-x="533" 
d="M181 358v-123q18 6 82 61q13 11 29.5 24.5t26 21.5l19 16t13.5 13t4 8q0 12 -48 17q-4 5 -3 16t5 13q48 -5 96 -5q51 0 88 5q3 -5 2.5 -15.5t-2.5 -13.5q-13 0 -38 -6.5t-39 -16.5q-111 -80 -162 -124q28 -31 71.5 -79.5t70.5 -78t38 -38.5q36 -29 92 -27q2 -3 2.5 -11.5
t-1.5 -12.5q-14 -6 -65 -6q-40 0 -74.5 14.5t-48.5 29.5q-86 93 -143 155l-15 9v-88q0 -58 5 -74q2 -7 25.5 -11.5t37.5 -4.5q3 -4 3.5 -14.5t-3.5 -14.5q-103 5 -107 5t-106 -5q-4 4 -3.5 14.5t3.5 14.5q14 0 37.5 4.5t25.5 11.5q5 16 5 74v186q0 40 -5 52q-7 18 -65 18
q-2 2 -2.5 12t2.5 14q85 12 143 42q4 0 7.5 -6t3.5 -10q-7 -49 -7 -66z" />
    <glyph glyph-name="Lacute" unicode="&#x139;" horiz-adv-x="564" 
d="M206 116q0 -67 6 -72q13 -10 71 -10h57q77 0 117 27q41 28 63 101q2 6 14 6q19 0 25 -6q-5 -13 -15.5 -41.5t-16.5 -46t-13 -40.5t-9 -38q-51 0 -161 2t-180 2q-24 0 -62 -1.5t-57 -1.5q-4 4 -3.5 14.5t3.5 14.5q15 0 41 4.5t28 11.5q5 16 5 74v427q0 58 -5 74
q-2 7 -28 11.5t-41 4.5q-3 4 -3.5 14.5t3.5 14.5q103 -5 118 -5t117 5q4 -4 3.5 -14.5t-3.5 -14.5q-15 0 -41 -4.5t-28 -11.5q-5 -16 -5 -74v-427zM134 737q0 6 48 54t73 67q6 3 18 3q46 0 46 -30q0 -23 -80 -63t-99 -40q-6 0 -6 9z" />
    <glyph glyph-name="lacute" unicode="&#x13a;" horiz-adv-x="255" 
d="M89 558q0 40 -5 52q-8 18 -61 18q-1 0 -1.5 6.5t0 13t2.5 6.5q69 7 142 40q4 0 7.5 -5.5t3.5 -10.5q-11 -32 -11 -87v-475q0 -58 5 -74q2 -7 25.5 -11.5t37.5 -4.5q3 -4 3.5 -14.5t-3.5 -14.5q-102 5 -107 5q-3 0 -106 -5q-4 4 -3.5 14.5t3.5 14.5q14 0 37.5 4.5
t25.5 11.5q5 16 5 74v442zM73 737q0 6 48 54t73 67q6 3 18 3q46 0 46 -30q0 -23 -80 -63t-99 -40q-6 0 -6 9z" />
    <glyph glyph-name="Lcommaaccent" unicode="&#x13b;" horiz-adv-x="564" 
d="M206 116q0 -67 6 -72q13 -10 71 -10h57q77 0 117 27q41 28 63 101q2 6 14 6q19 0 25 -6q-5 -13 -15.5 -41.5t-16.5 -46t-13 -40.5t-9 -38q-51 0 -161 2t-180 2q-24 0 -62 -1.5t-57 -1.5q-4 4 -3.5 14.5t3.5 14.5q15 0 41 4.5t28 11.5q5 16 5 74v427q0 58 -5 74
q-2 7 -28 11.5t-41 4.5q-3 4 -3.5 14.5t3.5 14.5q103 -5 118 -5t117 5q4 -4 3.5 -14.5t-3.5 -14.5q-15 0 -41 -4.5t-28 -11.5q-5 -16 -5 -74v-427zM322 -46q18 0 32 -9q10 -15 10 -41q0 -42 -29 -78.5t-70 -54.5q-6 1 -11 6.5t-5 8.5q16 8 34 27t18 39q0 8 -17.5 21.5
t-17.5 36.5q0 12 13.5 28t42.5 16z" />
    <glyph glyph-name="lcommaaccent" unicode="&#x13c;" horiz-adv-x="255" 
d="M88 558q0 40 -5 52q-8 18 -61 18q-1 0 -1.5 6.5t0 13t2.5 6.5q69 7 142 40q4 0 7.5 -5.5t3.5 -10.5q-11 -32 -11 -87v-475q0 -58 5 -74q2 -7 25.5 -11.5t37.5 -4.5q3 -4 3.5 -14.5t-3.5 -14.5q-102 5 -107 5q-3 0 -106 -5q-4 4 -3.5 14.5t3.5 14.5q14 0 37.5 4.5
t25.5 11.5q5 16 5 74v442zM135 -46q18 0 32 -9q10 -15 10 -41q0 -42 -29 -78.5t-70 -54.5q-6 1 -11 6.5t-5 8.5q16 8 34 27t18 39q0 8 -17.5 21.5t-17.5 36.5q0 12 13.5 28t42.5 16z" />
    <glyph glyph-name="Lcaron" unicode="&#x13d;" horiz-adv-x="582" 
d="M206 116q0 -67 6 -72q13 -10 71 -10h57q77 0 117 27q41 28 63 101q2 6 14 6q19 0 25 -6q-5 -13 -15.5 -41.5t-16.5 -46t-13 -40.5t-9 -38q-51 0 -161 2t-180 2q-24 0 -62 -1.5t-57 -1.5q-4 4 -3.5 14.5t3.5 14.5q15 0 41 4.5t28 11.5q5 16 5 74v427q0 58 -5 74
q-2 7 -28 11.5t-41 4.5q-3 4 -3.5 14.5t3.5 14.5q103 -5 118 -5t117 5q4 -4 3.5 -14.5t-3.5 -14.5q-15 0 -41 -4.5t-28 -11.5q-5 -16 -5 -74v-427zM511 667q10 0 22 -6q14 -23 14 -56q0 -74 -70 -151q-5 0 -12 3.5t-7 7.5q31 40 31 81q0 25 -14 44.5t-14 34.5t14 28.5
t36 13.5z" />
    <glyph glyph-name="lcaron" unicode="&#x13e;" horiz-adv-x="273" 
d="M89 558q0 40 -5 52q-8 18 -61 18q-1 0 -1.5 6.5t0 13t2.5 6.5q69 7 142 40q4 0 7.5 -5.5t3.5 -10.5q-11 -32 -11 -87v-475q0 -58 5 -74q2 -7 25.5 -11.5t37.5 -4.5q3 -4 3.5 -14.5t-3.5 -14.5q-102 5 -107 5q-3 0 -106 -5q-4 4 -3.5 14.5t3.5 14.5q14 0 37.5 4.5
t25.5 11.5q5 16 5 74v442zM299 694q10 0 22 -6q14 -23 14 -56q0 -74 -70 -151q-5 0 -12 3.5t-7 7.5q31 40 31 81q0 25 -14 44.5t-14 34.5t14 28.5t36 13.5z" />
    <glyph glyph-name="Ldot" unicode="&#x13f;" horiz-adv-x="564" 
d="M206 116q0 -67 6 -72q13 -10 71 -10h57q77 0 117 27q41 28 63 101q2 6 14 6q19 0 25 -6q-5 -13 -15.5 -41.5t-16.5 -46t-13 -40.5t-9 -38q-51 0 -161 2t-180 2q-24 0 -62 -1.5t-57 -1.5q-4 4 -3.5 14.5t3.5 14.5q15 0 41 4.5t28 11.5q5 16 5 74v427q0 58 -5 74
q-2 7 -28 11.5t-41 4.5q-3 4 -3.5 14.5t3.5 14.5q103 -5 118 -5t117 5q4 -4 3.5 -14.5t-3.5 -14.5q-15 0 -41 -4.5t-28 -11.5q-5 -16 -5 -74v-427zM397 314q0 21 14.5 35.5t35.5 14.5t35.5 -14.5t14.5 -35.5t-14.5 -35.5t-35.5 -14.5t-35.5 14.5t-14.5 35.5z" />
    <glyph glyph-name="ldot" unicode="&#x140;" horiz-adv-x="386" 
d="M89 558q0 40 -5 52q-8 18 -61 18q-1 0 -1.5 6.5t0 13t2.5 6.5q69 7 142 40q4 0 7.5 -5.5t3.5 -10.5q-11 -32 -11 -87v-475q0 -58 5 -74q2 -7 25.5 -11.5t37.5 -4.5q3 -4 3.5 -14.5t-3.5 -14.5q-102 5 -107 5q-3 0 -106 -5q-4 4 -3.5 14.5t3.5 14.5q14 0 37.5 4.5
t25.5 11.5q5 16 5 74v442zM269 294q0 21 14.5 35.5t35.5 14.5t35.5 -14.5t14.5 -35.5t-14.5 -35.5t-35.5 -14.5t-35.5 14.5t-14.5 35.5z" />
    <glyph glyph-name="Lslash" unicode="&#x141;" horiz-adv-x="564" 
d="M384 447q5 -5 13 -17t5 -14l-351 -238q-6 6 -13 16.5t-4 12.5zM206 116q0 -67 6 -72q13 -10 71 -10h57q77 0 117 27q41 28 63 101q2 6 14 6q19 0 25 -6q-5 -13 -15.5 -41.5t-16.5 -46t-13 -40.5t-9 -38q-51 0 -161 2t-180 2q-24 0 -62 -1.5t-57 -1.5q-4 4 -3.5 14.5
t3.5 14.5q15 0 41 4.5t28 11.5q5 16 5 74v427q0 58 -5 74q-2 7 -28 11.5t-41 4.5q-3 4 -3.5 14.5t3.5 14.5q103 -5 118 -5t117 5q4 -4 3.5 -14.5t-3.5 -14.5q-15 0 -41 -4.5t-28 -11.5q-5 -16 -5 -74v-427z" />
    <glyph glyph-name="lslash" unicode="&#x142;" horiz-adv-x="255" 
d="M35 260q-21 22 -15 28l197 135q21 -21 16 -27zM89 558q0 40 -5 52q-8 18 -61 18q-1 0 -1.5 6.5t0 13t2.5 6.5q69 7 142 40q4 0 7.5 -5.5t3.5 -10.5q-11 -32 -11 -87v-475q0 -58 5 -74q2 -7 25.5 -11.5t37.5 -4.5q3 -4 3.5 -14.5t-3.5 -14.5q-102 5 -107 5q-3 0 -106 -5
q-4 4 -3.5 14.5t3.5 14.5q14 0 37.5 4.5t25.5 11.5q5 16 5 74v442z" />
    <glyph glyph-name="Nacute" unicode="&#x143;" horiz-adv-x="776" 
d="M143 660q48 0 76 2q25 -39 180 -228t212 -268v58v321q0 53 -10 69q-4 7 -32.5 13.5t-43.5 6.5q-8 11 -2 29q100 -5 115 -5q20 0 36 1t35 2t36 2q7 -13 0 -29q-14 0 -43.5 -6t-34.5 -14q-10 -17 -10 -68v-407q0 -86 2 -138q-1 -6 -13 -6q-17 0 -35 23l-436 551v-454
q0 -53 10 -69q4 -7 32 -13.5t43 -6.5q8 -11 2 -29q-100 5 -114 5q-20 0 -36 -1t-35 -2t-36 -2q-7 13 0 29q14 0 43.5 6t34.5 14q10 17 10 68v434q0 51 -10 68q-5 8 -34.5 14t-43.5 6q-7 16 0 29q16 -1 49.5 -3t52.5 -2zM308 737q0 6 48 54t73 67q6 3 18 3q46 0 46 -30
q0 -23 -80 -63t-99 -40q-6 0 -6 9z" />
    <glyph glyph-name="nacute" unicode="&#x144;" horiz-adv-x="532" 
d="M322 438q77 0 103 -48t26 -164v-110q0 -58 5 -74q2 -7 25.5 -11.5t37.5 -4.5q3 -4 3.5 -14.5t-3.5 -14.5q-103 5 -107 5t-106 -5q-4 4 -3.5 14.5t3.5 14.5q14 0 37.5 4.5t25.5 11.5q5 16 5 74v100q0 94 -20 129t-78 35q-25 0 -60 -23t-35 -32v-209q0 -58 5 -74
q2 -7 25.5 -11.5t37.5 -4.5q3 -4 3.5 -14.5t-3.5 -14.5q-103 5 -107 5t-106 -5q-4 4 -3.5 14.5t3.5 14.5q14 0 37.5 4.5t25.5 11.5q5 16 5 74v182q0 44 -5 56q-7 18 -65 18q-2 2 -2.5 12t2.5 14q85 12 143 42q4 0 7.5 -6t3.5 -10q-6 -42 -6 -57q0 -4 2 -4q1 0 3 2
q20 22 61.5 47.5t73.5 25.5zM364 656q36 0 36 -29q0 -21 -70 -76t-81 -55q-9 0 -9 13q0 4 36.5 56.5t60.5 82.5q8 8 27 8z" />
    <glyph glyph-name="Ncommaaccent" unicode="&#x145;" horiz-adv-x="776" 
d="M143 660q48 0 76 2q25 -39 180 -228t212 -268v58v321q0 53 -10 69q-4 7 -32.5 13.5t-43.5 6.5q-8 11 -2 29q100 -5 115 -5q20 0 36 1t35 2t36 2q7 -13 0 -29q-14 0 -43.5 -6t-34.5 -14q-10 -17 -10 -68v-407q0 -86 2 -138q-1 -6 -13 -6q-17 0 -35 23l-436 551v-454
q0 -53 10 -69q4 -7 32 -13.5t43 -6.5q8 -11 2 -29q-100 5 -114 5q-20 0 -36 -1t-35 -2t-36 -2q-7 13 0 29q14 0 43.5 6t34.5 14q10 17 10 68v434q0 51 -10 68q-5 8 -34.5 14t-43.5 6q-7 16 0 29q16 -1 49.5 -3t52.5 -2zM391 -46q18 0 32 -9q10 -15 10 -41q0 -42 -29 -78.5
t-70 -54.5q-6 1 -11 6.5t-5 8.5q16 8 34 27t18 39q0 8 -17.5 21.5t-17.5 36.5q0 12 13.5 28t42.5 16z" />
    <glyph glyph-name="ncommaaccent" unicode="&#x146;" horiz-adv-x="532" 
d="M321 438q77 0 103 -48t26 -164v-110q0 -58 5 -74q2 -7 25.5 -11.5t37.5 -4.5q3 -4 3.5 -14.5t-3.5 -14.5q-103 5 -107 5t-106 -5q-4 4 -3.5 14.5t3.5 14.5q14 0 37.5 4.5t25.5 11.5q5 16 5 74v100q0 94 -20 129t-78 35q-25 0 -60 -23t-35 -32v-209q0 -58 5 -74
q2 -7 25.5 -11.5t37.5 -4.5q3 -4 3.5 -14.5t-3.5 -14.5q-103 5 -107 5t-106 -5q-4 4 -3.5 14.5t3.5 14.5q14 0 37.5 4.5t25.5 11.5q5 16 5 74v182q0 44 -5 56q-7 18 -65 18q-2 2 -2.5 12t2.5 14q85 12 143 42q4 0 7.5 -6t3.5 -10q-6 -42 -6 -57q0 -4 2 -4q1 0 3 2
q20 22 61.5 47.5t73.5 25.5zM278 -46q18 0 32 -9q10 -15 10 -41q0 -42 -29 -78.5t-70 -54.5q-6 1 -11 6.5t-5 8.5q16 8 34 27t18 39q0 8 -17.5 21.5t-17.5 36.5q0 12 13.5 28t42.5 16z" />
    <glyph glyph-name="Ncaron" unicode="&#x147;" horiz-adv-x="776" 
d="M377 727q-4 0 -12 8q-20 22 -50.5 53t-51.5 54q0 17 10 17l104 -64l104 64q4 0 7.5 -6t3.5 -11q-13 -14 -46 -47.5t-57 -59.5q-8 -8 -12 -8zM143 660q48 0 76 2q25 -39 180 -228t212 -268v58v321q0 53 -10 69q-4 7 -32.5 13.5t-43.5 6.5q-8 11 -2 29q100 -5 115 -5
q20 0 36 1t35 2t36 2q7 -13 0 -29q-14 0 -43.5 -6t-34.5 -14q-10 -17 -10 -68v-407q0 -86 2 -138q-1 -6 -13 -6q-17 0 -35 23l-436 551v-454q0 -53 10 -69q4 -7 32 -13.5t43 -6.5q8 -11 2 -29q-100 5 -114 5q-20 0 -36 -1t-35 -2t-36 -2q-7 13 0 29q14 0 43.5 6t34.5 14
q10 17 10 68v434q0 51 -10 68q-5 8 -34.5 14t-43.5 6q-7 16 0 29q16 -1 49.5 -3t52.5 -2z" />
    <glyph glyph-name="ncaron" unicode="&#x148;" horiz-adv-x="532" 
d="M322 438q77 0 103 -48t26 -164v-110q0 -58 5 -74q2 -7 25.5 -11.5t37.5 -4.5q3 -4 3.5 -14.5t-3.5 -14.5q-103 5 -107 5t-106 -5q-4 4 -3.5 14.5t3.5 14.5q14 0 37.5 4.5t25.5 11.5q5 16 5 74v100q0 94 -20 129t-78 35q-25 0 -60 -23t-35 -32v-209q0 -58 5 -74
q2 -7 25.5 -11.5t37.5 -4.5q3 -4 3.5 -14.5t-3.5 -14.5q-103 5 -107 5t-106 -5q-4 4 -3.5 14.5t3.5 14.5q14 0 37.5 4.5t25.5 11.5q5 16 5 74v182q0 44 -5 56q-7 18 -65 18q-2 2 -2.5 12t2.5 14q85 12 143 42q4 0 7.5 -6t3.5 -10q-6 -42 -6 -57q0 -4 2 -4q1 0 3 2
q20 22 61.5 47.5t73.5 25.5zM286 499q-6 0 -11 9q-29 47 -94 132q0 5 3.5 9t7.5 4l94 -83q55 49 94 83q4 0 7.5 -4t3.5 -9q-65 -85 -94 -132q-5 -9 -11 -9z" />
    <glyph glyph-name="napostrophe" unicode="&#x149;" horiz-adv-x="532" 
d="M324 438q77 0 103 -48t26 -164v-110q0 -58 5 -74q2 -7 25.5 -11.5t37.5 -4.5q3 -4 3.5 -14.5t-3.5 -14.5q-103 5 -107 5t-106 -5q-4 4 -3.5 14.5t3.5 14.5q14 0 37.5 4.5t25.5 11.5q5 16 5 74v100q0 94 -20 129t-78 35q-25 0 -60 -23t-35 -32v-209q0 -58 5 -74
q2 -7 25.5 -11.5t37.5 -4.5q3 -4 3.5 -14.5t-3.5 -14.5q-103 5 -107 5t-106 -5q-4 4 -3.5 14.5t3.5 14.5q14 0 37.5 4.5t25.5 11.5q5 16 5 74v182q0 44 -5 56q-7 18 -65 18q-2 2 -2.5 12t2.5 14q85 12 143 42q4 0 7.5 -6t3.5 -10q-6 -42 -6 -57q0 -4 2 -4q1 0 3 2
q20 22 61.5 47.5t73.5 25.5zM4 674q10 0 22 -6q14 -23 14 -56q0 -74 -70 -151q-5 0 -12 3.5t-7 7.5q31 40 31 81q0 25 -14 44.5t-14 34.5t14 28.5t36 13.5z" />
    <glyph glyph-name="Eng" unicode="&#x14a;" horiz-adv-x="776" 
d="M595 38l-420 531v-454q0 -53 10 -69q4 -7 32 -13.5t43 -6.5q8 -11 2 -29q-100 5 -114 5q-20 0 -36 -1t-35 -2t-36 -2q-7 13 0 29q14 0 43.5 6t34.5 14q10 17 10 68v434q0 51 -10 68q-5 8 -34.5 14t-43.5 6q-7 16 0 29q16 -1 49.5 -3t52.5 -2q48 0 76 2q25 -39 180 -228
t212 -268v58v321q0 53 -10 69q-4 7 -32.5 13.5t-43.5 6.5q-8 11 -2 29q100 -5 115 -5q20 0 36 1t35 2t36 2q7 -13 0 -29q-14 0 -43.5 -6t-34.5 -14q-10 -17 -10 -68v-425q0 -179 -63 -263.5t-171 -84.5q-12 0 -33 6t-30 12q-8 8 -8 23q0 24 12.5 40t35.5 16q17 0 48 -29
q23 -21 45 -21q21 0 40.5 16.5t37.5 68t24 133.5z" />
    <glyph glyph-name="eng" unicode="&#x14b;" horiz-adv-x="521" 
d="M374 46v170q0 94 -20 129t-78 35q-25 0 -60 -23t-35 -32v-209q0 -58 5 -74q2 -7 25.5 -11.5t37.5 -4.5q3 -4 3.5 -14.5t-3.5 -14.5q-103 5 -107 5t-106 -5q-4 4 -3.5 14.5t3.5 14.5q14 0 37.5 4.5t25.5 11.5q5 16 5 74v186q0 40 -5 52q-7 18 -65 18q-2 2 -2.5 12t2.5 14
q85 12 143 42q4 0 7.5 -6t3.5 -10q-6 -42 -6 -57q0 -4 2 -4q1 0 3 2q20 22 61.5 47.5t73.5 25.5q77 0 103 -48t26 -164v-158q0 -68 -17 -123t-45 -89t-55 -54.5t-56 -32.5q-9 6 -13 15q-2 5 0 7q26 19 42 35t33 44.5t25.5 72t8.5 103.5z" />
    <glyph glyph-name="Omacron" unicode="&#x14c;" horiz-adv-x="748" 
d="M358 633q-54 0 -96 -25t-66 -66.5t-36 -90.5t-12 -101q0 -80 27 -153t83.5 -123t130.5 -50q54 0 96 25t66 67t36.5 91t12.5 102q0 80 -27.5 152.5t-84 122t-130.5 49.5zM373 667q135 0 230.5 -96t95.5 -243q0 -139 -96.5 -238.5t-229.5 -99.5q-134 0 -229 96t-95 242
q0 140 96 239.5t228 99.5zM495 756h-246q-7 3 -4 20t10 22h246q5 -4 3 -19t-9 -23z" />
    <glyph glyph-name="omacron" unicode="&#x14d;" horiz-adv-x="509" 
d="M243 406q-59 0 -87.5 -50t-28.5 -123q0 -80 38 -143.5t101 -63.5q59 0 87.5 50t28.5 122q0 79 -38 143.5t-101 64.5zM254 439q97 0 155.5 -61.5t58.5 -156.5q0 -97 -60.5 -162.5t-151.5 -65.5q-97 0 -156 62t-59 158q0 97 61 161.5t152 64.5zM369 525h-224q-7 3 -4 20
t10 22h224q5 -4 3 -19t-9 -23z" />
    <glyph glyph-name="Obreve" unicode="&#x14e;" horiz-adv-x="748" 
d="M358 633q-54 0 -96 -25t-66 -66.5t-36 -90.5t-12 -101q0 -80 27 -153t83.5 -123t130.5 -50q54 0 96 25t66 67t36.5 91t12.5 102q0 80 -27.5 152.5t-84 122t-130.5 49.5zM373 667q135 0 230.5 -96t95.5 -243q0 -139 -96.5 -238.5t-229.5 -99.5q-134 0 -229 96t-95 242
q0 140 96 239.5t228 99.5zM460 833q7 0 14.5 -6t7.5 -11q0 -4 -1 -6q-10 -38 -40.5 -61.5t-67.5 -23.5t-67.5 23.5t-40.5 61.5q-1 2 -1 6q0 5 7.5 11t14.5 6q21 -62 87 -62t87 62z" />
    <glyph glyph-name="obreve" unicode="&#x14f;" horiz-adv-x="509" 
d="M243 406q-59 0 -87.5 -50t-28.5 -123q0 -80 38 -143.5t101 -63.5q59 0 87.5 50t28.5 122q0 79 -38 143.5t-101 64.5zM254 439q97 0 155.5 -61.5t58.5 -156.5q0 -97 -60.5 -162.5t-151.5 -65.5q-97 0 -156 62t-59 158q0 97 61 161.5t152 64.5zM252 543q31 0 55 20t32 52
q0 3 4 3q5 0 11.5 -4.5t6.5 -8.5v-3q-1 -4 -1 -5q-7 -41 -37.5 -70.5t-70.5 -29.5t-70.5 29t-37.5 72q0 1 -1 4v3q0 4 6.5 8.5t11.5 4.5q4 0 4 -3q8 -32 32 -52t55 -20z" />
    <glyph glyph-name="Ohungarumlaut" unicode="&#x150;" horiz-adv-x="748" 
d="M358 633q-54 0 -96 -25t-66 -66.5t-36 -90.5t-12 -101q0 -80 27 -153t83.5 -123t130.5 -50q54 0 96 25t66 67t36.5 91t12.5 102q0 80 -27.5 152.5t-84 122t-130.5 49.5zM373 667q135 0 230.5 -96t95.5 -243q0 -139 -96.5 -238.5t-229.5 -99.5q-134 0 -229 96t-95 242
q0 140 96 239.5t228 99.5zM423 742q0 6 48 54t73 67q6 3 18 3q46 0 46 -30q0 -23 -80 -63t-99 -40q-6 0 -6 9zM271 742q0 6 48 54t73 67q6 3 18 3q46 0 46 -30q0 -23 -80 -63t-99 -40q-6 0 -6 9z" />
    <glyph glyph-name="ohungarumlaut" unicode="&#x151;" horiz-adv-x="509" 
d="M243 406q-59 0 -87.5 -50t-28.5 -123q0 -80 38 -143.5t101 -63.5q59 0 87.5 50t28.5 122q0 79 -38 143.5t-101 64.5zM254 439q97 0 155.5 -61.5t58.5 -156.5q0 -97 -60.5 -162.5t-151.5 -65.5q-97 0 -156 62t-59 158q0 97 61 161.5t152 64.5zM293 654q36 0 36 -29
q0 -21 -70 -76t-81 -55q-9 0 -9 13q0 4 36.5 56.5t60.5 82.5q8 8 27 8zM417 654q36 0 36 -29q0 -21 -70 -76t-81 -55q-9 0 -9 13q0 4 36.5 56.5t60.5 82.5q8 8 27 8z" />
    <glyph glyph-name="OE" unicode="&#x152;" horiz-adv-x="1017" 
d="M594 0q-74 0 -118 -3q-60 -4 -113 -4q-132 0 -223 97.5t-91 237.5q0 139 95.5 239t223.5 100q5 0 96 -5.5t129 -4.5q45 0 155.5 3.5t166.5 3.5q4 -29 15.5 -76.5t13.5 -59.5q-5 -5 -18 -5t-14 7q-15 56 -43 75t-73 19h-86q-66 0 -69 -11q-5 -16 -5 -71v-187q0 -6 43 -6
h53q67 0 82 9.5t26 53.5q1 6 2 9q1 7 15 7q12 0 17 -5v-189q-4 -4 -16 -4q-13 0 -16 8q-7 28 -12 41.5t-8 17t-8 7.5q-13 8 -106 8q-72 0 -72 -9v-190q0 -64 6 -69q13 -10 71 -10h48q82 0 126 27q33 19 63 101q2 6 14 6q19 0 25 -6q-5 -13 -15.5 -41.5t-16.5 -46t-13 -40.5
t-9 -38q-51 0 -161 2t-180 2zM357 633q-69 0 -118 -44t-70 -106t-21 -133q0 -80 27 -153t83 -123t130 -50q111 0 137 39q11 17 16.5 37.5t6.5 36.5t1 50v308q0 62 -35 98q-23 24 -60 32t-97 8z" />
    <glyph glyph-name="oe" unicode="&#x153;" horiz-adv-x="778" 
d="M568 402q-37 0 -63 -29t-35 -58.5t-6 -29.5h163q22 0 23 23q1 26 -20.5 60t-61.5 34zM243 406q-59 0 -87.5 -50t-28.5 -123q0 -80 38 -143.5t101 -63.5q59 0 87.5 50t28.5 122q0 79 -38 143.5t-101 64.5zM622 56q36 0 65 17.5t45 35.5q1 0 2.5 -1.5t3.5 -5t2 -7.5
q0 -8 -6 -18q-19 -31 -56.5 -58t-89.5 -27q-108 0 -165 86q-62 -85 -167 -85q-97 0 -156 62t-59 158q0 97 61 161.5t152 64.5q122 0 181 -93q30 43 70.5 67.5t79.5 24.5q42 0 73.5 -15t47 -38.5t22.5 -44t7 -38.5q0 -46 -24 -47q-65 -2 -252 -7q0 -100 49 -146t114 -46z" />
    <glyph glyph-name="Racute" unicode="&#x154;" horiz-adv-x="621" 
d="M305 659q76 0 139.5 -46.5t63.5 -126.5q0 -52 -41.5 -99.5t-94.5 -65.5q67 -110 161 -235q22 -29 47.5 -43t65.5 -17q3 -5 2 -15.5t-3 -13.5q-98 0 -132 12q-43 15 -65 44q-46 62 -159 237q-8 12 -30 12h-53v-186q0 -58 5 -74q2 -7 28 -11.5t41 -4.5q3 -4 3.5 -14.5
t-3.5 -14.5q-102 5 -117 5t-118 -5q-4 4 -3.5 14.5t3.5 14.5q15 0 41 4.5t28 11.5q5 16 5 74v427q0 58 -5 74q-2 7 -28 11.5t-41 4.5q-3 4 -3.5 14.5t3.5 14.5q103 -5 118 -5q17 0 63.5 1t78.5 1zM415 477q0 69 -37.5 109.5t-116.5 40.5q-46 0 -50 -10q-5 -12 -5 -75v-209
h54q62 0 108.5 40.5t46.5 103.5zM239 737q0 6 48 54t73 67q6 3 18 3q46 0 46 -30q0 -23 -80 -63t-99 -40q-6 0 -6 9z" />
    <glyph glyph-name="racute" unicode="&#x155;" horiz-adv-x="383" 
d="M303 437q19 0 36.5 -8.5t24.5 -20.5q4 -12 4 -27q0 -25 -11.5 -38.5t-21.5 -13.5q-6 0 -12 2.5t-15 9t-10 7.5q-18 12 -37 12q-29 0 -54.5 -34t-25.5 -56v-154q0 -58 5 -74q2 -7 35.5 -11.5t50.5 -4.5q3 -4 3.5 -14.5t-3.5 -14.5q-102 5 -124 5q-10 0 -112 -5
q-4 4 -3.5 14.5t3.5 14.5q14 0 37.5 4.5t25.5 11.5q5 16 5 74v186q0 40 -5 52q-7 18 -65 18q-2 2 -2.5 12t2.5 14q85 12 143 42q4 0 7.5 -6t3.5 -10q-7 -49 -7 -92q0 -6 4 -2q17 37 52 72t66 35zM314 659q36 0 36 -29q0 -21 -70 -76t-81 -55q-9 0 -9 13q0 4 36.5 56.5
t60.5 82.5q8 8 27 8z" />
    <glyph glyph-name="Rcommaaccent" unicode="&#x156;" horiz-adv-x="621" 
d="M305 659q76 0 139.5 -46.5t63.5 -126.5q0 -52 -41.5 -99.5t-94.5 -65.5q67 -110 161 -235q22 -29 47.5 -43t65.5 -17q3 -5 2 -15.5t-3 -13.5q-98 0 -132 12q-43 15 -65 44q-46 62 -159 237q-8 12 -30 12h-53v-186q0 -58 5 -74q2 -7 28 -11.5t41 -4.5q3 -4 3.5 -14.5
t-3.5 -14.5q-102 5 -117 5t-118 -5q-4 4 -3.5 14.5t3.5 14.5q15 0 41 4.5t28 11.5q5 16 5 74v427q0 58 -5 74q-2 7 -28 11.5t-41 4.5q-3 4 -3.5 14.5t3.5 14.5q103 -5 118 -5q17 0 63.5 1t78.5 1zM415 477q0 69 -37.5 109.5t-116.5 40.5q-46 0 -50 -10q-5 -12 -5 -75v-209
h54q62 0 108.5 40.5t46.5 103.5zM368 -46q18 0 32 -9q10 -15 10 -41q0 -42 -29 -78.5t-70 -54.5q-6 1 -11 6.5t-5 8.5q16 8 34 27t18 39q0 8 -17.5 21.5t-17.5 36.5q0 12 13.5 28t42.5 16z" />
    <glyph glyph-name="rcommaaccent" unicode="&#x157;" horiz-adv-x="383" 
d="M302 437q19 0 36.5 -8.5t24.5 -20.5q4 -12 4 -27q0 -25 -11.5 -38.5t-21.5 -13.5q-6 0 -12 2.5t-15 9t-10 7.5q-18 12 -37 12q-29 0 -54.5 -34t-25.5 -56v-154q0 -58 5 -74q2 -7 35.5 -11.5t50.5 -4.5q3 -4 3.5 -14.5t-3.5 -14.5q-102 5 -124 5q-10 0 -112 -5
q-4 4 -3.5 14.5t3.5 14.5q14 0 37.5 4.5t25.5 11.5q5 16 5 74v186q0 40 -5 52q-7 18 -65 18q-2 2 -2.5 12t2.5 14q85 12 143 42q4 0 7.5 -6t3.5 -10q-7 -49 -7 -92q0 -6 4 -2q17 37 52 72t66 35zM145 -46q18 0 32 -9q10 -15 10 -41q0 -42 -29 -78.5t-70 -54.5q-6 1 -11 6.5
t-5 8.5q16 8 34 27t18 39q0 8 -17.5 21.5t-17.5 36.5q0 12 13.5 28t42.5 16z" />
    <glyph glyph-name="Rcaron" unicode="&#x158;" horiz-adv-x="621" 
d="M305 659q76 0 139.5 -46.5t63.5 -126.5q0 -52 -41.5 -99.5t-94.5 -65.5q67 -110 161 -235q22 -29 47.5 -43t65.5 -17q3 -5 2 -15.5t-3 -13.5q-98 0 -132 12q-43 15 -65 44q-46 62 -159 237q-8 12 -30 12h-53v-186q0 -58 5 -74q2 -7 28 -11.5t41 -4.5q3 -4 3.5 -14.5
t-3.5 -14.5q-102 5 -117 5t-118 -5q-4 4 -3.5 14.5t3.5 14.5q15 0 41 4.5t28 11.5q5 16 5 74v427q0 58 -5 74q-2 7 -28 11.5t-41 4.5q-3 4 -3.5 14.5t3.5 14.5q103 -5 118 -5q17 0 63.5 1t78.5 1zM415 477q0 69 -37.5 109.5t-116.5 40.5q-46 0 -50 -10q-5 -12 -5 -75v-209
h54q62 0 108.5 40.5t46.5 103.5zM310 727q-4 0 -12 8q-20 22 -50.5 53t-51.5 54q0 17 10 17l104 -64l104 64q4 0 7.5 -6t3.5 -11q-13 -14 -46 -47.5t-57 -59.5q-8 -8 -12 -8z" />
    <glyph glyph-name="rcaron" unicode="&#x159;" horiz-adv-x="383" 
d="M303 437q19 0 36.5 -8.5t24.5 -20.5q4 -12 4 -27q0 -25 -11.5 -38.5t-21.5 -13.5q-6 0 -12 2.5t-15 9t-10 7.5q-18 12 -37 12q-29 0 -54.5 -34t-25.5 -56v-154q0 -58 5 -74q2 -7 35.5 -11.5t50.5 -4.5q3 -4 3.5 -14.5t-3.5 -14.5q-102 5 -124 5q-10 0 -112 -5
q-4 4 -3.5 14.5t3.5 14.5q14 0 37.5 4.5t25.5 11.5q5 16 5 74v186q0 40 -5 52q-7 18 -65 18q-2 2 -2.5 12t2.5 14q85 12 143 42q4 0 7.5 -6t3.5 -10q-7 -49 -7 -92q0 -6 4 -2q17 37 52 72t66 35zM214 502q-6 0 -11 9q-29 47 -94 132q0 5 3.5 9t7.5 4l94 -83q55 49 94 83
q4 0 7.5 -4t3.5 -9q-65 -85 -94 -132q-5 -9 -11 -9z" />
    <glyph glyph-name="Sacute" unicode="&#x15a;" horiz-adv-x="502" 
d="M261 666q22 0 41.5 -2.5t32 -5.5t36 -9.5t41.5 -10.5q7 -44 14 -142q1 -5 -6.5 -8t-14.5 -3t-11 4q-6 47 -44.5 95t-95.5 48q-56 0 -82.5 -34t-26.5 -77q0 -19 7 -36.5t14 -29t25.5 -26.5t27 -21t34 -22t32.5 -20q5 -3 35 -21.5t41 -26t34.5 -27t34 -34.5t20 -37.5
t9.5 -46.5q0 -80 -62.5 -131.5t-146.5 -51.5q-24 0 -51 3.5t-45 7t-45.5 10t-38.5 8.5q-21 103 -21 155q12 12 26 12q9 0 11 -9q3 -15 8.5 -31t19 -39t30.5 -40.5t45.5 -30t62.5 -12.5q51 0 85.5 33t34.5 89q0 20 -6 37t-12.5 28t-23 23.5t-25.5 18.5t-33 19t-33 18
q-29 17 -40.5 24t-38 24.5t-38.5 31t-28 33t-22.5 41.5t-6.5 46q0 77 59 126.5t137 49.5zM206 737q0 6 48 54t73 67q6 3 18 3q46 0 46 -30q0 -23 -80 -63t-99 -40q-6 0 -6 9z" />
    <glyph glyph-name="sacute" unicode="&#x15b;" horiz-adv-x="369" 
d="M195 437q22 0 55.5 -5.5t46.5 -7.5q10 -45 12 -110q0 -5 -10 -5q-11 0 -17 5q-9 34 -32 63t-52 29q-35 0 -53 -17.5t-18 -45.5q0 -13 4 -23.5t8 -17.5t15 -15.5t17 -12.5t21.5 -12.5t21.5 -12.5q2 -1 23 -13.5t27.5 -16.5t23 -17t22.5 -22t12.5 -23.5t6.5 -29.5
q0 -59 -46 -98.5t-108 -39.5q-21 0 -38.5 2.5t-41.5 8.5t-37 8q-6 16 -11.5 50t-5.5 54q8 6 18 6q6 0 9 -2q10 -35 40.5 -65t67.5 -30q32 0 52 19t20 53q0 18 -6 32t-21 26t-26.5 19t-34.5 19.5t-34 18.5q-76 44 -76 107q0 54 43.5 88t101.5 34zM304 655q36 0 36 -29
q0 -21 -70 -76t-81 -55q-9 0 -9 13q0 4 36.5 56.5t60.5 82.5q8 8 27 8z" />
    <glyph glyph-name="Scircumflex" unicode="&#x15c;" horiz-adv-x="502" 
d="M261 666q22 0 41.5 -2.5t32 -5.5t36 -9.5t41.5 -10.5q7 -44 14 -142q1 -5 -6.5 -8t-14.5 -3t-11 4q-6 47 -44.5 95t-95.5 48q-56 0 -82.5 -34t-26.5 -77q0 -19 7 -36.5t14 -29t25.5 -26.5t27 -21t34 -22t32.5 -20q5 -3 35 -21.5t41 -26t34.5 -27t34 -34.5t20 -37.5
t9.5 -46.5q0 -80 -62.5 -131.5t-146.5 -51.5q-24 0 -51 3.5t-45 7t-45.5 10t-38.5 8.5q-21 103 -21 155q12 12 26 12q9 0 11 -9q3 -15 8.5 -31t19 -39t30.5 -40.5t45.5 -30t62.5 -12.5q51 0 85.5 33t34.5 89q0 20 -6 37t-12.5 28t-23 23.5t-25.5 18.5t-33 19t-33 18
q-29 17 -40.5 24t-38 24.5t-38.5 31t-28 33t-22.5 41.5t-6.5 46q0 77 59 126.5t137 49.5zM256 859q4 0 12 -8q20 -22 50.5 -53t51.5 -54q0 -17 -10 -17l-104 64l-104 -64q-4 0 -7.5 6t-3.5 11q13 14 46 47.5t57 59.5q8 8 12 8z" />
    <glyph glyph-name="scircumflex" unicode="&#x15d;" horiz-adv-x="369" 
d="M195 437q22 0 55.5 -5.5t46.5 -7.5q10 -45 12 -110q0 -5 -10 -5q-11 0 -17 5q-9 34 -32 63t-52 29q-35 0 -53 -17.5t-18 -45.5q0 -13 4 -23.5t8 -17.5t15 -15.5t17 -12.5t21.5 -12.5t21.5 -12.5q2 -1 23 -13.5t27.5 -16.5t23 -17t22.5 -22t12.5 -23.5t6.5 -29.5
q0 -59 -46 -98.5t-108 -39.5q-21 0 -38.5 2.5t-41.5 8.5t-37 8q-6 16 -11.5 50t-5.5 54q8 6 18 6q6 0 9 -2q10 -35 40.5 -65t67.5 -30q32 0 52 19t20 53q0 18 -6 32t-21 26t-26.5 19t-34.5 19.5t-34 18.5q-76 44 -76 107q0 54 43.5 88t101.5 34zM191 646q6 0 11 -9
q29 -47 94 -132q0 -5 -3.5 -9t-7.5 -4l-94 76q-59 -48 -94 -76q-4 0 -7.5 4t-3.5 9q65 85 94 132q5 9 11 9z" />
    <glyph glyph-name="Scedilla" unicode="&#x15e;" horiz-adv-x="502" 
d="M261 666q22 0 41.5 -2.5t32 -5.5t36 -9.5t41.5 -10.5q7 -44 14 -142q1 -5 -6.5 -8t-14.5 -3t-11 4q-6 47 -44.5 95t-95.5 48q-56 0 -82.5 -34t-26.5 -77q0 -19 7 -36.5t14 -29t25.5 -26.5t27 -21t34 -22t32.5 -20q5 -3 35 -21.5t41 -26t34.5 -27t34 -34.5t20 -37.5
t9.5 -46.5q0 -80 -62.5 -131.5t-146.5 -51.5q-24 0 -51 3.5t-45 7t-45.5 10t-38.5 8.5q-21 103 -21 155q12 12 26 12q9 0 11 -9q3 -15 8.5 -31t19 -39t30.5 -40.5t45.5 -30t62.5 -12.5q51 0 85.5 33t34.5 89q0 20 -6 37t-12.5 28t-23 23.5t-25.5 18.5t-33 19t-33 18
q-29 17 -40.5 24t-38 24.5t-38.5 31t-28 33t-22.5 41.5t-6.5 46q0 77 59 126.5t137 49.5zM249 -31h30q23 0 37.5 -17t14.5 -41q0 -40 -32 -64.5t-79 -24.5q-26 0 -40 10q0 2 -2 7.5t-2 9.5q0 6 5.5 11t11.5 5t19.5 -7.5t23.5 -7.5q24 0 37.5 11.5t13.5 27.5q0 19 -11.5 29.5
t-24.5 10.5q-12 0 -31 -8q-2 0 -7.5 6t-4.5 9q3 5 18 27.5t20 32.5h25z" />
    <glyph glyph-name="scedilla" unicode="&#x15f;" horiz-adv-x="369" 
d="M196 437q22 0 55.5 -5.5t46.5 -7.5q10 -45 12 -110q0 -5 -10 -5q-11 0 -17 5q-9 34 -32 63t-52 29q-35 0 -53 -17.5t-18 -45.5q0 -13 4 -23.5t8 -17.5t15 -15.5t17 -12.5t21.5 -12.5t21.5 -12.5q2 -1 23 -13.5t27.5 -16.5t23 -17t22.5 -22t12.5 -23.5t6.5 -29.5
q0 -59 -46 -98.5t-108 -39.5q-21 0 -38.5 2.5t-41.5 8.5t-37 8q-6 16 -11.5 50t-5.5 54q8 6 18 6q6 0 9 -2q10 -35 40.5 -65t67.5 -30q32 0 52 19t20 53q0 18 -6 32t-21 26t-26.5 19t-34.5 19.5t-34 18.5q-76 44 -76 107q0 54 43.5 88t101.5 34zM187 -29h25q19 0 31.5 -14.5
t12.5 -34.5q0 -34 -27 -55t-67 -21q-20 0 -34 9q0 1 -1.5 5.5t-1.5 8.5q0 5 4.5 9.5t9.5 4.5t17 -6.5t20 -6.5q20 0 31.5 9.5t11.5 23.5q0 16 -10 25t-21 9q-8 0 -26 -7q-2 0 -6.5 5t-3.5 8q4 6 16 24.5t16 26.5h21z" />
    <glyph glyph-name="Scaron" unicode="&#x160;" horiz-adv-x="502" 
d="M261 666q22 0 41.5 -2.5t32 -5.5t36 -9.5t41.5 -10.5q7 -44 14 -142q1 -5 -6.5 -8t-14.5 -3t-11 4q-6 47 -44.5 95t-95.5 48q-56 0 -82.5 -34t-26.5 -77q0 -19 7 -36.5t14 -29t25.5 -26.5t27 -21t34 -22t32.5 -20q5 -3 35 -21.5t41 -26t34.5 -27t34 -34.5t20 -37.5
t9.5 -46.5q0 -80 -62.5 -131.5t-146.5 -51.5q-24 0 -51 3.5t-45 7t-45.5 10t-38.5 8.5q-21 103 -21 155q12 12 26 12q9 0 11 -9q3 -15 8.5 -31t19 -39t30.5 -40.5t45.5 -30t62.5 -12.5q51 0 85.5 33t34.5 89q0 20 -6 37t-12.5 28t-23 23.5t-25.5 18.5t-33 19t-33 18
q-29 17 -40.5 24t-38 24.5t-38.5 31t-28 33t-22.5 41.5t-6.5 46q0 77 59 126.5t137 49.5zM267 727q-4 0 -12 8q-20 22 -50.5 53t-51.5 54q0 17 10 17l104 -64l104 64q4 0 7.5 -6t3.5 -11q-13 -14 -46 -47.5t-57 -59.5q-8 -8 -12 -8z" />
    <glyph glyph-name="scaron" unicode="&#x161;" horiz-adv-x="369" 
d="M195 437q22 0 55.5 -5.5t46.5 -7.5q10 -45 12 -110q0 -5 -10 -5q-11 0 -17 5q-9 34 -32 63t-52 29q-35 0 -53 -17.5t-18 -45.5q0 -13 4 -23.5t8 -17.5t15 -15.5t17 -12.5t21.5 -12.5t21.5 -12.5q2 -1 23 -13.5t27.5 -16.5t23 -17t22.5 -22t12.5 -23.5t6.5 -29.5
q0 -59 -46 -98.5t-108 -39.5q-21 0 -38.5 2.5t-41.5 8.5t-37 8q-6 16 -11.5 50t-5.5 54q8 6 18 6q6 0 9 -2q10 -35 40.5 -65t67.5 -30q32 0 52 19t20 53q0 18 -6 32t-21 26t-26.5 19t-34.5 19.5t-34 18.5q-76 44 -76 107q0 54 43.5 88t101.5 34zM197 498q-6 0 -11 9
q-29 47 -94 132q0 5 3.5 9t7.5 4l94 -83q55 49 94 83q4 0 7.5 -4t3.5 -9q-65 -85 -94 -132q-5 -9 -11 -9z" />
    <glyph glyph-name="uni0162" unicode="&#x162;" horiz-adv-x="626" 
d="M509 661q30 0 60 15q12 6 19 2q12 -105 26 -172q-8 -8 -19 -7q-11 0 -14 5q-11 55 -35.5 88.5t-60.5 33.5h-127v-510q0 -58 5 -74q2 -7 28 -11.5t41 -4.5q3 -4 3.5 -14.5t-3.5 -14.5q-103 5 -117 5q-16 0 -118 -5q-4 4 -3.5 14.5t3.5 14.5q15 0 41 4.5t28 11.5q5 16 5 74
v510h-129q-36 0 -60.5 -33.5t-35.5 -88.5q-3 -5 -14 -5q-11 -1 -19 7q14 67 26 172q8 4 23 -3q28 -14 56 -14h391zM303 -24h30q23 0 37.5 -17t14.5 -41q0 -40 -32 -64.5t-79 -24.5q-26 0 -40 10q0 2 -2 7.5t-2 9.5q0 6 5.5 11t11.5 5t19.5 -7.5t23.5 -7.5q24 0 37.5 11.5
t13.5 27.5q0 19 -11.5 29.5t-24.5 10.5q-12 0 -31 -8q-2 0 -7.5 6t-4.5 9q3 5 18 27.5t20 32.5h25z" />
    <glyph glyph-name="uni0163" unicode="&#x163;" horiz-adv-x="311" 
d="M161 432h129q5 0 5 -11q0 -16 -14 -30h-120v-262q0 -82 66 -82q33 0 65 23q3 -2 3 -7q0 -11 -4 -15q-48 -55 -103 -55q-104 0 -104 108v290h-58q-5 0 -5 9q0 6 26 32h37v63q8 9 23 25.5t26 28.5t12 13q2 2 6 3t7 0.5t3 -2.5v-131zM178 -23h25q19 0 31.5 -14.5t12.5 -34.5
q0 -34 -27 -55t-67 -21q-20 0 -34 9q0 1 -1.5 5.5t-1.5 8.5q0 5 4.5 9.5t9.5 4.5t17 -6.5t20 -6.5q20 0 31.5 9.5t11.5 23.5q0 16 -10 25t-21 9q-8 0 -26 -7q-2 0 -6.5 5t-3.5 8q4 6 16 24.5t16 26.5h21z" />
    <glyph glyph-name="Tcaron" unicode="&#x164;" horiz-adv-x="626" 
d="M508 661q30 0 60 15q12 6 19 2q12 -105 26 -172q-8 -8 -19 -7q-11 0 -14 5q-11 55 -35.5 88.5t-60.5 33.5h-127v-510q0 -58 5 -74q2 -7 28 -11.5t41 -4.5q3 -4 3.5 -14.5t-3.5 -14.5q-103 5 -117 5q-16 0 -118 -5q-4 4 -3.5 14.5t3.5 14.5q15 0 41 4.5t28 11.5q5 16 5 74
v510h-129q-36 0 -60.5 -33.5t-35.5 -88.5q-3 -5 -14 -5q-11 -1 -19 7q14 67 26 172q8 4 23 -3q28 -14 56 -14h391zM312 741q-4 0 -12 8q-20 22 -50.5 53t-51.5 54q0 17 10 17l104 -64l104 64q4 0 7.5 -6t3.5 -11q-13 -14 -46 -47.5t-57 -59.5q-8 -8 -12 -8z" />
    <glyph glyph-name="tcaron" unicode="&#x165;" horiz-adv-x="311" 
d="M160 432h129q5 0 5 -11q0 -16 -14 -30h-120v-262q0 -82 66 -82q33 0 65 23q3 -2 3 -7q0 -11 -4 -15q-48 -55 -103 -55q-104 0 -104 108v290h-58q-5 0 -5 9q0 6 26 32h37v63q8 9 23 25.5t26 28.5t12 13q2 2 6 3t7 0.5t3 -2.5v-131zM337 684q10 0 22 -6q14 -23 14 -56
q0 -74 -70 -151q-5 0 -12 3.5t-7 7.5q31 40 31 81q0 25 -14 44.5t-14 34.5t14 28.5t36 13.5z" />
    <glyph glyph-name="Tbar" unicode="&#x166;" horiz-adv-x="626" 
d="M473 311h-316q-2 0 -3 7.5t0 16.5t4 13h315q3 0 3 -15t-3 -22zM508 661q30 0 60 15q12 6 19 2q12 -105 26 -172q-8 -8 -19 -7q-11 0 -14 5q-11 55 -35.5 88.5t-60.5 33.5h-127v-510q0 -58 5 -74q2 -7 28 -11.5t41 -4.5q3 -4 3.5 -14.5t-3.5 -14.5q-103 5 -117 5
q-16 0 -118 -5q-4 4 -3.5 14.5t3.5 14.5q15 0 41 4.5t28 11.5q5 16 5 74v510h-129q-36 0 -60.5 -33.5t-35.5 -88.5q-3 -5 -14 -5q-11 -1 -19 7q14 67 26 172q8 4 23 -3q28 -14 56 -14h391z" />
    <glyph glyph-name="tbar" unicode="&#x167;" horiz-adv-x="311" 
d="M28 308h260q6 0 6 -10q0 -16 -6 -30h-261q-5 0 -5 13q0 18 6 27zM160 432h129q5 0 5 -11q0 -16 -14 -30h-120v-262q0 -82 66 -82q33 0 65 23q3 -2 3 -7q0 -11 -4 -15q-48 -55 -103 -55q-104 0 -104 108v290h-58q-5 0 -5 9q0 6 26 32h37v63q8 9 23 25.5t26 28.5t12 13
q2 2 6 3t7 0.5t3 -2.5v-131z" />
    <glyph glyph-name="Utilde" unicode="&#x168;" horiz-adv-x="723" 
d="M147 657q15 0 117 5q4 -4 3.5 -14.5t-3.5 -14.5q-15 0 -41 -4.5t-28 -11.5q-5 -16 -5 -74v-247q0 -123 49 -184q46 -58 137 -58q190 0 194 220v271q0 53 -10 69q-4 7 -31 13.5t-41 6.5q-8 11 -2 29q100 -5 111 -5q20 0 36 1t35 2t36 2q8 -13 0 -29q-14 0 -43.5 -6
t-34.5 -14q-10 -17 -10 -68v-270q0 -144 -69 -212t-192 -68q-109 0 -178 66q-74 71 -74 189v292q0 58 -5 74q-2 7 -28 11.5t-41 4.5q-3 4 -3.5 14.5t3.5 14.5q103 -5 118 -5zM316 811q27 0 67 -22q42 -24 61 -24q18 0 32 8.5t23 19t10 10.5q6 0 6 -10q0 -17 -14 -35
q-31 -37 -69 -37q-27 0 -67 22q-42 24 -62 24q-18 0 -32 -8.5t-22.5 -19t-9.5 -10.5q-6 0 -6 11q0 17 14 35q30 36 69 36z" />
    <glyph glyph-name="utilde" unicode="&#x169;" horiz-adv-x="515" 
d="M350 320q0 39 -8 54q-11 20 -56 20q-2 2 -2.5 12t2.5 14q82 3 137 20q3 0 7 -9.5t4 -14.5q-7 -14 -7 -65v-46v-164q0 -43 7 -76q2 -7 11 -11t19 -5t20 -1l9 -1q3 -1 3 -11q0 -3 -2.5 -9.5t-5.5 -6.5q-15 -1 -33.5 -4t-34.5 -7t-30.5 -8t-23.5 -7l-8 -2q-8 0 -8 16v46
l-2 5q-23 -25 -64.5 -45.5t-77.5 -20.5q-125 0 -125 199v128q0 39 -8 54q-11 20 -56 20q-2 2 -2.5 12t2.5 14q82 3 137 20q3 0 7 -8t4 -12q-7 -14 -7 -69v-43v-104q0 -80 24 -117.5t76 -37.5q32 0 62 18.5t30 36.5v216zM210 589q23 0 61 -23q38 -24 58 -24q16 0 28 8.5
t19.5 19t8.5 11.5q6 0 6 -9q0 -17 -14 -38q-27 -37 -62 -37q-24 0 -60 22q-40 25 -59 25q-16 0 -27 -8.5t-17 -19t-8 -11.5q-8 0 -8 11q0 19 12 37q27 36 62 36z" />
    <glyph glyph-name="Umacron" unicode="&#x16a;" horiz-adv-x="723" 
d="M147 657q15 0 117 5q4 -4 3.5 -14.5t-3.5 -14.5q-15 0 -41 -4.5t-28 -11.5q-5 -16 -5 -74v-247q0 -123 49 -184q46 -58 137 -58q190 0 194 220v271q0 53 -10 69q-4 7 -31 13.5t-41 6.5q-8 11 -2 29q100 -5 111 -5q20 0 36 1t35 2t36 2q8 -13 0 -29q-14 0 -43.5 -6
t-34.5 -14q-10 -17 -10 -68v-270q0 -144 -69 -212t-192 -68q-109 0 -178 66q-74 71 -74 189v292q0 58 -5 74q-2 7 -28 11.5t-41 4.5q-3 4 -3.5 14.5t3.5 14.5q103 -5 118 -5zM485 756h-246q-7 3 -4 20t10 22h246q5 -4 3 -19t-9 -23z" />
    <glyph glyph-name="umacron" unicode="&#x16b;" horiz-adv-x="515" 
d="M350 320q0 39 -8 54q-11 20 -56 20q-2 2 -2.5 12t2.5 14q82 3 137 20q3 0 7 -9.5t4 -14.5q-7 -14 -7 -65v-46v-164q0 -43 7 -76q2 -7 11 -11t19 -5t20 -1l9 -1q3 -1 3 -11q0 -3 -2.5 -9.5t-5.5 -6.5q-15 -1 -33.5 -4t-34.5 -7t-30.5 -8t-23.5 -7l-8 -2q-8 0 -8 16v46
l-2 5q-23 -25 -64.5 -45.5t-77.5 -20.5q-125 0 -125 199v128q0 39 -8 54q-11 20 -56 20q-2 2 -2.5 12t2.5 14q82 3 137 20q3 0 7 -8t4 -12q-7 -14 -7 -69v-43v-104q0 -80 24 -117.5t76 -37.5q32 0 62 18.5t30 36.5v216zM359 525h-224q-7 3 -4 20t10 22h224q5 -4 3 -19
t-9 -23z" />
    <glyph glyph-name="Ubreve" unicode="&#x16c;" horiz-adv-x="723" 
d="M147 657q15 0 117 5q4 -4 3.5 -14.5t-3.5 -14.5q-15 0 -41 -4.5t-28 -11.5q-5 -16 -5 -74v-247q0 -123 49 -184q46 -58 137 -58q190 0 194 220v271q0 53 -10 69q-4 7 -31 13.5t-41 6.5q-8 11 -2 29q100 -5 111 -5q20 0 36 1t35 2t36 2q8 -13 0 -29q-14 0 -43.5 -6
t-34.5 -14q-10 -17 -10 -68v-270q0 -144 -69 -212t-192 -68q-109 0 -178 66q-74 71 -74 189v292q0 58 -5 74q-2 7 -28 11.5t-41 4.5q-3 4 -3.5 14.5t3.5 14.5q103 -5 118 -5zM450 833q7 0 14.5 -6t7.5 -11q0 -4 -1 -6q-10 -38 -40.5 -61.5t-67.5 -23.5t-67.5 23.5
t-40.5 61.5q-1 2 -1 6q0 5 7.5 11t14.5 6q21 -62 87 -62t87 62z" />
    <glyph glyph-name="ubreve" unicode="&#x16d;" horiz-adv-x="515" 
d="M350 320q0 39 -8 54q-11 20 -56 20q-2 2 -2.5 12t2.5 14q82 3 137 20q3 0 7 -9.5t4 -14.5q-7 -14 -7 -65v-46v-164q0 -43 7 -76q2 -7 11 -11t19 -5t20 -1l9 -1q3 -1 3 -11q0 -3 -2.5 -9.5t-5.5 -6.5q-15 -1 -33.5 -4t-34.5 -7t-30.5 -8t-23.5 -7l-8 -2q-8 0 -8 16v46
l-2 5q-23 -25 -64.5 -45.5t-77.5 -20.5q-125 0 -125 199v128q0 39 -8 54q-11 20 -56 20q-2 2 -2.5 12t2.5 14q82 3 137 20q3 0 7 -8t4 -12q-7 -14 -7 -69v-43v-104q0 -80 24 -117.5t76 -37.5q32 0 62 18.5t30 36.5v216zM263 543q31 0 55 20t32 52q0 3 4 3q5 0 11.5 -4.5
t6.5 -8.5v-3q-1 -4 -1 -5q-7 -41 -37.5 -70.5t-70.5 -29.5t-70.5 29t-37.5 72q0 1 -1 4v3q0 4 6.5 8.5t11.5 4.5q4 0 4 -3q8 -32 32 -52t55 -20z" />
    <glyph glyph-name="Uring" unicode="&#x16e;" horiz-adv-x="723" 
d="M147 657q15 0 117 5q4 -4 3.5 -14.5t-3.5 -14.5q-15 0 -41 -4.5t-28 -11.5q-5 -16 -5 -74v-247q0 -123 49 -184q46 -58 137 -58q190 0 194 220v271q0 53 -10 69q-4 7 -31 13.5t-41 6.5q-8 11 -2 29q100 -5 111 -5q20 0 36 1t35 2t36 2q8 -13 0 -29q-14 0 -43.5 -6
t-34.5 -14q-10 -17 -10 -68v-270q0 -144 -69 -212t-192 -68q-109 0 -178 66q-74 71 -74 189v292q0 58 -5 74q-2 7 -28 11.5t-41 4.5q-3 4 -3.5 14.5t3.5 14.5q103 -5 118 -5zM311 818q0 -23 16.5 -39.5t39.5 -16.5q22 0 38 16.5t16 39.5t-15.5 39t-38.5 16t-39.5 -16
t-16.5 -39zM278 818q0 37 26.5 63t62.5 26t61.5 -26t25.5 -63t-25.5 -63.5t-61.5 -26.5t-62.5 26.5t-26.5 63.5z" />
    <glyph glyph-name="uring" unicode="&#x16f;" horiz-adv-x="515" 
d="M350 320q0 39 -8 54q-11 20 -56 20q-2 2 -2.5 12t2.5 14q82 3 137 20q3 0 7 -9.5t4 -14.5q-7 -14 -7 -65v-46v-164q0 -43 7 -76q2 -7 11 -11t19 -5t20 -1l9 -1q3 -1 3 -11q0 -3 -2.5 -9.5t-5.5 -6.5q-15 -1 -33.5 -4t-34.5 -7t-30.5 -8t-23.5 -7l-8 -2q-8 0 -8 16v46
l-2 5q-23 -25 -64.5 -45.5t-77.5 -20.5q-125 0 -125 199v128q0 39 -8 54q-11 20 -56 20q-2 2 -2.5 12t2.5 14q82 3 137 20q3 0 7 -8t4 -12q-7 -14 -7 -69v-43v-104q0 -80 24 -117.5t76 -37.5q32 0 62 18.5t30 36.5v216zM203 587q0 -23 16 -39.5t39 -16.5q22 0 38 16.5
t16 39.5t-15.5 39t-38.5 16t-39 -16t-16 -39zM170 587q0 37 26 63t62 26t61.5 -26t25.5 -63t-25.5 -63.5t-61.5 -26.5t-62 26.5t-26 63.5z" />
    <glyph glyph-name="Uhungarumlaut" unicode="&#x170;" horiz-adv-x="723" 
d="M147 657q15 0 117 5q4 -4 3.5 -14.5t-3.5 -14.5q-15 0 -41 -4.5t-28 -11.5q-5 -16 -5 -74v-247q0 -123 49 -184q46 -58 137 -58q190 0 194 220v271q0 53 -10 69q-4 7 -31 13.5t-41 6.5q-8 11 -2 29q100 -5 111 -5q20 0 36 1t35 2t36 2q8 -13 0 -29q-14 0 -43.5 -6
t-34.5 -14q-10 -17 -10 -68v-270q0 -144 -69 -212t-192 -68q-109 0 -178 66q-74 71 -74 189v292q0 58 -5 74q-2 7 -28 11.5t-41 4.5q-3 4 -3.5 14.5t3.5 14.5q103 -5 118 -5zM395 742q0 6 48 54t73 67q6 3 18 3q46 0 46 -30q0 -23 -80 -63t-99 -40q-6 0 -6 9zM243 742
q0 6 48 54t73 67q6 3 18 3q46 0 46 -30q0 -23 -80 -63t-99 -40q-6 0 -6 9z" />
    <glyph glyph-name="uhungarumlaut" unicode="&#x171;" horiz-adv-x="515" 
d="M350 320q0 39 -8 54q-11 20 -56 20q-2 2 -2.5 12t2.5 14q82 3 137 20q3 0 7 -9.5t4 -14.5q-7 -14 -7 -65v-46v-164q0 -43 7 -76q2 -7 11 -11t19 -5t20 -1l9 -1q3 -1 3 -11q0 -3 -2.5 -9.5t-5.5 -6.5q-15 -1 -33.5 -4t-34.5 -7t-30.5 -8t-23.5 -7l-8 -2q-8 0 -8 16v46
l-2 5q-23 -25 -64.5 -45.5t-77.5 -20.5q-125 0 -125 199v128q0 39 -8 54q-11 20 -56 20q-2 2 -2.5 12t2.5 14q82 3 137 20q3 0 7 -8t4 -12q-7 -14 -7 -69v-43v-104q0 -80 24 -117.5t76 -37.5q32 0 62 18.5t30 36.5v216zM275 654q36 0 36 -29q0 -21 -70 -76t-81 -55
q-9 0 -9 13q0 4 36.5 56.5t60.5 82.5q8 8 27 8zM399 654q36 0 36 -29q0 -21 -70 -76t-81 -55q-9 0 -9 13q0 4 36.5 56.5t60.5 82.5q8 8 27 8z" />
    <glyph glyph-name="Uogonek" unicode="&#x172;" horiz-adv-x="723" 
d="M147 657q15 0 117 5q4 -4 3.5 -14.5t-3.5 -14.5q-15 0 -41 -4.5t-28 -11.5q-5 -16 -5 -74v-247q0 -123 49 -184q46 -58 137 -58q190 0 194 220v271q0 53 -10 69q-4 7 -31 13.5t-41 6.5q-8 11 -2 29q100 -5 111 -5q20 0 36 1t35 2t36 2q8 -13 0 -29q-14 0 -43.5 -6
t-34.5 -14q-10 -17 -10 -68v-270q0 -93 -27 -147t-88 -100q-1 0 -12 -8.5t-17 -13t-19 -14.5t-21 -18t-20 -18.5t-19 -20t-14.5 -20t-11 -20t-3.5 -18.5q0 -16 9 -29.5t32 -13.5t41.5 9.5t28.5 19t11 9.5q5 0 5 -13q0 -10 -5 -17q-51 -67 -105 -67q-37 0 -54 25t-17 52
q0 38 33 80t76 69q-19 -6 -64 -6q-109 0 -178 66q-74 71 -74 189v292q0 58 -5 74q-2 7 -28 11.5t-41 4.5q-3 4 -3.5 14.5t3.5 14.5q103 -5 118 -5z" />
    <glyph glyph-name="uogonek" unicode="&#x173;" horiz-adv-x="507" 
d="M417 341v-200q0 -43 7 -76q2 -7 11 -11t19 -5t20 -1l9 -1q3 -1 3 -11q0 -3 -2.5 -9.5t-5.5 -6.5q-6 0 -20 -2q-31 -5 -75 -55.5t-44 -87.5q0 -16 9 -29.5t32 -13.5q22 0 41 9.5t29 19t11 9.5q5 0 5 -13q0 -11 -5 -18q-50 -66 -105 -66q-37 0 -54 25t-17 52q0 31 33 80
t67 72l-36 -10q-8 0 -8 16v51l-2 5q-66 -71 -131 -71q-37 0 -63.5 18.5t-39 49t-17.5 59t-5 59.5v126q0 39 -14 54q-10 12 -24.5 16.5t-24 4.5t-9.5 2q0 24 6 25q106 16 138 26q1 0 3 0.5l2 0.5q4 0 5 -8.5t0 -12.5q-6 -48 -6 -74v-135q0 -77 23 -113.5t75 -36.5
q30 0 57 23.5t27 40.5v187q0 39 -14 54q-10 12 -24.5 16.5t-24 4.5t-9.5 2q0 24 6 25q106 16 138 26q1 0 3 0.5l2 0.5q4 0 5 -8.5t0 -12.5q-6 -48 -6 -72z" />
    <glyph glyph-name="Wcircumflex" unicode="&#x174;" horiz-adv-x="900" 
d="M118 657q8 0 108 5q2 -4 1.5 -16t-3.5 -13q-7 0 -19.5 -2t-26.5 -10t-14 -21q0 -12 15 -65q13 -46 56.5 -189t59.5 -198q26 87 83 265.5t68 215.5q4 13 15.5 23t20.5 10q5 0 12 -16q132 -414 159 -495q15 55 36 126.5t37 127.5t32 119q12 48 12 70q0 14 -15.5 24
t-29.5 12.5t-23 2.5q-4 1 -4 13t4 16q92 -5 108 -5q20 0 34 1t29.5 2t30.5 2q2 -4 1 -16.5t-3 -12.5q-8 0 -29 -7.5t-34 -18.5q-18 -16 -36 -76q-24 -82 -69 -242t-74 -257q-4 -13 -16 -23.5t-22 -10.5q-6 0 -10 16q-14 40 -36 106.5t-43.5 131t-41 124t-31.5 96.5l-12 36
q-27 -87 -74.5 -235.5t-75.5 -240.5q-4 -13 -16 -23.5t-22 -10.5q-6 0 -10 16q-33 106 -87 281.5t-73 236.5q-1 4 -4 14t-4 13.5t-3.5 11t-4 10.5t-4 8.5t-4.5 9t-5 7.5t-7 7q-22 20 -58 20q-2 0 -2 13.5t2 15.5q115 -5 122 -5zM479 829q4 0 12 -8q20 -22 50.5 -53t51.5 -54
q0 -17 -10 -17l-104 64l-104 -64q-4 0 -7.5 6t-3.5 11q13 14 46 47.5t57 59.5q8 8 12 8z" />
    <glyph glyph-name="wcircumflex" unicode="&#x175;" horiz-adv-x="721" 
d="M101 425l100 5q2 -4 1.5 -16t-3.5 -13q-50 0 -50 -23l5 -15q10 -28 103 -246q81 205 81 210q0 20 -24 55q-13 19 -44 19q-4 2 -4 13.5t4 15.5q12 -1 39.5 -3t51.5 -2q4 0 104 5q2 -5 2 -15.5t-3 -13.5q-50 0 -50 -32q0 -3 3 -11q4 -13 91 -238q72 178 88 224q5 14 5 24
t-5.5 17t-17 10t-17.5 4t-20 2q-3 2 -3.5 13.5t3.5 15.5q14 -1 39 -3t48 -2q17 0 30.5 1t30 2t31.5 2q1 -2 1 -14t-4 -15q-14 0 -37 -8.5t-31 -27.5q-88 -222 -145 -359q-2 -6 -9 -11.5t-12 -5.5q-10 0 -12 4l-111 289l-108 -274q-1 -4 -9.5 -11.5t-15.5 -7.5t-9 4
q-84 209 -162 386q-9 22 -54 22q-2 5 -2 15t2 14q15 -1 33 -2t33 -2t33 -1zM400 646q6 0 11 -9q29 -47 94 -132q0 -5 -3.5 -9t-7.5 -4l-94 76q-59 -48 -94 -76q-4 0 -7.5 4t-3.5 9q65 85 94 132q5 9 11 9z" />
    <glyph glyph-name="Ycircumflex" unicode="&#x176;" horiz-adv-x="598" 
d="M261 116v151q0 14 -7 28q-31 56 -73.5 131t-68.5 122q-26 46 -66 69q-27 16 -56 16q-4 0 -4 12.5t4 16.5q122 -5 125 -5q28 0 128 5q2 -4 1.5 -16.5t-3.5 -12.5q-18 0 -39 -7.5t-21 -24.5q0 -11 12 -30l139 -240q88 158 130 259q3 9 3 15t-5.5 11.5t-22 10.5t-42.5 5
q-2 0 -3 13.5t1 15.5q93 -5 100 -5q10 0 110 5q2 -5 1 -17t-3 -12q-66 0 -89 -40q-30 -54 -158 -291q-5 -9 -5 -31l-1 -154q0 -58 5 -74q2 -7 28 -11.5t41 -4.5q3 -4 3.5 -14.5t-3.5 -14.5q-102 5 -117 5t-118 -5q-4 4 -3.5 14.5t3.5 14.5q15 0 41 4.5t28 11.5q5 16 5 74z
M316 829q4 0 12 -8q20 -22 50.5 -53t51.5 -54q0 -17 -10 -17l-104 64l-104 -64q-4 0 -7.5 6t-3.5 11q13 14 46 47.5t57 59.5q8 8 12 8z" />
    <glyph glyph-name="ycircumflex" unicode="&#x177;" horiz-adv-x="469" 
d="M102 425q58 0 100 5q2 -4 0.5 -16.5t-4.5 -12.5q-50 0 -50 -17l2 -4l106 -270q50 133 88 227q6 14 6 32q0 15 -16 23.5t-42 8.5q-4 0 -4 12.5t4 16.5q38 -5 90 -5q34 0 84 5q3 -4 2 -16.5t-4 -12.5q-13 0 -34.5 -8t-29.5 -26q-107 -255 -150 -361q-6 -14 -21.5 -56.5
t-28.5 -70t-29 -51.5q-38 -56 -87 -56q-44 0 -44 43q0 15 12 29q40 0 63 10t51 47q11 14 28 52t20 49q-94 241 -158 379q-10 20 -54 20q-2 0 -2 13.5t2 15.5q48 -5 100 -5zM264 646q6 0 11 -9q29 -47 94 -132q0 -5 -3.5 -9t-7.5 -4l-94 76q-59 -48 -94 -76q-4 0 -7.5 4
t-3.5 9q65 85 94 132q5 9 11 9z" />
    <glyph glyph-name="Ydieresis" unicode="&#x178;" horiz-adv-x="598" 
d="M261 116v151q0 14 -7 28q-31 56 -73.5 131t-68.5 122q-26 46 -66 69q-27 16 -56 16q-4 0 -4 12.5t4 16.5q122 -5 125 -5q28 0 128 5q2 -4 1.5 -16.5t-3.5 -12.5q-18 0 -39 -7.5t-21 -24.5q0 -11 12 -30l139 -240q88 158 130 259q3 9 3 15t-5.5 11.5t-22 10.5t-42.5 5
q-2 0 -3 13.5t1 15.5q93 -5 100 -5q10 0 110 5q2 -5 1 -17t-3 -12q-66 0 -89 -40q-30 -54 -158 -291q-5 -9 -5 -31l-1 -154q0 -58 5 -74q2 -7 28 -11.5t41 -4.5q3 -4 3.5 -14.5t-3.5 -14.5q-102 5 -117 5t-118 -5q-4 4 -3.5 14.5t3.5 14.5q15 0 41 4.5t28 11.5q5 16 5 74z
M359 778q0 21 14.5 35.5t35.5 14.5t35.5 -14.5t14.5 -35.5t-14.5 -35.5t-35.5 -14.5t-35.5 14.5t-14.5 35.5zM178 778q0 21 14.5 35.5t35.5 14.5t35.5 -14.5t14.5 -35.5t-14.5 -35.5t-35.5 -14.5t-35.5 14.5t-14.5 35.5z" />
    <glyph glyph-name="Zacute" unicode="&#x179;" horiz-adv-x="633" 
d="M216 626q-101 0 -136 -131q-3 -4 -11 -4q-18 0 -26 8q24 64 33 170q56 -8 82 -8h194q70 0 210 10q4 -1 11 -9t7 -13q-1 -4 -106.5 -157.5t-211.5 -305.5l-105 -151h261q57 0 93 36q25 25 53 98q2 3 14 3q15 0 24 -9q-43 -141 -48 -163h-501q-8 0 -14.5 5t-3.5 9l425 612
h-244zM267 737q0 6 48 54t73 67q6 3 18 3q46 0 46 -30q0 -23 -80 -63t-99 -40q-6 0 -6 9z" />
    <glyph glyph-name="zacute" unicode="&#x17a;" horiz-adv-x="447" 
d="M148 431h128q56 0 122 8q3 -5 3 -24q-265 -377 -265 -380h140q42 0 71 27t39 63q1 6 7 6q16 0 26 -12q-30 -73 -45 -119h-325q-5 2 -10 8t-5 12t1 7l257 369l-140 1q-16 0 -28.5 -5t-21 -15.5t-12.5 -16.5t-9 -20l-5 -13q-4 -9 -22 -9q-11 0 -11 3q12 44 16 118
q53 -8 89 -8zM307 654q36 0 36 -29q0 -21 -70 -76t-81 -55q-9 0 -9 13q0 4 36.5 56.5t60.5 82.5q8 8 27 8z" />
    <glyph glyph-name="Zdotaccent" unicode="&#x17b;" horiz-adv-x="633" 
d="M216 626q-101 0 -136 -131q-3 -4 -11 -4q-18 0 -26 8q24 64 33 170q56 -8 82 -8h194q70 0 210 10q4 -1 11 -9t7 -13q-1 -4 -106.5 -157.5t-211.5 -305.5l-105 -151h261q57 0 93 36q25 25 53 98q2 3 14 3q15 0 24 -9q-43 -141 -48 -163h-501q-8 0 -14.5 5t-3.5 9l425 612
h-244zM297 778q0 21 14.5 35.5t35.5 14.5t35.5 -14.5t14.5 -35.5t-14.5 -35.5t-35.5 -14.5t-35.5 14.5t-14.5 35.5z" />
    <glyph glyph-name="zdotaccent" unicode="&#x17c;" horiz-adv-x="447" 
d="M148 431h128q56 0 122 8q3 -5 3 -24q-265 -377 -265 -380h140q42 0 71 27t39 63q1 6 7 6q16 0 26 -12q-30 -73 -45 -119h-325q-5 2 -10 8t-5 12t1 7l257 369l-140 1q-16 0 -28.5 -5t-21 -15.5t-12.5 -16.5t-9 -20l-5 -13q-4 -9 -22 -9q-11 0 -11 3q12 44 16 118
q53 -8 89 -8zM202 593q0 21 14.5 35.5t35.5 14.5t35.5 -14.5t14.5 -35.5t-14.5 -35.5t-35.5 -14.5t-35.5 14.5t-14.5 35.5z" />
    <glyph glyph-name="Zcaron" unicode="&#x17d;" horiz-adv-x="633" 
d="M216 626q-101 0 -136 -131q-3 -4 -11 -4q-18 0 -26 8q24 64 33 170q56 -8 82 -8h194q70 0 210 10q4 -1 11 -9t7 -13q-1 -4 -106.5 -157.5t-211.5 -305.5l-105 -151h261q57 0 93 36q25 25 53 98q2 3 14 3q15 0 24 -9q-43 -141 -48 -163h-501q-8 0 -14.5 5t-3.5 9l425 612
h-244zM348 727q-4 0 -12 8q-20 22 -50.5 53t-51.5 54q0 17 10 17l104 -64l104 64q4 0 7.5 -6t3.5 -11q-13 -14 -46 -47.5t-57 -59.5q-8 -8 -12 -8z" />
    <glyph glyph-name="zcaron" unicode="&#x17e;" horiz-adv-x="447" 
d="M148 431h128q56 0 122 8q3 -5 3 -24q-265 -377 -265 -380h140q42 0 71 27t39 63q1 6 7 6q16 0 26 -12q-30 -73 -45 -119h-325q-5 2 -10 8t-5 12t1 7l257 369l-140 1q-16 0 -28.5 -5t-21 -15.5t-12.5 -16.5t-9 -20l-5 -13q-4 -9 -22 -9q-11 0 -11 3q12 44 16 118
q53 -8 89 -8zM237 496q-6 0 -11 9q-29 47 -94 132q0 5 3.5 9t7.5 4l94 -83q55 49 94 83q4 0 7.5 -4t3.5 -9q-65 -85 -94 -132q-5 -9 -11 -9z" />
    <glyph glyph-name="longs" unicode="&#x17f;" horiz-adv-x="273" 
d="M173 432v-316q0 -58 5 -74q2 -7 27 -11.5t40 -4.5q3 -4 3.5 -14.5t-3.5 -14.5q-103 5 -111 5q-4 0 -106 -5q-4 4 -3.5 14.5t3.5 14.5q14 0 37.5 4.5t25.5 11.5q5 16 5 74v275h-58q-5 0 -5 9q0 6 26 32h37v4v2q0 101 60.5 180t112.5 79q21 0 28 -2t19 -10q10 -10 10 -28
q0 -40 -40 -40q-9 0 -29 11q-17 9 -29 9q-24 0 -40 -24.5t-15 -69.5v-111z" />
    <glyph glyph-name="uni0189" unicode="&#x189;" horiz-adv-x="717" 
d="M372 311h-316q-2 0 -3 7.5t0 16.5t4 13h315q3 0 3 -15t-3 -22zM214 541v-426q0 -65 6 -72q10 -14 82 -14q114 0 189.5 72.5t75.5 211.5q0 82 -23 144t-63 98t-88.5 53.5t-104.5 17.5q-66 0 -69 -11q-5 -16 -5 -74zM315 658q161 0 256 -91t95 -233q0 -68 -18 -125
t-57.5 -106.5t-113 -77.5t-175.5 -28h-250q-4 4 -3.5 14.5t3.5 14.5q15 0 41 4.5t28 11.5q5 16 5 74v427q0 58 -5 74q-2 7 -28 11.5t-41 4.5q-3 4 -3.5 14.5t3.5 14.5q103 -5 118 -5q19 0 70.5 0.5t74.5 0.5z" />
    <glyph glyph-name="Ohorn" unicode="&#x1a0;" horiz-adv-x="769" 
d="M357 633q-54 0 -96 -25t-66 -66.5t-36 -90.5t-12 -101q0 -80 27 -153t83.5 -123t130.5 -50q54 0 96 25t66 67t36.5 91t12.5 102q0 80 -27.5 152.5t-84 122t-130.5 49.5zM610 562q88 -96 88 -234q0 -139 -96.5 -238.5t-229.5 -99.5q-134 0 -229 96t-95 242q0 140 96 239.5
t228 99.5q81 0 152 -38q72 -37 107 -37q18 0 28.5 9t10.5 23q0 8 -13 22.5t-13 27.5q0 14 14 24t31 10q13 0 24 -4q19 -19 19 -51q0 -39 -36 -65.5t-71 -26.5q-11 0 -15 1z" />
    <glyph glyph-name="ohorn" unicode="&#x1a1;" horiz-adv-x="516" 
d="M242 406q-59 0 -87.5 -50t-28.5 -123q0 -80 38 -143.5t101 -63.5q59 0 87.5 50t28.5 122q0 79 -38 143.5t-101 64.5zM344 422q11 -5 34 -16.5t38.5 -18t23.5 -6.5q26 0 29 20q1 8 -9 24.5t-8 29.5q2 14 17.5 21.5t32.5 4.5q11 -2 23 -9q16 -22 10 -53q-5 -25 -22 -41
t-30.5 -20t-24.5 -4q-21 0 -29 3q38 -58 38 -136q0 -97 -60.5 -162.5t-151.5 -65.5q-97 0 -156 62t-59 158q0 97 61 161.5t152 64.5q51 0 91 -17z" />
    <glyph glyph-name="Uhorn" unicode="&#x1af;" horiz-adv-x="723" 
d="M650 622q-15 -3 -21 -16q-10 -20 -10 -60v-270q0 -144 -70 -212t-193 -68q-109 0 -178 66q-74 71 -74 189v292q0 58 -5 74q-2 7 -28 11.5t-41 4.5q-3 4 -3.5 14.5t3.5 14.5q102 -5 118 -5q14 0 117 5q4 -4 3.5 -14.5t-3.5 -14.5q-15 0 -41 -4.5t-28 -11.5q-5 -16 -5 -74
v-247q0 -123 49 -184q46 -58 137 -58q190 0 194 220v271q0 53 -10 69q-4 7 -31 13.5t-41 6.5q-8 11 -2 29q100 -5 111 -5q96 0 96 24q0 8 -13 22.5t-13 27.5q0 14 14 24t31 10q13 0 24 -4q19 -19 19 -51q0 -66 -106 -89z" />
    <glyph glyph-name="uhorn" unicode="&#x1b0;" horiz-adv-x="508" 
d="M423 351v-46v-164q0 -43 7 -76q2 -7 11 -11t19 -5t20 -1l9 -1q3 -1 3 -11q0 -3 -2.5 -9.5t-5.5 -6.5q-15 -1 -33.5 -4t-34.5 -7t-30.5 -8t-23.5 -7l-8 -2q-8 0 -8 16v46l-2 5q-23 -25 -64.5 -45.5t-77.5 -20.5q-125 0 -125 199v124q0 39 -8 54q-11 20 -56 20
q-2 2 -2.5 12t2.5 14q82 3 137 20q3 0 7 -8t4 -12q-7 -14 -7 -65v-43v-104q0 -80 24 -117.5t76 -37.5q32 0 62 18.5t30 36.5v212q0 39 -8 54q-11 20 -56 20q-2 2 -2.5 12t2.5 14q84 3 132 15q43 11 49 26q3 8 -8 25t-9 29q2 14 17.5 21.5t32.5 4.5q11 -2 23 -9
q16 -23 10 -53q-9 -47 -88 -69q-18 -6 -18 -55z" />
    <glyph glyph-name="uni01CD" unicode="&#x1cd;" horiz-adv-x="627" 
d="M95 139q132 339 193 495q4 8 17.5 18.5t20.5 10.5q2 0 3 -1q2 -2 3 -2l204 -534l25 -66q6 -15 31 -24.5t37 -9.5q8 -11 2 -29q-100 5 -110 5q-1 0 -116 -5q-4 4 -3.5 14.5t4.5 14.5q41 0 56 13q4 4 4 14q0 13 -17 62t-34 91l-17 42q-3 4 -6 4q-13 1 -99 1q-63 0 -108 -3
l-5 -3q-28 -74 -45 -122q-14 -41 -14 -71q0 -15 26 -21.5t43 -6.5q2 -2 3 -13.5t-1 -15.5q-14 1 -31 2t-31.5 2t-34.5 1t-36 -1t-35 -2t-36 -2q-2 2 -2 13t2 16q13 0 33 5t27 14q21 27 47 94zM291 542l-92 -244q0 -4 2 -4q52 -2 91 -2q38 0 84 3l3 5zM324 727q-4 0 -12 8
q-20 22 -50.5 53t-51.5 54q0 17 10 17l104 -64l104 64q4 0 7.5 -6t3.5 -11q-13 -14 -46 -47.5t-57 -59.5q-8 -8 -12 -8z" />
    <glyph glyph-name="uni01CE" unicode="&#x1ce;" horiz-adv-x="431" 
d="M187 46q24 0 55.5 16t31.5 25v136q-77 -23 -93 -29q-61 -24 -61 -78q0 -28 19.5 -49t47.5 -21zM241 436q43 0 76 -40t33 -97v-206q0 -47 31 -47q13 0 33 13q4 0 4 -8q0 -11 -5 -19q-12 -11 -36.5 -24.5t-38.5 -13.5q-21 0 -38.5 20t-22.5 45q-14 -14 -57 -40.5t-66 -26.5
q-50 0 -83.5 33t-33.5 82q0 29 15.5 51t34.5 29q170 61 175 63q8 3 10 7.5t2 17.5v27q0 35 -25.5 65.5t-60.5 30.5q-25 0 -37 -15.5t-18 -46.5q-8 -48 -47 -48q-15 0 -24.5 13t-9.5 29q0 15 7 24q31 29 82 55.5t100 26.5zM216 497q-6 0 -11 9q-29 47 -94 132q0 5 3.5 9
t7.5 4l94 -83q55 49 94 83q4 0 7.5 -4t3.5 -9q-65 -85 -94 -132q-5 -9 -11 -9z" />
    <glyph glyph-name="uni01CF" unicode="&#x1cf;" horiz-adv-x="324" 
d="M162 657q15 0 117 5q4 -4 3.5 -14.5t-3.5 -14.5q-15 0 -41 -4.5t-28 -11.5q-5 -16 -5 -74v-427q0 -58 5 -74q2 -7 28 -11.5t41 -4.5q3 -4 3.5 -14.5t-3.5 -14.5q-102 5 -117 5t-118 -5q-4 4 -3.5 14.5t3.5 14.5q15 0 41 4.5t28 11.5q5 16 5 74v427q0 58 -5 74
q-2 7 -28 11.5t-41 4.5q-3 4 -3.5 14.5t3.5 14.5q103 -5 118 -5zM169 727q-4 0 -12 8q-20 22 -50.5 53t-51.5 54q0 17 10 17l104 -64l104 64q4 0 7.5 -6t3.5 -11q-13 -14 -46 -47.5t-57 -59.5q-8 -8 -12 -8z" />
    <glyph glyph-name="uni01D0" unicode="&#x1d0;" horiz-adv-x="270" 
d="M181 325v-209q0 -58 5 -74q2 -7 25.5 -11.5t37.5 -4.5q3 -4 3.5 -14.5t-3.5 -14.5q-103 5 -107 5t-106 -5q-4 4 -3.5 14.5t3.5 14.5q14 0 37.5 4.5t25.5 11.5q5 16 5 74v186q0 40 -5 52q-7 18 -65 18q-2 2 -2.5 12t2.5 14q85 12 143 42q4 0 7.5 -6t3.5 -10q-7 -49 -7 -66
v-33zM156 497q-6 0 -11 9q-29 47 -94 132q0 5 3.5 9t7.5 4l94 -83q55 49 94 83q4 0 7.5 -4t3.5 -9q-65 -85 -94 -132q-5 -9 -11 -9z" />
    <glyph glyph-name="uni01D1" unicode="&#x1d1;" horiz-adv-x="748" 
d="M358 633q-54 0 -96 -25t-66 -66.5t-36 -90.5t-12 -101q0 -80 27 -153t83.5 -123t130.5 -50q54 0 96 25t66 67t36.5 91t12.5 102q0 80 -27.5 152.5t-84 122t-130.5 49.5zM373 667q135 0 230.5 -96t95.5 -243q0 -139 -96.5 -238.5t-229.5 -99.5q-134 0 -229 96t-95 242
q0 140 96 239.5t228 99.5zM374 727q-4 0 -12 8q-20 22 -50.5 53t-51.5 54q0 17 10 17l104 -64l104 64q4 0 7.5 -6t3.5 -11q-13 -14 -46 -47.5t-57 -59.5q-8 -8 -12 -8z" />
    <glyph glyph-name="uni01D2" unicode="&#x1d2;" horiz-adv-x="509" 
d="M243 406q-59 0 -87.5 -50t-28.5 -123q0 -80 38 -143.5t101 -63.5q59 0 87.5 50t28.5 122q0 79 -38 143.5t-101 64.5zM254 439q97 0 155.5 -61.5t58.5 -156.5q0 -97 -60.5 -162.5t-151.5 -65.5q-97 0 -156 62t-59 158q0 97 61 161.5t152 64.5zM267 497q-6 0 -11 9
q-29 47 -94 132q0 5 3.5 9t7.5 4l94 -83q55 49 94 83q4 0 7.5 -4t3.5 -9q-65 -85 -94 -132q-5 -9 -11 -9z" />
    <glyph glyph-name="uni01D3" unicode="&#x1d3;" horiz-adv-x="723" 
d="M147 657q15 0 117 5q4 -4 3.5 -14.5t-3.5 -14.5q-15 0 -41 -4.5t-28 -11.5q-5 -16 -5 -74v-247q0 -123 49 -184q46 -58 137 -58q190 0 194 220v271q0 53 -10 69q-4 7 -31 13.5t-41 6.5q-8 11 -2 29q100 -5 111 -5q20 0 36 1t35 2t36 2q8 -13 0 -29q-14 0 -43.5 -6
t-34.5 -14q-10 -17 -10 -68v-270q0 -144 -69 -212t-192 -68q-109 0 -178 66q-74 71 -74 189v292q0 58 -5 74q-2 7 -28 11.5t-41 4.5q-3 4 -3.5 14.5t3.5 14.5q103 -5 118 -5zM366 727q-4 0 -12 8q-20 22 -50.5 53t-51.5 54q0 17 10 17l104 -64l104 64q4 0 7.5 -6t3.5 -11
q-13 -14 -46 -47.5t-57 -59.5q-8 -8 -12 -8z" />
    <glyph glyph-name="uni01D4" unicode="&#x1d4;" horiz-adv-x="515" 
d="M350 320q0 39 -8 54q-11 20 -56 20q-2 2 -2.5 12t2.5 14q82 3 137 20q3 0 7 -9.5t4 -14.5q-7 -14 -7 -65v-46v-164q0 -43 7 -76q2 -7 11 -11t19 -5t20 -1l9 -1q3 -1 3 -11q0 -3 -2.5 -9.5t-5.5 -6.5q-15 -1 -33.5 -4t-34.5 -7t-30.5 -8t-23.5 -7l-8 -2q-8 0 -8 16v46
l-2 5q-23 -25 -64.5 -45.5t-77.5 -20.5q-125 0 -125 199v128q0 39 -8 54q-11 20 -56 20q-2 2 -2.5 12t2.5 14q82 3 137 20q3 0 7 -8t4 -12q-7 -14 -7 -69v-43v-104q0 -80 24 -117.5t76 -37.5q32 0 62 18.5t30 36.5v216zM300 497q-6 0 -11 9q-29 47 -94 132q0 5 3.5 9t7.5 4
l94 -83q55 49 94 83q4 0 7.5 -4t3.5 -9q-65 -85 -94 -132q-5 -9 -11 -9z" />
    <glyph glyph-name="uni01D5" unicode="&#x1d5;" horiz-adv-x="723" 
d="M405 778q0 21 14.5 35.5t35.5 14.5t35.5 -14.5t14.5 -35.5t-14.5 -35.5t-35.5 -14.5t-35.5 14.5t-14.5 35.5zM224 778q0 21 14.5 35.5t35.5 14.5t35.5 -14.5t14.5 -35.5t-14.5 -35.5t-35.5 -14.5t-35.5 14.5t-14.5 35.5zM147 657q15 0 117 5q4 -4 3.5 -14.5t-3.5 -14.5
q-15 0 -41 -4.5t-28 -11.5q-5 -16 -5 -74v-247q0 -123 49 -184q46 -58 137 -58q190 0 194 220v271q0 53 -10 69q-4 7 -31 13.5t-41 6.5q-8 11 -2 29q100 -5 111 -5q20 0 36 1t35 2t36 2q8 -13 0 -29q-14 0 -43.5 -6t-34.5 -14q-10 -17 -10 -68v-270q0 -144 -69 -212
t-192 -68q-109 0 -178 66q-74 71 -74 189v292q0 58 -5 74q-2 7 -28 11.5t-41 4.5q-3 4 -3.5 14.5t3.5 14.5q103 -5 118 -5zM484 884h-246q-7 3 -4 20t10 22h246q5 -4 3 -19t-9 -23z" />
    <glyph glyph-name="uni01D6" unicode="&#x1d6;" horiz-adv-x="515" 
d="M349 320q0 39 -8 54q-11 20 -56 20q-2 2 -2.5 12t2.5 14q82 3 137 20q3 0 7 -9.5t4 -14.5q-7 -14 -7 -65v-46v-164q0 -43 7 -76q2 -7 11 -11t19 -5t20 -1l9 -1q3 -1 3 -11q0 -3 -2.5 -9.5t-5.5 -6.5q-15 -1 -33.5 -4t-34.5 -7t-30.5 -8t-23.5 -7l-8 -2q-8 0 -8 16v46
l-2 5q-23 -25 -64.5 -45.5t-77.5 -20.5q-125 0 -125 199v128q0 39 -8 54q-11 20 -56 20q-2 2 -2.5 12t2.5 14q82 3 137 20q3 0 7 -8t4 -12q-7 -14 -7 -69v-43v-104q0 -80 24 -117.5t76 -37.5q32 0 62 18.5t30 36.5v216zM336 592q19 0 32.5 -14t13.5 -33t-14 -32t-33 -13
t-33 13.5t-14 32.5t14.5 32.5t33.5 13.5zM153 592q19 0 32.5 -14t13.5 -33t-14 -32t-33 -13t-33 13.5t-14 32.5t14.5 32.5t33.5 13.5zM358 668h-224q-7 3 -4 20t10 22h224q5 -4 3 -19t-9 -23z" />
    <glyph glyph-name="uni01D7" unicode="&#x1d7;" horiz-adv-x="723" 
d="M405 778q0 21 14.5 35.5t35.5 14.5t35.5 -14.5t14.5 -35.5t-14.5 -35.5t-35.5 -14.5t-35.5 14.5t-14.5 35.5zM224 778q0 21 14.5 35.5t35.5 14.5t35.5 -14.5t14.5 -35.5t-14.5 -35.5t-35.5 -14.5t-35.5 14.5t-14.5 35.5zM147 657q15 0 117 5q4 -4 3.5 -14.5t-3.5 -14.5
q-15 0 -41 -4.5t-28 -11.5q-5 -16 -5 -74v-247q0 -123 49 -184q46 -58 137 -58q190 0 194 220v271q0 53 -10 69q-4 7 -31 13.5t-41 6.5q-8 11 -2 29q100 -5 111 -5q20 0 36 1t35 2t36 2q8 -13 0 -29q-14 0 -43.5 -6t-34.5 -14q-10 -17 -10 -68v-270q0 -144 -69 -212
t-192 -68q-109 0 -178 66q-74 71 -74 189v292q0 58 -5 74q-2 7 -28 11.5t-41 4.5q-3 4 -3.5 14.5t3.5 14.5q103 -5 118 -5zM355 879q0 6 48 54t73 67q6 3 18 3q46 0 46 -30q0 -23 -80 -63t-99 -40q-6 0 -6 9z" />
    <glyph glyph-name="uni01D8" unicode="&#x1d8;" horiz-adv-x="515" 
d="M349 320q0 39 -8 54q-11 20 -56 20q-2 2 -2.5 12t2.5 14q82 3 137 20q3 0 7 -9.5t4 -14.5q-7 -14 -7 -65v-46v-164q0 -43 7 -76q2 -7 11 -11t19 -5t20 -1l9 -1q3 -1 3 -11q0 -3 -2.5 -9.5t-5.5 -6.5q-15 -1 -33.5 -4t-34.5 -7t-30.5 -8t-23.5 -7l-8 -2q-8 0 -8 16v46
l-2 5q-23 -25 -64.5 -45.5t-77.5 -20.5q-125 0 -125 199v128q0 39 -8 54q-11 20 -56 20q-2 2 -2.5 12t2.5 14q82 3 137 20q3 0 7 -8t4 -12q-7 -14 -7 -69v-43v-104q0 -80 24 -117.5t76 -37.5q32 0 62 18.5t30 36.5v216zM336 592q19 0 32.5 -14t13.5 -33t-14 -32t-33 -13
t-33 13.5t-14 32.5t14.5 32.5t33.5 13.5zM153 592q19 0 32.5 -14t13.5 -33t-14 -32t-33 -13t-33 13.5t-14 32.5t14.5 32.5t33.5 13.5zM357 813q36 0 36 -29q0 -21 -70 -76t-81 -55q-9 0 -9 13q0 4 36.5 56.5t60.5 82.5q8 8 27 8z" />
    <glyph glyph-name="uni01D9" unicode="&#x1d9;" horiz-adv-x="723" 
d="M405 778q0 21 14.5 35.5t35.5 14.5t35.5 -14.5t14.5 -35.5t-14.5 -35.5t-35.5 -14.5t-35.5 14.5t-14.5 35.5zM224 778q0 21 14.5 35.5t35.5 14.5t35.5 -14.5t14.5 -35.5t-14.5 -35.5t-35.5 -14.5t-35.5 14.5t-14.5 35.5zM147 657q15 0 117 5q4 -4 3.5 -14.5t-3.5 -14.5
q-15 0 -41 -4.5t-28 -11.5q-5 -16 -5 -74v-247q0 -123 49 -184q46 -58 137 -58q190 0 194 220v271q0 53 -10 69q-4 7 -31 13.5t-41 6.5q-8 11 -2 29q100 -5 111 -5q20 0 36 1t35 2t36 2q8 -13 0 -29q-14 0 -43.5 -6t-34.5 -14q-10 -17 -10 -68v-270q0 -144 -69 -212
t-192 -68q-109 0 -178 66q-74 71 -74 189v292q0 58 -5 74q-2 7 -28 11.5t-41 4.5q-3 4 -3.5 14.5t3.5 14.5q103 -5 118 -5zM365 843q-4 0 -12 8q-20 22 -50.5 53t-51.5 54q0 17 10 17l104 -64l104 64q4 0 7.5 -6t3.5 -11q-13 -14 -46 -47.5t-57 -59.5q-8 -8 -12 -8z" />
    <glyph glyph-name="uni01DA" unicode="&#x1da;" horiz-adv-x="515" 
d="M349 320q0 39 -8 54q-11 20 -56 20q-2 2 -2.5 12t2.5 14q82 3 137 20q3 0 7 -9.5t4 -14.5q-7 -14 -7 -65v-46v-164q0 -43 7 -76q2 -7 11 -11t19 -5t20 -1l9 -1q3 -1 3 -11q0 -3 -2.5 -9.5t-5.5 -6.5q-15 -1 -33.5 -4t-34.5 -7t-30.5 -8t-23.5 -7l-8 -2q-8 0 -8 16v46
l-2 5q-23 -25 -64.5 -45.5t-77.5 -20.5q-125 0 -125 199v128q0 39 -8 54q-11 20 -56 20q-2 2 -2.5 12t2.5 14q82 3 137 20q3 0 7 -8t4 -12q-7 -14 -7 -69v-43v-104q0 -80 24 -117.5t76 -37.5q32 0 62 18.5t30 36.5v216zM336 592q19 0 32.5 -14t13.5 -33t-14 -32t-33 -13
t-33 13.5t-14 32.5t14.5 32.5t33.5 13.5zM153 592q19 0 32.5 -14t13.5 -33t-14 -32t-33 -13t-33 13.5t-14 32.5t14.5 32.5t33.5 13.5zM257 655q-6 0 -11 9q-29 47 -94 132q0 5 3.5 9t7.5 4l94 -83q55 49 94 83q4 0 7.5 -4t3.5 -9q-65 -85 -94 -132q-5 -9 -11 -9z" />
    <glyph glyph-name="uni01DB" unicode="&#x1db;" horiz-adv-x="723" 
d="M405 778q0 21 14.5 35.5t35.5 14.5t35.5 -14.5t14.5 -35.5t-14.5 -35.5t-35.5 -14.5t-35.5 14.5t-14.5 35.5zM224 778q0 21 14.5 35.5t35.5 14.5t35.5 -14.5t14.5 -35.5t-14.5 -35.5t-35.5 -14.5t-35.5 14.5t-14.5 35.5zM147 657q15 0 117 5q4 -4 3.5 -14.5t-3.5 -14.5
q-15 0 -41 -4.5t-28 -11.5q-5 -16 -5 -74v-247q0 -123 49 -184q46 -58 137 -58q190 0 194 220v271q0 53 -10 69q-4 7 -31 13.5t-41 6.5q-8 11 -2 29q100 -5 111 -5q20 0 36 1t35 2t36 2q8 -13 0 -29q-14 0 -43.5 -6t-34.5 -14q-10 -17 -10 -68v-270q0 -144 -69 -212
t-192 -68q-109 0 -178 66q-74 71 -74 189v292q0 58 -5 74q-2 7 -28 11.5t-41 4.5q-3 4 -3.5 14.5t3.5 14.5q103 -5 118 -5zM370 898q0 -9 -6 -9q-19 0 -99 40t-80 63q0 30 46 30q12 0 18 -3q25 -19 73 -67t48 -54z" />
    <glyph glyph-name="uni01DC" unicode="&#x1dc;" horiz-adv-x="515" 
d="M349 320q0 39 -8 54q-11 20 -56 20q-2 2 -2.5 12t2.5 14q82 3 137 20q3 0 7 -9.5t4 -14.5q-7 -14 -7 -65v-46v-164q0 -43 7 -76q2 -7 11 -11t19 -5t20 -1l9 -1q3 -1 3 -11q0 -3 -2.5 -9.5t-5.5 -6.5q-15 -1 -33.5 -4t-34.5 -7t-30.5 -8t-23.5 -7l-8 -2q-8 0 -8 16v46
l-2 5q-23 -25 -64.5 -45.5t-77.5 -20.5q-125 0 -125 199v128q0 39 -8 54q-11 20 -56 20q-2 2 -2.5 12t2.5 14q82 3 137 20q3 0 7 -8t4 -12q-7 -14 -7 -69v-43v-104q0 -80 24 -117.5t76 -37.5q32 0 62 18.5t30 36.5v216zM336 592q19 0 32.5 -14t13.5 -33t-14 -32t-33 -13
t-33 13.5t-14 32.5t14.5 32.5t33.5 13.5zM153 592q19 0 32.5 -14t13.5 -33t-14 -32t-33 -13t-33 13.5t-14 32.5t14.5 32.5t33.5 13.5zM124 813q19 0 27 -8q24 -30 60.5 -82.5t36.5 -56.5q0 -13 -9 -13q-11 0 -81 55t-70 76q0 29 36 29z" />
    <glyph glyph-name="uni01E2" unicode="&#x1e2;" horiz-adv-x="897" 
d="M473 0l-116 -3q-2 2 -2.5 9.5t0.5 13.5t2 6q12 0 37.5 7.5t28.5 15.5q7 27 7 86v120q-36 2 -89 2q-25 0 -102 -5l-5 -3q-42 -71 -73 -120q-40 -62 -40 -77q0 -11 15.5 -17.5t27.5 -7.5t21 -1q2 -2 3 -13.5t-1 -15.5q-14 1 -31 2t-31.5 2t-34.5 1t-35 -1t-33.5 -2
t-35.5 -2q-2 2 -2 13t2 16q27 0 57 19q31 20 75 92l277 447q7 12 7 20q0 12 -16 18.5t-29 6.5q-3 5 -2.5 16t2.5 13q49 -1 116 -1q45 0 155 3.5t166 3.5q4 -29 15.5 -76.5t13.5 -59.5q-5 -5 -18 -5t-14 7q-15 56 -43 75t-73 19h-86q-66 0 -69 -11q-5 -16 -5 -71v-187
q0 -6 43 -6h53q67 0 82 9.5t26 53.5q1 6 2 9q1 7 15 7q12 0 17 -5v-189q-4 -4 -16 -4q-13 0 -16 8q-7 28 -12 41.5t-8 17t-8 7.5q-13 8 -106 8q-72 0 -72 -9v-190q0 -64 6 -69q13 -10 71 -10h48q82 0 126 27q33 19 63 101q1 6 14 6q19 0 25 -6q-5 -13 -15.5 -41.5t-16.5 -46
t-13 -40.5t-9 -38q-52 0 -162 2t-179 2zM430 297v269l-164 -266q-1 -4 1 -4q26 -1 79 -1q46 0 84 2zM711 742h-246q-7 3 -4 20t10 22h246q5 -4 3 -19t-9 -23z" />
    <glyph glyph-name="uni01E3" unicode="&#x1e3;" horiz-adv-x="653" 
d="M126 507q0 37 12 37h375q5 0 5 -7q0 -10 -6 -32q-1 -3 -2.5 -4.5t-3.5 -2.5h-1h-373l-4 2q-2 3 -2 7zM181 194q-61 -22 -61 -78q0 -28 19.5 -49t47.5 -21q29 0 60.5 18.5t31.5 39.5q-12 26 -18 89q-2 22 -2 27q-13 -5 -41.5 -14t-36.5 -12zM443 402q-37 0 -63 -29
t-35 -58.5t-6 -29.5h163q22 0 23 23q1 26 -20.5 60t-61.5 34zM460 438q42 0 73.5 -15t47 -38.5t22.5 -44t7 -38.5q0 -46 -24 -47q-108 -7 -252 -7q-2 -91 45.5 -141.5t117.5 -50.5q36 0 65 17.5t45 35.5q1 0 2.5 -1.5t3.5 -5t2 -7.5q0 -8 -6 -18q-19 -31 -56.5 -58
t-89.5 -27q-49 0 -95 22t-70 63q-22 -23 -71 -54t-73 -31q-50 0 -83.5 33t-33.5 82q0 55 46 79q28 14 94.5 41t71.5 29q12 5 14 14t2 32q0 37 -21 66.5t-56 29.5q-25 0 -37 -15.5t-18 -47.5q-8 -47 -47 -47q-15 0 -24.5 13t-9.5 29q0 15 7 24q27 25 79.5 53.5t100.5 28.5
q60 0 93 -62q59 64 128 64z" />
    <glyph glyph-name="Gcaron" unicode="&#x1e6;" horiz-adv-x="720" 
d="M535 175q0 58 -5 74q-2 7 -27.5 11.5t-40.5 4.5q-3 4 -3.5 14.5t3.5 14.5q102 -5 117 -5q9 0 112 5q4 -4 3.5 -14.5t-3.5 -14.5q-15 0 -39 -4.5t-26 -11.5q-5 -16 -5 -74v-71q0 -12 5 -24t5 -16q0 -7 -20 -18q-30 -16 -50.5 -24.5t-69 -18t-109.5 -9.5q-145 0 -239.5 96
t-94.5 232q0 143 96.5 244t241.5 101q115 0 212 -21q23 -138 23 -148q1 -4 -6.5 -8.5t-15.5 -4.5q-7 0 -12 3q-28 146 -196 146q-106 0 -175 -89.5t-69 -201.5q0 -60 16.5 -115.5t47.5 -101t82 -72.5t114 -27q57 0 121 32q7 3 7 15v101zM384 727q-4 0 -12 8q-20 22 -50.5 53
t-51.5 54q0 17 10 17l104 -64l104 64q4 0 7.5 -6t3.5 -11q-13 -14 -46 -47.5t-57 -59.5q-8 -8 -12 -8z" />
    <glyph glyph-name="gcaron" unicode="&#x1e7;" horiz-adv-x="466" 
d="M215 409q-40 0 -64 -35.5t-24 -81.5q0 -49 26.5 -87t69.5 -38q39 0 62 34.5t23 79.5q0 51 -24.5 89.5t-68.5 38.5zM255 -4q-84 0 -93 -5q-60 -34 -60 -67q0 -50 36 -81t98 -31q53 0 102 33.5t49 73.5q0 27 -34 52t-98 25zM301 67q60 0 107.5 -31.5t47.5 -73.5
q0 -65 -80 -126.5t-180 -62.5q-67 -1 -120 31.5t-53 90.5q0 29 34 57t72 47q-31 10 -56.5 34.5t-25.5 58.5q11 14 40 36t46 32q-37 20 -60 55.5t-23 72.5q0 60 49 105.5t120 45.5q34 0 91 -22q13 -5 23 -7l107 15q10 -3 10 -10t-8 -22t-15 -19l-66 4q-4 0 -4 -3
q7 -7 17.5 -34t10.5 -57q0 -55 -50 -101t-119 -46q-34 0 -56 9q-37 -21 -37 -44q0 -10 16.5 -22.5t43.5 -12.5h118zM226 522q-6 0 -11 9q-29 47 -94 132q0 5 3.5 9t7.5 4l94 -83q55 49 94 83q4 0 7.5 -4t3.5 -9q-65 -85 -94 -132q-5 -9 -11 -9z" />
    <glyph glyph-name="Aringacute" unicode="&#x1fa;" horiz-adv-x="627" 
d="M95 139q132 339 193 495q4 8 17.5 18.5t20.5 10.5q2 0 3 -1q2 -2 3 -2l204 -534l25 -66q6 -15 31 -24.5t37 -9.5q8 -11 2 -29q-100 5 -110 5q-1 0 -116 -5q-4 4 -3.5 14.5t4.5 14.5q41 0 56 13q4 4 4 14q0 13 -17 62t-34 91l-17 42q-3 4 -6 4q-13 1 -99 1q-63 0 -108 -3
l-5 -3q-28 -74 -45 -122q-14 -41 -14 -71q0 -15 26 -21.5t43 -6.5q2 -2 3 -13.5t-1 -15.5q-14 1 -31 2t-31.5 2t-34.5 1t-36 -1t-35 -2t-36 -2q-2 2 -2 13t2 16q13 0 33 5t27 14q21 27 47 94zM291 542l-92 -244q0 -4 2 -4q52 -2 91 -2q38 0 84 3l3 5zM266 752
q0 -23 16.5 -39.5t39.5 -16.5q22 0 38 16.5t16 39.5t-15.5 39t-38.5 16t-39.5 -16t-16.5 -39zM233 752q0 37 26.5 63t62.5 26t61.5 -26t25.5 -63t-25.5 -63.5t-61.5 -26.5t-62.5 26.5t-26.5 63.5zM344 879q0 6 48 54t73 67q6 3 18 3q46 0 46 -30q0 -23 -80 -63t-99 -40
q-6 0 -6 9z" />
    <glyph glyph-name="aringacute" unicode="&#x1fb;" horiz-adv-x="431" 
d="M187 46q24 0 55.5 16t31.5 25v136q-77 -23 -93 -29q-61 -24 -61 -78q0 -28 19.5 -49t47.5 -21zM241 436q43 0 76 -40t33 -97v-206q0 -47 31 -47q13 0 33 13q4 0 4 -8q0 -11 -5 -19q-12 -11 -36.5 -24.5t-38.5 -13.5q-21 0 -38.5 20t-22.5 45q-14 -14 -57 -40.5t-66 -26.5
q-50 0 -83.5 33t-33.5 82q0 29 15.5 51t34.5 29q170 61 175 63q8 3 10 7.5t2 17.5v27q0 35 -25.5 65.5t-60.5 30.5q-25 0 -37 -15.5t-18 -46.5q-8 -48 -47 -48q-15 0 -24.5 13t-9.5 29q0 15 7 24q31 29 82 55.5t100 26.5zM169 587q0 -23 16 -39.5t39 -16.5q22 0 38 16.5
t16 39.5t-15.5 39t-38.5 16t-39 -16t-16 -39zM136 587q0 37 26 63t62 26t61.5 -26t25.5 -63t-25.5 -63.5t-61.5 -26.5t-62 26.5t-26 63.5zM322 894q36 0 36 -29q0 -21 -70 -76t-81 -55q-9 0 -9 13q0 4 36.5 56.5t60.5 82.5q8 8 27 8z" />
    <glyph glyph-name="AEacute" unicode="&#x1fc;" horiz-adv-x="897" 
d="M473 0l-116 -3q-2 2 -2.5 9.5t0.5 13.5t2 6q12 0 37.5 7.5t28.5 15.5q7 27 7 86v120q-36 2 -89 2q-25 0 -102 -5l-5 -3q-42 -71 -73 -120q-40 -62 -40 -77q0 -11 15.5 -17.5t27.5 -7.5t21 -1q2 -2 3 -13.5t-1 -15.5q-14 1 -31 2t-31.5 2t-34.5 1t-35 -1t-33.5 -2
t-35.5 -2q-2 2 -2 13t2 16q27 0 57 19q31 20 75 92l277 447q7 12 7 20q0 12 -16 18.5t-29 6.5q-3 5 -2.5 16t2.5 13q49 -1 116 -1q45 0 155 3.5t166 3.5q4 -29 15.5 -76.5t13.5 -59.5q-5 -5 -18 -5t-14 7q-15 56 -43 75t-73 19h-86q-66 0 -69 -11q-5 -16 -5 -71v-187
q0 -6 43 -6h53q67 0 82 9.5t26 53.5q1 6 2 9q1 7 15 7q12 0 17 -5v-189q-4 -4 -16 -4q-13 0 -16 8q-7 28 -12 41.5t-8 17t-8 7.5q-13 8 -106 8q-72 0 -72 -9v-190q0 -64 6 -69q13 -10 71 -10h48q82 0 126 27q33 19 63 101q1 6 14 6q19 0 25 -6q-5 -13 -15.5 -41.5t-16.5 -46
t-13 -40.5t-9 -38q-52 0 -162 2t-179 2zM430 297v269l-164 -266q-1 -4 1 -4q26 -1 79 -1q46 0 84 2zM519 737q0 6 48 54t73 67q6 3 18 3q46 0 46 -30q0 -23 -80 -63t-99 -40q-6 0 -6 9z" />
    <glyph glyph-name="aeacute" unicode="&#x1fd;" horiz-adv-x="653" 
d="M181 194q-61 -22 -61 -78q0 -28 19.5 -49t47.5 -21q29 0 60.5 18.5t31.5 39.5q-12 26 -18 89q-2 22 -2 27q-13 -5 -41.5 -14t-36.5 -12zM443 402q-37 0 -63 -29t-35 -58.5t-6 -29.5h163q22 0 23 23q1 26 -20.5 60t-61.5 34zM460 438q42 0 73.5 -15t47 -38.5t22.5 -44
t7 -38.5q0 -46 -24 -47q-108 -7 -252 -7q-2 -91 45.5 -141.5t117.5 -50.5q36 0 65 17.5t45 35.5q1 0 2.5 -1.5t3.5 -5t2 -7.5q0 -8 -6 -18q-19 -31 -56.5 -58t-89.5 -27q-49 0 -95 22t-70 63q-22 -23 -71 -54t-73 -31q-50 0 -83.5 33t-33.5 82q0 55 46 79q28 14 94.5 41
t71.5 29q12 5 14 14t2 32q0 37 -21 66.5t-56 29.5q-25 0 -37 -15.5t-18 -47.5q-8 -47 -47 -47q-15 0 -24.5 13t-9.5 29q0 15 7 24q27 25 79.5 53.5t100.5 28.5q60 0 93 -62q59 64 128 64zM439 655q36 0 36 -29q0 -21 -70 -76t-81 -55q-9 0 -9 13q0 4 36.5 56.5t60.5 82.5
q8 8 27 8z" />
    <glyph glyph-name="Oslashacute" unicode="&#x1fe;" horiz-adv-x="748" 
d="M565 667q8 -2 20 -10t9 -12l-418 -658q-9 3 -20.5 11t-8.5 12zM358 633q-54 0 -96 -25t-66 -66.5t-36 -90.5t-12 -101q0 -80 27 -153t83.5 -123t130.5 -50q54 0 96 25t66 67t36.5 91t12.5 102q0 80 -27.5 152.5t-84 122t-130.5 49.5zM373 667q135 0 230.5 -96t95.5 -243
q0 -139 -96.5 -238.5t-229.5 -99.5q-134 0 -229 96t-95 242q0 140 96 239.5t228 99.5zM324 737q0 6 48 54t73 67q6 3 18 3q46 0 46 -30q0 -23 -80 -63t-99 -40q-6 0 -6 9z" />
    <glyph glyph-name="oslashacute" unicode="&#x1ff;" horiz-adv-x="509" 
d="M129 -8q-30 15 -27 21l270 424q30 -13 27 -20zM244 406q-59 0 -87.5 -50t-28.5 -123q0 -80 38 -143.5t101 -63.5q59 0 87.5 50t28.5 122q0 79 -38 143.5t-101 64.5zM255 439q97 0 155.5 -61.5t58.5 -156.5q0 -97 -60.5 -162.5t-151.5 -65.5q-97 0 -156 62t-59 158
q0 97 61 161.5t152 64.5zM340 654q36 0 36 -29q0 -21 -70 -76t-81 -55q-9 0 -9 13q0 4 36.5 56.5t60.5 82.5q8 8 27 8z" />
    <glyph glyph-name="uni0202" unicode="&#x202;" horiz-adv-x="627" 
d="M95 139q132 339 193 495q4 8 17.5 18.5t20.5 10.5q2 0 3 -1q2 -2 3 -2l204 -534l25 -66q6 -15 31 -24.5t37 -9.5q8 -11 2 -29q-100 5 -110 5q-1 0 -116 -5q-4 4 -3.5 14.5t4.5 14.5q41 0 56 13q4 4 4 14q0 13 -17 62t-34 91l-17 42q-3 4 -6 4q-13 1 -99 1q-63 0 -108 -3
l-5 -3q-28 -74 -45 -122q-14 -41 -14 -71q0 -15 26 -21.5t43 -6.5q2 -2 3 -13.5t-1 -15.5q-14 1 -31 2t-31.5 2t-34.5 1t-36 -1t-35 -2t-36 -2q-2 2 -2 13t2 16q13 0 33 5t27 14q21 27 47 94zM291 542l-92 -244q0 -4 2 -4q52 -2 91 -2q38 0 84 3l3 5zM323 803q-31 0 -55 -20
t-32 -52q0 -3 -4 -3q-5 0 -11.5 4.5t-6.5 8.5v3q1 3 1 4q7 43 37.5 72t70.5 29t70.5 -29.5t37.5 -70.5q0 -1 1 -5v-3q0 -4 -6.5 -8.5t-11.5 -4.5q-4 0 -4 3q-8 32 -32 52t-55 20z" />
    <glyph glyph-name="uni0203" unicode="&#x203;" horiz-adv-x="431" 
d="M187 46q24 0 55.5 16t31.5 25v136q-77 -23 -93 -29q-61 -24 -61 -78q0 -28 19.5 -49t47.5 -21zM241 436q43 0 76 -40t33 -97v-206q0 -47 31 -47q13 0 33 13q4 0 4 -8q0 -11 -5 -19q-12 -11 -36.5 -24.5t-38.5 -13.5q-21 0 -38.5 20t-22.5 45q-14 -14 -57 -40.5t-66 -26.5
q-50 0 -83.5 33t-33.5 82q0 29 15.5 51t34.5 29q170 61 175 63q8 3 10 7.5t2 17.5v27q0 35 -25.5 65.5t-60.5 30.5q-25 0 -37 -15.5t-18 -46.5q-8 -48 -47 -48q-15 0 -24.5 13t-9.5 29q0 15 7 24q31 29 82 55.5t100 26.5zM216 575q-31 0 -55 -20t-32 -52q0 -3 -4 -3
q-5 0 -11.5 4.5t-6.5 8.5v3q1 3 1 4q7 43 37.5 72t70.5 29t70.5 -29.5t37.5 -70.5q0 -1 1 -5v-3q0 -4 -6.5 -8.5t-11.5 -4.5q-4 0 -4 3q-8 32 -32 52t-55 20z" />
    <glyph glyph-name="uni0218" unicode="&#x218;" horiz-adv-x="502" 
d="M261 666q22 0 41.5 -2.5t32 -5.5t36 -9.5t41.5 -10.5q7 -44 14 -142q1 -5 -6.5 -8t-14.5 -3t-11 4q-6 47 -44.5 95t-95.5 48q-56 0 -82.5 -34t-26.5 -77q0 -19 7 -36.5t14 -29t25.5 -26.5t27 -21t34 -22t32.5 -20q5 -3 35 -21.5t41 -26t34.5 -27t34 -34.5t20 -37.5
t9.5 -46.5q0 -80 -62.5 -131.5t-146.5 -51.5q-24 0 -51 3.5t-45 7t-45.5 10t-38.5 8.5q-21 103 -21 155q12 12 26 12q9 0 11 -9q3 -15 8.5 -31t19 -39t30.5 -40.5t45.5 -30t62.5 -12.5q51 0 85.5 33t34.5 89q0 20 -6 37t-12.5 28t-23 23.5t-25.5 18.5t-33 19t-33 18
q-29 17 -40.5 24t-38 24.5t-38.5 31t-28 33t-22.5 41.5t-6.5 46q0 77 59 126.5t137 49.5zM270 -46q18 0 32 -9q10 -15 10 -41q0 -42 -29 -78.5t-70 -54.5q-6 1 -11 6.5t-5 8.5q16 8 34 27t18 39q0 8 -17.5 21.5t-17.5 36.5q0 12 13.5 28t42.5 16z" />
    <glyph glyph-name="uni0219" unicode="&#x219;" horiz-adv-x="369" 
d="M195 437q22 0 55.5 -5.5t46.5 -7.5q10 -45 12 -110q0 -5 -10 -5q-11 0 -17 5q-9 34 -32 63t-52 29q-35 0 -53 -17.5t-18 -45.5q0 -13 4 -23.5t8 -17.5t15 -15.5t17 -12.5t21.5 -12.5t21.5 -12.5q2 -1 23 -13.5t27.5 -16.5t23 -17t22.5 -22t12.5 -23.5t6.5 -29.5
q0 -59 -46 -98.5t-108 -39.5q-21 0 -38.5 2.5t-41.5 8.5t-37 8q-6 16 -11.5 50t-5.5 54q8 6 18 6q6 0 9 -2q10 -35 40.5 -65t67.5 -30q32 0 52 19t20 53q0 18 -6 32t-21 26t-26.5 19t-34.5 19.5t-34 18.5q-76 44 -76 107q0 54 43.5 88t101.5 34zM198 -46q18 0 32 -9
q10 -15 10 -41q0 -42 -29 -78.5t-70 -54.5q-6 1 -11 6.5t-5 8.5q16 8 34 27t18 39q0 8 -17.5 21.5t-17.5 36.5q0 12 13.5 28t42.5 16z" />
    <glyph glyph-name="uni021A" unicode="&#x21a;" horiz-adv-x="627" 
d="M291 -101q0 22 19 38.5t60 16.5q9 -7 15.5 -23.5t6.5 -29.5q0 -80 -82 -126q-2 -2 -8 -2q-20 0 -20 7l23 22q23 23 23 37q0 13 -18.5 29t-18.5 31zM509 661q30 0 60 15q11 6 19 2q12 -105 26 -172q-8 -8 -19 -7q-11 0 -14 5q-11 55 -35.5 88.5t-60.5 33.5h-127v-510
q0 -58 5 -74q2 -7 28 -11.5t41 -4.5q3 -4 3.5 -14.5t-3.5 -14.5q-102 5 -117 5t-118 -5q-4 4 -3.5 14.5t3.5 14.5q15 0 41 4.5t28 11.5q5 16 5 74v510h-129q-36 0 -60.5 -33.5t-35.5 -88.5q-3 -5 -14 -5q-11 -1 -19 7q14 67 26 172q9 4 23 -3q28 -14 56 -14h391z" />
    <glyph glyph-name="uni021B" unicode="&#x21b;" horiz-adv-x="312" 
d="M119 -101q0 22 19 38.5t60 16.5q9 -7 15.5 -23.5t6.5 -29.5q0 -80 -82 -126q-2 -2 -8 -2q-20 0 -20 7l23 22q23 23 23 37q0 13 -18.5 29t-18.5 31zM161 432h129q5 0 5 -11q0 -16 -14 -30h-120v-262q0 -82 66 -82q33 0 65 23q3 -2 3 -7q0 -11 -4 -15q-48 -55 -103 -55
q-104 0 -104 108v290h-58q-5 0 -5 9q0 6 26 32h37v63q8 9 23 25.5t26 28.5t12 13q2 2 6 3t7 0.5t3 -2.5v-131z" />
    <glyph glyph-name="uni0232" unicode="&#x232;" horiz-adv-x="598" 
d="M261 116v151q0 14 -7 28q-31 56 -73.5 131t-68.5 122q-26 46 -66 69q-27 16 -56 16q-4 0 -4 12.5t4 16.5q122 -5 125 -5q28 0 128 5q2 -4 1.5 -16.5t-3.5 -12.5q-18 0 -39 -7.5t-21 -24.5q0 -11 12 -30l139 -240q88 158 130 259q3 9 3 15t-5.5 11.5t-22 10.5t-42.5 5
q-2 0 -3 13.5t1 15.5q93 -5 100 -5q10 0 110 5q2 -5 1 -17t-3 -12q-66 0 -89 -40q-30 -54 -158 -291q-5 -9 -5 -31l-1 -154q0 -58 5 -74q2 -7 28 -11.5t41 -4.5q3 -4 3.5 -14.5t-3.5 -14.5q-102 5 -117 5t-118 -5q-4 4 -3.5 14.5t3.5 14.5q15 0 41 4.5t28 11.5q5 16 5 74z
M438 742h-246q-7 3 -4 20t10 22h246q5 -4 3 -19t-9 -23z" />
    <glyph glyph-name="uni0233" unicode="&#x233;" horiz-adv-x="469" 
d="M102 425q58 0 100 5q2 -4 0.5 -16.5t-4.5 -12.5q-50 0 -50 -17l2 -4l106 -270q50 133 88 227q6 14 6 32q0 15 -16 23.5t-42 8.5q-4 0 -4 12.5t4 16.5q38 -5 90 -5q34 0 84 5q3 -4 2 -16.5t-4 -12.5q-13 0 -34.5 -8t-29.5 -26q-107 -255 -150 -361q-6 -14 -21.5 -56.5
t-28.5 -70t-29 -51.5q-38 -56 -87 -56q-44 0 -44 43q0 15 12 29q40 0 63 10t51 47q11 14 28 52t20 49q-94 241 -158 379q-10 20 -54 20q-2 0 -2 13.5t2 15.5q48 -5 100 -5zM377 510h-224q-7 3 -4 20t10 22h224q5 -4 3 -19t-9 -23z" />
    <glyph glyph-name="uni0237" unicode="&#x237;" horiz-adv-x="239" 
d="M92 45v257q0 40 -5 52q-7 18 -65 18q-2 2 -2.5 12t2.5 14q85 12 143 42q4 0 7.5 -6t3.5 -10q-7 -49 -7 -66v-34v-256q0 -68 -17 -123t-45 -89t-55 -54.5t-56 -32.5q-9 6 -13 15q-2 5 0 7q35 25 55 47.5t37 75.5t17 131z" />
    <glyph glyph-name="uni02BB" unicode="&#x2bb;" horiz-adv-x="170" 
d="M131 531q0 -22 -19 -38.5t-60 -16.5q-9 7 -15.5 23.5t-6.5 29.5q0 45 27 78t55 48q2 2 8 2q20 0 20 -7l-23 -22q-23 -23 -23 -37q0 -13 18.5 -29t18.5 -31z" />
    <glyph glyph-name="afii57929" unicode="&#x2bc;" horiz-adv-x="149" 
d="M83 674q10 0 22 -6q14 -23 14 -56q0 -74 -70 -151q-5 0 -12 3.5t-7 7.5q31 40 31 81q0 25 -14 44.5t-14 34.5t14 28.5t36 13.5z" />
    <glyph glyph-name="uni02BE" unicode="&#x2be;" horiz-adv-x="195" 
d="M34 472q34 0 57 28.5t23 67.5q0 43 -22 69.5t-62 26.5q-8 16 3 34q55 0 93.5 -38t38.5 -91t-39.5 -92t-94.5 -39q-4 13 3 34z" />
    <glyph glyph-name="uni02BF" unicode="&#x2bf;" horiz-adv-x="195" 
d="M161 472q7 -21 3 -34q-55 0 -94.5 39t-39.5 92t38.5 91t93.5 38q11 -18 3 -34q-40 0 -62 -26.5t-22 -69.5q0 -39 23 -67.5t57 -28.5z" />
    <glyph glyph-name="uni02C0" unicode="&#x2c0;" horiz-adv-x="207" 
d="M123 633q26 0 40 -14t14 -37t-15.5 -40t-35.5 -26q-14 -6 -19 -11t-5 -14q0 -11 8 -19q0 -4 -6 -9t-10 -5q-34 11 -34 33q0 11 10 21.5t15.5 13t19.5 9.5q31 14 31 37q0 13 -7.5 22.5t-20.5 9.5q-32 0 -32 -36q0 -20 -30 -20q-16 0 -16 9q0 26 30.5 51t62.5 25z" />
    <glyph glyph-name="circumflex" unicode="&#x2c6;" horiz-adv-x="310" 
d="M155 671q6 0 11 -9q29 -47 94 -132q0 -5 -3.5 -9t-7.5 -4l-94 76q-59 -48 -94 -76q-4 0 -7.5 4t-3.5 9q65 85 94 132q5 9 11 9z" />
    <glyph glyph-name="caron" unicode="&#x2c7;" horiz-adv-x="310" 
d="M155 492q-6 0 -11 9q-29 47 -94 132q0 5 3.5 9t7.5 4l94 -83q55 49 94 83q4 0 7.5 -4t3.5 -9q-65 -85 -94 -132q-5 -9 -11 -9z" />
    <glyph glyph-name="breve" unicode="&#x2d8;" horiz-adv-x="318" 
d="M159 566q31 0 55 20t32 52q0 3 4 3q5 0 11.5 -4.5t6.5 -8.5v-3q-1 -4 -1 -5q-7 -41 -37.5 -70.5t-70.5 -29.5t-70.5 29t-37.5 72q0 1 -1 4v3q0 4 6.5 8.5t11.5 4.5q4 0 4 -3q8 -32 32 -52t55 -20z" />
    <glyph glyph-name="dotaccent" unicode="&#x2d9;" horiz-adv-x="200" 
d="M50 545q0 21 14.5 35.5t35.5 14.5t35.5 -14.5t14.5 -35.5t-14.5 -35.5t-35.5 -14.5t-35.5 14.5t-14.5 35.5z" />
    <glyph glyph-name="ring" unicode="&#x2da;" horiz-adv-x="275" 
d="M83 592q0 -23 16 -39.5t39 -16.5q22 0 38 16.5t16 39.5t-15.5 39t-38.5 16t-39 -16t-16 -39zM50 592q0 37 26 63t62 26t61.5 -26t25.5 -63t-25.5 -63.5t-61.5 -26.5t-62 26.5t-26 63.5z" />
    </font>
</defs>
</svg>
